M48
INCH,TZ
T1C0.016
T2C0.020
T3C0.025
T4C0.043
T5C0.047
T6C0.071
T7C0.102
T8C0.110
%
G90
G05
T1
X47849Y-32346
X48351Y-41175
X49099Y-32956
X49473Y-40811
X49591Y-36303
X49611Y-37100
X50221Y-37080
X50536Y-37248
X51048Y-41155
X51855Y-40368
X52259Y-40378
X52702Y-33390
X52761Y-37041
X52810Y-32602
X53450Y-35880
X53568Y-32189
X53942Y-35860
X54345Y-36342
X56028Y-32563
X58912Y-32602
X59926Y-32740
T2
X46442Y-33153
X47426Y-40673
X48438Y-33149
X52032Y-42405
X52839Y-42405
X54438Y-32149
X54438Y-33153
X55438Y-32153
X56438Y-33153
X58438Y-33149
X59438Y-33153
X60442Y-33153
X65438Y-33173
X65442Y-32153
T3
X48361Y-42582
X48459Y-38193
X48637Y-39699
X48646Y-40191
X48666Y-40624
X50310Y-42553
X51117Y-31706
X54798Y-37051
X55556Y-39915
X55950Y-37179
X58961Y-39403
X60015Y-36323
X61225Y-35899
X64070Y-36805
T4
X45044Y-35811
X45044Y-36795
X45044Y-37582
X45044Y-38567
T5
X44178Y-36303
X44178Y-38075
T6
X59611Y-38488
X61501Y-38488
X63272Y-34827
X63272Y-39079
X65044Y-38488
X66894Y-38488
T7
X44178Y-34905
X44178Y-39512
T8
X44453Y-32779
X44453Y-41638
X67288Y-32779
X67288Y-41638
T0
M30
