G04 #@! TF.FileFunction,Copper,L2,Bot,Signal*
%FSLAX46Y46*%
G04 Gerber Fmt 4.6, Leading zero omitted, Abs format (unit mm)*
G04 Created by KiCad (PCBNEW 4.0.7) date 03/22/18 22:29:43*
%MOMM*%
%LPD*%
G01*
G04 APERTURE LIST*
%ADD10C,0.100000*%
%ADD11R,2.200000X0.575000*%
%ADD12R,2.000000X0.260000*%
%ADD13R,2.000000X0.410000*%
%ADD14R,2.900000X0.575000*%
%ADD15R,0.350000X2.500000*%
%ADD16R,1.250000X1.000000*%
%ADD17R,0.700000X1.300000*%
%ADD18C,3.000000*%
%ADD19R,1.300000X0.700000*%
%ADD20R,1.000000X1.250000*%
%ADD21C,1.850000*%
%ADD22R,1.700000X0.650000*%
%ADD23C,0.889000*%
%ADD24C,0.700000*%
%ADD25C,0.254000*%
%ADD26C,0.200000*%
%ADD27C,0.600000*%
%ADD28C,0.250000*%
%ADD29C,0.150000*%
%ADD30C,0.500000*%
G04 APERTURE END LIST*
D10*
D11*
X121831880Y-86829420D03*
D12*
X122681880Y-85529420D03*
X122681880Y-85029420D03*
X122681880Y-84529420D03*
X122681880Y-84029420D03*
X122681880Y-83529420D03*
X122681880Y-83029420D03*
X122681880Y-82529420D03*
X122681880Y-82029420D03*
X122681880Y-81529420D03*
X122681880Y-81029420D03*
D13*
X122681880Y-80454420D03*
X122681880Y-86129420D03*
D14*
X122181880Y-79779420D03*
D15*
X143281880Y-85829420D03*
X144031880Y-85879420D03*
X144731880Y-85879420D03*
X145431880Y-85879420D03*
X146131880Y-85879420D03*
X146831880Y-85879420D03*
X147531880Y-85879420D03*
X148231880Y-85879420D03*
X148931880Y-85879420D03*
X149631880Y-85879420D03*
X150331880Y-85879420D03*
X151031880Y-85879420D03*
X151731880Y-85879420D03*
X152431880Y-85879420D03*
X153131880Y-85879420D03*
X153831880Y-85879420D03*
X154531880Y-85879420D03*
X155231880Y-85879420D03*
X155931880Y-85879420D03*
X156631880Y-85879420D03*
X157331880Y-85879420D03*
X158031880Y-85879420D03*
X158731880Y-85879420D03*
X159431880Y-85879420D03*
X160131880Y-85879420D03*
X160831880Y-85879420D03*
X161531880Y-85879420D03*
X162231880Y-85879420D03*
X162931880Y-85879420D03*
X163681880Y-85779420D03*
D16*
X165781880Y-88529420D03*
X165781880Y-86529420D03*
X165756880Y-82879420D03*
X165756880Y-84879420D03*
D17*
X141531880Y-81429420D03*
X139631880Y-81429420D03*
D18*
X188781880Y-72529420D03*
X188781880Y-95029420D03*
X130781880Y-72529420D03*
X130781880Y-95029420D03*
D19*
X177781880Y-71579420D03*
X177781880Y-73479420D03*
X174781880Y-71579420D03*
X174781880Y-73479420D03*
X180781880Y-71579420D03*
X180781880Y-73479420D03*
D17*
X138051880Y-71079420D03*
X139951880Y-71079420D03*
D20*
X157931880Y-88479420D03*
X159931880Y-88479420D03*
X139381880Y-79379420D03*
X141381880Y-79379420D03*
X139381880Y-83429420D03*
X141381880Y-83429420D03*
X165731880Y-80679420D03*
X163731880Y-80679420D03*
D21*
X138331880Y-92579420D03*
X158681880Y-70939420D03*
X156141880Y-70929420D03*
X161221880Y-73479420D03*
X156141880Y-73479420D03*
X140901880Y-73469420D03*
X135831880Y-73479420D03*
X184081880Y-73529420D03*
X166301880Y-73469420D03*
X171391880Y-73479420D03*
X168841880Y-73479420D03*
D22*
X144451880Y-73814420D03*
X144451880Y-72544420D03*
X144451880Y-71274420D03*
X144451880Y-70004420D03*
X151751880Y-70004420D03*
X151751880Y-71274420D03*
X151751880Y-72544420D03*
X151751880Y-73814420D03*
D21*
X152081880Y-96979420D03*
X150021880Y-96979420D03*
X185281880Y-95029420D03*
X134281880Y-95029420D03*
D23*
X129086880Y-86859420D03*
X129736880Y-79584420D03*
X167581880Y-79279420D03*
X169231880Y-83829420D03*
X180381880Y-83829420D03*
X178081880Y-83979420D03*
X140956880Y-86279420D03*
X157056880Y-83379420D03*
D24*
X148791880Y-73819420D03*
X139041880Y-73179420D03*
X153601880Y-70769420D03*
X154881880Y-80354420D03*
X160181880Y-71979420D03*
X167506880Y-72079420D03*
X151881880Y-83354420D03*
X147841880Y-72539420D03*
X155906880Y-81579420D03*
X170081880Y-72429420D03*
X143831880Y-81479420D03*
X146231880Y-83879420D03*
X143881880Y-83504420D03*
X145431880Y-83454420D03*
X132036880Y-81828920D03*
X130611880Y-82764920D03*
X132036880Y-80739920D03*
X130611880Y-83853920D03*
D23*
X171081880Y-90379420D03*
X172891880Y-72369420D03*
X178861880Y-74929420D03*
X173381880Y-76129420D03*
D24*
X153631880Y-80404420D03*
X142061880Y-71189420D03*
X142741880Y-73289420D03*
D23*
X125436880Y-82034420D03*
D25*
X122681880Y-80454420D02*
X128866880Y-80454420D01*
X128866880Y-80454420D02*
X129736880Y-79584420D01*
X165731880Y-80679420D02*
X166181880Y-80679420D01*
X166181880Y-80679420D02*
X167581880Y-79279420D01*
X140956880Y-86279420D02*
X142081880Y-86279420D01*
X141881880Y-86279420D02*
X142081880Y-86279420D01*
X142081880Y-86279420D02*
X143281880Y-86279420D01*
X139381880Y-83429420D02*
X139381880Y-84704420D01*
X139381880Y-84704420D02*
X140956880Y-86279420D01*
X144451880Y-70004420D02*
X141696880Y-70004420D01*
X135831880Y-71159420D02*
X135831880Y-73479420D01*
X137271880Y-69719420D02*
X135831880Y-71159420D01*
X141411880Y-69719420D02*
X137271880Y-69719420D01*
X141696880Y-70004420D02*
X141411880Y-69719420D01*
D26*
X166181880Y-80679420D02*
X167491880Y-79369420D01*
D25*
X139381880Y-79379420D02*
X139381880Y-81179420D01*
X139381880Y-81179420D02*
X139631880Y-81429420D01*
X139381880Y-83429420D02*
X139381880Y-81679420D01*
X139381880Y-81679420D02*
X139631880Y-81429420D01*
X156631880Y-85879420D02*
X156631880Y-83804420D01*
X156631880Y-83804420D02*
X157056880Y-83379420D01*
X143281880Y-86279420D02*
X143631880Y-86279420D01*
X143631880Y-86279420D02*
X144031880Y-85879420D01*
X158731880Y-85879420D02*
X158731880Y-87954420D01*
X158731880Y-87954420D02*
X158206880Y-88479420D01*
X158206880Y-88479420D02*
X157931880Y-88479420D01*
X156631880Y-85879420D02*
X155931880Y-85879420D01*
X157331880Y-85879420D02*
X156631880Y-85879420D01*
X157931880Y-88479420D02*
X157306880Y-88479420D01*
X157306880Y-88479420D02*
X156631880Y-87804420D01*
X156631880Y-87804420D02*
X156631880Y-85879420D01*
X165781880Y-86529420D02*
X165406880Y-86529420D01*
X165406880Y-86529420D02*
X164131880Y-87804420D01*
X164131880Y-87804420D02*
X163431880Y-87804420D01*
X163431880Y-87804420D02*
X162931880Y-87304420D01*
X162931880Y-87304420D02*
X162931880Y-85879420D01*
X166281880Y-86529420D02*
X166056880Y-86529420D01*
X165756880Y-82879420D02*
X162306880Y-82879420D01*
X162306880Y-82879420D02*
X160831880Y-84354420D01*
X160831880Y-84354420D02*
X160831880Y-85879420D01*
X138051880Y-73669420D02*
X138051880Y-85559420D01*
X138051880Y-85559420D02*
X142541880Y-90049420D01*
X142541880Y-90049420D02*
X159931880Y-90049420D01*
X138051880Y-73669420D02*
X138551880Y-73669420D01*
X148796880Y-73814420D02*
X151751880Y-73814420D01*
X148791880Y-73819420D02*
X148796880Y-73814420D01*
X138551880Y-73669420D02*
X139041880Y-73179420D01*
X138051880Y-71079420D02*
X138051880Y-73669420D01*
D27*
X184081880Y-73529420D02*
X184081880Y-90029420D01*
X159931880Y-90159420D02*
X159931880Y-90049420D01*
X159931880Y-90049420D02*
X159931880Y-88479420D01*
X162181880Y-92409420D02*
X159931880Y-90159420D01*
X181701880Y-92409420D02*
X162181880Y-92409420D01*
X184081880Y-90029420D02*
X181701880Y-92409420D01*
D26*
X177781880Y-71579420D02*
X180781880Y-71579420D01*
X177781880Y-71579420D02*
X174781880Y-71579420D01*
X184081880Y-73529420D02*
X184081880Y-72679420D01*
X184081880Y-72679420D02*
X182981880Y-71579420D01*
X182981880Y-71579420D02*
X180781880Y-71579420D01*
D25*
X160131880Y-84329420D02*
X160131880Y-85879420D01*
X159706880Y-83904420D02*
X160131880Y-84329420D01*
X158681880Y-83904420D02*
X159706880Y-83904420D01*
X158031880Y-84554420D02*
X158681880Y-83904420D01*
X158031880Y-85879420D02*
X158031880Y-84554420D01*
X163731880Y-80679420D02*
X163206880Y-80679420D01*
X163206880Y-80679420D02*
X160131880Y-83754420D01*
X160131880Y-83754420D02*
X160131880Y-85879420D01*
X160131880Y-85879420D02*
X160131880Y-88279420D01*
X160131880Y-88279420D02*
X159931880Y-88479420D01*
D26*
X161221880Y-73479420D02*
X158791880Y-73479420D01*
X153826880Y-70004420D02*
X151751880Y-70004420D01*
X154371880Y-70549420D02*
X153826880Y-70004420D01*
X154371880Y-71349420D02*
X154371880Y-70549420D01*
X155201880Y-72179420D02*
X154371880Y-71349420D01*
X157491880Y-72179420D02*
X155201880Y-72179420D01*
X158791880Y-73479420D02*
X157491880Y-72179420D01*
D25*
X161221880Y-73479420D02*
X164381880Y-73479420D01*
X164381880Y-73479420D02*
X165906880Y-75004420D01*
X165906880Y-75004420D02*
X165906880Y-77829420D01*
X165906880Y-77829420D02*
X164406880Y-79329420D01*
X164406880Y-79329420D02*
X152331880Y-79329420D01*
X152331880Y-79329420D02*
X151031880Y-80629420D01*
X151031880Y-80629420D02*
X151031880Y-85879420D01*
D26*
X151751880Y-71274420D02*
X153096880Y-71274420D01*
X153096880Y-71274420D02*
X153601880Y-70769420D01*
D25*
X154881880Y-80354420D02*
X154531880Y-80704420D01*
X154531880Y-80704420D02*
X154531880Y-85879420D01*
D26*
X156141880Y-73479420D02*
X155181880Y-73479420D01*
X154246880Y-72544420D02*
X151751880Y-72544420D01*
X155181880Y-73479420D02*
X154246880Y-72544420D01*
D25*
X160181880Y-71979420D02*
X161656880Y-70504420D01*
X161656880Y-70504420D02*
X165931880Y-70504420D01*
X165931880Y-70504420D02*
X167506880Y-72079420D01*
X151881880Y-83354420D02*
X151731880Y-83504420D01*
X151731880Y-83504420D02*
X151731880Y-85879420D01*
D28*
X144451880Y-72544420D02*
X147836880Y-72544420D01*
X147836880Y-72544420D02*
X147841880Y-72539420D01*
D25*
X155906880Y-81579420D02*
X155231880Y-82254420D01*
X155231880Y-82254420D02*
X155231880Y-85879420D01*
X156141880Y-70929420D02*
X156431880Y-70929420D01*
X156431880Y-70929420D02*
X157831880Y-69529420D01*
X157831880Y-69529420D02*
X167631880Y-69529420D01*
X167631880Y-69529420D02*
X170081880Y-71979420D01*
X170081880Y-71979420D02*
X170081880Y-72429420D01*
X165781880Y-88529420D02*
X162931880Y-88529420D01*
X162931880Y-88529420D02*
X162231880Y-87829420D01*
X162231880Y-87829420D02*
X162231880Y-85879420D01*
X166281880Y-88529420D02*
X165456880Y-88529420D01*
X165756880Y-84879420D02*
X165056880Y-84879420D01*
X165056880Y-84879420D02*
X164106880Y-83929420D01*
X164106880Y-83929420D02*
X162106880Y-83929420D01*
X162106880Y-83929420D02*
X161531880Y-84504420D01*
X161531880Y-84504420D02*
X161531880Y-85879420D01*
X141531880Y-81429420D02*
X143781880Y-81429420D01*
X143781880Y-81429420D02*
X143831880Y-81479420D01*
X146231880Y-83879420D02*
X146131880Y-83979420D01*
X146131880Y-83979420D02*
X146131880Y-85879420D01*
X141381880Y-83429420D02*
X143806880Y-83429420D01*
X143806880Y-83429420D02*
X143881880Y-83504420D01*
X145431880Y-83454420D02*
X145431880Y-85879420D01*
X141381880Y-79379420D02*
X143306880Y-79379420D01*
X143306880Y-79379420D02*
X144731880Y-80804420D01*
X144731880Y-80804420D02*
X144731880Y-85879420D01*
D29*
X151226879Y-96124419D02*
X152081880Y-96979420D01*
X149059366Y-91684420D02*
X151226879Y-93851933D01*
X151226879Y-93851933D02*
X151226879Y-96124419D01*
X141059366Y-91684420D02*
X149059366Y-91684420D01*
X130611880Y-82764920D02*
X130981381Y-83134421D01*
X130981381Y-83134421D02*
X132509367Y-83134421D01*
X132509367Y-83134421D02*
X141059366Y-91684420D01*
X131667379Y-81459419D02*
X132036880Y-81828920D01*
X127964366Y-83454420D02*
X129959367Y-81459419D01*
X129959367Y-81459419D02*
X131667379Y-81459419D01*
X122681880Y-83529420D02*
X124181880Y-83529420D01*
X124181880Y-83529420D02*
X124256880Y-83454420D01*
X124256880Y-83454420D02*
X127964366Y-83454420D01*
X130611880Y-83853920D02*
X130981381Y-83484419D01*
X141809401Y-92189947D02*
X141829719Y-92248015D01*
X142463814Y-92189947D02*
X142496545Y-92137857D01*
X142333170Y-92523938D02*
X142376670Y-92480438D01*
X130981381Y-83484419D02*
X132364393Y-83484419D01*
X141776670Y-92137857D02*
X141809401Y-92189947D01*
X142376670Y-92480438D02*
X142409401Y-92428348D01*
X141623012Y-92041308D02*
X141681080Y-92061626D01*
X141829719Y-92248015D02*
X141843496Y-92370280D01*
X132364393Y-83484419D02*
X140914394Y-92034420D01*
X140914394Y-92034420D02*
X141561880Y-92034420D01*
X142111336Y-92583876D02*
X142161880Y-92583876D01*
X142540045Y-92094357D02*
X142592135Y-92061626D01*
X141896545Y-92480438D02*
X141940045Y-92523938D01*
X150876881Y-96124419D02*
X150021880Y-96979420D01*
X141561880Y-92034420D02*
X141623012Y-92041308D01*
X142592135Y-92061626D02*
X142650203Y-92041308D01*
X141681080Y-92061626D02*
X141733170Y-92094357D01*
X141733170Y-92094357D02*
X141776670Y-92137857D01*
X148914394Y-92034420D02*
X150876881Y-93996907D01*
X141992135Y-92556669D02*
X142050203Y-92576987D01*
X141843496Y-92370280D02*
X141863814Y-92428348D01*
X142711336Y-92034420D02*
X148914394Y-92034420D01*
X141863814Y-92428348D02*
X141896545Y-92480438D01*
X141940045Y-92523938D02*
X141992135Y-92556669D01*
X142650203Y-92041308D02*
X142711336Y-92034420D01*
X142050203Y-92576987D02*
X142111336Y-92583876D01*
X142161880Y-92583876D02*
X142223012Y-92576987D01*
X142223012Y-92576987D02*
X142281080Y-92556669D01*
X142281080Y-92556669D02*
X142333170Y-92523938D01*
X142409401Y-92428348D02*
X142429719Y-92370280D01*
X142429719Y-92370280D02*
X142443496Y-92248015D01*
X142443496Y-92248015D02*
X142463814Y-92189947D01*
X142496545Y-92137857D02*
X142540045Y-92094357D01*
X150876881Y-93996907D02*
X150876881Y-96124419D01*
X127819394Y-83104420D02*
X129814393Y-81109421D01*
X129814393Y-81109421D02*
X131667379Y-81109421D01*
X131667379Y-81109421D02*
X132036880Y-80739920D01*
X122681880Y-83029420D02*
X124181880Y-83029420D01*
X124181880Y-83029420D02*
X124256880Y-83104420D01*
X124256880Y-83104420D02*
X127819394Y-83104420D01*
D25*
X166301880Y-73469420D02*
X166301880Y-73599420D01*
X166301880Y-73599420D02*
X172781880Y-80079420D01*
X172781880Y-88679420D02*
X171081880Y-90379420D01*
X172781880Y-80079420D02*
X172781880Y-88679420D01*
X166301880Y-73469420D02*
X166301880Y-73729420D01*
X174001880Y-73479420D02*
X174781880Y-73479420D01*
X172891880Y-72369420D02*
X174001880Y-73479420D01*
X166301880Y-73469420D02*
X166421880Y-73469420D01*
X178901880Y-74969420D02*
X180781880Y-74969420D01*
X178861880Y-74929420D02*
X178901880Y-74969420D01*
X180781880Y-73479420D02*
X180781880Y-74969420D01*
D26*
X180831880Y-73529420D02*
X180781880Y-73479420D01*
D25*
X173381880Y-76129420D02*
X173381880Y-75529420D01*
X168841880Y-73479420D02*
X168841880Y-73579420D01*
X168841880Y-73579420D02*
X170791880Y-75529420D01*
X170791880Y-75529420D02*
X173381880Y-75529420D01*
X173381880Y-75529420D02*
X175831880Y-75529420D01*
X177781880Y-74609420D02*
X176861880Y-75529420D01*
X176861880Y-75529420D02*
X175831880Y-75529420D01*
X177781880Y-73479420D02*
X177781880Y-74609420D01*
X168841880Y-73479420D02*
X169131880Y-73479420D01*
D28*
X144451880Y-71274420D02*
X143096880Y-71274420D01*
X143096880Y-71274420D02*
X140901880Y-73469420D01*
D25*
X153831880Y-80604420D02*
X153831880Y-85879420D01*
X153631880Y-80404420D02*
X153831880Y-80604420D01*
X144451880Y-73814420D02*
X143266880Y-73814420D01*
X141951880Y-71079420D02*
X139951880Y-71079420D01*
X142061880Y-71189420D02*
X141951880Y-71079420D01*
X143266880Y-73814420D02*
X142741880Y-73289420D01*
D26*
X122681880Y-82029420D02*
X125431880Y-82029420D01*
X125431880Y-82029420D02*
X125436880Y-82034420D01*
D25*
X122681880Y-84529420D02*
X128406880Y-84529420D01*
X137036880Y-91284420D02*
X138331880Y-92579420D01*
X135161880Y-91284420D02*
X137036880Y-91284420D01*
X128406880Y-84529420D02*
X135161880Y-91284420D01*
D30*
G36*
X190238031Y-69764914D02*
X190938408Y-70232892D01*
X191406386Y-70933269D01*
X191531880Y-71564172D01*
X191531880Y-95954668D01*
X191406386Y-96585571D01*
X190938408Y-97285948D01*
X190238031Y-97753926D01*
X189330625Y-97934420D01*
X153496089Y-97934420D01*
X153501048Y-97929470D01*
X153756588Y-97314060D01*
X153757170Y-96647704D01*
X153502704Y-96031848D01*
X153031930Y-95560252D01*
X152552405Y-95361136D01*
X183606590Y-95361136D01*
X183861056Y-95976992D01*
X184331830Y-96448588D01*
X184947240Y-96704128D01*
X185613596Y-96704710D01*
X186045682Y-96526176D01*
X187290781Y-96526176D01*
X187431896Y-96894317D01*
X188248323Y-97268976D01*
X189145979Y-97302683D01*
X189988204Y-96990306D01*
X190131864Y-96894317D01*
X190272979Y-96526176D01*
X188781880Y-95035077D01*
X187290781Y-96526176D01*
X186045682Y-96526176D01*
X186229452Y-96450244D01*
X186701048Y-95979470D01*
X186714198Y-95947802D01*
X186820994Y-96235744D01*
X186916983Y-96379404D01*
X187285124Y-96520519D01*
X188776223Y-95029420D01*
X188787537Y-95029420D01*
X190278636Y-96520519D01*
X190646777Y-96379404D01*
X191021436Y-95562977D01*
X191055143Y-94665321D01*
X190742766Y-93823096D01*
X190646777Y-93679436D01*
X190278636Y-93538321D01*
X188787537Y-95029420D01*
X188776223Y-95029420D01*
X187285124Y-93538321D01*
X186916983Y-93679436D01*
X186716734Y-94115803D01*
X186702704Y-94081848D01*
X186231930Y-93610252D01*
X186045077Y-93532664D01*
X187290781Y-93532664D01*
X188781880Y-95023763D01*
X190272979Y-93532664D01*
X190131864Y-93164523D01*
X189315437Y-92789864D01*
X188417781Y-92756157D01*
X187575556Y-93068534D01*
X187431896Y-93164523D01*
X187290781Y-93532664D01*
X186045077Y-93532664D01*
X185616520Y-93354712D01*
X184950164Y-93354130D01*
X184334308Y-93608596D01*
X183862712Y-94079370D01*
X183607172Y-94694780D01*
X183606590Y-95361136D01*
X152552405Y-95361136D01*
X152416520Y-95304712D01*
X152051879Y-95304394D01*
X152051879Y-93851933D01*
X151989080Y-93536219D01*
X151810242Y-93268570D01*
X149642729Y-91101057D01*
X149381367Y-90926420D01*
X159213956Y-90926420D01*
X161439418Y-93151882D01*
X161780062Y-93379494D01*
X162181880Y-93459420D01*
X181701880Y-93459420D01*
X182103698Y-93379494D01*
X182444342Y-93151882D01*
X184824342Y-90771882D01*
X185051954Y-90431238D01*
X185131880Y-90029420D01*
X185131880Y-74847995D01*
X185501048Y-74479470D01*
X185689271Y-74026176D01*
X187290781Y-74026176D01*
X187431896Y-74394317D01*
X188248323Y-74768976D01*
X189145979Y-74802683D01*
X189988204Y-74490306D01*
X190131864Y-74394317D01*
X190272979Y-74026176D01*
X188781880Y-72535077D01*
X187290781Y-74026176D01*
X185689271Y-74026176D01*
X185756588Y-73864060D01*
X185757170Y-73197704D01*
X185631484Y-72893519D01*
X186508617Y-72893519D01*
X186820994Y-73735744D01*
X186916983Y-73879404D01*
X187285124Y-74020519D01*
X188776223Y-72529420D01*
X188787537Y-72529420D01*
X190278636Y-74020519D01*
X190646777Y-73879404D01*
X191021436Y-73062977D01*
X191055143Y-72165321D01*
X190742766Y-71323096D01*
X190646777Y-71179436D01*
X190278636Y-71038321D01*
X188787537Y-72529420D01*
X188776223Y-72529420D01*
X187285124Y-71038321D01*
X186916983Y-71179436D01*
X186542324Y-71995863D01*
X186508617Y-72893519D01*
X185631484Y-72893519D01*
X185502704Y-72581848D01*
X185031930Y-72110252D01*
X184489599Y-71885057D01*
X183637206Y-71032664D01*
X187290781Y-71032664D01*
X188781880Y-72523763D01*
X190272979Y-71032664D01*
X190131864Y-70664523D01*
X189315437Y-70289864D01*
X188417781Y-70256157D01*
X187575556Y-70568534D01*
X187431896Y-70664523D01*
X187290781Y-71032664D01*
X183637206Y-71032664D01*
X183582921Y-70978379D01*
X183307161Y-70794122D01*
X182981880Y-70729420D01*
X182001380Y-70729420D01*
X181980018Y-70696222D01*
X181729388Y-70524974D01*
X181431880Y-70464727D01*
X180131880Y-70464727D01*
X179853947Y-70517024D01*
X179598682Y-70681282D01*
X179565791Y-70729420D01*
X179001380Y-70729420D01*
X178980018Y-70696222D01*
X178729388Y-70524974D01*
X178431880Y-70464727D01*
X177131880Y-70464727D01*
X176853947Y-70517024D01*
X176598682Y-70681282D01*
X176565791Y-70729420D01*
X176001380Y-70729420D01*
X175980018Y-70696222D01*
X175729388Y-70524974D01*
X175431880Y-70464727D01*
X174131880Y-70464727D01*
X173853947Y-70517024D01*
X173598682Y-70681282D01*
X173427434Y-70931912D01*
X173367187Y-71229420D01*
X173367187Y-71273398D01*
X173130523Y-71175127D01*
X172655322Y-71174713D01*
X172216134Y-71356181D01*
X171879822Y-71691906D01*
X171817324Y-71842417D01*
X171726520Y-71804712D01*
X171060164Y-71804130D01*
X171020490Y-71820523D01*
X171014958Y-71807134D01*
X170902127Y-71694106D01*
X170892122Y-71643806D01*
X170794316Y-71497429D01*
X170702013Y-71359287D01*
X170702010Y-71359285D01*
X168927146Y-69584420D01*
X189330625Y-69584420D01*
X190238031Y-69764914D01*
X190238031Y-69764914D01*
G37*
X190238031Y-69764914D02*
X190938408Y-70232892D01*
X191406386Y-70933269D01*
X191531880Y-71564172D01*
X191531880Y-95954668D01*
X191406386Y-96585571D01*
X190938408Y-97285948D01*
X190238031Y-97753926D01*
X189330625Y-97934420D01*
X153496089Y-97934420D01*
X153501048Y-97929470D01*
X153756588Y-97314060D01*
X153757170Y-96647704D01*
X153502704Y-96031848D01*
X153031930Y-95560252D01*
X152552405Y-95361136D01*
X183606590Y-95361136D01*
X183861056Y-95976992D01*
X184331830Y-96448588D01*
X184947240Y-96704128D01*
X185613596Y-96704710D01*
X186045682Y-96526176D01*
X187290781Y-96526176D01*
X187431896Y-96894317D01*
X188248323Y-97268976D01*
X189145979Y-97302683D01*
X189988204Y-96990306D01*
X190131864Y-96894317D01*
X190272979Y-96526176D01*
X188781880Y-95035077D01*
X187290781Y-96526176D01*
X186045682Y-96526176D01*
X186229452Y-96450244D01*
X186701048Y-95979470D01*
X186714198Y-95947802D01*
X186820994Y-96235744D01*
X186916983Y-96379404D01*
X187285124Y-96520519D01*
X188776223Y-95029420D01*
X188787537Y-95029420D01*
X190278636Y-96520519D01*
X190646777Y-96379404D01*
X191021436Y-95562977D01*
X191055143Y-94665321D01*
X190742766Y-93823096D01*
X190646777Y-93679436D01*
X190278636Y-93538321D01*
X188787537Y-95029420D01*
X188776223Y-95029420D01*
X187285124Y-93538321D01*
X186916983Y-93679436D01*
X186716734Y-94115803D01*
X186702704Y-94081848D01*
X186231930Y-93610252D01*
X186045077Y-93532664D01*
X187290781Y-93532664D01*
X188781880Y-95023763D01*
X190272979Y-93532664D01*
X190131864Y-93164523D01*
X189315437Y-92789864D01*
X188417781Y-92756157D01*
X187575556Y-93068534D01*
X187431896Y-93164523D01*
X187290781Y-93532664D01*
X186045077Y-93532664D01*
X185616520Y-93354712D01*
X184950164Y-93354130D01*
X184334308Y-93608596D01*
X183862712Y-94079370D01*
X183607172Y-94694780D01*
X183606590Y-95361136D01*
X152552405Y-95361136D01*
X152416520Y-95304712D01*
X152051879Y-95304394D01*
X152051879Y-93851933D01*
X151989080Y-93536219D01*
X151810242Y-93268570D01*
X149642729Y-91101057D01*
X149381367Y-90926420D01*
X159213956Y-90926420D01*
X161439418Y-93151882D01*
X161780062Y-93379494D01*
X162181880Y-93459420D01*
X181701880Y-93459420D01*
X182103698Y-93379494D01*
X182444342Y-93151882D01*
X184824342Y-90771882D01*
X185051954Y-90431238D01*
X185131880Y-90029420D01*
X185131880Y-74847995D01*
X185501048Y-74479470D01*
X185689271Y-74026176D01*
X187290781Y-74026176D01*
X187431896Y-74394317D01*
X188248323Y-74768976D01*
X189145979Y-74802683D01*
X189988204Y-74490306D01*
X190131864Y-74394317D01*
X190272979Y-74026176D01*
X188781880Y-72535077D01*
X187290781Y-74026176D01*
X185689271Y-74026176D01*
X185756588Y-73864060D01*
X185757170Y-73197704D01*
X185631484Y-72893519D01*
X186508617Y-72893519D01*
X186820994Y-73735744D01*
X186916983Y-73879404D01*
X187285124Y-74020519D01*
X188776223Y-72529420D01*
X188787537Y-72529420D01*
X190278636Y-74020519D01*
X190646777Y-73879404D01*
X191021436Y-73062977D01*
X191055143Y-72165321D01*
X190742766Y-71323096D01*
X190646777Y-71179436D01*
X190278636Y-71038321D01*
X188787537Y-72529420D01*
X188776223Y-72529420D01*
X187285124Y-71038321D01*
X186916983Y-71179436D01*
X186542324Y-71995863D01*
X186508617Y-72893519D01*
X185631484Y-72893519D01*
X185502704Y-72581848D01*
X185031930Y-72110252D01*
X184489599Y-71885057D01*
X183637206Y-71032664D01*
X187290781Y-71032664D01*
X188781880Y-72523763D01*
X190272979Y-71032664D01*
X190131864Y-70664523D01*
X189315437Y-70289864D01*
X188417781Y-70256157D01*
X187575556Y-70568534D01*
X187431896Y-70664523D01*
X187290781Y-71032664D01*
X183637206Y-71032664D01*
X183582921Y-70978379D01*
X183307161Y-70794122D01*
X182981880Y-70729420D01*
X182001380Y-70729420D01*
X181980018Y-70696222D01*
X181729388Y-70524974D01*
X181431880Y-70464727D01*
X180131880Y-70464727D01*
X179853947Y-70517024D01*
X179598682Y-70681282D01*
X179565791Y-70729420D01*
X179001380Y-70729420D01*
X178980018Y-70696222D01*
X178729388Y-70524974D01*
X178431880Y-70464727D01*
X177131880Y-70464727D01*
X176853947Y-70517024D01*
X176598682Y-70681282D01*
X176565791Y-70729420D01*
X176001380Y-70729420D01*
X175980018Y-70696222D01*
X175729388Y-70524974D01*
X175431880Y-70464727D01*
X174131880Y-70464727D01*
X173853947Y-70517024D01*
X173598682Y-70681282D01*
X173427434Y-70931912D01*
X173367187Y-71229420D01*
X173367187Y-71273398D01*
X173130523Y-71175127D01*
X172655322Y-71174713D01*
X172216134Y-71356181D01*
X171879822Y-71691906D01*
X171817324Y-71842417D01*
X171726520Y-71804712D01*
X171060164Y-71804130D01*
X171020490Y-71820523D01*
X171014958Y-71807134D01*
X170902127Y-71694106D01*
X170892122Y-71643806D01*
X170794316Y-71497429D01*
X170702013Y-71359287D01*
X170702010Y-71359285D01*
X168927146Y-69584420D01*
X189330625Y-69584420D01*
X190238031Y-69764914D01*
G36*
X134541745Y-91904550D02*
X134541747Y-91904553D01*
X134825811Y-92094357D01*
X134826267Y-92094662D01*
X135161880Y-92161421D01*
X135161885Y-92161420D01*
X136673614Y-92161420D01*
X136686454Y-92174260D01*
X136657172Y-92244780D01*
X136656590Y-92911136D01*
X136911056Y-93526992D01*
X137381830Y-93998588D01*
X137997240Y-94254128D01*
X138663596Y-94254710D01*
X139279452Y-94000244D01*
X139751048Y-93529470D01*
X140006588Y-92914060D01*
X140007130Y-92293882D01*
X140331031Y-92617783D01*
X140598680Y-92796621D01*
X140914394Y-92859420D01*
X141162270Y-92859420D01*
X141165271Y-92867281D01*
X141198002Y-92919371D01*
X141240604Y-92964432D01*
X141248652Y-92978076D01*
X141260928Y-92987315D01*
X141267202Y-93001336D01*
X141278720Y-93012226D01*
X141313182Y-93063801D01*
X141356682Y-93107301D01*
X141408257Y-93141763D01*
X141419147Y-93153281D01*
X141433168Y-93159555D01*
X141442407Y-93171831D01*
X141456051Y-93179879D01*
X141501112Y-93222481D01*
X141553202Y-93255212D01*
X141611154Y-93277334D01*
X141624331Y-93286139D01*
X141639394Y-93289135D01*
X141651123Y-93299040D01*
X141666225Y-93303854D01*
X141719665Y-93335376D01*
X141777733Y-93355694D01*
X141839133Y-93364362D01*
X141853935Y-93370012D01*
X141872179Y-93369500D01*
X141957820Y-93396798D01*
X142018953Y-93403687D01*
X142065510Y-93399761D01*
X142111336Y-93408876D01*
X142161880Y-93408876D01*
X142207706Y-93399761D01*
X142254265Y-93403687D01*
X142315397Y-93396798D01*
X142401038Y-93369500D01*
X142419280Y-93370012D01*
X142434082Y-93364362D01*
X142495482Y-93355694D01*
X142553550Y-93335376D01*
X142606988Y-93303855D01*
X142622093Y-93299040D01*
X142633823Y-93289135D01*
X142648884Y-93286139D01*
X142662061Y-93277334D01*
X142720013Y-93255212D01*
X142772103Y-93222481D01*
X142817164Y-93179879D01*
X142830808Y-93171831D01*
X142840047Y-93159555D01*
X142854068Y-93153281D01*
X142864958Y-93141763D01*
X142916533Y-93107301D01*
X142960033Y-93063801D01*
X142994495Y-93012226D01*
X143006013Y-93001336D01*
X143012287Y-92987315D01*
X143024563Y-92978076D01*
X143032611Y-92964432D01*
X143075213Y-92919371D01*
X143107944Y-92867281D01*
X143110945Y-92859420D01*
X148572668Y-92859420D01*
X150051881Y-94338633D01*
X150051881Y-95304446D01*
X149690164Y-95304130D01*
X149074308Y-95558596D01*
X148602712Y-96029370D01*
X148347172Y-96644780D01*
X148346590Y-97311136D01*
X148601056Y-97926992D01*
X148608471Y-97934420D01*
X130493136Y-97934420D01*
X129585729Y-97753926D01*
X128885352Y-97285948D01*
X128417374Y-96585571D01*
X128405560Y-96526176D01*
X129290781Y-96526176D01*
X129431896Y-96894317D01*
X130248323Y-97268976D01*
X131145979Y-97302683D01*
X131988204Y-96990306D01*
X132131864Y-96894317D01*
X132272979Y-96526176D01*
X130781880Y-95035077D01*
X129290781Y-96526176D01*
X128405560Y-96526176D01*
X128236880Y-95678165D01*
X128236880Y-95393519D01*
X128508617Y-95393519D01*
X128820994Y-96235744D01*
X128916983Y-96379404D01*
X129285124Y-96520519D01*
X130776223Y-95029420D01*
X130787537Y-95029420D01*
X132278636Y-96520519D01*
X132646777Y-96379404D01*
X132847026Y-95943037D01*
X132861056Y-95976992D01*
X133331830Y-96448588D01*
X133947240Y-96704128D01*
X134613596Y-96704710D01*
X135229452Y-96450244D01*
X135701048Y-95979470D01*
X135956588Y-95364060D01*
X135957170Y-94697704D01*
X135702704Y-94081848D01*
X135231930Y-93610252D01*
X134616520Y-93354712D01*
X133950164Y-93354130D01*
X133334308Y-93608596D01*
X132862712Y-94079370D01*
X132849562Y-94111038D01*
X132742766Y-93823096D01*
X132646777Y-93679436D01*
X132278636Y-93538321D01*
X130787537Y-95029420D01*
X130776223Y-95029420D01*
X129285124Y-93538321D01*
X128916983Y-93679436D01*
X128542324Y-94495863D01*
X128508617Y-95393519D01*
X128236880Y-95393519D01*
X128236880Y-93532664D01*
X129290781Y-93532664D01*
X130781880Y-95023763D01*
X132272979Y-93532664D01*
X132131864Y-93164523D01*
X131315437Y-92789864D01*
X130417781Y-92756157D01*
X129575556Y-93068534D01*
X129431896Y-93164523D01*
X129290781Y-93532664D01*
X128236880Y-93532664D01*
X128236880Y-87859420D01*
X128174081Y-87543706D01*
X128031880Y-87330888D01*
X128031880Y-85406420D01*
X128043614Y-85406420D01*
X134541745Y-91904550D01*
X134541745Y-91904550D01*
G37*
X134541745Y-91904550D02*
X134541747Y-91904553D01*
X134825811Y-92094357D01*
X134826267Y-92094662D01*
X135161880Y-92161421D01*
X135161885Y-92161420D01*
X136673614Y-92161420D01*
X136686454Y-92174260D01*
X136657172Y-92244780D01*
X136656590Y-92911136D01*
X136911056Y-93526992D01*
X137381830Y-93998588D01*
X137997240Y-94254128D01*
X138663596Y-94254710D01*
X139279452Y-94000244D01*
X139751048Y-93529470D01*
X140006588Y-92914060D01*
X140007130Y-92293882D01*
X140331031Y-92617783D01*
X140598680Y-92796621D01*
X140914394Y-92859420D01*
X141162270Y-92859420D01*
X141165271Y-92867281D01*
X141198002Y-92919371D01*
X141240604Y-92964432D01*
X141248652Y-92978076D01*
X141260928Y-92987315D01*
X141267202Y-93001336D01*
X141278720Y-93012226D01*
X141313182Y-93063801D01*
X141356682Y-93107301D01*
X141408257Y-93141763D01*
X141419147Y-93153281D01*
X141433168Y-93159555D01*
X141442407Y-93171831D01*
X141456051Y-93179879D01*
X141501112Y-93222481D01*
X141553202Y-93255212D01*
X141611154Y-93277334D01*
X141624331Y-93286139D01*
X141639394Y-93289135D01*
X141651123Y-93299040D01*
X141666225Y-93303854D01*
X141719665Y-93335376D01*
X141777733Y-93355694D01*
X141839133Y-93364362D01*
X141853935Y-93370012D01*
X141872179Y-93369500D01*
X141957820Y-93396798D01*
X142018953Y-93403687D01*
X142065510Y-93399761D01*
X142111336Y-93408876D01*
X142161880Y-93408876D01*
X142207706Y-93399761D01*
X142254265Y-93403687D01*
X142315397Y-93396798D01*
X142401038Y-93369500D01*
X142419280Y-93370012D01*
X142434082Y-93364362D01*
X142495482Y-93355694D01*
X142553550Y-93335376D01*
X142606988Y-93303855D01*
X142622093Y-93299040D01*
X142633823Y-93289135D01*
X142648884Y-93286139D01*
X142662061Y-93277334D01*
X142720013Y-93255212D01*
X142772103Y-93222481D01*
X142817164Y-93179879D01*
X142830808Y-93171831D01*
X142840047Y-93159555D01*
X142854068Y-93153281D01*
X142864958Y-93141763D01*
X142916533Y-93107301D01*
X142960033Y-93063801D01*
X142994495Y-93012226D01*
X143006013Y-93001336D01*
X143012287Y-92987315D01*
X143024563Y-92978076D01*
X143032611Y-92964432D01*
X143075213Y-92919371D01*
X143107944Y-92867281D01*
X143110945Y-92859420D01*
X148572668Y-92859420D01*
X150051881Y-94338633D01*
X150051881Y-95304446D01*
X149690164Y-95304130D01*
X149074308Y-95558596D01*
X148602712Y-96029370D01*
X148347172Y-96644780D01*
X148346590Y-97311136D01*
X148601056Y-97926992D01*
X148608471Y-97934420D01*
X130493136Y-97934420D01*
X129585729Y-97753926D01*
X128885352Y-97285948D01*
X128417374Y-96585571D01*
X128405560Y-96526176D01*
X129290781Y-96526176D01*
X129431896Y-96894317D01*
X130248323Y-97268976D01*
X131145979Y-97302683D01*
X131988204Y-96990306D01*
X132131864Y-96894317D01*
X132272979Y-96526176D01*
X130781880Y-95035077D01*
X129290781Y-96526176D01*
X128405560Y-96526176D01*
X128236880Y-95678165D01*
X128236880Y-95393519D01*
X128508617Y-95393519D01*
X128820994Y-96235744D01*
X128916983Y-96379404D01*
X129285124Y-96520519D01*
X130776223Y-95029420D01*
X130787537Y-95029420D01*
X132278636Y-96520519D01*
X132646777Y-96379404D01*
X132847026Y-95943037D01*
X132861056Y-95976992D01*
X133331830Y-96448588D01*
X133947240Y-96704128D01*
X134613596Y-96704710D01*
X135229452Y-96450244D01*
X135701048Y-95979470D01*
X135956588Y-95364060D01*
X135957170Y-94697704D01*
X135702704Y-94081848D01*
X135231930Y-93610252D01*
X134616520Y-93354712D01*
X133950164Y-93354130D01*
X133334308Y-93608596D01*
X132862712Y-94079370D01*
X132849562Y-94111038D01*
X132742766Y-93823096D01*
X132646777Y-93679436D01*
X132278636Y-93538321D01*
X130787537Y-95029420D01*
X130776223Y-95029420D01*
X129285124Y-93538321D01*
X128916983Y-93679436D01*
X128542324Y-94495863D01*
X128508617Y-95393519D01*
X128236880Y-95393519D01*
X128236880Y-93532664D01*
X129290781Y-93532664D01*
X130781880Y-95023763D01*
X132272979Y-93532664D01*
X132131864Y-93164523D01*
X131315437Y-92789864D01*
X130417781Y-92756157D01*
X129575556Y-93068534D01*
X129431896Y-93164523D01*
X129290781Y-93532664D01*
X128236880Y-93532664D01*
X128236880Y-87859420D01*
X128174081Y-87543706D01*
X128031880Y-87330888D01*
X128031880Y-85406420D01*
X128043614Y-85406420D01*
X134541745Y-91904550D01*
G36*
X182721281Y-72520903D02*
X182662712Y-72579370D01*
X182407172Y-73194780D01*
X182406590Y-73861136D01*
X182661056Y-74476992D01*
X183031880Y-74848463D01*
X183031880Y-89594496D01*
X181266956Y-91359420D01*
X171790923Y-91359420D01*
X172093938Y-91056934D01*
X172276173Y-90618063D01*
X172276341Y-90425225D01*
X173402013Y-89299553D01*
X173592122Y-89015033D01*
X173658880Y-88679420D01*
X173658880Y-80079425D01*
X173658881Y-80079420D01*
X173592122Y-79743807D01*
X173402013Y-79459287D01*
X169097369Y-75154643D01*
X169173596Y-75154710D01*
X169175937Y-75153743D01*
X170171745Y-76149550D01*
X170171747Y-76149553D01*
X170342304Y-76263515D01*
X170456266Y-76339662D01*
X170791880Y-76406420D01*
X172203883Y-76406420D01*
X172368641Y-76805166D01*
X172704366Y-77141478D01*
X173143237Y-77323713D01*
X173618438Y-77324127D01*
X174057626Y-77142659D01*
X174393938Y-76806934D01*
X174560246Y-76406420D01*
X176861880Y-76406420D01*
X177197493Y-76339662D01*
X177482013Y-76149553D01*
X177937443Y-75694123D01*
X178184366Y-75941478D01*
X178623237Y-76123713D01*
X179098438Y-76124127D01*
X179537626Y-75942659D01*
X179634033Y-75846420D01*
X180781880Y-75846420D01*
X181117493Y-75779662D01*
X181402013Y-75589553D01*
X181592122Y-75305033D01*
X181658880Y-74969420D01*
X181658880Y-74551400D01*
X181709813Y-74541816D01*
X181965078Y-74377558D01*
X182136326Y-74126928D01*
X182196573Y-73829420D01*
X182196573Y-73129420D01*
X182144276Y-72851487D01*
X181980018Y-72596222D01*
X181883332Y-72530160D01*
X181965078Y-72477558D01*
X181997969Y-72429420D01*
X182629798Y-72429420D01*
X182721281Y-72520903D01*
X182721281Y-72520903D01*
G37*
X182721281Y-72520903D02*
X182662712Y-72579370D01*
X182407172Y-73194780D01*
X182406590Y-73861136D01*
X182661056Y-74476992D01*
X183031880Y-74848463D01*
X183031880Y-89594496D01*
X181266956Y-91359420D01*
X171790923Y-91359420D01*
X172093938Y-91056934D01*
X172276173Y-90618063D01*
X172276341Y-90425225D01*
X173402013Y-89299553D01*
X173592122Y-89015033D01*
X173658880Y-88679420D01*
X173658880Y-80079425D01*
X173658881Y-80079420D01*
X173592122Y-79743807D01*
X173402013Y-79459287D01*
X169097369Y-75154643D01*
X169173596Y-75154710D01*
X169175937Y-75153743D01*
X170171745Y-76149550D01*
X170171747Y-76149553D01*
X170342304Y-76263515D01*
X170456266Y-76339662D01*
X170791880Y-76406420D01*
X172203883Y-76406420D01*
X172368641Y-76805166D01*
X172704366Y-77141478D01*
X173143237Y-77323713D01*
X173618438Y-77324127D01*
X174057626Y-77142659D01*
X174393938Y-76806934D01*
X174560246Y-76406420D01*
X176861880Y-76406420D01*
X177197493Y-76339662D01*
X177482013Y-76149553D01*
X177937443Y-75694123D01*
X178184366Y-75941478D01*
X178623237Y-76123713D01*
X179098438Y-76124127D01*
X179537626Y-75942659D01*
X179634033Y-75846420D01*
X180781880Y-75846420D01*
X181117493Y-75779662D01*
X181402013Y-75589553D01*
X181592122Y-75305033D01*
X181658880Y-74969420D01*
X181658880Y-74551400D01*
X181709813Y-74541816D01*
X181965078Y-74377558D01*
X182136326Y-74126928D01*
X182196573Y-73829420D01*
X182196573Y-73129420D01*
X182144276Y-72851487D01*
X181980018Y-72596222D01*
X181883332Y-72530160D01*
X181965078Y-72477558D01*
X181997969Y-72429420D01*
X182629798Y-72429420D01*
X182721281Y-72520903D01*
G36*
X171904880Y-80442686D02*
X171904880Y-88316154D01*
X171036155Y-89184879D01*
X170845322Y-89184713D01*
X170406134Y-89366181D01*
X170069822Y-89701906D01*
X169887587Y-90140777D01*
X169887173Y-90615978D01*
X170068641Y-91055166D01*
X170372364Y-91359420D01*
X162616804Y-91359420D01*
X160981880Y-89724496D01*
X160981880Y-89627967D01*
X161136326Y-89401928D01*
X161196573Y-89104420D01*
X161196573Y-87861650D01*
X161356880Y-87894113D01*
X161367748Y-87894113D01*
X161421638Y-88165033D01*
X161611747Y-88449553D01*
X162311745Y-89149550D01*
X162311747Y-89149553D01*
X162596267Y-89339662D01*
X162931880Y-89406420D01*
X164508232Y-89406420D01*
X164608742Y-89562618D01*
X164859372Y-89733866D01*
X165156880Y-89794113D01*
X166406880Y-89794113D01*
X166684813Y-89741816D01*
X166940078Y-89577558D01*
X167111326Y-89326928D01*
X167171573Y-89029420D01*
X167171573Y-88029420D01*
X167119276Y-87751487D01*
X166974726Y-87526849D01*
X167111326Y-87326928D01*
X167171573Y-87029420D01*
X167171573Y-86029420D01*
X167119276Y-85751487D01*
X167078587Y-85688254D01*
X167086326Y-85676928D01*
X167146573Y-85379420D01*
X167146573Y-84379420D01*
X167094276Y-84101487D01*
X166949726Y-83876849D01*
X167086326Y-83676928D01*
X167146573Y-83379420D01*
X167146573Y-82379420D01*
X167094276Y-82101487D01*
X166930018Y-81846222D01*
X166830232Y-81778042D01*
X166874482Y-81733792D01*
X166989880Y-81455195D01*
X166989880Y-80872920D01*
X166800380Y-80683420D01*
X165735880Y-80683420D01*
X165735880Y-80703420D01*
X165727880Y-80703420D01*
X165727880Y-80683420D01*
X165707880Y-80683420D01*
X165707880Y-80675420D01*
X165727880Y-80675420D01*
X165727880Y-79485920D01*
X165735880Y-79485920D01*
X165735880Y-80675420D01*
X166800380Y-80675420D01*
X166989880Y-80485920D01*
X166989880Y-79903645D01*
X166874482Y-79625048D01*
X166661253Y-79411819D01*
X166382656Y-79296420D01*
X165925380Y-79296420D01*
X165735880Y-79485920D01*
X165727880Y-79485920D01*
X165609263Y-79367303D01*
X166527010Y-78449555D01*
X166527013Y-78449553D01*
X166679578Y-78221222D01*
X166717122Y-78165034D01*
X166783880Y-77829420D01*
X166783880Y-75321686D01*
X171904880Y-80442686D01*
X171904880Y-80442686D01*
G37*
X171904880Y-80442686D02*
X171904880Y-88316154D01*
X171036155Y-89184879D01*
X170845322Y-89184713D01*
X170406134Y-89366181D01*
X170069822Y-89701906D01*
X169887587Y-90140777D01*
X169887173Y-90615978D01*
X170068641Y-91055166D01*
X170372364Y-91359420D01*
X162616804Y-91359420D01*
X160981880Y-89724496D01*
X160981880Y-89627967D01*
X161136326Y-89401928D01*
X161196573Y-89104420D01*
X161196573Y-87861650D01*
X161356880Y-87894113D01*
X161367748Y-87894113D01*
X161421638Y-88165033D01*
X161611747Y-88449553D01*
X162311745Y-89149550D01*
X162311747Y-89149553D01*
X162596267Y-89339662D01*
X162931880Y-89406420D01*
X164508232Y-89406420D01*
X164608742Y-89562618D01*
X164859372Y-89733866D01*
X165156880Y-89794113D01*
X166406880Y-89794113D01*
X166684813Y-89741816D01*
X166940078Y-89577558D01*
X167111326Y-89326928D01*
X167171573Y-89029420D01*
X167171573Y-88029420D01*
X167119276Y-87751487D01*
X166974726Y-87526849D01*
X167111326Y-87326928D01*
X167171573Y-87029420D01*
X167171573Y-86029420D01*
X167119276Y-85751487D01*
X167078587Y-85688254D01*
X167086326Y-85676928D01*
X167146573Y-85379420D01*
X167146573Y-84379420D01*
X167094276Y-84101487D01*
X166949726Y-83876849D01*
X167086326Y-83676928D01*
X167146573Y-83379420D01*
X167146573Y-82379420D01*
X167094276Y-82101487D01*
X166930018Y-81846222D01*
X166830232Y-81778042D01*
X166874482Y-81733792D01*
X166989880Y-81455195D01*
X166989880Y-80872920D01*
X166800380Y-80683420D01*
X165735880Y-80683420D01*
X165735880Y-80703420D01*
X165727880Y-80703420D01*
X165727880Y-80683420D01*
X165707880Y-80683420D01*
X165707880Y-80675420D01*
X165727880Y-80675420D01*
X165727880Y-79485920D01*
X165735880Y-79485920D01*
X165735880Y-80675420D01*
X166800380Y-80675420D01*
X166989880Y-80485920D01*
X166989880Y-79903645D01*
X166874482Y-79625048D01*
X166661253Y-79411819D01*
X166382656Y-79296420D01*
X165925380Y-79296420D01*
X165735880Y-79485920D01*
X165727880Y-79485920D01*
X165609263Y-79367303D01*
X166527010Y-78449555D01*
X166527013Y-78449553D01*
X166679578Y-78221222D01*
X166717122Y-78165034D01*
X166783880Y-77829420D01*
X166783880Y-75321686D01*
X171904880Y-80442686D01*
G36*
X142843880Y-69810920D02*
X143033380Y-70000420D01*
X144447880Y-70000420D01*
X144447880Y-69980420D01*
X144455880Y-69980420D01*
X144455880Y-70000420D01*
X145870380Y-70000420D01*
X146059880Y-69810920D01*
X146059880Y-69584420D01*
X150156425Y-69584420D01*
X150137187Y-69679420D01*
X150137187Y-70329420D01*
X150189484Y-70607353D01*
X150208106Y-70636293D01*
X150197434Y-70651912D01*
X150137187Y-70949420D01*
X150137187Y-71599420D01*
X150189484Y-71877353D01*
X150208106Y-71906293D01*
X150197434Y-71921912D01*
X150137187Y-72219420D01*
X150137187Y-72869420D01*
X150149982Y-72937420D01*
X149465697Y-72937420D01*
X149415793Y-72887429D01*
X149011643Y-72719612D01*
X148941723Y-72719551D01*
X148942070Y-72321576D01*
X148774958Y-71917134D01*
X148465793Y-71607429D01*
X148061643Y-71439612D01*
X147624036Y-71439230D01*
X147219594Y-71606342D01*
X147156406Y-71669420D01*
X146052398Y-71669420D01*
X146066573Y-71599420D01*
X146066573Y-70949420D01*
X146014276Y-70671487D01*
X145993815Y-70639690D01*
X146059880Y-70480195D01*
X146059880Y-70197920D01*
X145870380Y-70008420D01*
X144455880Y-70008420D01*
X144455880Y-70028420D01*
X144447880Y-70028420D01*
X144447880Y-70008420D01*
X143033380Y-70008420D01*
X142843880Y-70197920D01*
X142843880Y-70415792D01*
X142685793Y-70257429D01*
X142281643Y-70089612D01*
X141844036Y-70089230D01*
X141570095Y-70202420D01*
X141023860Y-70202420D01*
X141014276Y-70151487D01*
X140850018Y-69896222D01*
X140599388Y-69724974D01*
X140301880Y-69664727D01*
X139601880Y-69664727D01*
X139323947Y-69717024D01*
X139068682Y-69881282D01*
X139002620Y-69977968D01*
X138950018Y-69896222D01*
X138699388Y-69724974D01*
X138401880Y-69664727D01*
X137701880Y-69664727D01*
X137423947Y-69717024D01*
X137168682Y-69881282D01*
X136997434Y-70131912D01*
X136937187Y-70429420D01*
X136937187Y-71729420D01*
X136989484Y-72007353D01*
X137153742Y-72262618D01*
X137174880Y-72277061D01*
X137174880Y-72463053D01*
X136914084Y-72402873D01*
X135837537Y-73479420D01*
X136914084Y-74555967D01*
X137174880Y-74495787D01*
X137174880Y-85559420D01*
X137241638Y-85895033D01*
X137431747Y-86179553D01*
X141921747Y-90669553D01*
X142205905Y-90859420D01*
X141401092Y-90859420D01*
X133092730Y-82551058D01*
X132959591Y-82462097D01*
X132968871Y-82452833D01*
X133136688Y-82048683D01*
X133137070Y-81611076D01*
X133001973Y-81284115D01*
X133136688Y-80959683D01*
X133137070Y-80522076D01*
X132969958Y-80117634D01*
X132660793Y-79807929D01*
X132256643Y-79640112D01*
X131819036Y-79639730D01*
X131414594Y-79806842D01*
X131104889Y-80116007D01*
X131034958Y-80284421D01*
X129814393Y-80284421D01*
X129498679Y-80347220D01*
X129231030Y-80526058D01*
X128031880Y-81725208D01*
X128031880Y-79187952D01*
X128174081Y-78975134D01*
X128236880Y-78659420D01*
X128236880Y-74026176D01*
X129290781Y-74026176D01*
X129431896Y-74394317D01*
X130248323Y-74768976D01*
X131145979Y-74802683D01*
X131795917Y-74561624D01*
X134755333Y-74561624D01*
X134826496Y-74870018D01*
X135435185Y-75148909D01*
X136104267Y-75173636D01*
X136731881Y-74940433D01*
X136837264Y-74870018D01*
X136908427Y-74561624D01*
X135831880Y-73485077D01*
X134755333Y-74561624D01*
X131795917Y-74561624D01*
X131988204Y-74490306D01*
X132131864Y-74394317D01*
X132272979Y-74026176D01*
X130781880Y-72535077D01*
X129290781Y-74026176D01*
X128236880Y-74026176D01*
X128236880Y-72893519D01*
X128508617Y-72893519D01*
X128820994Y-73735744D01*
X128916983Y-73879404D01*
X129285124Y-74020519D01*
X130776223Y-72529420D01*
X130787537Y-72529420D01*
X132278636Y-74020519D01*
X132646777Y-73879404D01*
X132705331Y-73751807D01*
X134137664Y-73751807D01*
X134370867Y-74379421D01*
X134441282Y-74484804D01*
X134749676Y-74555967D01*
X135826223Y-73479420D01*
X134749676Y-72402873D01*
X134441282Y-72474036D01*
X134162391Y-73082725D01*
X134137664Y-73751807D01*
X132705331Y-73751807D01*
X133021436Y-73062977D01*
X133046435Y-72397216D01*
X134755333Y-72397216D01*
X135831880Y-73473763D01*
X136908427Y-72397216D01*
X136837264Y-72088822D01*
X136228575Y-71809931D01*
X135559493Y-71785204D01*
X134931879Y-72018407D01*
X134826496Y-72088822D01*
X134755333Y-72397216D01*
X133046435Y-72397216D01*
X133055143Y-72165321D01*
X132742766Y-71323096D01*
X132646777Y-71179436D01*
X132278636Y-71038321D01*
X130787537Y-72529420D01*
X130776223Y-72529420D01*
X129285124Y-71038321D01*
X128916983Y-71179436D01*
X128542324Y-71995863D01*
X128508617Y-72893519D01*
X128236880Y-72893519D01*
X128236880Y-71840675D01*
X128397603Y-71032664D01*
X129290781Y-71032664D01*
X130781880Y-72523763D01*
X132272979Y-71032664D01*
X132131864Y-70664523D01*
X131315437Y-70289864D01*
X130417781Y-70256157D01*
X129575556Y-70568534D01*
X129431896Y-70664523D01*
X129290781Y-71032664D01*
X128397603Y-71032664D01*
X128417374Y-70933269D01*
X128885352Y-70232892D01*
X129585729Y-69764914D01*
X130493136Y-69584420D01*
X142843880Y-69584420D01*
X142843880Y-69810920D01*
X142843880Y-69810920D01*
G37*
X142843880Y-69810920D02*
X143033380Y-70000420D01*
X144447880Y-70000420D01*
X144447880Y-69980420D01*
X144455880Y-69980420D01*
X144455880Y-70000420D01*
X145870380Y-70000420D01*
X146059880Y-69810920D01*
X146059880Y-69584420D01*
X150156425Y-69584420D01*
X150137187Y-69679420D01*
X150137187Y-70329420D01*
X150189484Y-70607353D01*
X150208106Y-70636293D01*
X150197434Y-70651912D01*
X150137187Y-70949420D01*
X150137187Y-71599420D01*
X150189484Y-71877353D01*
X150208106Y-71906293D01*
X150197434Y-71921912D01*
X150137187Y-72219420D01*
X150137187Y-72869420D01*
X150149982Y-72937420D01*
X149465697Y-72937420D01*
X149415793Y-72887429D01*
X149011643Y-72719612D01*
X148941723Y-72719551D01*
X148942070Y-72321576D01*
X148774958Y-71917134D01*
X148465793Y-71607429D01*
X148061643Y-71439612D01*
X147624036Y-71439230D01*
X147219594Y-71606342D01*
X147156406Y-71669420D01*
X146052398Y-71669420D01*
X146066573Y-71599420D01*
X146066573Y-70949420D01*
X146014276Y-70671487D01*
X145993815Y-70639690D01*
X146059880Y-70480195D01*
X146059880Y-70197920D01*
X145870380Y-70008420D01*
X144455880Y-70008420D01*
X144455880Y-70028420D01*
X144447880Y-70028420D01*
X144447880Y-70008420D01*
X143033380Y-70008420D01*
X142843880Y-70197920D01*
X142843880Y-70415792D01*
X142685793Y-70257429D01*
X142281643Y-70089612D01*
X141844036Y-70089230D01*
X141570095Y-70202420D01*
X141023860Y-70202420D01*
X141014276Y-70151487D01*
X140850018Y-69896222D01*
X140599388Y-69724974D01*
X140301880Y-69664727D01*
X139601880Y-69664727D01*
X139323947Y-69717024D01*
X139068682Y-69881282D01*
X139002620Y-69977968D01*
X138950018Y-69896222D01*
X138699388Y-69724974D01*
X138401880Y-69664727D01*
X137701880Y-69664727D01*
X137423947Y-69717024D01*
X137168682Y-69881282D01*
X136997434Y-70131912D01*
X136937187Y-70429420D01*
X136937187Y-71729420D01*
X136989484Y-72007353D01*
X137153742Y-72262618D01*
X137174880Y-72277061D01*
X137174880Y-72463053D01*
X136914084Y-72402873D01*
X135837537Y-73479420D01*
X136914084Y-74555967D01*
X137174880Y-74495787D01*
X137174880Y-85559420D01*
X137241638Y-85895033D01*
X137431747Y-86179553D01*
X141921747Y-90669553D01*
X142205905Y-90859420D01*
X141401092Y-90859420D01*
X133092730Y-82551058D01*
X132959591Y-82462097D01*
X132968871Y-82452833D01*
X133136688Y-82048683D01*
X133137070Y-81611076D01*
X133001973Y-81284115D01*
X133136688Y-80959683D01*
X133137070Y-80522076D01*
X132969958Y-80117634D01*
X132660793Y-79807929D01*
X132256643Y-79640112D01*
X131819036Y-79639730D01*
X131414594Y-79806842D01*
X131104889Y-80116007D01*
X131034958Y-80284421D01*
X129814393Y-80284421D01*
X129498679Y-80347220D01*
X129231030Y-80526058D01*
X128031880Y-81725208D01*
X128031880Y-79187952D01*
X128174081Y-78975134D01*
X128236880Y-78659420D01*
X128236880Y-74026176D01*
X129290781Y-74026176D01*
X129431896Y-74394317D01*
X130248323Y-74768976D01*
X131145979Y-74802683D01*
X131795917Y-74561624D01*
X134755333Y-74561624D01*
X134826496Y-74870018D01*
X135435185Y-75148909D01*
X136104267Y-75173636D01*
X136731881Y-74940433D01*
X136837264Y-74870018D01*
X136908427Y-74561624D01*
X135831880Y-73485077D01*
X134755333Y-74561624D01*
X131795917Y-74561624D01*
X131988204Y-74490306D01*
X132131864Y-74394317D01*
X132272979Y-74026176D01*
X130781880Y-72535077D01*
X129290781Y-74026176D01*
X128236880Y-74026176D01*
X128236880Y-72893519D01*
X128508617Y-72893519D01*
X128820994Y-73735744D01*
X128916983Y-73879404D01*
X129285124Y-74020519D01*
X130776223Y-72529420D01*
X130787537Y-72529420D01*
X132278636Y-74020519D01*
X132646777Y-73879404D01*
X132705331Y-73751807D01*
X134137664Y-73751807D01*
X134370867Y-74379421D01*
X134441282Y-74484804D01*
X134749676Y-74555967D01*
X135826223Y-73479420D01*
X134749676Y-72402873D01*
X134441282Y-72474036D01*
X134162391Y-73082725D01*
X134137664Y-73751807D01*
X132705331Y-73751807D01*
X133021436Y-73062977D01*
X133046435Y-72397216D01*
X134755333Y-72397216D01*
X135831880Y-73473763D01*
X136908427Y-72397216D01*
X136837264Y-72088822D01*
X136228575Y-71809931D01*
X135559493Y-71785204D01*
X134931879Y-72018407D01*
X134826496Y-72088822D01*
X134755333Y-72397216D01*
X133046435Y-72397216D01*
X133055143Y-72165321D01*
X132742766Y-71323096D01*
X132646777Y-71179436D01*
X132278636Y-71038321D01*
X130787537Y-72529420D01*
X130776223Y-72529420D01*
X129285124Y-71038321D01*
X128916983Y-71179436D01*
X128542324Y-71995863D01*
X128508617Y-72893519D01*
X128236880Y-72893519D01*
X128236880Y-71840675D01*
X128397603Y-71032664D01*
X129290781Y-71032664D01*
X130781880Y-72523763D01*
X132272979Y-71032664D01*
X132131864Y-70664523D01*
X131315437Y-70289864D01*
X130417781Y-70256157D01*
X129575556Y-70568534D01*
X129431896Y-70664523D01*
X129290781Y-71032664D01*
X128397603Y-71032664D01*
X128417374Y-70933269D01*
X128885352Y-70232892D01*
X129585729Y-69764914D01*
X130493136Y-69584420D01*
X142843880Y-69584420D01*
X142843880Y-69810920D01*
G36*
X139385880Y-83425420D02*
X139405880Y-83425420D01*
X139405880Y-83433420D01*
X139385880Y-83433420D01*
X139385880Y-84622920D01*
X139575380Y-84812420D01*
X140032656Y-84812420D01*
X140311253Y-84697021D01*
X140385376Y-84622898D01*
X140584372Y-84758866D01*
X140881880Y-84819113D01*
X141881880Y-84819113D01*
X142159813Y-84766816D01*
X142348880Y-84645155D01*
X142348880Y-85635920D01*
X142538380Y-85825420D01*
X143238380Y-85825420D01*
X143246380Y-85833420D01*
X142538380Y-85833420D01*
X142348880Y-86022920D01*
X142348880Y-87230195D01*
X142464278Y-87508792D01*
X142677507Y-87722021D01*
X142956104Y-87837420D01*
X143088380Y-87837420D01*
X143277880Y-87647920D01*
X143277880Y-87622394D01*
X143285880Y-87630394D01*
X143285880Y-87647920D01*
X143475380Y-87837420D01*
X143585394Y-87837420D01*
X143706104Y-87887420D01*
X143838380Y-87887420D01*
X144027880Y-87697920D01*
X144027880Y-87675694D01*
X144035880Y-87681161D01*
X144035880Y-87697920D01*
X144225380Y-87887420D01*
X144357656Y-87887420D01*
X144412220Y-87864819D01*
X144556880Y-87894113D01*
X144906880Y-87894113D01*
X145088304Y-87859975D01*
X145256880Y-87894113D01*
X145606880Y-87894113D01*
X145788304Y-87859975D01*
X145956880Y-87894113D01*
X146306880Y-87894113D01*
X146488304Y-87859975D01*
X146656880Y-87894113D01*
X147006880Y-87894113D01*
X147188304Y-87859975D01*
X147356880Y-87894113D01*
X147706880Y-87894113D01*
X147888304Y-87859975D01*
X148056880Y-87894113D01*
X148406880Y-87894113D01*
X148588304Y-87859975D01*
X148756880Y-87894113D01*
X149106880Y-87894113D01*
X149288304Y-87859975D01*
X149456880Y-87894113D01*
X149806880Y-87894113D01*
X149988304Y-87859975D01*
X150156880Y-87894113D01*
X150506880Y-87894113D01*
X150688304Y-87859975D01*
X150856880Y-87894113D01*
X151206880Y-87894113D01*
X151388304Y-87859975D01*
X151556880Y-87894113D01*
X151906880Y-87894113D01*
X152088304Y-87859975D01*
X152256880Y-87894113D01*
X152606880Y-87894113D01*
X152788304Y-87859975D01*
X152956880Y-87894113D01*
X153306880Y-87894113D01*
X153488304Y-87859975D01*
X153656880Y-87894113D01*
X154006880Y-87894113D01*
X154188304Y-87859975D01*
X154356880Y-87894113D01*
X154706880Y-87894113D01*
X154888304Y-87859975D01*
X155056880Y-87894113D01*
X155406880Y-87894113D01*
X155554984Y-87866245D01*
X155606104Y-87887420D01*
X155738380Y-87887420D01*
X155927880Y-87697920D01*
X155927880Y-87685407D01*
X155935798Y-87680312D01*
X155935880Y-87680394D01*
X155935880Y-87697920D01*
X156125380Y-87887420D01*
X156257656Y-87887420D01*
X156281880Y-87877386D01*
X156306104Y-87887420D01*
X156438380Y-87887420D01*
X156627880Y-87697920D01*
X156627880Y-87680394D01*
X156631880Y-87676394D01*
X156635880Y-87680394D01*
X156635880Y-87697920D01*
X156673880Y-87735920D01*
X156673880Y-88285920D01*
X156863380Y-88475420D01*
X157927880Y-88475420D01*
X157927880Y-88455420D01*
X157935880Y-88455420D01*
X157935880Y-88475420D01*
X157955880Y-88475420D01*
X157955880Y-88483420D01*
X157935880Y-88483420D01*
X157935880Y-88503420D01*
X157927880Y-88503420D01*
X157927880Y-88483420D01*
X156863380Y-88483420D01*
X156673880Y-88672920D01*
X156673880Y-89172420D01*
X142905146Y-89172420D01*
X138928880Y-85196154D01*
X138928880Y-84812420D01*
X139188380Y-84812420D01*
X139377880Y-84622920D01*
X139377880Y-83433420D01*
X139357880Y-83433420D01*
X139357880Y-83425420D01*
X139377880Y-83425420D01*
X139377880Y-83405420D01*
X139385880Y-83405420D01*
X139385880Y-83425420D01*
X139385880Y-83425420D01*
G37*
X139385880Y-83425420D02*
X139405880Y-83425420D01*
X139405880Y-83433420D01*
X139385880Y-83433420D01*
X139385880Y-84622920D01*
X139575380Y-84812420D01*
X140032656Y-84812420D01*
X140311253Y-84697021D01*
X140385376Y-84622898D01*
X140584372Y-84758866D01*
X140881880Y-84819113D01*
X141881880Y-84819113D01*
X142159813Y-84766816D01*
X142348880Y-84645155D01*
X142348880Y-85635920D01*
X142538380Y-85825420D01*
X143238380Y-85825420D01*
X143246380Y-85833420D01*
X142538380Y-85833420D01*
X142348880Y-86022920D01*
X142348880Y-87230195D01*
X142464278Y-87508792D01*
X142677507Y-87722021D01*
X142956104Y-87837420D01*
X143088380Y-87837420D01*
X143277880Y-87647920D01*
X143277880Y-87622394D01*
X143285880Y-87630394D01*
X143285880Y-87647920D01*
X143475380Y-87837420D01*
X143585394Y-87837420D01*
X143706104Y-87887420D01*
X143838380Y-87887420D01*
X144027880Y-87697920D01*
X144027880Y-87675694D01*
X144035880Y-87681161D01*
X144035880Y-87697920D01*
X144225380Y-87887420D01*
X144357656Y-87887420D01*
X144412220Y-87864819D01*
X144556880Y-87894113D01*
X144906880Y-87894113D01*
X145088304Y-87859975D01*
X145256880Y-87894113D01*
X145606880Y-87894113D01*
X145788304Y-87859975D01*
X145956880Y-87894113D01*
X146306880Y-87894113D01*
X146488304Y-87859975D01*
X146656880Y-87894113D01*
X147006880Y-87894113D01*
X147188304Y-87859975D01*
X147356880Y-87894113D01*
X147706880Y-87894113D01*
X147888304Y-87859975D01*
X148056880Y-87894113D01*
X148406880Y-87894113D01*
X148588304Y-87859975D01*
X148756880Y-87894113D01*
X149106880Y-87894113D01*
X149288304Y-87859975D01*
X149456880Y-87894113D01*
X149806880Y-87894113D01*
X149988304Y-87859975D01*
X150156880Y-87894113D01*
X150506880Y-87894113D01*
X150688304Y-87859975D01*
X150856880Y-87894113D01*
X151206880Y-87894113D01*
X151388304Y-87859975D01*
X151556880Y-87894113D01*
X151906880Y-87894113D01*
X152088304Y-87859975D01*
X152256880Y-87894113D01*
X152606880Y-87894113D01*
X152788304Y-87859975D01*
X152956880Y-87894113D01*
X153306880Y-87894113D01*
X153488304Y-87859975D01*
X153656880Y-87894113D01*
X154006880Y-87894113D01*
X154188304Y-87859975D01*
X154356880Y-87894113D01*
X154706880Y-87894113D01*
X154888304Y-87859975D01*
X155056880Y-87894113D01*
X155406880Y-87894113D01*
X155554984Y-87866245D01*
X155606104Y-87887420D01*
X155738380Y-87887420D01*
X155927880Y-87697920D01*
X155927880Y-87685407D01*
X155935798Y-87680312D01*
X155935880Y-87680394D01*
X155935880Y-87697920D01*
X156125380Y-87887420D01*
X156257656Y-87887420D01*
X156281880Y-87877386D01*
X156306104Y-87887420D01*
X156438380Y-87887420D01*
X156627880Y-87697920D01*
X156627880Y-87680394D01*
X156631880Y-87676394D01*
X156635880Y-87680394D01*
X156635880Y-87697920D01*
X156673880Y-87735920D01*
X156673880Y-88285920D01*
X156863380Y-88475420D01*
X157927880Y-88475420D01*
X157927880Y-88455420D01*
X157935880Y-88455420D01*
X157935880Y-88475420D01*
X157955880Y-88475420D01*
X157955880Y-88483420D01*
X157935880Y-88483420D01*
X157935880Y-88503420D01*
X157927880Y-88503420D01*
X157927880Y-88483420D01*
X156863380Y-88483420D01*
X156673880Y-88672920D01*
X156673880Y-89172420D01*
X142905146Y-89172420D01*
X138928880Y-85196154D01*
X138928880Y-84812420D01*
X139188380Y-84812420D01*
X139377880Y-84622920D01*
X139377880Y-83433420D01*
X139357880Y-83433420D01*
X139357880Y-83425420D01*
X139377880Y-83425420D01*
X139377880Y-83405420D01*
X139385880Y-83405420D01*
X139385880Y-83425420D01*
G36*
X156655880Y-85883420D02*
X156607880Y-85883420D01*
X156607880Y-85875420D01*
X156655880Y-85875420D01*
X156655880Y-85883420D01*
X156655880Y-85883420D01*
G37*
X156655880Y-85883420D02*
X156607880Y-85883420D01*
X156607880Y-85875420D01*
X156655880Y-85875420D01*
X156655880Y-85883420D01*
G36*
X159618614Y-83027420D02*
X158681885Y-83027420D01*
X158681880Y-83027419D01*
X158346267Y-83094178D01*
X158061747Y-83284287D01*
X157411747Y-83934287D01*
X157327433Y-84060473D01*
X157138380Y-83871420D01*
X157006104Y-83871420D01*
X156981880Y-83881454D01*
X156957656Y-83871420D01*
X156825380Y-83871420D01*
X156635880Y-84060920D01*
X156635880Y-84078446D01*
X156631880Y-84082446D01*
X156627880Y-84078446D01*
X156627880Y-84060920D01*
X156438380Y-83871420D01*
X156306104Y-83871420D01*
X156281880Y-83881454D01*
X156257656Y-83871420D01*
X156125380Y-83871420D01*
X156108880Y-83887920D01*
X156108880Y-82679596D01*
X156124724Y-82679610D01*
X156529166Y-82512498D01*
X156838871Y-82203333D01*
X157006688Y-81799183D01*
X157007070Y-81361576D01*
X156839958Y-80957134D01*
X156530793Y-80647429D01*
X156126643Y-80479612D01*
X155981771Y-80479486D01*
X155982009Y-80206420D01*
X162439615Y-80206420D01*
X159618614Y-83027420D01*
X159618614Y-83027420D01*
G37*
X159618614Y-83027420D02*
X158681885Y-83027420D01*
X158681880Y-83027419D01*
X158346267Y-83094178D01*
X158061747Y-83284287D01*
X157411747Y-83934287D01*
X157327433Y-84060473D01*
X157138380Y-83871420D01*
X157006104Y-83871420D01*
X156981880Y-83881454D01*
X156957656Y-83871420D01*
X156825380Y-83871420D01*
X156635880Y-84060920D01*
X156635880Y-84078446D01*
X156631880Y-84082446D01*
X156627880Y-84078446D01*
X156627880Y-84060920D01*
X156438380Y-83871420D01*
X156306104Y-83871420D01*
X156281880Y-83881454D01*
X156257656Y-83871420D01*
X156125380Y-83871420D01*
X156108880Y-83887920D01*
X156108880Y-82679596D01*
X156124724Y-82679610D01*
X156529166Y-82512498D01*
X156838871Y-82203333D01*
X157006688Y-81799183D01*
X157007070Y-81361576D01*
X156839958Y-80957134D01*
X156530793Y-80647429D01*
X156126643Y-80479612D01*
X155981771Y-80479486D01*
X155982009Y-80206420D01*
X162439615Y-80206420D01*
X159618614Y-83027420D01*
G36*
X139635880Y-81425420D02*
X139655880Y-81425420D01*
X139655880Y-81433420D01*
X139635880Y-81433420D01*
X139635880Y-81453420D01*
X139627880Y-81453420D01*
X139627880Y-81433420D01*
X139607880Y-81433420D01*
X139607880Y-81425420D01*
X139627880Y-81425420D01*
X139627880Y-81405420D01*
X139635880Y-81405420D01*
X139635880Y-81425420D01*
X139635880Y-81425420D01*
G37*
X139635880Y-81425420D02*
X139655880Y-81425420D01*
X139655880Y-81433420D01*
X139635880Y-81433420D01*
X139635880Y-81453420D01*
X139627880Y-81453420D01*
X139627880Y-81433420D01*
X139607880Y-81433420D01*
X139607880Y-81425420D01*
X139627880Y-81425420D01*
X139627880Y-81405420D01*
X139635880Y-81405420D01*
X139635880Y-81425420D01*
G36*
X139481056Y-74416992D02*
X139951830Y-74888588D01*
X140567240Y-75144128D01*
X140956880Y-75144468D01*
X140956880Y-77989727D01*
X140881880Y-77989727D01*
X140603947Y-78042024D01*
X140383385Y-78183951D01*
X140311253Y-78111819D01*
X140032656Y-77996420D01*
X139575380Y-77996420D01*
X139385880Y-78185920D01*
X139385880Y-79375420D01*
X139405880Y-79375420D01*
X139405880Y-79383420D01*
X139385880Y-79383420D01*
X139385880Y-79403420D01*
X139377880Y-79403420D01*
X139377880Y-79383420D01*
X139357880Y-79383420D01*
X139357880Y-79375420D01*
X139377880Y-79375420D01*
X139377880Y-78185920D01*
X139188380Y-77996420D01*
X138928880Y-77996420D01*
X138928880Y-74452008D01*
X139172013Y-74289553D01*
X139182024Y-74279542D01*
X139259724Y-74279610D01*
X139400292Y-74221528D01*
X139481056Y-74416992D01*
X139481056Y-74416992D01*
G37*
X139481056Y-74416992D02*
X139951830Y-74888588D01*
X140567240Y-75144128D01*
X140956880Y-75144468D01*
X140956880Y-77989727D01*
X140881880Y-77989727D01*
X140603947Y-78042024D01*
X140383385Y-78183951D01*
X140311253Y-78111819D01*
X140032656Y-77996420D01*
X139575380Y-77996420D01*
X139385880Y-78185920D01*
X139385880Y-79375420D01*
X139405880Y-79375420D01*
X139405880Y-79383420D01*
X139385880Y-79383420D01*
X139385880Y-79403420D01*
X139377880Y-79403420D01*
X139377880Y-79383420D01*
X139357880Y-79383420D01*
X139357880Y-79375420D01*
X139377880Y-79375420D01*
X139377880Y-78185920D01*
X139188380Y-77996420D01*
X138928880Y-77996420D01*
X138928880Y-74452008D01*
X139172013Y-74289553D01*
X139182024Y-74279542D01*
X139259724Y-74279610D01*
X139400292Y-74221528D01*
X139481056Y-74416992D01*
M02*
