M48
INCH,TZ
T1C0.016
T2C0.020
T3C0.025
T4C0.043
T5C0.047
T6C0.102
T7C0.110
%
G90
G05
T1
X47705Y-33035
X48894Y-32252
X49162Y-33079
X49591Y-36303
X49611Y-37100
X50221Y-37080
X50536Y-37248
X51170Y-32783
X51485Y-41252
X51485Y-41598
X51544Y-33287
X52761Y-37041
X53438Y-32086
X53450Y-35880
X53942Y-35860
X54345Y-36342
X56028Y-32563
X58912Y-32602
X59926Y-32740
T2
X46442Y-33153
X47426Y-40673
X48438Y-33149
X52028Y-42405
X52839Y-42405
X54438Y-32149
X54438Y-33153
X55438Y-32153
X56438Y-33153
X58438Y-33149
X59438Y-33153
X60442Y-33153
X65438Y-33173
T3
X48459Y-38193
X54798Y-37051
X60410Y-39118
X61032Y-32716
X61343Y-37779
X62190Y-33960
X63383Y-33724
X63749Y-36441
X64296Y-38874
X66119Y-37779
T4
X45044Y-35811
X45044Y-36795
X45044Y-37582
X45044Y-38567
T5
X44178Y-36303
X44178Y-38075
T6
X44178Y-34905
X44178Y-39512
T7
X44453Y-32779
X44453Y-41638
X67288Y-32779
X67288Y-41638
T0
M30
