G04 #@! TF.FileFunction,Legend,Top*
%FSLAX46Y46*%
G04 Gerber Fmt 4.6, Leading zero omitted, Abs format (unit mm)*
G04 Created by KiCad (PCBNEW 4.0.7) date 12/09/17 12:54:44*
%MOMM*%
%LPD*%
G01*
G04 APERTURE LIST*
%ADD10C,0.100000*%
%ADD11C,0.200000*%
%ADD12C,0.150000*%
%ADD13C,0.010000*%
G04 APERTURE END LIST*
D10*
D11*
X148661880Y-89009420D02*
X122411880Y-89009420D01*
X122311880Y-108459420D02*
X122311880Y-108959420D01*
X123111880Y-108959420D02*
X122311880Y-108959420D01*
X148811880Y-108959420D02*
X122811880Y-108959420D01*
X122311880Y-108859420D02*
X122311880Y-88859420D01*
X148811880Y-88859420D02*
X148811880Y-108859420D01*
D12*
X158911880Y-98259420D02*
X158911880Y-101259420D01*
X158911880Y-101259420D02*
X152911880Y-101259420D01*
X152911880Y-101259420D02*
X152911880Y-95259420D01*
X152911880Y-95259420D02*
X158911880Y-95259420D01*
X158911880Y-95259420D02*
X158911880Y-98259420D01*
X94411880Y-100359420D02*
X94411880Y-94459420D01*
X94411880Y-94459420D02*
X94411880Y-88659420D01*
X94411880Y-88659420D02*
X94711880Y-88659420D01*
X109511880Y-88659420D02*
X94611880Y-88659420D01*
X109511880Y-100359420D02*
X94411880Y-100359420D01*
X113711880Y-88659420D02*
X113611880Y-88659420D01*
X109511880Y-88659420D02*
X110811880Y-88659420D01*
X113811880Y-100359420D02*
X113611880Y-100359420D01*
X109511880Y-100359420D02*
X110811880Y-100359420D01*
X113811880Y-89759420D02*
X113811880Y-88659420D01*
X113811880Y-98359420D02*
X113811880Y-100359420D01*
X113811880Y-98359420D02*
X113811880Y-89759420D01*
X109511880Y-100359420D02*
X109511880Y-94459420D01*
X109511880Y-89259420D02*
X109511880Y-88659420D01*
X109511880Y-94459420D02*
X109511880Y-89259420D01*
X158911880Y-90259420D02*
X158911880Y-87259420D01*
X158911880Y-87259420D02*
X164911880Y-87259420D01*
X164911880Y-87259420D02*
X164911880Y-93259420D01*
X164911880Y-93259420D02*
X158911880Y-93259420D01*
X158911880Y-93259420D02*
X158911880Y-90259420D01*
X170911880Y-98259420D02*
X170911880Y-101259420D01*
X170911880Y-101259420D02*
X164911880Y-101259420D01*
X164911880Y-101259420D02*
X164911880Y-95259420D01*
X164911880Y-95259420D02*
X170911880Y-95259420D01*
X170911880Y-95259420D02*
X170911880Y-98259420D01*
D13*
G36*
X121551174Y-97627883D02*
X121552855Y-97435795D01*
X121648105Y-97435795D01*
X121648348Y-97511995D01*
X121648312Y-97545057D01*
X121648053Y-97586636D01*
X121647609Y-97632555D01*
X121647018Y-97678633D01*
X121646617Y-97704083D01*
X121644643Y-97819970D01*
X121549493Y-97819970D01*
X121551174Y-97627883D01*
X121551174Y-97627883D01*
G37*
X121551174Y-97627883D02*
X121552855Y-97435795D01*
X121648105Y-97435795D01*
X121648348Y-97511995D01*
X121648312Y-97545057D01*
X121648053Y-97586636D01*
X121647609Y-97632555D01*
X121647018Y-97678633D01*
X121646617Y-97704083D01*
X121644643Y-97819970D01*
X121549493Y-97819970D01*
X121551174Y-97627883D01*
G36*
X121651280Y-96956370D02*
X121651280Y-97337370D01*
X121556030Y-97337370D01*
X121556030Y-96956370D01*
X121651280Y-96956370D01*
X121651280Y-96956370D01*
G37*
X121651280Y-96956370D02*
X121651280Y-97337370D01*
X121556030Y-97337370D01*
X121556030Y-96956370D01*
X121651280Y-96956370D01*
G36*
X121651280Y-96473770D02*
X121651280Y-96854770D01*
X121556030Y-96854770D01*
X121556030Y-96473770D01*
X121651280Y-96473770D01*
X121651280Y-96473770D01*
G37*
X121651280Y-96473770D02*
X121651280Y-96854770D01*
X121556030Y-96854770D01*
X121556030Y-96473770D01*
X121651280Y-96473770D01*
G36*
X121651280Y-95991170D02*
X121651280Y-96378520D01*
X121556030Y-96378520D01*
X121556030Y-95991170D01*
X121651280Y-95991170D01*
X121651280Y-95991170D01*
G37*
X121651280Y-95991170D02*
X121651280Y-96378520D01*
X121556030Y-96378520D01*
X121556030Y-95991170D01*
X121651280Y-95991170D01*
G36*
X121643028Y-95508570D02*
X121647154Y-95566696D01*
X121648429Y-95591320D01*
X121649543Y-95625588D01*
X121650433Y-95666445D01*
X121651033Y-95710837D01*
X121651277Y-95755708D01*
X121651280Y-95760371D01*
X121651280Y-95895920D01*
X121557970Y-95895920D01*
X121553854Y-95824483D01*
X121552492Y-95793976D01*
X121551317Y-95754552D01*
X121550409Y-95709993D01*
X121549850Y-95664081D01*
X121549708Y-95630808D01*
X121549680Y-95508570D01*
X121643028Y-95508570D01*
X121643028Y-95508570D01*
G37*
X121643028Y-95508570D02*
X121647154Y-95566696D01*
X121648429Y-95591320D01*
X121649543Y-95625588D01*
X121650433Y-95666445D01*
X121651033Y-95710837D01*
X121651277Y-95755708D01*
X121651280Y-95760371D01*
X121651280Y-95895920D01*
X121557970Y-95895920D01*
X121553854Y-95824483D01*
X121552492Y-95793976D01*
X121551317Y-95754552D01*
X121550409Y-95709993D01*
X121549850Y-95664081D01*
X121549708Y-95630808D01*
X121549680Y-95508570D01*
X121643028Y-95508570D01*
G36*
X121545783Y-98206518D02*
X121546327Y-98164413D01*
X121547185Y-98117746D01*
X121547503Y-98103113D01*
X121551725Y-97915220D01*
X121644930Y-97915220D01*
X121643729Y-98072383D01*
X121643297Y-98118137D01*
X121642735Y-98161747D01*
X121642082Y-98200931D01*
X121641380Y-98233411D01*
X121640669Y-98256905D01*
X121640237Y-98266058D01*
X121637946Y-98302570D01*
X121594187Y-98302570D01*
X121571811Y-98301789D01*
X121554850Y-98299739D01*
X121546903Y-98296860D01*
X121546855Y-98296788D01*
X121546089Y-98289196D01*
X121545658Y-98270537D01*
X121545558Y-98242435D01*
X121545783Y-98206518D01*
X121545783Y-98206518D01*
G37*
X121545783Y-98206518D02*
X121546327Y-98164413D01*
X121547185Y-98117746D01*
X121547503Y-98103113D01*
X121551725Y-97915220D01*
X121644930Y-97915220D01*
X121643729Y-98072383D01*
X121643297Y-98118137D01*
X121642735Y-98161747D01*
X121642082Y-98200931D01*
X121641380Y-98233411D01*
X121640669Y-98256905D01*
X121640237Y-98266058D01*
X121637946Y-98302570D01*
X121594187Y-98302570D01*
X121571811Y-98301789D01*
X121554850Y-98299739D01*
X121546903Y-98296860D01*
X121546855Y-98296788D01*
X121546089Y-98289196D01*
X121545658Y-98270537D01*
X121545558Y-98242435D01*
X121545783Y-98206518D01*
G36*
X121644930Y-95025970D02*
X121644930Y-95413320D01*
X121549680Y-95413320D01*
X121549680Y-95025970D01*
X121644930Y-95025970D01*
X121644930Y-95025970D01*
G37*
X121644930Y-95025970D02*
X121644930Y-95413320D01*
X121549680Y-95413320D01*
X121549680Y-95025970D01*
X121644930Y-95025970D01*
G36*
X121644930Y-94549720D02*
X121644930Y-94930720D01*
X121549680Y-94930720D01*
X121549610Y-94764033D01*
X121549443Y-94717933D01*
X121549009Y-94674864D01*
X121548351Y-94636817D01*
X121547509Y-94605781D01*
X121546527Y-94583748D01*
X121545604Y-94573533D01*
X121541668Y-94549720D01*
X121644930Y-94549720D01*
X121644930Y-94549720D01*
G37*
X121644930Y-94549720D02*
X121644930Y-94930720D01*
X121549680Y-94930720D01*
X121549610Y-94764033D01*
X121549443Y-94717933D01*
X121549009Y-94674864D01*
X121548351Y-94636817D01*
X121547509Y-94605781D01*
X121546527Y-94583748D01*
X121545604Y-94573533D01*
X121541668Y-94549720D01*
X121644930Y-94549720D01*
G36*
X121638580Y-94067120D02*
X121638649Y-94233808D01*
X121638812Y-94279859D01*
X121639233Y-94322834D01*
X121639872Y-94360753D01*
X121640688Y-94391636D01*
X121641640Y-94413503D01*
X121642539Y-94423592D01*
X121646359Y-94446688D01*
X121601570Y-94451186D01*
X121578413Y-94452868D01*
X121560025Y-94453024D01*
X121550234Y-94451629D01*
X121550055Y-94451528D01*
X121547804Y-94443715D01*
X121546011Y-94423325D01*
X121544676Y-94390331D01*
X121543796Y-94344709D01*
X121543372Y-94286432D01*
X121543330Y-94257246D01*
X121543330Y-94067120D01*
X121638580Y-94067120D01*
X121638580Y-94067120D01*
G37*
X121638580Y-94067120D02*
X121638649Y-94233808D01*
X121638812Y-94279859D01*
X121639233Y-94322834D01*
X121639872Y-94360753D01*
X121640688Y-94391636D01*
X121641640Y-94413503D01*
X121642539Y-94423592D01*
X121646359Y-94446688D01*
X121601570Y-94451186D01*
X121578413Y-94452868D01*
X121560025Y-94453024D01*
X121550234Y-94451629D01*
X121550055Y-94451528D01*
X121547804Y-94443715D01*
X121546011Y-94423325D01*
X121544676Y-94390331D01*
X121543796Y-94344709D01*
X121543372Y-94286432D01*
X121543330Y-94257246D01*
X121543330Y-94067120D01*
X121638580Y-94067120D01*
G36*
X121581430Y-90650820D02*
X121581430Y-90672827D01*
X121582087Y-90685907D01*
X121586221Y-90692955D01*
X121597074Y-90696650D01*
X121613180Y-90699045D01*
X121644930Y-90703257D01*
X121643515Y-90792926D01*
X121642839Y-90834183D01*
X121642008Y-90882470D01*
X121641121Y-90932117D01*
X121640278Y-90977458D01*
X121640179Y-90982608D01*
X121638257Y-91082620D01*
X121542170Y-91082620D01*
X121544097Y-90915933D01*
X121546025Y-90749245D01*
X121373227Y-90747556D01*
X121200430Y-90745866D01*
X121200430Y-90650820D01*
X121581430Y-90650820D01*
X121581430Y-90650820D01*
G37*
X121581430Y-90650820D02*
X121581430Y-90672827D01*
X121582087Y-90685907D01*
X121586221Y-90692955D01*
X121597074Y-90696650D01*
X121613180Y-90699045D01*
X121644930Y-90703257D01*
X121643515Y-90792926D01*
X121642839Y-90834183D01*
X121642008Y-90882470D01*
X121641121Y-90932117D01*
X121640278Y-90977458D01*
X121640179Y-90982608D01*
X121638257Y-91082620D01*
X121542170Y-91082620D01*
X121544097Y-90915933D01*
X121546025Y-90749245D01*
X121373227Y-90747556D01*
X121200430Y-90745866D01*
X121200430Y-90650820D01*
X121581430Y-90650820D01*
G36*
X121537509Y-98723560D02*
X121538016Y-98688375D01*
X121538796Y-98646838D01*
X121539831Y-98600533D01*
X121540200Y-98585469D01*
X121544891Y-98397820D01*
X121638580Y-98397820D01*
X121637240Y-98526408D01*
X121636703Y-98570981D01*
X121636030Y-98616247D01*
X121635279Y-98658793D01*
X121634512Y-98695207D01*
X121633839Y-98720445D01*
X121631777Y-98785895D01*
X121585966Y-98781531D01*
X121563311Y-98779142D01*
X121546214Y-98776905D01*
X121538040Y-98775265D01*
X121537832Y-98775142D01*
X121537398Y-98768529D01*
X121537297Y-98750806D01*
X121537509Y-98723560D01*
X121537509Y-98723560D01*
G37*
X121537509Y-98723560D02*
X121538016Y-98688375D01*
X121538796Y-98646838D01*
X121539831Y-98600533D01*
X121540200Y-98585469D01*
X121544891Y-98397820D01*
X121638580Y-98397820D01*
X121637240Y-98526408D01*
X121636703Y-98570981D01*
X121636030Y-98616247D01*
X121635279Y-98658793D01*
X121634512Y-98695207D01*
X121633839Y-98720445D01*
X121631777Y-98785895D01*
X121585966Y-98781531D01*
X121563311Y-98779142D01*
X121546214Y-98776905D01*
X121538040Y-98775265D01*
X121537832Y-98775142D01*
X121537398Y-98768529D01*
X121537297Y-98750806D01*
X121537509Y-98723560D01*
G36*
X121638580Y-93584520D02*
X121638580Y-93971870D01*
X121543330Y-93971870D01*
X121543330Y-93584520D01*
X121638580Y-93584520D01*
X121638580Y-93584520D01*
G37*
X121638580Y-93584520D02*
X121638580Y-93971870D01*
X121543330Y-93971870D01*
X121543330Y-93584520D01*
X121638580Y-93584520D01*
G36*
X121538474Y-93297183D02*
X121540155Y-93105095D01*
X121630207Y-93101405D01*
X121634393Y-93216981D01*
X121635829Y-93261399D01*
X121637053Y-93308360D01*
X121637972Y-93353598D01*
X121638494Y-93392847D01*
X121638580Y-93410913D01*
X121638580Y-93489270D01*
X121536793Y-93489270D01*
X121538474Y-93297183D01*
X121538474Y-93297183D01*
G37*
X121538474Y-93297183D02*
X121540155Y-93105095D01*
X121630207Y-93101405D01*
X121634393Y-93216981D01*
X121635829Y-93261399D01*
X121637053Y-93308360D01*
X121637972Y-93353598D01*
X121638494Y-93392847D01*
X121638580Y-93410913D01*
X121638580Y-93489270D01*
X121536793Y-93489270D01*
X121538474Y-93297183D01*
G36*
X121540331Y-91512833D02*
X121540448Y-91491604D01*
X121540675Y-91460392D01*
X121540989Y-91421910D01*
X121541368Y-91378874D01*
X121541789Y-91333999D01*
X121541918Y-91320745D01*
X121543330Y-91177870D01*
X121638580Y-91177870D01*
X121638580Y-91565755D01*
X121589367Y-91563900D01*
X121540155Y-91562045D01*
X121540331Y-91512833D01*
X121540331Y-91512833D01*
G37*
X121540331Y-91512833D02*
X121540448Y-91491604D01*
X121540675Y-91460392D01*
X121540989Y-91421910D01*
X121541368Y-91378874D01*
X121541789Y-91333999D01*
X121541918Y-91320745D01*
X121543330Y-91177870D01*
X121638580Y-91177870D01*
X121638580Y-91565755D01*
X121589367Y-91563900D01*
X121540155Y-91562045D01*
X121540331Y-91512833D01*
G36*
X121529063Y-99116667D02*
X121530001Y-99051597D01*
X121531198Y-98998334D01*
X121532722Y-98955988D01*
X121534644Y-98923667D01*
X121537031Y-98900481D01*
X121539954Y-98885538D01*
X121543480Y-98877947D01*
X121547631Y-98876799D01*
X121558854Y-98878769D01*
X121578010Y-98880085D01*
X121594649Y-98880420D01*
X121632230Y-98880420D01*
X121631013Y-98923283D01*
X121630501Y-98942286D01*
X121629750Y-98971464D01*
X121628824Y-99008297D01*
X121627785Y-99050265D01*
X121626696Y-99094847D01*
X121626250Y-99113263D01*
X121625046Y-99155297D01*
X121623600Y-99193057D01*
X121622012Y-99224701D01*
X121620382Y-99248386D01*
X121618812Y-99262272D01*
X121617977Y-99265099D01*
X121609781Y-99266425D01*
X121592803Y-99265388D01*
X121570693Y-99262214D01*
X121570352Y-99262153D01*
X121527455Y-99254489D01*
X121529063Y-99116667D01*
X121529063Y-99116667D01*
G37*
X121529063Y-99116667D02*
X121530001Y-99051597D01*
X121531198Y-98998334D01*
X121532722Y-98955988D01*
X121534644Y-98923667D01*
X121537031Y-98900481D01*
X121539954Y-98885538D01*
X121543480Y-98877947D01*
X121547631Y-98876799D01*
X121558854Y-98878769D01*
X121578010Y-98880085D01*
X121594649Y-98880420D01*
X121632230Y-98880420D01*
X121631013Y-98923283D01*
X121630501Y-98942286D01*
X121629750Y-98971464D01*
X121628824Y-99008297D01*
X121627785Y-99050265D01*
X121626696Y-99094847D01*
X121626250Y-99113263D01*
X121625046Y-99155297D01*
X121623600Y-99193057D01*
X121622012Y-99224701D01*
X121620382Y-99248386D01*
X121618812Y-99262272D01*
X121617977Y-99265099D01*
X121609781Y-99266425D01*
X121592803Y-99265388D01*
X121570693Y-99262214D01*
X121570352Y-99262153D01*
X121527455Y-99254489D01*
X121529063Y-99116667D01*
G36*
X121632230Y-92625670D02*
X121632230Y-93006670D01*
X121536980Y-93006670D01*
X121536980Y-92625670D01*
X121632230Y-92625670D01*
X121632230Y-92625670D01*
G37*
X121632230Y-92625670D02*
X121632230Y-93006670D01*
X121536980Y-93006670D01*
X121536980Y-92625670D01*
X121632230Y-92625670D01*
G36*
X121632230Y-92143070D02*
X121632230Y-92524070D01*
X121536980Y-92524070D01*
X121536980Y-92143070D01*
X121632230Y-92143070D01*
X121632230Y-92143070D01*
G37*
X121632230Y-92143070D02*
X121632230Y-92524070D01*
X121536980Y-92524070D01*
X121536980Y-92143070D01*
X121632230Y-92143070D01*
G36*
X121632230Y-91660470D02*
X121632230Y-92047820D01*
X121536980Y-92047820D01*
X121536980Y-91660470D01*
X121632230Y-91660470D01*
X121632230Y-91660470D01*
G37*
X121632230Y-91660470D02*
X121632230Y-92047820D01*
X121536980Y-92047820D01*
X121536980Y-91660470D01*
X121632230Y-91660470D01*
G36*
X121406754Y-99643228D02*
X121427719Y-99588284D01*
X121448423Y-99530185D01*
X121467621Y-99472546D01*
X121484070Y-99418983D01*
X121496527Y-99373112D01*
X121497147Y-99370571D01*
X121501376Y-99356276D01*
X121504989Y-99349095D01*
X121505322Y-99348928D01*
X121512643Y-99349769D01*
X121528920Y-99352563D01*
X121550671Y-99356712D01*
X121551267Y-99356831D01*
X121574226Y-99361921D01*
X121587188Y-99366619D01*
X121592744Y-99372247D01*
X121593587Y-99378473D01*
X121591641Y-99389167D01*
X121586682Y-99409371D01*
X121579400Y-99436448D01*
X121570487Y-99467760D01*
X121567797Y-99476917D01*
X121557807Y-99508985D01*
X121545558Y-99545700D01*
X121531930Y-99584691D01*
X121517801Y-99623586D01*
X121504049Y-99660013D01*
X121491553Y-99691602D01*
X121481193Y-99715981D01*
X121473846Y-99730779D01*
X121473566Y-99731236D01*
X121468900Y-99735367D01*
X121460775Y-99735114D01*
X121446589Y-99729863D01*
X121425548Y-99719892D01*
X121403174Y-99707654D01*
X121389801Y-99697688D01*
X121386772Y-99691401D01*
X121406754Y-99643228D01*
X121406754Y-99643228D01*
G37*
X121406754Y-99643228D02*
X121427719Y-99588284D01*
X121448423Y-99530185D01*
X121467621Y-99472546D01*
X121484070Y-99418983D01*
X121496527Y-99373112D01*
X121497147Y-99370571D01*
X121501376Y-99356276D01*
X121504989Y-99349095D01*
X121505322Y-99348928D01*
X121512643Y-99349769D01*
X121528920Y-99352563D01*
X121550671Y-99356712D01*
X121551267Y-99356831D01*
X121574226Y-99361921D01*
X121587188Y-99366619D01*
X121592744Y-99372247D01*
X121593587Y-99378473D01*
X121591641Y-99389167D01*
X121586682Y-99409371D01*
X121579400Y-99436448D01*
X121570487Y-99467760D01*
X121567797Y-99476917D01*
X121557807Y-99508985D01*
X121545558Y-99545700D01*
X121531930Y-99584691D01*
X121517801Y-99623586D01*
X121504049Y-99660013D01*
X121491553Y-99691602D01*
X121481193Y-99715981D01*
X121473846Y-99730779D01*
X121473566Y-99731236D01*
X121468900Y-99735367D01*
X121460775Y-99735114D01*
X121446589Y-99729863D01*
X121425548Y-99719892D01*
X121403174Y-99707654D01*
X121389801Y-99697688D01*
X121386772Y-99691401D01*
X121406754Y-99643228D01*
G36*
X116577630Y-91317570D02*
X116577629Y-89990410D01*
X116577629Y-88663250D01*
X118484217Y-88664848D01*
X120390805Y-88666445D01*
X120392407Y-89992008D01*
X120394009Y-91317570D01*
X121048030Y-91317570D01*
X121048030Y-98239246D01*
X120124416Y-98238598D01*
X119200803Y-98237949D01*
X119235458Y-98192472D01*
X119281515Y-98122981D01*
X119316132Y-98050022D01*
X119339554Y-97972708D01*
X119352023Y-97890155D01*
X119353783Y-97801477D01*
X119351940Y-97769170D01*
X119341207Y-97692916D01*
X119321106Y-97616042D01*
X119292880Y-97542193D01*
X119257777Y-97475012D01*
X119244073Y-97453714D01*
X119221781Y-97424659D01*
X119192326Y-97391498D01*
X119158903Y-97357474D01*
X119124704Y-97325830D01*
X119092924Y-97299811D01*
X119091443Y-97298707D01*
X119049858Y-97271486D01*
X118999832Y-97244499D01*
X118945509Y-97219682D01*
X118891031Y-97198976D01*
X118854105Y-97187716D01*
X118808187Y-97178197D01*
X118753676Y-97171300D01*
X118694434Y-97167177D01*
X118634325Y-97165980D01*
X118577212Y-97167861D01*
X118526959Y-97172971D01*
X118517456Y-97174501D01*
X118424913Y-97196501D01*
X118339212Y-97228746D01*
X118260891Y-97270573D01*
X118190487Y-97321318D01*
X118128539Y-97380316D01*
X118075585Y-97446903D01*
X118032163Y-97520416D01*
X117998811Y-97600190D01*
X117976067Y-97685561D01*
X117964469Y-97775866D01*
X117963854Y-97857701D01*
X117969065Y-97922027D01*
X117978909Y-97978578D01*
X117994490Y-98031780D01*
X118016913Y-98086059D01*
X118025199Y-98103332D01*
X118047457Y-98144720D01*
X118070795Y-98179318D01*
X118099040Y-98212736D01*
X118102110Y-98216045D01*
X118147334Y-98264470D01*
X117993680Y-98264470D01*
X117993680Y-98556570D01*
X121048835Y-98556570D01*
X121046230Y-99161408D01*
X121045760Y-99265225D01*
X121045286Y-99357176D01*
X121044793Y-99438093D01*
X121044263Y-99508809D01*
X121043682Y-99570159D01*
X121043032Y-99622975D01*
X121042297Y-99668090D01*
X121041462Y-99706338D01*
X121040510Y-99738551D01*
X121039424Y-99765564D01*
X121038189Y-99788209D01*
X121036789Y-99807320D01*
X121035206Y-99823729D01*
X121033425Y-99838271D01*
X121032991Y-99841400D01*
X121016220Y-99941953D01*
X120994663Y-100042173D01*
X120969210Y-100138513D01*
X120940748Y-100227428D01*
X120927074Y-100264385D01*
X120918822Y-100286730D01*
X120913201Y-100304099D01*
X120911152Y-100313505D01*
X120911339Y-100314296D01*
X120916837Y-100311556D01*
X120928936Y-100301903D01*
X120945174Y-100287324D01*
X120947658Y-100284984D01*
X120970469Y-100259580D01*
X120996960Y-100223341D01*
X121026363Y-100177329D01*
X121031724Y-100168397D01*
X121049071Y-100139246D01*
X121063957Y-100114228D01*
X121075254Y-100095245D01*
X121081829Y-100084198D01*
X121083029Y-100082182D01*
X121088617Y-100084136D01*
X121102380Y-100090759D01*
X121121350Y-100100623D01*
X121121559Y-100100735D01*
X121140743Y-100110691D01*
X121150294Y-100114620D01*
X121151566Y-100112865D01*
X121147205Y-100107223D01*
X121141152Y-100099042D01*
X121139671Y-100091126D01*
X121143724Y-100080979D01*
X121154271Y-100066104D01*
X121170912Y-100045645D01*
X121186721Y-100026595D01*
X121124899Y-99994845D01*
X121146688Y-99944805D01*
X121165035Y-99899652D01*
X121184501Y-99846519D01*
X121203566Y-99789851D01*
X121220708Y-99734091D01*
X121229279Y-99703513D01*
X121236180Y-99678515D01*
X121242051Y-99658585D01*
X121246023Y-99646610D01*
X121247027Y-99644507D01*
X121253605Y-99644867D01*
X121268669Y-99647505D01*
X121288396Y-99651580D01*
X121308961Y-99656248D01*
X121326541Y-99660667D01*
X121337310Y-99663995D01*
X121338714Y-99664708D01*
X121337750Y-99670995D01*
X121333712Y-99687088D01*
X121327282Y-99710657D01*
X121319141Y-99739375D01*
X121309971Y-99770914D01*
X121300453Y-99802948D01*
X121291270Y-99833148D01*
X121283102Y-99859186D01*
X121276632Y-99878736D01*
X121273646Y-99886895D01*
X121267860Y-99901960D01*
X121266976Y-99906785D01*
X121270989Y-99902848D01*
X121273611Y-99899595D01*
X121281301Y-99888204D01*
X121292809Y-99869173D01*
X121305991Y-99846080D01*
X121309747Y-99839270D01*
X121321829Y-99817344D01*
X121331542Y-99800019D01*
X121337330Y-99790062D01*
X121338167Y-99788796D01*
X121344659Y-99789797D01*
X121358695Y-99795413D01*
X121376822Y-99803908D01*
X121395587Y-99813546D01*
X121411538Y-99822590D01*
X121421220Y-99829303D01*
X121422632Y-99831274D01*
X121419651Y-99838580D01*
X121411703Y-99854132D01*
X121400210Y-99875199D01*
X121393610Y-99886895D01*
X121361061Y-99941158D01*
X121323761Y-99998711D01*
X121284950Y-100054736D01*
X121247864Y-100104416D01*
X121244918Y-100108163D01*
X121205562Y-100157981D01*
X121187756Y-100140921D01*
X121169949Y-100123861D01*
X121146080Y-100166544D01*
X121134030Y-100189004D01*
X121127890Y-100203684D01*
X121126807Y-100213554D01*
X121129929Y-100221584D01*
X121130161Y-100221960D01*
X121132834Y-100228293D01*
X121131767Y-100235374D01*
X121125691Y-100245119D01*
X121113340Y-100259440D01*
X121093444Y-100280255D01*
X121087612Y-100286219D01*
X121061532Y-100314071D01*
X121033714Y-100345788D01*
X121008512Y-100376327D01*
X120998120Y-100389758D01*
X120981108Y-100412003D01*
X120966422Y-100430380D01*
X120956004Y-100442505D01*
X120952379Y-100445943D01*
X120943120Y-100445360D01*
X120933798Y-100439408D01*
X120927017Y-100434359D01*
X120920028Y-100433702D01*
X120909934Y-100438420D01*
X120893838Y-100449498D01*
X120884986Y-100455992D01*
X120866541Y-100469594D01*
X120852433Y-100479976D01*
X120845461Y-100485081D01*
X120845264Y-100485222D01*
X120847595Y-100490434D01*
X120856622Y-100501461D01*
X120862954Y-100508240D01*
X120883385Y-100529320D01*
X120814868Y-100595458D01*
X120786893Y-100621965D01*
X120758340Y-100648166D01*
X120732177Y-100671392D01*
X120711370Y-100688973D01*
X120707583Y-100691993D01*
X120688124Y-100708678D01*
X120663434Y-100731925D01*
X120636619Y-100758714D01*
X120610783Y-100786026D01*
X120609671Y-100787243D01*
X120548638Y-100851784D01*
X120490477Y-100907929D01*
X120432003Y-100958443D01*
X120370031Y-101006093D01*
X120308056Y-101049201D01*
X120203495Y-101113036D01*
X120095798Y-101166645D01*
X119983084Y-101210780D01*
X119863473Y-101246191D01*
X119755805Y-101269838D01*
X119746979Y-101271465D01*
X119738138Y-101272954D01*
X119728701Y-101274313D01*
X119718089Y-101275548D01*
X119705723Y-101276667D01*
X119691022Y-101277678D01*
X119673407Y-101278588D01*
X119652298Y-101279404D01*
X119627116Y-101280135D01*
X119597281Y-101280786D01*
X119562213Y-101281367D01*
X119521333Y-101281884D01*
X119474061Y-101282345D01*
X119419817Y-101282756D01*
X119358021Y-101283127D01*
X119288095Y-101283463D01*
X119209458Y-101283773D01*
X119121530Y-101284064D01*
X119023733Y-101284344D01*
X118915485Y-101284619D01*
X118796209Y-101284897D01*
X118665323Y-101285187D01*
X118539780Y-101285457D01*
X118379854Y-101285768D01*
X118232336Y-101285993D01*
X118096933Y-101286128D01*
X117973353Y-101286175D01*
X117861305Y-101286130D01*
X117760495Y-101285993D01*
X117670631Y-101285763D01*
X117591422Y-101285439D01*
X117549180Y-101285182D01*
X117549180Y-96937320D01*
X119327180Y-96937320D01*
X119327180Y-96607120D01*
X118819180Y-96607120D01*
X118819180Y-96395400D01*
X118862042Y-96389959D01*
X118901290Y-96383235D01*
X118944596Y-96372980D01*
X118987549Y-96360454D01*
X119025736Y-96346918D01*
X119049484Y-96336414D01*
X119119284Y-96294246D01*
X119180904Y-96242985D01*
X119233901Y-96183610D01*
X119277832Y-96117100D01*
X119312255Y-96044434D01*
X119336727Y-95966589D01*
X119350804Y-95884546D01*
X119354045Y-95799281D01*
X119346007Y-95711775D01*
X119342161Y-95689545D01*
X119322754Y-95618065D01*
X119292460Y-95547574D01*
X119252879Y-95481371D01*
X119220873Y-95439775D01*
X119165021Y-95383933D01*
X119100840Y-95336491D01*
X119030075Y-95298119D01*
X118954474Y-95269487D01*
X118875781Y-95251263D01*
X118795745Y-95244117D01*
X118720755Y-95248109D01*
X118643879Y-95262923D01*
X118574549Y-95287373D01*
X118511245Y-95322204D01*
X118452447Y-95368160D01*
X118438180Y-95381876D01*
X118438180Y-95092570D01*
X118495117Y-95092055D01*
X118542438Y-95090276D01*
X118583200Y-95086770D01*
X118620460Y-95081075D01*
X118657275Y-95072729D01*
X118696705Y-95061268D01*
X118739634Y-95046983D01*
X118836706Y-95006851D01*
X118927417Y-94956220D01*
X119011139Y-94895925D01*
X119087241Y-94826798D01*
X119155094Y-94749675D01*
X119214071Y-94665388D01*
X119263540Y-94574773D01*
X119302874Y-94478663D01*
X119331443Y-94377893D01*
X119348617Y-94273295D01*
X119351855Y-94235395D01*
X119353579Y-94204835D01*
X119354674Y-94177162D01*
X119355025Y-94155944D01*
X119354737Y-94146495D01*
X119353555Y-94131002D01*
X119351943Y-94107488D01*
X119350216Y-94080610D01*
X119349942Y-94076166D01*
X119337973Y-93981003D01*
X119314256Y-93886071D01*
X119279654Y-93793089D01*
X119235033Y-93703776D01*
X119181255Y-93619851D01*
X119119186Y-93543034D01*
X119049689Y-93475043D01*
X119046329Y-93472157D01*
X118959400Y-93405966D01*
X118867183Y-93351313D01*
X118769716Y-93308218D01*
X118733856Y-93295702D01*
X118674379Y-93277979D01*
X118618771Y-93265294D01*
X118562948Y-93257042D01*
X118502828Y-93252617D01*
X118435005Y-93251414D01*
X118339560Y-93255298D01*
X118251809Y-93266891D01*
X118168880Y-93286849D01*
X118087905Y-93315829D01*
X118023063Y-93345718D01*
X117962250Y-93378463D01*
X117909259Y-93412086D01*
X117859705Y-93449700D01*
X117809204Y-93494418D01*
X117796297Y-93506705D01*
X117722194Y-93586528D01*
X117659166Y-93672565D01*
X117607215Y-93764813D01*
X117566345Y-93863267D01*
X117536557Y-93967922D01*
X117532009Y-93989207D01*
X117526522Y-94026278D01*
X117522750Y-94072598D01*
X117520689Y-94124832D01*
X117520336Y-94179645D01*
X117521687Y-94233704D01*
X117524739Y-94283672D01*
X117529488Y-94326217D01*
X117532388Y-94343115D01*
X117560166Y-94452015D01*
X117598455Y-94554261D01*
X117646783Y-94649373D01*
X117704680Y-94736868D01*
X117771674Y-94816264D01*
X117847295Y-94887080D01*
X117931071Y-94948833D01*
X118022531Y-95001043D01*
X118121204Y-95043227D01*
X118226619Y-95074904D01*
X118254030Y-95081137D01*
X118277665Y-95085492D01*
X118303298Y-95088659D01*
X118333357Y-95090789D01*
X118370270Y-95092032D01*
X118416468Y-95092539D01*
X118438180Y-95092570D01*
X118438180Y-95381876D01*
X118428655Y-95391034D01*
X118405266Y-95415940D01*
X118384163Y-95441243D01*
X118364588Y-95468373D01*
X118345784Y-95498760D01*
X118326993Y-95533833D01*
X118307459Y-95575024D01*
X118286424Y-95623762D01*
X118263130Y-95681477D01*
X118236821Y-95749599D01*
X118231898Y-95762570D01*
X118213383Y-95810721D01*
X118197980Y-95848666D01*
X118184710Y-95878222D01*
X118172593Y-95901208D01*
X118160652Y-95919440D01*
X118147906Y-95934735D01*
X118133376Y-95948912D01*
X118129800Y-95952100D01*
X118091960Y-95977836D01*
X118051004Y-95992637D01*
X118008811Y-95997045D01*
X117967260Y-95991607D01*
X117928228Y-95976865D01*
X117893595Y-95953363D01*
X117865238Y-95921647D01*
X117845038Y-95882260D01*
X117840662Y-95868345D01*
X117836194Y-95838847D01*
X117836138Y-95804107D01*
X117840073Y-95769169D01*
X117847577Y-95739076D01*
X117852419Y-95727645D01*
X117878276Y-95691124D01*
X117913433Y-95661994D01*
X117956088Y-95641484D01*
X117992092Y-95632469D01*
X118019080Y-95628104D01*
X118019080Y-95285407D01*
X117982567Y-95289652D01*
X117899475Y-95304820D01*
X117822935Y-95330099D01*
X117753699Y-95365184D01*
X117699650Y-95403731D01*
X117649292Y-95453088D01*
X117604937Y-95511850D01*
X117568149Y-95577526D01*
X117540493Y-95647620D01*
X117535055Y-95666030D01*
X117526845Y-95706847D01*
X117521815Y-95755444D01*
X117519965Y-95807924D01*
X117521296Y-95860392D01*
X117525811Y-95908951D01*
X117533509Y-95949704D01*
X117534958Y-95954970D01*
X117563579Y-96032252D01*
X117602208Y-96102276D01*
X117650142Y-96164359D01*
X117706682Y-96217816D01*
X117771127Y-96261964D01*
X117842776Y-96296118D01*
X117904423Y-96315688D01*
X117955196Y-96324478D01*
X118012528Y-96327714D01*
X118071782Y-96325552D01*
X118128317Y-96318148D01*
X118174655Y-96306608D01*
X118243911Y-96277565D01*
X118307608Y-96237488D01*
X118347114Y-96204707D01*
X118378298Y-96173856D01*
X118406349Y-96140738D01*
X118432247Y-96103660D01*
X118456974Y-96060927D01*
X118481513Y-96010846D01*
X118506846Y-95951721D01*
X118533445Y-95883220D01*
X118558012Y-95819164D01*
X118579925Y-95766023D01*
X118600007Y-95722497D01*
X118619084Y-95687286D01*
X118637981Y-95659092D01*
X118657521Y-95636614D01*
X118678529Y-95618554D01*
X118701830Y-95603611D01*
X118715345Y-95596534D01*
X118762478Y-95579420D01*
X118812270Y-95572180D01*
X118861211Y-95575047D01*
X118896660Y-95584496D01*
X118941116Y-95607693D01*
X118977694Y-95640256D01*
X119005907Y-95681218D01*
X119025266Y-95729617D01*
X119035283Y-95784488D01*
X119035469Y-95844866D01*
X119034394Y-95856499D01*
X119023121Y-95908844D01*
X119001656Y-95953922D01*
X118970653Y-95991070D01*
X118930767Y-96019626D01*
X118882652Y-96038927D01*
X118846866Y-96046252D01*
X118819180Y-96050047D01*
X118819180Y-96395400D01*
X118819180Y-96607120D01*
X117549180Y-96607120D01*
X117549180Y-96937320D01*
X117549180Y-101285182D01*
X117522575Y-101285020D01*
X117463798Y-101284504D01*
X117414798Y-101283891D01*
X117375285Y-101283179D01*
X117344964Y-101282368D01*
X117323545Y-101281456D01*
X117314230Y-101280806D01*
X117184030Y-101262885D01*
X117056999Y-101232928D01*
X116933692Y-101191326D01*
X116914180Y-101182662D01*
X116914180Y-91317570D01*
X120057430Y-91317570D01*
X120057430Y-89037920D01*
X116914180Y-89037920D01*
X116914180Y-91317570D01*
X116914180Y-101182662D01*
X116814662Y-101138469D01*
X116700464Y-101074750D01*
X116591652Y-101000559D01*
X116488780Y-100916289D01*
X116392402Y-100822329D01*
X116303072Y-100719072D01*
X116221345Y-100606909D01*
X116147776Y-100486230D01*
X116122773Y-100439577D01*
X116073292Y-100336096D01*
X116031232Y-100230826D01*
X115995823Y-100121332D01*
X115966292Y-100005179D01*
X115941871Y-99879932D01*
X115937783Y-99855145D01*
X115937110Y-99850206D01*
X115936467Y-99843765D01*
X115935851Y-99835538D01*
X115935264Y-99825241D01*
X115934703Y-99812590D01*
X115934167Y-99797302D01*
X115933657Y-99779093D01*
X115933171Y-99757678D01*
X115932709Y-99732774D01*
X115932269Y-99704097D01*
X115931851Y-99671363D01*
X115931454Y-99634288D01*
X115931077Y-99592589D01*
X115930720Y-99545982D01*
X115930381Y-99494182D01*
X115930060Y-99436906D01*
X115929756Y-99373869D01*
X115929468Y-99304789D01*
X115929196Y-99229381D01*
X115928938Y-99147362D01*
X115928693Y-99058447D01*
X115928462Y-98962352D01*
X115928243Y-98858795D01*
X115928035Y-98747490D01*
X115927837Y-98628154D01*
X115927650Y-98500504D01*
X115927471Y-98364254D01*
X115927300Y-98219123D01*
X115927137Y-98064824D01*
X115926980Y-97901076D01*
X115926828Y-97727593D01*
X115926682Y-97544092D01*
X115926539Y-97350289D01*
X115926400Y-97145901D01*
X115926263Y-96930643D01*
X115926127Y-96704231D01*
X115925993Y-96466382D01*
X115925858Y-96216812D01*
X115925723Y-95955237D01*
X115925586Y-95681373D01*
X115925524Y-95554608D01*
X115923458Y-91317570D01*
X116577630Y-91317570D01*
X116577630Y-91317570D01*
G37*
X116577630Y-91317570D02*
X116577629Y-89990410D01*
X116577629Y-88663250D01*
X118484217Y-88664848D01*
X120390805Y-88666445D01*
X120392407Y-89992008D01*
X120394009Y-91317570D01*
X121048030Y-91317570D01*
X121048030Y-98239246D01*
X120124416Y-98238598D01*
X119200803Y-98237949D01*
X119235458Y-98192472D01*
X119281515Y-98122981D01*
X119316132Y-98050022D01*
X119339554Y-97972708D01*
X119352023Y-97890155D01*
X119353783Y-97801477D01*
X119351940Y-97769170D01*
X119341207Y-97692916D01*
X119321106Y-97616042D01*
X119292880Y-97542193D01*
X119257777Y-97475012D01*
X119244073Y-97453714D01*
X119221781Y-97424659D01*
X119192326Y-97391498D01*
X119158903Y-97357474D01*
X119124704Y-97325830D01*
X119092924Y-97299811D01*
X119091443Y-97298707D01*
X119049858Y-97271486D01*
X118999832Y-97244499D01*
X118945509Y-97219682D01*
X118891031Y-97198976D01*
X118854105Y-97187716D01*
X118808187Y-97178197D01*
X118753676Y-97171300D01*
X118694434Y-97167177D01*
X118634325Y-97165980D01*
X118577212Y-97167861D01*
X118526959Y-97172971D01*
X118517456Y-97174501D01*
X118424913Y-97196501D01*
X118339212Y-97228746D01*
X118260891Y-97270573D01*
X118190487Y-97321318D01*
X118128539Y-97380316D01*
X118075585Y-97446903D01*
X118032163Y-97520416D01*
X117998811Y-97600190D01*
X117976067Y-97685561D01*
X117964469Y-97775866D01*
X117963854Y-97857701D01*
X117969065Y-97922027D01*
X117978909Y-97978578D01*
X117994490Y-98031780D01*
X118016913Y-98086059D01*
X118025199Y-98103332D01*
X118047457Y-98144720D01*
X118070795Y-98179318D01*
X118099040Y-98212736D01*
X118102110Y-98216045D01*
X118147334Y-98264470D01*
X117993680Y-98264470D01*
X117993680Y-98556570D01*
X121048835Y-98556570D01*
X121046230Y-99161408D01*
X121045760Y-99265225D01*
X121045286Y-99357176D01*
X121044793Y-99438093D01*
X121044263Y-99508809D01*
X121043682Y-99570159D01*
X121043032Y-99622975D01*
X121042297Y-99668090D01*
X121041462Y-99706338D01*
X121040510Y-99738551D01*
X121039424Y-99765564D01*
X121038189Y-99788209D01*
X121036789Y-99807320D01*
X121035206Y-99823729D01*
X121033425Y-99838271D01*
X121032991Y-99841400D01*
X121016220Y-99941953D01*
X120994663Y-100042173D01*
X120969210Y-100138513D01*
X120940748Y-100227428D01*
X120927074Y-100264385D01*
X120918822Y-100286730D01*
X120913201Y-100304099D01*
X120911152Y-100313505D01*
X120911339Y-100314296D01*
X120916837Y-100311556D01*
X120928936Y-100301903D01*
X120945174Y-100287324D01*
X120947658Y-100284984D01*
X120970469Y-100259580D01*
X120996960Y-100223341D01*
X121026363Y-100177329D01*
X121031724Y-100168397D01*
X121049071Y-100139246D01*
X121063957Y-100114228D01*
X121075254Y-100095245D01*
X121081829Y-100084198D01*
X121083029Y-100082182D01*
X121088617Y-100084136D01*
X121102380Y-100090759D01*
X121121350Y-100100623D01*
X121121559Y-100100735D01*
X121140743Y-100110691D01*
X121150294Y-100114620D01*
X121151566Y-100112865D01*
X121147205Y-100107223D01*
X121141152Y-100099042D01*
X121139671Y-100091126D01*
X121143724Y-100080979D01*
X121154271Y-100066104D01*
X121170912Y-100045645D01*
X121186721Y-100026595D01*
X121124899Y-99994845D01*
X121146688Y-99944805D01*
X121165035Y-99899652D01*
X121184501Y-99846519D01*
X121203566Y-99789851D01*
X121220708Y-99734091D01*
X121229279Y-99703513D01*
X121236180Y-99678515D01*
X121242051Y-99658585D01*
X121246023Y-99646610D01*
X121247027Y-99644507D01*
X121253605Y-99644867D01*
X121268669Y-99647505D01*
X121288396Y-99651580D01*
X121308961Y-99656248D01*
X121326541Y-99660667D01*
X121337310Y-99663995D01*
X121338714Y-99664708D01*
X121337750Y-99670995D01*
X121333712Y-99687088D01*
X121327282Y-99710657D01*
X121319141Y-99739375D01*
X121309971Y-99770914D01*
X121300453Y-99802948D01*
X121291270Y-99833148D01*
X121283102Y-99859186D01*
X121276632Y-99878736D01*
X121273646Y-99886895D01*
X121267860Y-99901960D01*
X121266976Y-99906785D01*
X121270989Y-99902848D01*
X121273611Y-99899595D01*
X121281301Y-99888204D01*
X121292809Y-99869173D01*
X121305991Y-99846080D01*
X121309747Y-99839270D01*
X121321829Y-99817344D01*
X121331542Y-99800019D01*
X121337330Y-99790062D01*
X121338167Y-99788796D01*
X121344659Y-99789797D01*
X121358695Y-99795413D01*
X121376822Y-99803908D01*
X121395587Y-99813546D01*
X121411538Y-99822590D01*
X121421220Y-99829303D01*
X121422632Y-99831274D01*
X121419651Y-99838580D01*
X121411703Y-99854132D01*
X121400210Y-99875199D01*
X121393610Y-99886895D01*
X121361061Y-99941158D01*
X121323761Y-99998711D01*
X121284950Y-100054736D01*
X121247864Y-100104416D01*
X121244918Y-100108163D01*
X121205562Y-100157981D01*
X121187756Y-100140921D01*
X121169949Y-100123861D01*
X121146080Y-100166544D01*
X121134030Y-100189004D01*
X121127890Y-100203684D01*
X121126807Y-100213554D01*
X121129929Y-100221584D01*
X121130161Y-100221960D01*
X121132834Y-100228293D01*
X121131767Y-100235374D01*
X121125691Y-100245119D01*
X121113340Y-100259440D01*
X121093444Y-100280255D01*
X121087612Y-100286219D01*
X121061532Y-100314071D01*
X121033714Y-100345788D01*
X121008512Y-100376327D01*
X120998120Y-100389758D01*
X120981108Y-100412003D01*
X120966422Y-100430380D01*
X120956004Y-100442505D01*
X120952379Y-100445943D01*
X120943120Y-100445360D01*
X120933798Y-100439408D01*
X120927017Y-100434359D01*
X120920028Y-100433702D01*
X120909934Y-100438420D01*
X120893838Y-100449498D01*
X120884986Y-100455992D01*
X120866541Y-100469594D01*
X120852433Y-100479976D01*
X120845461Y-100485081D01*
X120845264Y-100485222D01*
X120847595Y-100490434D01*
X120856622Y-100501461D01*
X120862954Y-100508240D01*
X120883385Y-100529320D01*
X120814868Y-100595458D01*
X120786893Y-100621965D01*
X120758340Y-100648166D01*
X120732177Y-100671392D01*
X120711370Y-100688973D01*
X120707583Y-100691993D01*
X120688124Y-100708678D01*
X120663434Y-100731925D01*
X120636619Y-100758714D01*
X120610783Y-100786026D01*
X120609671Y-100787243D01*
X120548638Y-100851784D01*
X120490477Y-100907929D01*
X120432003Y-100958443D01*
X120370031Y-101006093D01*
X120308056Y-101049201D01*
X120203495Y-101113036D01*
X120095798Y-101166645D01*
X119983084Y-101210780D01*
X119863473Y-101246191D01*
X119755805Y-101269838D01*
X119746979Y-101271465D01*
X119738138Y-101272954D01*
X119728701Y-101274313D01*
X119718089Y-101275548D01*
X119705723Y-101276667D01*
X119691022Y-101277678D01*
X119673407Y-101278588D01*
X119652298Y-101279404D01*
X119627116Y-101280135D01*
X119597281Y-101280786D01*
X119562213Y-101281367D01*
X119521333Y-101281884D01*
X119474061Y-101282345D01*
X119419817Y-101282756D01*
X119358021Y-101283127D01*
X119288095Y-101283463D01*
X119209458Y-101283773D01*
X119121530Y-101284064D01*
X119023733Y-101284344D01*
X118915485Y-101284619D01*
X118796209Y-101284897D01*
X118665323Y-101285187D01*
X118539780Y-101285457D01*
X118379854Y-101285768D01*
X118232336Y-101285993D01*
X118096933Y-101286128D01*
X117973353Y-101286175D01*
X117861305Y-101286130D01*
X117760495Y-101285993D01*
X117670631Y-101285763D01*
X117591422Y-101285439D01*
X117549180Y-101285182D01*
X117549180Y-96937320D01*
X119327180Y-96937320D01*
X119327180Y-96607120D01*
X118819180Y-96607120D01*
X118819180Y-96395400D01*
X118862042Y-96389959D01*
X118901290Y-96383235D01*
X118944596Y-96372980D01*
X118987549Y-96360454D01*
X119025736Y-96346918D01*
X119049484Y-96336414D01*
X119119284Y-96294246D01*
X119180904Y-96242985D01*
X119233901Y-96183610D01*
X119277832Y-96117100D01*
X119312255Y-96044434D01*
X119336727Y-95966589D01*
X119350804Y-95884546D01*
X119354045Y-95799281D01*
X119346007Y-95711775D01*
X119342161Y-95689545D01*
X119322754Y-95618065D01*
X119292460Y-95547574D01*
X119252879Y-95481371D01*
X119220873Y-95439775D01*
X119165021Y-95383933D01*
X119100840Y-95336491D01*
X119030075Y-95298119D01*
X118954474Y-95269487D01*
X118875781Y-95251263D01*
X118795745Y-95244117D01*
X118720755Y-95248109D01*
X118643879Y-95262923D01*
X118574549Y-95287373D01*
X118511245Y-95322204D01*
X118452447Y-95368160D01*
X118438180Y-95381876D01*
X118438180Y-95092570D01*
X118495117Y-95092055D01*
X118542438Y-95090276D01*
X118583200Y-95086770D01*
X118620460Y-95081075D01*
X118657275Y-95072729D01*
X118696705Y-95061268D01*
X118739634Y-95046983D01*
X118836706Y-95006851D01*
X118927417Y-94956220D01*
X119011139Y-94895925D01*
X119087241Y-94826798D01*
X119155094Y-94749675D01*
X119214071Y-94665388D01*
X119263540Y-94574773D01*
X119302874Y-94478663D01*
X119331443Y-94377893D01*
X119348617Y-94273295D01*
X119351855Y-94235395D01*
X119353579Y-94204835D01*
X119354674Y-94177162D01*
X119355025Y-94155944D01*
X119354737Y-94146495D01*
X119353555Y-94131002D01*
X119351943Y-94107488D01*
X119350216Y-94080610D01*
X119349942Y-94076166D01*
X119337973Y-93981003D01*
X119314256Y-93886071D01*
X119279654Y-93793089D01*
X119235033Y-93703776D01*
X119181255Y-93619851D01*
X119119186Y-93543034D01*
X119049689Y-93475043D01*
X119046329Y-93472157D01*
X118959400Y-93405966D01*
X118867183Y-93351313D01*
X118769716Y-93308218D01*
X118733856Y-93295702D01*
X118674379Y-93277979D01*
X118618771Y-93265294D01*
X118562948Y-93257042D01*
X118502828Y-93252617D01*
X118435005Y-93251414D01*
X118339560Y-93255298D01*
X118251809Y-93266891D01*
X118168880Y-93286849D01*
X118087905Y-93315829D01*
X118023063Y-93345718D01*
X117962250Y-93378463D01*
X117909259Y-93412086D01*
X117859705Y-93449700D01*
X117809204Y-93494418D01*
X117796297Y-93506705D01*
X117722194Y-93586528D01*
X117659166Y-93672565D01*
X117607215Y-93764813D01*
X117566345Y-93863267D01*
X117536557Y-93967922D01*
X117532009Y-93989207D01*
X117526522Y-94026278D01*
X117522750Y-94072598D01*
X117520689Y-94124832D01*
X117520336Y-94179645D01*
X117521687Y-94233704D01*
X117524739Y-94283672D01*
X117529488Y-94326217D01*
X117532388Y-94343115D01*
X117560166Y-94452015D01*
X117598455Y-94554261D01*
X117646783Y-94649373D01*
X117704680Y-94736868D01*
X117771674Y-94816264D01*
X117847295Y-94887080D01*
X117931071Y-94948833D01*
X118022531Y-95001043D01*
X118121204Y-95043227D01*
X118226619Y-95074904D01*
X118254030Y-95081137D01*
X118277665Y-95085492D01*
X118303298Y-95088659D01*
X118333357Y-95090789D01*
X118370270Y-95092032D01*
X118416468Y-95092539D01*
X118438180Y-95092570D01*
X118438180Y-95381876D01*
X118428655Y-95391034D01*
X118405266Y-95415940D01*
X118384163Y-95441243D01*
X118364588Y-95468373D01*
X118345784Y-95498760D01*
X118326993Y-95533833D01*
X118307459Y-95575024D01*
X118286424Y-95623762D01*
X118263130Y-95681477D01*
X118236821Y-95749599D01*
X118231898Y-95762570D01*
X118213383Y-95810721D01*
X118197980Y-95848666D01*
X118184710Y-95878222D01*
X118172593Y-95901208D01*
X118160652Y-95919440D01*
X118147906Y-95934735D01*
X118133376Y-95948912D01*
X118129800Y-95952100D01*
X118091960Y-95977836D01*
X118051004Y-95992637D01*
X118008811Y-95997045D01*
X117967260Y-95991607D01*
X117928228Y-95976865D01*
X117893595Y-95953363D01*
X117865238Y-95921647D01*
X117845038Y-95882260D01*
X117840662Y-95868345D01*
X117836194Y-95838847D01*
X117836138Y-95804107D01*
X117840073Y-95769169D01*
X117847577Y-95739076D01*
X117852419Y-95727645D01*
X117878276Y-95691124D01*
X117913433Y-95661994D01*
X117956088Y-95641484D01*
X117992092Y-95632469D01*
X118019080Y-95628104D01*
X118019080Y-95285407D01*
X117982567Y-95289652D01*
X117899475Y-95304820D01*
X117822935Y-95330099D01*
X117753699Y-95365184D01*
X117699650Y-95403731D01*
X117649292Y-95453088D01*
X117604937Y-95511850D01*
X117568149Y-95577526D01*
X117540493Y-95647620D01*
X117535055Y-95666030D01*
X117526845Y-95706847D01*
X117521815Y-95755444D01*
X117519965Y-95807924D01*
X117521296Y-95860392D01*
X117525811Y-95908951D01*
X117533509Y-95949704D01*
X117534958Y-95954970D01*
X117563579Y-96032252D01*
X117602208Y-96102276D01*
X117650142Y-96164359D01*
X117706682Y-96217816D01*
X117771127Y-96261964D01*
X117842776Y-96296118D01*
X117904423Y-96315688D01*
X117955196Y-96324478D01*
X118012528Y-96327714D01*
X118071782Y-96325552D01*
X118128317Y-96318148D01*
X118174655Y-96306608D01*
X118243911Y-96277565D01*
X118307608Y-96237488D01*
X118347114Y-96204707D01*
X118378298Y-96173856D01*
X118406349Y-96140738D01*
X118432247Y-96103660D01*
X118456974Y-96060927D01*
X118481513Y-96010846D01*
X118506846Y-95951721D01*
X118533445Y-95883220D01*
X118558012Y-95819164D01*
X118579925Y-95766023D01*
X118600007Y-95722497D01*
X118619084Y-95687286D01*
X118637981Y-95659092D01*
X118657521Y-95636614D01*
X118678529Y-95618554D01*
X118701830Y-95603611D01*
X118715345Y-95596534D01*
X118762478Y-95579420D01*
X118812270Y-95572180D01*
X118861211Y-95575047D01*
X118896660Y-95584496D01*
X118941116Y-95607693D01*
X118977694Y-95640256D01*
X119005907Y-95681218D01*
X119025266Y-95729617D01*
X119035283Y-95784488D01*
X119035469Y-95844866D01*
X119034394Y-95856499D01*
X119023121Y-95908844D01*
X119001656Y-95953922D01*
X118970653Y-95991070D01*
X118930767Y-96019626D01*
X118882652Y-96038927D01*
X118846866Y-96046252D01*
X118819180Y-96050047D01*
X118819180Y-96395400D01*
X118819180Y-96607120D01*
X117549180Y-96607120D01*
X117549180Y-96937320D01*
X117549180Y-101285182D01*
X117522575Y-101285020D01*
X117463798Y-101284504D01*
X117414798Y-101283891D01*
X117375285Y-101283179D01*
X117344964Y-101282368D01*
X117323545Y-101281456D01*
X117314230Y-101280806D01*
X117184030Y-101262885D01*
X117056999Y-101232928D01*
X116933692Y-101191326D01*
X116914180Y-101182662D01*
X116914180Y-91317570D01*
X120057430Y-91317570D01*
X120057430Y-89037920D01*
X116914180Y-89037920D01*
X116914180Y-91317570D01*
X116914180Y-101182662D01*
X116814662Y-101138469D01*
X116700464Y-101074750D01*
X116591652Y-101000559D01*
X116488780Y-100916289D01*
X116392402Y-100822329D01*
X116303072Y-100719072D01*
X116221345Y-100606909D01*
X116147776Y-100486230D01*
X116122773Y-100439577D01*
X116073292Y-100336096D01*
X116031232Y-100230826D01*
X115995823Y-100121332D01*
X115966292Y-100005179D01*
X115941871Y-99879932D01*
X115937783Y-99855145D01*
X115937110Y-99850206D01*
X115936467Y-99843765D01*
X115935851Y-99835538D01*
X115935264Y-99825241D01*
X115934703Y-99812590D01*
X115934167Y-99797302D01*
X115933657Y-99779093D01*
X115933171Y-99757678D01*
X115932709Y-99732774D01*
X115932269Y-99704097D01*
X115931851Y-99671363D01*
X115931454Y-99634288D01*
X115931077Y-99592589D01*
X115930720Y-99545982D01*
X115930381Y-99494182D01*
X115930060Y-99436906D01*
X115929756Y-99373869D01*
X115929468Y-99304789D01*
X115929196Y-99229381D01*
X115928938Y-99147362D01*
X115928693Y-99058447D01*
X115928462Y-98962352D01*
X115928243Y-98858795D01*
X115928035Y-98747490D01*
X115927837Y-98628154D01*
X115927650Y-98500504D01*
X115927471Y-98364254D01*
X115927300Y-98219123D01*
X115927137Y-98064824D01*
X115926980Y-97901076D01*
X115926828Y-97727593D01*
X115926682Y-97544092D01*
X115926539Y-97350289D01*
X115926400Y-97145901D01*
X115926263Y-96930643D01*
X115926127Y-96704231D01*
X115925993Y-96466382D01*
X115925858Y-96216812D01*
X115925723Y-95955237D01*
X115925586Y-95681373D01*
X115925524Y-95554608D01*
X115923458Y-91317570D01*
X116577630Y-91317570D01*
G36*
X121294200Y-97957743D02*
X121294522Y-97919983D01*
X121296540Y-97731070D01*
X121390930Y-97731070D01*
X121390930Y-97920512D01*
X121390793Y-97968346D01*
X121390406Y-98012025D01*
X121389804Y-98049948D01*
X121389022Y-98080509D01*
X121388094Y-98102107D01*
X121387057Y-98113138D01*
X121386696Y-98114187D01*
X121378078Y-98116636D01*
X121361180Y-98117957D01*
X121340372Y-98118181D01*
X121320022Y-98117340D01*
X121304498Y-98115464D01*
X121298855Y-98113561D01*
X121296922Y-98105705D01*
X121295479Y-98085677D01*
X121294536Y-98053994D01*
X121294106Y-98011177D01*
X121294200Y-97957743D01*
X121294200Y-97957743D01*
G37*
X121294200Y-97957743D02*
X121294522Y-97919983D01*
X121296540Y-97731070D01*
X121390930Y-97731070D01*
X121390930Y-97920512D01*
X121390793Y-97968346D01*
X121390406Y-98012025D01*
X121389804Y-98049948D01*
X121389022Y-98080509D01*
X121388094Y-98102107D01*
X121387057Y-98113138D01*
X121386696Y-98114187D01*
X121378078Y-98116636D01*
X121361180Y-98117957D01*
X121340372Y-98118181D01*
X121320022Y-98117340D01*
X121304498Y-98115464D01*
X121298855Y-98113561D01*
X121296922Y-98105705D01*
X121295479Y-98085677D01*
X121294536Y-98053994D01*
X121294106Y-98011177D01*
X121294200Y-97957743D01*
G36*
X121390930Y-97248470D02*
X121390930Y-97635820D01*
X121295680Y-97635820D01*
X121295680Y-97248470D01*
X121390930Y-97248470D01*
X121390930Y-97248470D01*
G37*
X121390930Y-97248470D02*
X121390930Y-97635820D01*
X121295680Y-97635820D01*
X121295680Y-97248470D01*
X121390930Y-97248470D01*
G36*
X121297174Y-96961133D02*
X121298855Y-96769045D01*
X121344892Y-96767180D01*
X121390930Y-96765314D01*
X121390930Y-97153220D01*
X121295493Y-97153220D01*
X121297174Y-96961133D01*
X121297174Y-96961133D01*
G37*
X121297174Y-96961133D02*
X121298855Y-96769045D01*
X121344892Y-96767180D01*
X121390930Y-96765314D01*
X121390930Y-97153220D01*
X121295493Y-97153220D01*
X121297174Y-96961133D01*
G36*
X121390930Y-96289620D02*
X121390930Y-96670620D01*
X121295680Y-96670620D01*
X121295680Y-96289620D01*
X121390930Y-96289620D01*
X121390930Y-96289620D01*
G37*
X121390930Y-96289620D02*
X121390930Y-96670620D01*
X121295680Y-96670620D01*
X121295680Y-96289620D01*
X121390930Y-96289620D01*
G36*
X121390930Y-95807020D02*
X121390930Y-96188020D01*
X121295680Y-96188020D01*
X121295680Y-95807020D01*
X121390930Y-95807020D01*
X121390930Y-95807020D01*
G37*
X121390930Y-95807020D02*
X121390930Y-96188020D01*
X121295680Y-96188020D01*
X121295680Y-95807020D01*
X121390930Y-95807020D01*
G36*
X121390930Y-95324420D02*
X121390930Y-95711770D01*
X121297695Y-95711770D01*
X121293529Y-95583183D01*
X121292197Y-95538660D01*
X121291039Y-95493476D01*
X121290129Y-95451031D01*
X121289541Y-95414725D01*
X121289346Y-95389508D01*
X121289330Y-95324420D01*
X121390930Y-95324420D01*
X121390930Y-95324420D01*
G37*
X121390930Y-95324420D02*
X121390930Y-95711770D01*
X121297695Y-95711770D01*
X121293529Y-95583183D01*
X121292197Y-95538660D01*
X121291039Y-95493476D01*
X121290129Y-95451031D01*
X121289541Y-95414725D01*
X121289346Y-95389508D01*
X121289330Y-95324420D01*
X121390930Y-95324420D01*
G36*
X121281842Y-98888362D02*
X121282529Y-98840523D01*
X121283485Y-98796774D01*
X121284648Y-98758734D01*
X121285957Y-98728023D01*
X121287351Y-98706260D01*
X121288767Y-98695064D01*
X121289211Y-98693981D01*
X121297095Y-98692076D01*
X121312869Y-98691727D01*
X121332865Y-98692633D01*
X121353414Y-98694494D01*
X121370847Y-98697009D01*
X121381497Y-98699876D01*
X121383092Y-98701677D01*
X121382655Y-98708841D01*
X121382146Y-98727086D01*
X121381593Y-98754794D01*
X121381024Y-98790345D01*
X121380467Y-98832121D01*
X121379949Y-98878503D01*
X121379821Y-98891533D01*
X121378038Y-99077270D01*
X121328921Y-99077275D01*
X121279805Y-99077279D01*
X121281842Y-98888362D01*
X121281842Y-98888362D01*
G37*
X121281842Y-98888362D02*
X121282529Y-98840523D01*
X121283485Y-98796774D01*
X121284648Y-98758734D01*
X121285957Y-98728023D01*
X121287351Y-98706260D01*
X121288767Y-98695064D01*
X121289211Y-98693981D01*
X121297095Y-98692076D01*
X121312869Y-98691727D01*
X121332865Y-98692633D01*
X121353414Y-98694494D01*
X121370847Y-98697009D01*
X121381497Y-98699876D01*
X121383092Y-98701677D01*
X121382655Y-98708841D01*
X121382146Y-98727086D01*
X121381593Y-98754794D01*
X121381024Y-98790345D01*
X121380467Y-98832121D01*
X121379949Y-98878503D01*
X121379821Y-98891533D01*
X121378038Y-99077270D01*
X121328921Y-99077275D01*
X121279805Y-99077279D01*
X121281842Y-98888362D01*
G36*
X121384580Y-98213670D02*
X121384580Y-98594670D01*
X121289330Y-98594670D01*
X121289330Y-98213670D01*
X121384580Y-98213670D01*
X121384580Y-98213670D01*
G37*
X121384580Y-98213670D02*
X121384580Y-98594670D01*
X121289330Y-98594670D01*
X121289330Y-98213670D01*
X121384580Y-98213670D01*
G36*
X121384580Y-94841820D02*
X121384580Y-95229170D01*
X121289330Y-95229170D01*
X121289330Y-94841820D01*
X121384580Y-94841820D01*
X121384580Y-94841820D01*
G37*
X121384580Y-94841820D02*
X121384580Y-95229170D01*
X121289330Y-95229170D01*
X121289330Y-94841820D01*
X121384580Y-94841820D01*
G36*
X121285316Y-94368613D02*
X121285371Y-94367833D01*
X121291594Y-94367118D01*
X121307336Y-94366060D01*
X121329431Y-94364868D01*
X121333780Y-94364658D01*
X121381405Y-94362395D01*
X121383085Y-94554483D01*
X121384766Y-94746570D01*
X121291097Y-94746570D01*
X121287842Y-94557658D01*
X121287049Y-94510094D01*
X121286377Y-94466861D01*
X121285847Y-94429528D01*
X121285480Y-94399663D01*
X121285296Y-94378836D01*
X121285316Y-94368613D01*
X121285316Y-94368613D01*
G37*
X121285316Y-94368613D02*
X121285371Y-94367833D01*
X121291594Y-94367118D01*
X121307336Y-94366060D01*
X121329431Y-94364868D01*
X121333780Y-94364658D01*
X121381405Y-94362395D01*
X121383085Y-94554483D01*
X121384766Y-94746570D01*
X121291097Y-94746570D01*
X121287842Y-94557658D01*
X121287049Y-94510094D01*
X121286377Y-94466861D01*
X121285847Y-94429528D01*
X121285480Y-94399663D01*
X121285296Y-94378836D01*
X121285316Y-94368613D01*
G36*
X120941400Y-91020708D02*
X120943255Y-90971495D01*
X121132737Y-90969813D01*
X121186720Y-90969358D01*
X121229371Y-90969115D01*
X121262053Y-90969162D01*
X121286133Y-90969577D01*
X121302976Y-90970440D01*
X121313948Y-90971828D01*
X121320414Y-90973822D01*
X121323741Y-90976498D01*
X121325294Y-90979937D01*
X121325565Y-90980925D01*
X121330255Y-90989207D01*
X121340956Y-90992970D01*
X121356745Y-90993720D01*
X121384580Y-90993720D01*
X121384580Y-91184420D01*
X121384483Y-91240419D01*
X121384157Y-91284930D01*
X121383548Y-91319162D01*
X121382603Y-91344326D01*
X121381268Y-91361631D01*
X121379488Y-91372289D01*
X121377211Y-91377510D01*
X121375973Y-91378422D01*
X121365420Y-91379865D01*
X121346562Y-91380319D01*
X121326761Y-91379810D01*
X121286155Y-91377895D01*
X121288412Y-91223908D01*
X121290669Y-91069920D01*
X120939545Y-91069920D01*
X120941400Y-91020708D01*
X120941400Y-91020708D01*
G37*
X120941400Y-91020708D02*
X120943255Y-90971495D01*
X121132737Y-90969813D01*
X121186720Y-90969358D01*
X121229371Y-90969115D01*
X121262053Y-90969162D01*
X121286133Y-90969577D01*
X121302976Y-90970440D01*
X121313948Y-90971828D01*
X121320414Y-90973822D01*
X121323741Y-90976498D01*
X121325294Y-90979937D01*
X121325565Y-90980925D01*
X121330255Y-90989207D01*
X121340956Y-90992970D01*
X121356745Y-90993720D01*
X121384580Y-90993720D01*
X121384580Y-91184420D01*
X121384483Y-91240419D01*
X121384157Y-91284930D01*
X121383548Y-91319162D01*
X121382603Y-91344326D01*
X121381268Y-91361631D01*
X121379488Y-91372289D01*
X121377211Y-91377510D01*
X121375973Y-91378422D01*
X121365420Y-91379865D01*
X121346562Y-91380319D01*
X121326761Y-91379810D01*
X121286155Y-91377895D01*
X121288412Y-91223908D01*
X121290669Y-91069920D01*
X120939545Y-91069920D01*
X120941400Y-91020708D01*
G36*
X121378230Y-93882970D02*
X121378230Y-94263970D01*
X121282980Y-94263970D01*
X121282980Y-93882970D01*
X121378230Y-93882970D01*
X121378230Y-93882970D01*
G37*
X121378230Y-93882970D02*
X121378230Y-94263970D01*
X121282980Y-94263970D01*
X121282980Y-93882970D01*
X121378230Y-93882970D01*
G36*
X121378230Y-93400370D02*
X121378230Y-93787720D01*
X121282980Y-93787720D01*
X121282980Y-93400370D01*
X121378230Y-93400370D01*
X121378230Y-93400370D01*
G37*
X121378230Y-93400370D02*
X121378230Y-93787720D01*
X121282980Y-93787720D01*
X121282980Y-93400370D01*
X121378230Y-93400370D01*
G36*
X121281747Y-92926327D02*
X121288294Y-92922708D01*
X121302432Y-92920544D01*
X121326619Y-92919183D01*
X121329017Y-92919091D01*
X121378230Y-92917236D01*
X121378230Y-93305120D01*
X121282980Y-93305120D01*
X121281921Y-93124145D01*
X121281630Y-93076996D01*
X121281331Y-93033643D01*
X121281041Y-92995811D01*
X121280772Y-92965226D01*
X121280539Y-92943613D01*
X121280357Y-92932698D01*
X121280334Y-92932058D01*
X121281747Y-92926327D01*
X121281747Y-92926327D01*
G37*
X121281747Y-92926327D02*
X121288294Y-92922708D01*
X121302432Y-92920544D01*
X121326619Y-92919183D01*
X121329017Y-92919091D01*
X121378230Y-92917236D01*
X121378230Y-93305120D01*
X121282980Y-93305120D01*
X121281921Y-93124145D01*
X121281630Y-93076996D01*
X121281331Y-93033643D01*
X121281041Y-92995811D01*
X121280772Y-92965226D01*
X121280539Y-92943613D01*
X121280357Y-92932698D01*
X121280334Y-92932058D01*
X121281747Y-92926327D01*
G36*
X121278124Y-92630433D02*
X121279805Y-92438345D01*
X121375055Y-92438345D01*
X121376735Y-92630433D01*
X121378416Y-92822520D01*
X121276443Y-92822520D01*
X121278124Y-92630433D01*
X121278124Y-92630433D01*
G37*
X121278124Y-92630433D02*
X121279805Y-92438345D01*
X121375055Y-92438345D01*
X121376735Y-92630433D01*
X121378416Y-92822520D01*
X121276443Y-92822520D01*
X121278124Y-92630433D01*
G36*
X121378230Y-91958920D02*
X121378230Y-92339920D01*
X121282980Y-92339920D01*
X121282980Y-91958920D01*
X121378230Y-91958920D01*
X121378230Y-91958920D01*
G37*
X121378230Y-91958920D02*
X121378230Y-92339920D01*
X121282980Y-92339920D01*
X121282980Y-91958920D01*
X121378230Y-91958920D01*
G36*
X121378230Y-91476320D02*
X121378230Y-91865439D01*
X121344892Y-91861435D01*
X121322841Y-91859098D01*
X121303999Y-91857627D01*
X121297267Y-91857376D01*
X121282980Y-91857320D01*
X121282980Y-91476320D01*
X121378230Y-91476320D01*
X121378230Y-91476320D01*
G37*
X121378230Y-91476320D02*
X121378230Y-91865439D01*
X121344892Y-91861435D01*
X121322841Y-91859098D01*
X121303999Y-91857627D01*
X121297267Y-91857376D01*
X121282980Y-91857320D01*
X121282980Y-91476320D01*
X121378230Y-91476320D01*
G36*
X121268517Y-99527844D02*
X121269196Y-99507522D01*
X121270085Y-99478037D01*
X121271131Y-99441155D01*
X121272285Y-99398643D01*
X121273494Y-99352268D01*
X121273584Y-99348733D01*
X121278074Y-99172520D01*
X121371880Y-99172520D01*
X121370727Y-99282058D01*
X121370080Y-99326503D01*
X121369082Y-99374455D01*
X121367852Y-99421144D01*
X121366505Y-99461799D01*
X121365965Y-99475220D01*
X121364323Y-99506595D01*
X121362385Y-99533256D01*
X121360373Y-99552707D01*
X121358508Y-99562448D01*
X121358181Y-99563002D01*
X121350321Y-99563894D01*
X121333621Y-99562297D01*
X121311624Y-99558558D01*
X121310556Y-99558343D01*
X121287321Y-99553075D01*
X121274195Y-99548264D01*
X121268701Y-99542677D01*
X121268099Y-99537237D01*
X121268517Y-99527844D01*
X121268517Y-99527844D01*
G37*
X121268517Y-99527844D02*
X121269196Y-99507522D01*
X121270085Y-99478037D01*
X121271131Y-99441155D01*
X121272285Y-99398643D01*
X121273494Y-99352268D01*
X121273584Y-99348733D01*
X121278074Y-99172520D01*
X121371880Y-99172520D01*
X121370727Y-99282058D01*
X121370080Y-99326503D01*
X121369082Y-99374455D01*
X121367852Y-99421144D01*
X121366505Y-99461799D01*
X121365965Y-99475220D01*
X121364323Y-99506595D01*
X121362385Y-99533256D01*
X121360373Y-99552707D01*
X121358508Y-99562448D01*
X121358181Y-99563002D01*
X121350321Y-99563894D01*
X121333621Y-99562297D01*
X121311624Y-99558558D01*
X121310556Y-99558343D01*
X121287321Y-99553075D01*
X121274195Y-99548264D01*
X121268701Y-99542677D01*
X121268099Y-99537237D01*
X121268517Y-99527844D01*
G36*
X120882930Y-90580970D02*
X120882930Y-90650820D01*
X121105180Y-90650820D01*
X121105180Y-90746070D01*
X120787680Y-90746070D01*
X120787680Y-90580970D01*
X120882930Y-90580970D01*
X120882930Y-90580970D01*
G37*
X120882930Y-90580970D02*
X120882930Y-90650820D01*
X121105180Y-90650820D01*
X121105180Y-90746070D01*
X120787680Y-90746070D01*
X120787680Y-90580970D01*
X120882930Y-90580970D01*
G36*
X120882930Y-90098370D02*
X120882930Y-90485720D01*
X120787680Y-90485720D01*
X120787680Y-90098370D01*
X120882930Y-90098370D01*
X120882930Y-90098370D01*
G37*
X120882930Y-90098370D02*
X120882930Y-90485720D01*
X120787680Y-90485720D01*
X120787680Y-90098370D01*
X120882930Y-90098370D01*
G36*
X120882930Y-89622120D02*
X120882930Y-90003120D01*
X120787680Y-90003120D01*
X120787680Y-89622120D01*
X120882930Y-89622120D01*
X120882930Y-89622120D01*
G37*
X120882930Y-89622120D02*
X120882930Y-90003120D01*
X120787680Y-90003120D01*
X120787680Y-89622120D01*
X120882930Y-89622120D01*
G36*
X120882930Y-89139520D02*
X120882930Y-89520520D01*
X120787680Y-89520520D01*
X120787680Y-89139520D01*
X120882930Y-89139520D01*
X120882930Y-89139520D01*
G37*
X120882930Y-89139520D02*
X120882930Y-89520520D01*
X120787680Y-89520520D01*
X120787680Y-89139520D01*
X120882930Y-89139520D01*
G36*
X120882930Y-88656920D02*
X120882930Y-89044270D01*
X120787680Y-89044270D01*
X120787680Y-88656920D01*
X120882930Y-88656920D01*
X120882930Y-88656920D01*
G37*
X120882930Y-88656920D02*
X120882930Y-89044270D01*
X120787680Y-89044270D01*
X120787680Y-88656920D01*
X120882930Y-88656920D01*
G36*
X120787706Y-88328084D02*
X120787852Y-88286800D01*
X120788211Y-88255472D01*
X120788882Y-88232727D01*
X120789959Y-88217192D01*
X120791540Y-88207497D01*
X120793720Y-88202268D01*
X120796597Y-88200133D01*
X120800266Y-88199721D01*
X120800380Y-88199720D01*
X120808688Y-88197590D01*
X120812360Y-88188981D01*
X120813080Y-88174320D01*
X120813080Y-88148920D01*
X120882930Y-88148920D01*
X120882930Y-88561670D01*
X120787680Y-88561670D01*
X120787680Y-88380695D01*
X120787706Y-88328084D01*
X120787706Y-88328084D01*
G37*
X120787706Y-88328084D02*
X120787852Y-88286800D01*
X120788211Y-88255472D01*
X120788882Y-88232727D01*
X120789959Y-88217192D01*
X120791540Y-88207497D01*
X120793720Y-88202268D01*
X120796597Y-88200133D01*
X120800266Y-88199721D01*
X120800380Y-88199720D01*
X120808688Y-88197590D01*
X120812360Y-88188981D01*
X120813080Y-88174320D01*
X120813080Y-88148920D01*
X120882930Y-88148920D01*
X120882930Y-88561670D01*
X120787680Y-88561670D01*
X120787680Y-88380695D01*
X120787706Y-88328084D01*
G36*
X120622580Y-90904820D02*
X120622580Y-90968320D01*
X120844830Y-90968320D01*
X120844830Y-91070142D01*
X120687667Y-91068444D01*
X120530505Y-91066745D01*
X120528727Y-90985783D01*
X120526950Y-90904820D01*
X120622580Y-90904820D01*
X120622580Y-90904820D01*
G37*
X120622580Y-90904820D02*
X120622580Y-90968320D01*
X120844830Y-90968320D01*
X120844830Y-91070142D01*
X120687667Y-91068444D01*
X120530505Y-91066745D01*
X120528727Y-90985783D01*
X120526950Y-90904820D01*
X120622580Y-90904820D01*
G36*
X120717830Y-88148920D02*
X120717830Y-88244170D01*
X120330480Y-88244170D01*
X120330480Y-88148920D01*
X120717830Y-88148920D01*
X120717830Y-88148920D01*
G37*
X120717830Y-88148920D02*
X120717830Y-88244170D01*
X120330480Y-88244170D01*
X120330480Y-88148920D01*
X120717830Y-88148920D01*
G36*
X120622580Y-90422220D02*
X120622580Y-90803220D01*
X120527330Y-90803220D01*
X120527330Y-90422220D01*
X120622580Y-90422220D01*
X120622580Y-90422220D01*
G37*
X120622580Y-90422220D02*
X120622580Y-90803220D01*
X120527330Y-90803220D01*
X120527330Y-90422220D01*
X120622580Y-90422220D01*
G36*
X120622580Y-89939620D02*
X120622580Y-90327527D01*
X120576542Y-90325661D01*
X120530505Y-90323795D01*
X120528824Y-90131708D01*
X120527143Y-89939620D01*
X120622580Y-89939620D01*
X120622580Y-89939620D01*
G37*
X120622580Y-89939620D02*
X120622580Y-90327527D01*
X120576542Y-90325661D01*
X120530505Y-90323795D01*
X120528824Y-90131708D01*
X120527143Y-89939620D01*
X120622580Y-89939620D01*
G36*
X120528824Y-89652283D02*
X120530505Y-89460195D01*
X120576542Y-89458330D01*
X120622580Y-89456464D01*
X120622580Y-89844370D01*
X120527143Y-89844370D01*
X120528824Y-89652283D01*
X120528824Y-89652283D01*
G37*
X120528824Y-89652283D02*
X120530505Y-89460195D01*
X120576542Y-89458330D01*
X120622580Y-89456464D01*
X120622580Y-89844370D01*
X120527143Y-89844370D01*
X120528824Y-89652283D01*
G36*
X120528824Y-89169683D02*
X120530505Y-88977595D01*
X120576542Y-88975730D01*
X120622580Y-88973864D01*
X120622580Y-89361770D01*
X120527143Y-89361770D01*
X120528824Y-89169683D01*
X120528824Y-89169683D01*
G37*
X120528824Y-89169683D02*
X120530505Y-88977595D01*
X120576542Y-88975730D01*
X120622580Y-88973864D01*
X120622580Y-89361770D01*
X120527143Y-89361770D01*
X120528824Y-89169683D01*
G36*
X120527356Y-88645584D02*
X120527502Y-88604300D01*
X120527861Y-88572972D01*
X120528532Y-88550227D01*
X120529609Y-88534692D01*
X120531190Y-88524997D01*
X120533370Y-88519768D01*
X120536247Y-88517633D01*
X120539916Y-88517221D01*
X120540030Y-88517220D01*
X120548783Y-88514734D01*
X120552314Y-88505029D01*
X120552730Y-88494995D01*
X120552730Y-88472770D01*
X120622580Y-88472770D01*
X120622580Y-88879170D01*
X120527330Y-88879170D01*
X120527330Y-88698195D01*
X120527356Y-88645584D01*
X120527356Y-88645584D01*
G37*
X120527356Y-88645584D02*
X120527502Y-88604300D01*
X120527861Y-88572972D01*
X120528532Y-88550227D01*
X120529609Y-88534692D01*
X120531190Y-88524997D01*
X120533370Y-88519768D01*
X120536247Y-88517633D01*
X120539916Y-88517221D01*
X120540030Y-88517220D01*
X120548783Y-88514734D01*
X120552314Y-88505029D01*
X120552730Y-88494995D01*
X120552730Y-88472770D01*
X120622580Y-88472770D01*
X120622580Y-88879170D01*
X120527330Y-88879170D01*
X120527330Y-88698195D01*
X120527356Y-88645584D01*
G36*
X120457480Y-88472770D02*
X120457480Y-88568020D01*
X120076480Y-88568020D01*
X120076480Y-88472770D01*
X120457480Y-88472770D01*
X120457480Y-88472770D01*
G37*
X120457480Y-88472770D02*
X120457480Y-88568020D01*
X120076480Y-88568020D01*
X120076480Y-88472770D01*
X120457480Y-88472770D01*
G36*
X120235230Y-88148920D02*
X120235230Y-88244170D01*
X119847880Y-88244170D01*
X119847880Y-88148920D01*
X120235230Y-88148920D01*
X120235230Y-88148920D01*
G37*
X120235230Y-88148920D02*
X120235230Y-88244170D01*
X119847880Y-88244170D01*
X119847880Y-88148920D01*
X120235230Y-88148920D01*
G36*
X119981230Y-88472770D02*
X119981230Y-88516162D01*
X119980651Y-88538568D01*
X119979134Y-88555669D01*
X119977007Y-88563776D01*
X119976996Y-88563787D01*
X119969810Y-88564853D01*
X119951527Y-88565820D01*
X119923751Y-88566654D01*
X119888084Y-88567320D01*
X119846130Y-88567782D01*
X119799492Y-88568005D01*
X119783321Y-88568020D01*
X119593880Y-88568020D01*
X119593880Y-88472770D01*
X119981230Y-88472770D01*
X119981230Y-88472770D01*
G37*
X119981230Y-88472770D02*
X119981230Y-88516162D01*
X119980651Y-88538568D01*
X119979134Y-88555669D01*
X119977007Y-88563776D01*
X119976996Y-88563787D01*
X119969810Y-88564853D01*
X119951527Y-88565820D01*
X119923751Y-88566654D01*
X119888084Y-88567320D01*
X119846130Y-88567782D01*
X119799492Y-88568005D01*
X119783321Y-88568020D01*
X119593880Y-88568020D01*
X119593880Y-88472770D01*
X119981230Y-88472770D01*
G36*
X119752630Y-88148920D02*
X119752630Y-88244170D01*
X119371630Y-88244170D01*
X119371630Y-88148920D01*
X119752630Y-88148920D01*
X119752630Y-88148920D01*
G37*
X119752630Y-88148920D02*
X119752630Y-88244170D01*
X119371630Y-88244170D01*
X119371630Y-88148920D01*
X119752630Y-88148920D01*
G36*
X119112600Y-88518808D02*
X119114455Y-88469595D01*
X119495455Y-88469595D01*
X119497294Y-88514323D01*
X119497611Y-88537105D01*
X119496706Y-88554673D01*
X119494774Y-88563391D01*
X119494648Y-88563535D01*
X119487397Y-88564664D01*
X119469051Y-88565689D01*
X119441215Y-88566572D01*
X119405493Y-88567277D01*
X119363491Y-88567767D01*
X119316812Y-88568004D01*
X119300454Y-88568020D01*
X119110745Y-88568020D01*
X119112600Y-88518808D01*
X119112600Y-88518808D01*
G37*
X119112600Y-88518808D02*
X119114455Y-88469595D01*
X119495455Y-88469595D01*
X119497294Y-88514323D01*
X119497611Y-88537105D01*
X119496706Y-88554673D01*
X119494774Y-88563391D01*
X119494648Y-88563535D01*
X119487397Y-88564664D01*
X119469051Y-88565689D01*
X119441215Y-88566572D01*
X119405493Y-88567277D01*
X119363491Y-88567767D01*
X119316812Y-88568004D01*
X119300454Y-88568020D01*
X119110745Y-88568020D01*
X119112600Y-88518808D01*
G36*
X119270030Y-88148920D02*
X119270030Y-88244170D01*
X118889030Y-88244170D01*
X118889030Y-88148920D01*
X119270030Y-88148920D01*
X119270030Y-88148920D01*
G37*
X119270030Y-88148920D02*
X119270030Y-88244170D01*
X118889030Y-88244170D01*
X118889030Y-88148920D01*
X119270030Y-88148920D01*
G36*
X118256375Y-97845370D02*
X118264401Y-97783326D01*
X118280408Y-97728926D01*
X118305675Y-97679356D01*
X118341483Y-97631803D01*
X118364978Y-97606651D01*
X118414944Y-97562728D01*
X118467874Y-97529640D01*
X118526985Y-97505526D01*
X118552480Y-97498134D01*
X118591061Y-97491154D01*
X118636842Y-97487697D01*
X118684956Y-97487759D01*
X118730540Y-97491334D01*
X118768380Y-97498325D01*
X118834446Y-97521904D01*
X118894269Y-97555211D01*
X118946726Y-97597157D01*
X118990692Y-97646652D01*
X119025044Y-97702608D01*
X119048657Y-97763935D01*
X119050841Y-97772092D01*
X119056710Y-97806657D01*
X119059428Y-97848535D01*
X119059000Y-97892739D01*
X119055437Y-97934281D01*
X119050537Y-97961416D01*
X119028744Y-98025150D01*
X118996128Y-98083353D01*
X118953749Y-98134969D01*
X118902668Y-98178940D01*
X118843947Y-98214210D01*
X118778648Y-98239723D01*
X118767872Y-98242772D01*
X118734768Y-98249016D01*
X118693953Y-98252790D01*
X118649991Y-98254022D01*
X118607445Y-98252637D01*
X118570879Y-98248563D01*
X118558830Y-98246135D01*
X118493386Y-98224275D01*
X118433409Y-98191971D01*
X118380105Y-98150440D01*
X118334680Y-98100902D01*
X118298338Y-98044575D01*
X118272285Y-97982678D01*
X118262836Y-97946970D01*
X118255911Y-97895536D01*
X118256375Y-97845370D01*
X118256375Y-97845370D01*
G37*
X118256375Y-97845370D02*
X118264401Y-97783326D01*
X118280408Y-97728926D01*
X118305675Y-97679356D01*
X118341483Y-97631803D01*
X118364978Y-97606651D01*
X118414944Y-97562728D01*
X118467874Y-97529640D01*
X118526985Y-97505526D01*
X118552480Y-97498134D01*
X118591061Y-97491154D01*
X118636842Y-97487697D01*
X118684956Y-97487759D01*
X118730540Y-97491334D01*
X118768380Y-97498325D01*
X118834446Y-97521904D01*
X118894269Y-97555211D01*
X118946726Y-97597157D01*
X118990692Y-97646652D01*
X119025044Y-97702608D01*
X119048657Y-97763935D01*
X119050841Y-97772092D01*
X119056710Y-97806657D01*
X119059428Y-97848535D01*
X119059000Y-97892739D01*
X119055437Y-97934281D01*
X119050537Y-97961416D01*
X119028744Y-98025150D01*
X118996128Y-98083353D01*
X118953749Y-98134969D01*
X118902668Y-98178940D01*
X118843947Y-98214210D01*
X118778648Y-98239723D01*
X118767872Y-98242772D01*
X118734768Y-98249016D01*
X118693953Y-98252790D01*
X118649991Y-98254022D01*
X118607445Y-98252637D01*
X118570879Y-98248563D01*
X118558830Y-98246135D01*
X118493386Y-98224275D01*
X118433409Y-98191971D01*
X118380105Y-98150440D01*
X118334680Y-98100902D01*
X118298338Y-98044575D01*
X118272285Y-97982678D01*
X118262836Y-97946970D01*
X118255911Y-97895536D01*
X118256375Y-97845370D01*
G36*
X119012855Y-88469595D02*
X119014711Y-88518902D01*
X119016567Y-88568208D01*
X118824211Y-88566527D01*
X118631855Y-88564845D01*
X118631855Y-88469595D01*
X119012855Y-88469595D01*
X119012855Y-88469595D01*
G37*
X119012855Y-88469595D02*
X119014711Y-88518902D01*
X119016567Y-88568208D01*
X118824211Y-88566527D01*
X118631855Y-88564845D01*
X118631855Y-88469595D01*
X119012855Y-88469595D01*
G36*
X118793780Y-88148920D02*
X118793780Y-88244170D01*
X118406430Y-88244170D01*
X118406430Y-88148920D01*
X118793780Y-88148920D01*
X118793780Y-88148920D01*
G37*
X118793780Y-88148920D02*
X118793780Y-88244170D01*
X118406430Y-88244170D01*
X118406430Y-88148920D01*
X118793780Y-88148920D01*
G36*
X118341342Y-88467915D02*
X118533430Y-88466234D01*
X118533430Y-88568207D01*
X118341342Y-88566526D01*
X118149255Y-88564845D01*
X118149255Y-88469595D01*
X118341342Y-88467915D01*
X118341342Y-88467915D01*
G37*
X118341342Y-88467915D02*
X118533430Y-88466234D01*
X118533430Y-88568207D01*
X118341342Y-88566526D01*
X118149255Y-88564845D01*
X118149255Y-88469595D01*
X118341342Y-88467915D01*
G36*
X118311180Y-88148920D02*
X118311180Y-88244170D01*
X117923830Y-88244170D01*
X117923830Y-88148920D01*
X118311180Y-88148920D01*
X118311180Y-88148920D01*
G37*
X118311180Y-88148920D02*
X118311180Y-88244170D01*
X117923830Y-88244170D01*
X117923830Y-88148920D01*
X118311180Y-88148920D01*
G36*
X118050830Y-88466420D02*
X118050830Y-88568020D01*
X117669830Y-88568020D01*
X117669830Y-88466420D01*
X118050830Y-88466420D01*
X118050830Y-88466420D01*
G37*
X118050830Y-88466420D02*
X118050830Y-88568020D01*
X117669830Y-88568020D01*
X117669830Y-88466420D01*
X118050830Y-88466420D01*
G36*
X117828580Y-88148920D02*
X117828580Y-88244170D01*
X117441230Y-88244170D01*
X117441230Y-88148920D01*
X117828580Y-88148920D01*
X117828580Y-88148920D01*
G37*
X117828580Y-88148920D02*
X117828580Y-88244170D01*
X117441230Y-88244170D01*
X117441230Y-88148920D01*
X117828580Y-88148920D01*
G36*
X117568230Y-88466420D02*
X117568230Y-88568020D01*
X117187230Y-88568020D01*
X117187230Y-88466420D01*
X117568230Y-88466420D01*
X117568230Y-88466420D01*
G37*
X117568230Y-88466420D02*
X117568230Y-88568020D01*
X117187230Y-88568020D01*
X117187230Y-88466420D01*
X117568230Y-88466420D01*
G36*
X117345980Y-88148920D02*
X117345980Y-88244170D01*
X117104680Y-88244170D01*
X117104680Y-88288620D01*
X117009430Y-88288620D01*
X117009343Y-88233058D01*
X117008875Y-88206011D01*
X117007705Y-88182440D01*
X117006054Y-88166290D01*
X117005427Y-88163208D01*
X117001598Y-88148920D01*
X117345980Y-88148920D01*
X117345980Y-88148920D01*
G37*
X117345980Y-88148920D02*
X117345980Y-88244170D01*
X117104680Y-88244170D01*
X117104680Y-88288620D01*
X117009430Y-88288620D01*
X117009343Y-88233058D01*
X117008875Y-88206011D01*
X117007705Y-88182440D01*
X117006054Y-88166290D01*
X117005427Y-88163208D01*
X117001598Y-88148920D01*
X117345980Y-88148920D01*
G36*
X117009430Y-88466420D02*
X117009430Y-88383870D01*
X117104680Y-88383870D01*
X117104680Y-88468068D01*
X117104532Y-88502493D01*
X117103890Y-88526421D01*
X117102451Y-88542053D01*
X117099913Y-88551589D01*
X117095975Y-88557232D01*
X117092066Y-88560143D01*
X117081752Y-88563336D01*
X117061898Y-88565660D01*
X117031619Y-88567169D01*
X116990030Y-88567915D01*
X116961891Y-88568020D01*
X116844330Y-88568020D01*
X116844330Y-88586330D01*
X116842287Y-88598493D01*
X116834753Y-88606274D01*
X116819615Y-88610561D01*
X116794761Y-88612243D01*
X116782417Y-88612384D01*
X116749080Y-88612470D01*
X116749080Y-88466420D01*
X117009430Y-88466420D01*
X117009430Y-88466420D01*
G37*
X117009430Y-88466420D02*
X117009430Y-88383870D01*
X117104680Y-88383870D01*
X117104680Y-88468068D01*
X117104532Y-88502493D01*
X117103890Y-88526421D01*
X117102451Y-88542053D01*
X117099913Y-88551589D01*
X117095975Y-88557232D01*
X117092066Y-88560143D01*
X117081752Y-88563336D01*
X117061898Y-88565660D01*
X117031619Y-88567169D01*
X116990030Y-88567915D01*
X116961891Y-88568020D01*
X116844330Y-88568020D01*
X116844330Y-88586330D01*
X116842287Y-88598493D01*
X116834753Y-88606274D01*
X116819615Y-88610561D01*
X116794761Y-88612243D01*
X116782417Y-88612384D01*
X116749080Y-88612470D01*
X116749080Y-88466420D01*
X117009430Y-88466420D01*
G36*
X119543080Y-89945970D02*
X119543080Y-90403170D01*
X118787430Y-90403170D01*
X118787430Y-89945970D01*
X119543080Y-89945970D01*
X119543080Y-89945970D01*
G37*
X119543080Y-89945970D02*
X119543080Y-90403170D01*
X118787430Y-90403170D01*
X118787430Y-89945970D01*
X119543080Y-89945970D01*
G36*
X118184180Y-89945970D02*
X118184180Y-90403170D01*
X117428530Y-90403170D01*
X117428530Y-89945970D01*
X118184180Y-89945970D01*
X118184180Y-89945970D01*
G37*
X118184180Y-89945970D02*
X118184180Y-90403170D01*
X117428530Y-90403170D01*
X117428530Y-89945970D01*
X118184180Y-89945970D01*
G36*
X117838721Y-94130363D02*
X117839523Y-94098460D01*
X117841370Y-94073125D01*
X117844531Y-94051298D01*
X117849273Y-94029920D01*
X117852031Y-94019495D01*
X117880991Y-93936570D01*
X117920156Y-93860940D01*
X117969029Y-93793059D01*
X118027116Y-93733381D01*
X118093921Y-93682361D01*
X118168949Y-93640453D01*
X118251704Y-93608110D01*
X118320705Y-93589942D01*
X118342615Y-93586787D01*
X118373565Y-93584337D01*
X118409902Y-93582809D01*
X118447705Y-93582418D01*
X118488166Y-93583090D01*
X118520057Y-93584828D01*
X118547494Y-93588096D01*
X118574593Y-93593361D01*
X118600050Y-93599652D01*
X118684312Y-93627631D01*
X118760593Y-93665121D01*
X118828528Y-93711895D01*
X118887756Y-93767728D01*
X118906813Y-93789926D01*
X118956044Y-93860365D01*
X118993713Y-93935954D01*
X119019735Y-94016404D01*
X119034024Y-94101428D01*
X119036497Y-94190736D01*
X119034575Y-94222695D01*
X119021477Y-94306856D01*
X118996736Y-94387246D01*
X118961111Y-94462775D01*
X118915360Y-94532351D01*
X118860241Y-94594881D01*
X118796512Y-94649274D01*
X118724931Y-94694438D01*
X118697536Y-94708157D01*
X118650746Y-94728535D01*
X118607892Y-94743355D01*
X118565336Y-94753364D01*
X118519440Y-94759313D01*
X118466567Y-94761952D01*
X118435005Y-94762265D01*
X118393319Y-94761992D01*
X118361166Y-94760974D01*
X118335388Y-94758915D01*
X118312824Y-94755516D01*
X118290316Y-94750481D01*
X118279430Y-94747620D01*
X118195181Y-94718574D01*
X118118164Y-94679147D01*
X118048532Y-94629428D01*
X117999640Y-94583766D01*
X117964831Y-94545172D01*
X117937188Y-94508758D01*
X117913340Y-94469608D01*
X117891234Y-94425623D01*
X117872106Y-94382091D01*
X117858098Y-94342746D01*
X117848479Y-94304062D01*
X117842520Y-94262509D01*
X117839490Y-94214560D01*
X117838698Y-94171895D01*
X117838721Y-94130363D01*
X117838721Y-94130363D01*
G37*
X117838721Y-94130363D02*
X117839523Y-94098460D01*
X117841370Y-94073125D01*
X117844531Y-94051298D01*
X117849273Y-94029920D01*
X117852031Y-94019495D01*
X117880991Y-93936570D01*
X117920156Y-93860940D01*
X117969029Y-93793059D01*
X118027116Y-93733381D01*
X118093921Y-93682361D01*
X118168949Y-93640453D01*
X118251704Y-93608110D01*
X118320705Y-93589942D01*
X118342615Y-93586787D01*
X118373565Y-93584337D01*
X118409902Y-93582809D01*
X118447705Y-93582418D01*
X118488166Y-93583090D01*
X118520057Y-93584828D01*
X118547494Y-93588096D01*
X118574593Y-93593361D01*
X118600050Y-93599652D01*
X118684312Y-93627631D01*
X118760593Y-93665121D01*
X118828528Y-93711895D01*
X118887756Y-93767728D01*
X118906813Y-93789926D01*
X118956044Y-93860365D01*
X118993713Y-93935954D01*
X119019735Y-94016404D01*
X119034024Y-94101428D01*
X119036497Y-94190736D01*
X119034575Y-94222695D01*
X119021477Y-94306856D01*
X118996736Y-94387246D01*
X118961111Y-94462775D01*
X118915360Y-94532351D01*
X118860241Y-94594881D01*
X118796512Y-94649274D01*
X118724931Y-94694438D01*
X118697536Y-94708157D01*
X118650746Y-94728535D01*
X118607892Y-94743355D01*
X118565336Y-94753364D01*
X118519440Y-94759313D01*
X118466567Y-94761952D01*
X118435005Y-94762265D01*
X118393319Y-94761992D01*
X118361166Y-94760974D01*
X118335388Y-94758915D01*
X118312824Y-94755516D01*
X118290316Y-94750481D01*
X118279430Y-94747620D01*
X118195181Y-94718574D01*
X118118164Y-94679147D01*
X118048532Y-94629428D01*
X117999640Y-94583766D01*
X117964831Y-94545172D01*
X117937188Y-94508758D01*
X117913340Y-94469608D01*
X117891234Y-94425623D01*
X117872106Y-94382091D01*
X117858098Y-94342746D01*
X117848479Y-94304062D01*
X117842520Y-94262509D01*
X117839490Y-94214560D01*
X117838698Y-94171895D01*
X117838721Y-94130363D01*
D12*
X156116642Y-99592753D02*
X156164261Y-99449896D01*
X156164261Y-99211800D01*
X156116642Y-99116562D01*
X156069023Y-99068943D01*
X155973785Y-99021324D01*
X155878547Y-99021324D01*
X155783309Y-99068943D01*
X155735690Y-99116562D01*
X155688070Y-99211800D01*
X155640451Y-99402277D01*
X155592832Y-99497515D01*
X155545213Y-99545134D01*
X155449975Y-99592753D01*
X155354737Y-99592753D01*
X155259499Y-99545134D01*
X155211880Y-99497515D01*
X155164261Y-99402277D01*
X155164261Y-99164181D01*
X155211880Y-99021324D01*
X155164261Y-98687991D02*
X156164261Y-98449896D01*
X155449975Y-98259419D01*
X156164261Y-98068943D01*
X155164261Y-97830848D01*
X155259499Y-97497515D02*
X155211880Y-97449896D01*
X155164261Y-97354658D01*
X155164261Y-97116562D01*
X155211880Y-97021324D01*
X155259499Y-96973705D01*
X155354737Y-96926086D01*
X155449975Y-96926086D01*
X155592832Y-96973705D01*
X156164261Y-97545134D01*
X156164261Y-96926086D01*
X170102356Y-83611801D02*
X170102356Y-82611801D01*
X170435690Y-83326087D01*
X170769023Y-82611801D01*
X170769023Y-83611801D01*
X171769023Y-83611801D02*
X171197594Y-83611801D01*
X171483308Y-83611801D02*
X171483308Y-82611801D01*
X171388070Y-82754658D01*
X171292832Y-82849896D01*
X171197594Y-82897515D01*
X170102356Y-106311801D02*
X170102356Y-105311801D01*
X170435690Y-106026087D01*
X170769023Y-105311801D01*
X170769023Y-106311801D01*
X171197594Y-105407039D02*
X171245213Y-105359420D01*
X171340451Y-105311801D01*
X171578547Y-105311801D01*
X171673785Y-105359420D01*
X171721404Y-105407039D01*
X171769023Y-105502277D01*
X171769023Y-105597515D01*
X171721404Y-105740372D01*
X171149975Y-106311801D01*
X171769023Y-106311801D01*
X112202356Y-83811801D02*
X112202356Y-82811801D01*
X112535690Y-83526087D01*
X112869023Y-82811801D01*
X112869023Y-83811801D01*
X113249975Y-82811801D02*
X113869023Y-82811801D01*
X113535689Y-83192753D01*
X113678547Y-83192753D01*
X113773785Y-83240372D01*
X113821404Y-83287991D01*
X113869023Y-83383230D01*
X113869023Y-83621325D01*
X113821404Y-83716563D01*
X113773785Y-83764182D01*
X113678547Y-83811801D01*
X113392832Y-83811801D01*
X113297594Y-83764182D01*
X113249975Y-83716563D01*
X112102356Y-106211801D02*
X112102356Y-105211801D01*
X112435690Y-105926087D01*
X112769023Y-105211801D01*
X112769023Y-106211801D01*
X113673785Y-105545134D02*
X113673785Y-106211801D01*
X113435689Y-105164182D02*
X113197594Y-105878468D01*
X113816642Y-105878468D01*
X111264261Y-95297515D02*
X110264261Y-95297515D01*
X110264261Y-94916562D01*
X110311880Y-94821324D01*
X110359499Y-94773705D01*
X110454737Y-94726086D01*
X110597594Y-94726086D01*
X110692832Y-94773705D01*
X110740451Y-94821324D01*
X110788070Y-94916562D01*
X110788070Y-95297515D01*
X110359499Y-94345134D02*
X110311880Y-94297515D01*
X110264261Y-94202277D01*
X110264261Y-93964181D01*
X110311880Y-93868943D01*
X110359499Y-93821324D01*
X110454737Y-93773705D01*
X110549975Y-93773705D01*
X110692832Y-93821324D01*
X111264261Y-94392753D01*
X111264261Y-93773705D01*
X162516642Y-91592753D02*
X162564261Y-91449896D01*
X162564261Y-91211800D01*
X162516642Y-91116562D01*
X162469023Y-91068943D01*
X162373785Y-91021324D01*
X162278547Y-91021324D01*
X162183309Y-91068943D01*
X162135690Y-91116562D01*
X162088070Y-91211800D01*
X162040451Y-91402277D01*
X161992832Y-91497515D01*
X161945213Y-91545134D01*
X161849975Y-91592753D01*
X161754737Y-91592753D01*
X161659499Y-91545134D01*
X161611880Y-91497515D01*
X161564261Y-91402277D01*
X161564261Y-91164181D01*
X161611880Y-91021324D01*
X161564261Y-90687991D02*
X162564261Y-90449896D01*
X161849975Y-90259419D01*
X162564261Y-90068943D01*
X161564261Y-89830848D01*
X162564261Y-88926086D02*
X162564261Y-89497515D01*
X162564261Y-89211801D02*
X161564261Y-89211801D01*
X161707118Y-89307039D01*
X161802356Y-89402277D01*
X161849975Y-89497515D01*
X168116642Y-99592753D02*
X168164261Y-99449896D01*
X168164261Y-99211800D01*
X168116642Y-99116562D01*
X168069023Y-99068943D01*
X167973785Y-99021324D01*
X167878547Y-99021324D01*
X167783309Y-99068943D01*
X167735690Y-99116562D01*
X167688070Y-99211800D01*
X167640451Y-99402277D01*
X167592832Y-99497515D01*
X167545213Y-99545134D01*
X167449975Y-99592753D01*
X167354737Y-99592753D01*
X167259499Y-99545134D01*
X167211880Y-99497515D01*
X167164261Y-99402277D01*
X167164261Y-99164181D01*
X167211880Y-99021324D01*
X167164261Y-98687991D02*
X168164261Y-98449896D01*
X167449975Y-98259419D01*
X168164261Y-98068943D01*
X167164261Y-97830848D01*
X167164261Y-97545134D02*
X167164261Y-96926086D01*
X167545213Y-97259420D01*
X167545213Y-97116562D01*
X167592832Y-97021324D01*
X167640451Y-96973705D01*
X167735690Y-96926086D01*
X167973785Y-96926086D01*
X168069023Y-96973705D01*
X168116642Y-97021324D01*
X168164261Y-97116562D01*
X168164261Y-97402277D01*
X168116642Y-97497515D01*
X168069023Y-97545134D01*
M02*
