G04 #@! TF.FileFunction,Copper,L2,Bot,Signal*
%FSLAX46Y46*%
G04 Gerber Fmt 4.6, Leading zero omitted, Abs format (unit mm)*
G04 Created by KiCad (PCBNEW 4.0.7) date 12/09/17 12:54:44*
%MOMM*%
%LPD*%
G01*
G04 APERTURE LIST*
%ADD10C,0.100000*%
%ADD11R,0.350000X2.500000*%
%ADD12R,1.250000X1.000000*%
%ADD13R,0.700000X1.300000*%
%ADD14C,3.000000*%
%ADD15C,1.250000*%
%ADD16C,2.800000*%
%ADD17C,1.400000*%
%ADD18R,1.300000X0.700000*%
%ADD19R,1.000000X1.250000*%
%ADD20C,1.850000*%
%ADD21R,1.700000X0.650000*%
%ADD22C,0.889000*%
%ADD23C,0.700000*%
%ADD24C,0.254000*%
%ADD25C,0.200000*%
%ADD26C,0.600000*%
%ADD27C,0.250000*%
%ADD28C,0.500000*%
G04 APERTURE END LIST*
D10*
D11*
X125411880Y-96559420D03*
X126161880Y-96609420D03*
X126861880Y-96609420D03*
X127561880Y-96609420D03*
X128261880Y-96609420D03*
X128961880Y-96609420D03*
X129661880Y-96609420D03*
X130361880Y-96609420D03*
X131061880Y-96609420D03*
X131761880Y-96609420D03*
X132461880Y-96609420D03*
X133161880Y-96609420D03*
X133861880Y-96609420D03*
X134561880Y-96609420D03*
X135261880Y-96609420D03*
X135961880Y-96609420D03*
X136661880Y-96609420D03*
X137361880Y-96609420D03*
X138061880Y-96609420D03*
X138761880Y-96609420D03*
X139461880Y-96609420D03*
X140161880Y-96609420D03*
X140861880Y-96609420D03*
X141561880Y-96609420D03*
X142261880Y-96609420D03*
X142961880Y-96609420D03*
X143661880Y-96609420D03*
X144361880Y-96609420D03*
X145061880Y-96609420D03*
X145811880Y-96509420D03*
D12*
X147911880Y-99259420D03*
X147911880Y-97259420D03*
X147886880Y-93609420D03*
X147886880Y-95609420D03*
D13*
X123661880Y-92159420D03*
X121761880Y-92159420D03*
D14*
X170911880Y-83259420D03*
X170911880Y-105759420D03*
X112911880Y-83259420D03*
X112911880Y-105759420D03*
D15*
X114411880Y-90959420D03*
X114411880Y-97959420D03*
X114411880Y-95459420D03*
X114411880Y-93459420D03*
D16*
X112211880Y-88659420D03*
X112211880Y-100359420D03*
D17*
X112211880Y-96709420D03*
X112211880Y-92209420D03*
D18*
X159911880Y-82309420D03*
X159911880Y-84209420D03*
X156911880Y-82309420D03*
X156911880Y-84209420D03*
X162911880Y-82309420D03*
X162911880Y-84209420D03*
D13*
X120181880Y-81809420D03*
X122081880Y-81809420D03*
D19*
X140061880Y-99209420D03*
X142061880Y-99209420D03*
X121511880Y-90109420D03*
X123511880Y-90109420D03*
X121511880Y-94159420D03*
X123511880Y-94159420D03*
X147861880Y-91409420D03*
X145861880Y-91409420D03*
D20*
X120461880Y-103309420D03*
X140811880Y-81669420D03*
X138271880Y-81659420D03*
X143351880Y-84209420D03*
X138271880Y-84209420D03*
X123031880Y-84199420D03*
X117961880Y-84209420D03*
X166211880Y-84259420D03*
X148431880Y-84199420D03*
X153521880Y-84209420D03*
X150971880Y-84209420D03*
D21*
X126581880Y-84544420D03*
X126581880Y-83274420D03*
X126581880Y-82004420D03*
X126581880Y-80734420D03*
X133881880Y-80734420D03*
X133881880Y-82004420D03*
X133881880Y-83274420D03*
X133881880Y-84544420D03*
D20*
X134211880Y-107709420D03*
X132151880Y-107709420D03*
D22*
X123086880Y-97009420D03*
X167941880Y-95959420D03*
X155811880Y-95959420D03*
X161921880Y-92559420D03*
X139186880Y-94109420D03*
D23*
X130921880Y-84549420D03*
X121171880Y-83909420D03*
X135731880Y-81499420D03*
X137011880Y-91084420D03*
X142311880Y-82709420D03*
X149636880Y-82809420D03*
X134011880Y-94084420D03*
X129971880Y-83269420D03*
X138036880Y-92309420D03*
X152211880Y-83159420D03*
X125961880Y-92209420D03*
X128361880Y-94609420D03*
X126011880Y-94234420D03*
X127561880Y-94184420D03*
X130771880Y-104779420D03*
X130771880Y-105659420D03*
D22*
X153441880Y-99359420D03*
X155021880Y-83099420D03*
X160991880Y-85659420D03*
X163311880Y-98739420D03*
X157961880Y-86259420D03*
D23*
X135761880Y-91134420D03*
X124191880Y-81919420D03*
X124871880Y-84019420D03*
D24*
X123086880Y-97009420D02*
X124211880Y-97009420D01*
X124011880Y-97009420D02*
X124211880Y-97009420D01*
X124211880Y-97009420D02*
X125411880Y-97009420D01*
X121511880Y-94159420D02*
X121511880Y-95434420D01*
X121511880Y-95434420D02*
X123086880Y-97009420D01*
X126581880Y-80734420D02*
X123826880Y-80734420D01*
X117961880Y-81889420D02*
X117961880Y-84209420D01*
X119401880Y-80449420D02*
X117961880Y-81889420D01*
X123541880Y-80449420D02*
X119401880Y-80449420D01*
X123826880Y-80734420D02*
X123541880Y-80449420D01*
X155811880Y-95959420D02*
X155811880Y-95949420D01*
D25*
X147861880Y-91409420D02*
X148311880Y-91409420D01*
X148311880Y-91409420D02*
X149621880Y-90099420D01*
D24*
X121511880Y-90109420D02*
X121511880Y-91909420D01*
X121511880Y-91909420D02*
X121761880Y-92159420D01*
X121511880Y-94159420D02*
X121511880Y-92409420D01*
X121511880Y-92409420D02*
X121761880Y-92159420D01*
X138761880Y-96609420D02*
X138761880Y-94534420D01*
X138761880Y-94534420D02*
X139186880Y-94109420D01*
X125411880Y-97009420D02*
X125761880Y-97009420D01*
X125761880Y-97009420D02*
X126161880Y-96609420D01*
X140861880Y-96609420D02*
X140861880Y-98684420D01*
X140861880Y-98684420D02*
X140336880Y-99209420D01*
X140336880Y-99209420D02*
X140061880Y-99209420D01*
X138761880Y-96609420D02*
X138061880Y-96609420D01*
X139461880Y-96609420D02*
X138761880Y-96609420D01*
X140061880Y-99209420D02*
X139436880Y-99209420D01*
X139436880Y-99209420D02*
X138761880Y-98534420D01*
X138761880Y-98534420D02*
X138761880Y-96609420D01*
D26*
X114411880Y-90959420D02*
X114411880Y-87759420D01*
X114411880Y-87759420D02*
X117961880Y-84209420D01*
D24*
X147911880Y-97259420D02*
X147536880Y-97259420D01*
X147536880Y-97259420D02*
X146261880Y-98534420D01*
X146261880Y-98534420D02*
X145561880Y-98534420D01*
X145561880Y-98534420D02*
X145061880Y-98034420D01*
X145061880Y-98034420D02*
X145061880Y-96609420D01*
X148411880Y-97259420D02*
X148186880Y-97259420D01*
X147886880Y-93609420D02*
X144436880Y-93609420D01*
X144436880Y-93609420D02*
X142961880Y-95084420D01*
X142961880Y-95084420D02*
X142961880Y-96609420D01*
X120181880Y-84399420D02*
X120181880Y-96289420D01*
X120181880Y-96289420D02*
X124671880Y-100779420D01*
X124671880Y-100779420D02*
X142061880Y-100779420D01*
X120181880Y-84399420D02*
X120681880Y-84399420D01*
X130926880Y-84544420D02*
X133881880Y-84544420D01*
X130921880Y-84549420D02*
X130926880Y-84544420D01*
X120681880Y-84399420D02*
X121171880Y-83909420D01*
X120181880Y-81809420D02*
X120181880Y-84399420D01*
D26*
X166211880Y-84259420D02*
X166211880Y-100759420D01*
X142061880Y-100889420D02*
X142061880Y-100779420D01*
X142061880Y-100779420D02*
X142061880Y-99209420D01*
X144311880Y-103139420D02*
X142061880Y-100889420D01*
X163831880Y-103139420D02*
X144311880Y-103139420D01*
X166211880Y-100759420D02*
X163831880Y-103139420D01*
D25*
X159911880Y-82309420D02*
X162911880Y-82309420D01*
X159911880Y-82309420D02*
X156911880Y-82309420D01*
X166211880Y-84259420D02*
X166211880Y-83409420D01*
X166211880Y-83409420D02*
X165111880Y-82309420D01*
X165111880Y-82309420D02*
X162911880Y-82309420D01*
D24*
X142261880Y-95059420D02*
X142261880Y-96609420D01*
X141836880Y-94634420D02*
X142261880Y-95059420D01*
X140811880Y-94634420D02*
X141836880Y-94634420D01*
X140161880Y-95284420D02*
X140811880Y-94634420D01*
X140161880Y-96609420D02*
X140161880Y-95284420D01*
X145861880Y-91409420D02*
X145336880Y-91409420D01*
X145336880Y-91409420D02*
X142261880Y-94484420D01*
X142261880Y-94484420D02*
X142261880Y-96609420D01*
X142261880Y-96609420D02*
X142261880Y-99009420D01*
X142261880Y-99009420D02*
X142061880Y-99209420D01*
D25*
X143351880Y-84209420D02*
X140921880Y-84209420D01*
X135956880Y-80734420D02*
X133881880Y-80734420D01*
X136501880Y-81279420D02*
X135956880Y-80734420D01*
X136501880Y-82079420D02*
X136501880Y-81279420D01*
X137331880Y-82909420D02*
X136501880Y-82079420D01*
X139621880Y-82909420D02*
X137331880Y-82909420D01*
X140921880Y-84209420D02*
X139621880Y-82909420D01*
D24*
X143351880Y-84209420D02*
X146511880Y-84209420D01*
X146511880Y-84209420D02*
X148036880Y-85734420D01*
X148036880Y-85734420D02*
X148036880Y-88559420D01*
X148036880Y-88559420D02*
X146536880Y-90059420D01*
X146536880Y-90059420D02*
X134461880Y-90059420D01*
X134461880Y-90059420D02*
X133161880Y-91359420D01*
X133161880Y-91359420D02*
X133161880Y-96609420D01*
D25*
X133881880Y-82004420D02*
X135226880Y-82004420D01*
X135226880Y-82004420D02*
X135731880Y-81499420D01*
D24*
X137011880Y-91084420D02*
X136661880Y-91434420D01*
X136661880Y-91434420D02*
X136661880Y-96609420D01*
D25*
X138271880Y-84209420D02*
X137311880Y-84209420D01*
X136376880Y-83274420D02*
X133881880Y-83274420D01*
X137311880Y-84209420D02*
X136376880Y-83274420D01*
D24*
X142311880Y-82709420D02*
X143786880Y-81234420D01*
X143786880Y-81234420D02*
X148061880Y-81234420D01*
X148061880Y-81234420D02*
X149636880Y-82809420D01*
X134011880Y-94084420D02*
X133861880Y-94234420D01*
X133861880Y-94234420D02*
X133861880Y-96609420D01*
D27*
X126581880Y-83274420D02*
X129966880Y-83274420D01*
X129966880Y-83274420D02*
X129971880Y-83269420D01*
D24*
X138036880Y-92309420D02*
X137361880Y-92984420D01*
X137361880Y-92984420D02*
X137361880Y-96609420D01*
X138271880Y-81659420D02*
X138561880Y-81659420D01*
X138561880Y-81659420D02*
X139961880Y-80259420D01*
X139961880Y-80259420D02*
X149761880Y-80259420D01*
X149761880Y-80259420D02*
X152211880Y-82709420D01*
X152211880Y-82709420D02*
X152211880Y-83159420D01*
D26*
X114411880Y-97959420D02*
X114411880Y-100759420D01*
X114411880Y-100759420D02*
X116961880Y-103309420D01*
X116961880Y-103309420D02*
X120461880Y-103309420D01*
D24*
X147911880Y-99259420D02*
X145061880Y-99259420D01*
X145061880Y-99259420D02*
X144361880Y-98559420D01*
X144361880Y-98559420D02*
X144361880Y-96609420D01*
X148411880Y-99259420D02*
X147586880Y-99259420D01*
X147886880Y-95609420D02*
X147186880Y-95609420D01*
X147186880Y-95609420D02*
X146236880Y-94659420D01*
X146236880Y-94659420D02*
X144236880Y-94659420D01*
X144236880Y-94659420D02*
X143661880Y-95234420D01*
X143661880Y-95234420D02*
X143661880Y-96609420D01*
X123661880Y-92159420D02*
X125911880Y-92159420D01*
X125911880Y-92159420D02*
X125961880Y-92209420D01*
X128361880Y-94609420D02*
X128261880Y-94709420D01*
X128261880Y-94709420D02*
X128261880Y-96609420D01*
X123511880Y-94159420D02*
X125936880Y-94159420D01*
X125936880Y-94159420D02*
X126011880Y-94234420D01*
X127561880Y-94184420D02*
X127561880Y-96609420D01*
X123511880Y-90109420D02*
X125436880Y-90109420D01*
X125436880Y-90109420D02*
X126861880Y-91534420D01*
X126861880Y-91534420D02*
X126861880Y-96609420D01*
D27*
X114411880Y-95459420D02*
X115196881Y-94674419D01*
X124142826Y-102094420D02*
X131032826Y-102094420D01*
X117297921Y-95880100D02*
X117358447Y-95850953D01*
X117422089Y-95797948D02*
X117474612Y-95756062D01*
X116997826Y-94949420D02*
X117039711Y-95001942D01*
X116900724Y-95563346D02*
X116900724Y-95630525D01*
X115196881Y-94674419D02*
X116722825Y-94674419D01*
X116722825Y-94674419D02*
X116997826Y-94949420D01*
X117039228Y-95850953D02*
X117099754Y-95880100D01*
X117039711Y-95321161D02*
X116997826Y-95373684D01*
X117039711Y-95001942D02*
X117068858Y-95062468D01*
X117600632Y-95711966D02*
X117667811Y-95711966D01*
X117165248Y-95895049D02*
X117232427Y-95895049D01*
X117068858Y-95260635D02*
X117039711Y-95321161D01*
X117068858Y-95062468D02*
X117083807Y-95127962D01*
X117083807Y-95127962D02*
X117083807Y-95195141D01*
X131582825Y-105004421D02*
X130996881Y-105004421D01*
X117083807Y-95195141D02*
X117068858Y-95260635D01*
X117474612Y-95756062D02*
X117535138Y-95726915D01*
X116986706Y-95809068D02*
X117039228Y-95850953D01*
X116944820Y-95756545D02*
X116986706Y-95809068D01*
X116915673Y-95497852D02*
X116900724Y-95563346D01*
X116915673Y-95696019D02*
X116944820Y-95756545D01*
X116997826Y-95373684D02*
X116986706Y-95384803D01*
X116944820Y-95437326D02*
X116915673Y-95497852D01*
X116986706Y-95384803D02*
X116944820Y-95437326D01*
X116900724Y-95630525D02*
X116915673Y-95696019D01*
X117358447Y-95850953D02*
X117410970Y-95809068D01*
X117733305Y-95726915D02*
X117793831Y-95756062D01*
X117099754Y-95880100D02*
X117165248Y-95895049D01*
X117232427Y-95895049D02*
X117297921Y-95880100D01*
X117410970Y-95809068D02*
X117422089Y-95797948D01*
X117535138Y-95726915D02*
X117600632Y-95711966D01*
X117667811Y-95711966D02*
X117733305Y-95726915D01*
X131032826Y-102094420D02*
X132156880Y-103218474D01*
X117793831Y-95756062D02*
X117846354Y-95797948D01*
X117846354Y-95797948D02*
X124142826Y-102094420D01*
X132156880Y-103218474D02*
X132156880Y-104430366D01*
X132156880Y-104430366D02*
X131582825Y-105004421D01*
X130996881Y-105004421D02*
X130771880Y-104779420D01*
X124320934Y-101664420D02*
X116900935Y-94244421D01*
X116900935Y-94244421D02*
X115196881Y-94244421D01*
X115196881Y-94244421D02*
X114411880Y-93459420D01*
X131210934Y-101664420D02*
X124320934Y-101664420D01*
X132586880Y-103040366D02*
X131210934Y-101664420D01*
X132586880Y-104608474D02*
X132586880Y-103040366D01*
X131760935Y-105434419D02*
X132586880Y-104608474D01*
X130771880Y-105659420D02*
X130996881Y-105434419D01*
X130996881Y-105434419D02*
X131760935Y-105434419D01*
D24*
X148431880Y-84199420D02*
X148431880Y-84459420D01*
X148431880Y-84459420D02*
X153441880Y-89469420D01*
X153441880Y-89469420D02*
X153441880Y-99359420D01*
X156131880Y-84209420D02*
X156911880Y-84209420D01*
X155021880Y-83099420D02*
X156131880Y-84209420D01*
X148431880Y-84199420D02*
X148551880Y-84199420D01*
X161031880Y-85699420D02*
X162911880Y-85699420D01*
X160991880Y-85659420D02*
X161031880Y-85699420D01*
X162911880Y-84209420D02*
X162911880Y-85699420D01*
X162911880Y-85699420D02*
X162911880Y-98339420D01*
X162911880Y-98339420D02*
X163311880Y-98739420D01*
D25*
X162961880Y-84259420D02*
X162911880Y-84209420D01*
D24*
X150971880Y-84209420D02*
X150971880Y-84309420D01*
X150971880Y-84309420D02*
X152921880Y-86259420D01*
X152921880Y-86259420D02*
X157961880Y-86259420D01*
X159911880Y-84209420D02*
X159911880Y-85339420D01*
X158991880Y-86259420D02*
X157961880Y-86259420D01*
X159911880Y-85339420D02*
X158991880Y-86259420D01*
X150971880Y-84209420D02*
X151261880Y-84209420D01*
D27*
X126581880Y-82004420D02*
X125226880Y-82004420D01*
X125226880Y-82004420D02*
X123031880Y-84199420D01*
D24*
X135961880Y-91334420D02*
X135961880Y-96609420D01*
X135761880Y-91134420D02*
X135961880Y-91334420D01*
X126581880Y-84544420D02*
X125396880Y-84544420D01*
X124081880Y-81809420D02*
X122081880Y-81809420D01*
X124191880Y-81919420D02*
X124081880Y-81809420D01*
X125396880Y-84544420D02*
X124871880Y-84019420D01*
D28*
G36*
X172326151Y-80505494D02*
X173026528Y-80973472D01*
X173494506Y-81673849D01*
X173661880Y-82515297D01*
X173661880Y-106484703D01*
X173494506Y-107326151D01*
X173026528Y-108026528D01*
X172326151Y-108494506D01*
X171418745Y-108675000D01*
X135615491Y-108675000D01*
X135631048Y-108659470D01*
X135886588Y-108044060D01*
X135887170Y-107377704D01*
X135836956Y-107256176D01*
X169420781Y-107256176D01*
X169561896Y-107624317D01*
X170378323Y-107998976D01*
X171275979Y-108032683D01*
X172118204Y-107720306D01*
X172261864Y-107624317D01*
X172402979Y-107256176D01*
X170911880Y-105765077D01*
X169420781Y-107256176D01*
X135836956Y-107256176D01*
X135632704Y-106761848D01*
X135161930Y-106290252D01*
X134760392Y-106123519D01*
X168638617Y-106123519D01*
X168950994Y-106965744D01*
X169046983Y-107109404D01*
X169415124Y-107250519D01*
X170906223Y-105759420D01*
X170917537Y-105759420D01*
X172408636Y-107250519D01*
X172776777Y-107109404D01*
X173151436Y-106292977D01*
X173185143Y-105395321D01*
X172872766Y-104553096D01*
X172776777Y-104409436D01*
X172408636Y-104268321D01*
X170917537Y-105759420D01*
X170906223Y-105759420D01*
X169415124Y-104268321D01*
X169046983Y-104409436D01*
X168672324Y-105225863D01*
X168638617Y-106123519D01*
X134760392Y-106123519D01*
X134546520Y-106034712D01*
X133880164Y-106034130D01*
X133264308Y-106288596D01*
X133182149Y-106370611D01*
X133101930Y-106290252D01*
X132486520Y-106034712D01*
X132398155Y-106034635D01*
X133205599Y-105227192D01*
X133395275Y-104943322D01*
X133461880Y-104608474D01*
X133461880Y-104262664D01*
X169420781Y-104262664D01*
X170911880Y-105753763D01*
X172402979Y-104262664D01*
X172261864Y-103894523D01*
X171445437Y-103519864D01*
X170547781Y-103486157D01*
X169705556Y-103798534D01*
X169561896Y-103894523D01*
X169420781Y-104262664D01*
X133461880Y-104262664D01*
X133461880Y-103040366D01*
X133395275Y-102705518D01*
X133395275Y-102705517D01*
X133205598Y-102421647D01*
X132440370Y-101656420D01*
X141343956Y-101656420D01*
X143569418Y-103881882D01*
X143910062Y-104109494D01*
X144311880Y-104189420D01*
X163831880Y-104189420D01*
X164233698Y-104109494D01*
X164574342Y-103881882D01*
X166954342Y-101501882D01*
X167181954Y-101161238D01*
X167261880Y-100759420D01*
X167261880Y-85577995D01*
X167631048Y-85209470D01*
X167819271Y-84756176D01*
X169420781Y-84756176D01*
X169561896Y-85124317D01*
X170378323Y-85498976D01*
X171275979Y-85532683D01*
X172118204Y-85220306D01*
X172261864Y-85124317D01*
X172402979Y-84756176D01*
X170911880Y-83265077D01*
X169420781Y-84756176D01*
X167819271Y-84756176D01*
X167886588Y-84594060D01*
X167887170Y-83927704D01*
X167761484Y-83623519D01*
X168638617Y-83623519D01*
X168950994Y-84465744D01*
X169046983Y-84609404D01*
X169415124Y-84750519D01*
X170906223Y-83259420D01*
X170917537Y-83259420D01*
X172408636Y-84750519D01*
X172776777Y-84609404D01*
X173151436Y-83792977D01*
X173185143Y-82895321D01*
X172872766Y-82053096D01*
X172776777Y-81909436D01*
X172408636Y-81768321D01*
X170917537Y-83259420D01*
X170906223Y-83259420D01*
X169415124Y-81768321D01*
X169046983Y-81909436D01*
X168672324Y-82725863D01*
X168638617Y-83623519D01*
X167761484Y-83623519D01*
X167632704Y-83311848D01*
X167161930Y-82840252D01*
X166619599Y-82615057D01*
X165767206Y-81762664D01*
X169420781Y-81762664D01*
X170911880Y-83253763D01*
X172402979Y-81762664D01*
X172261864Y-81394523D01*
X171445437Y-81019864D01*
X170547781Y-80986157D01*
X169705556Y-81298534D01*
X169561896Y-81394523D01*
X169420781Y-81762664D01*
X165767206Y-81762664D01*
X165712921Y-81708379D01*
X165437161Y-81524122D01*
X165111880Y-81459420D01*
X164131380Y-81459420D01*
X164110018Y-81426222D01*
X163859388Y-81254974D01*
X163561880Y-81194727D01*
X162261880Y-81194727D01*
X161983947Y-81247024D01*
X161728682Y-81411282D01*
X161695791Y-81459420D01*
X161131380Y-81459420D01*
X161110018Y-81426222D01*
X160859388Y-81254974D01*
X160561880Y-81194727D01*
X159261880Y-81194727D01*
X158983947Y-81247024D01*
X158728682Y-81411282D01*
X158695791Y-81459420D01*
X158131380Y-81459420D01*
X158110018Y-81426222D01*
X157859388Y-81254974D01*
X157561880Y-81194727D01*
X156261880Y-81194727D01*
X155983947Y-81247024D01*
X155728682Y-81411282D01*
X155557434Y-81661912D01*
X155497187Y-81959420D01*
X155497187Y-82003398D01*
X155260523Y-81905127D01*
X154785322Y-81904713D01*
X154346134Y-82086181D01*
X154009822Y-82421906D01*
X153947324Y-82572417D01*
X153856520Y-82534712D01*
X153190164Y-82534130D01*
X153150490Y-82550523D01*
X153144958Y-82537134D01*
X153032127Y-82424106D01*
X153022122Y-82373806D01*
X152924316Y-82227429D01*
X152832013Y-82089287D01*
X152832010Y-82089285D01*
X151067726Y-80325000D01*
X171418745Y-80325000D01*
X172326151Y-80505494D01*
X172326151Y-80505494D01*
G37*
X172326151Y-80505494D02*
X173026528Y-80973472D01*
X173494506Y-81673849D01*
X173661880Y-82515297D01*
X173661880Y-106484703D01*
X173494506Y-107326151D01*
X173026528Y-108026528D01*
X172326151Y-108494506D01*
X171418745Y-108675000D01*
X135615491Y-108675000D01*
X135631048Y-108659470D01*
X135886588Y-108044060D01*
X135887170Y-107377704D01*
X135836956Y-107256176D01*
X169420781Y-107256176D01*
X169561896Y-107624317D01*
X170378323Y-107998976D01*
X171275979Y-108032683D01*
X172118204Y-107720306D01*
X172261864Y-107624317D01*
X172402979Y-107256176D01*
X170911880Y-105765077D01*
X169420781Y-107256176D01*
X135836956Y-107256176D01*
X135632704Y-106761848D01*
X135161930Y-106290252D01*
X134760392Y-106123519D01*
X168638617Y-106123519D01*
X168950994Y-106965744D01*
X169046983Y-107109404D01*
X169415124Y-107250519D01*
X170906223Y-105759420D01*
X170917537Y-105759420D01*
X172408636Y-107250519D01*
X172776777Y-107109404D01*
X173151436Y-106292977D01*
X173185143Y-105395321D01*
X172872766Y-104553096D01*
X172776777Y-104409436D01*
X172408636Y-104268321D01*
X170917537Y-105759420D01*
X170906223Y-105759420D01*
X169415124Y-104268321D01*
X169046983Y-104409436D01*
X168672324Y-105225863D01*
X168638617Y-106123519D01*
X134760392Y-106123519D01*
X134546520Y-106034712D01*
X133880164Y-106034130D01*
X133264308Y-106288596D01*
X133182149Y-106370611D01*
X133101930Y-106290252D01*
X132486520Y-106034712D01*
X132398155Y-106034635D01*
X133205599Y-105227192D01*
X133395275Y-104943322D01*
X133461880Y-104608474D01*
X133461880Y-104262664D01*
X169420781Y-104262664D01*
X170911880Y-105753763D01*
X172402979Y-104262664D01*
X172261864Y-103894523D01*
X171445437Y-103519864D01*
X170547781Y-103486157D01*
X169705556Y-103798534D01*
X169561896Y-103894523D01*
X169420781Y-104262664D01*
X133461880Y-104262664D01*
X133461880Y-103040366D01*
X133395275Y-102705518D01*
X133395275Y-102705517D01*
X133205598Y-102421647D01*
X132440370Y-101656420D01*
X141343956Y-101656420D01*
X143569418Y-103881882D01*
X143910062Y-104109494D01*
X144311880Y-104189420D01*
X163831880Y-104189420D01*
X164233698Y-104109494D01*
X164574342Y-103881882D01*
X166954342Y-101501882D01*
X167181954Y-101161238D01*
X167261880Y-100759420D01*
X167261880Y-85577995D01*
X167631048Y-85209470D01*
X167819271Y-84756176D01*
X169420781Y-84756176D01*
X169561896Y-85124317D01*
X170378323Y-85498976D01*
X171275979Y-85532683D01*
X172118204Y-85220306D01*
X172261864Y-85124317D01*
X172402979Y-84756176D01*
X170911880Y-83265077D01*
X169420781Y-84756176D01*
X167819271Y-84756176D01*
X167886588Y-84594060D01*
X167887170Y-83927704D01*
X167761484Y-83623519D01*
X168638617Y-83623519D01*
X168950994Y-84465744D01*
X169046983Y-84609404D01*
X169415124Y-84750519D01*
X170906223Y-83259420D01*
X170917537Y-83259420D01*
X172408636Y-84750519D01*
X172776777Y-84609404D01*
X173151436Y-83792977D01*
X173185143Y-82895321D01*
X172872766Y-82053096D01*
X172776777Y-81909436D01*
X172408636Y-81768321D01*
X170917537Y-83259420D01*
X170906223Y-83259420D01*
X169415124Y-81768321D01*
X169046983Y-81909436D01*
X168672324Y-82725863D01*
X168638617Y-83623519D01*
X167761484Y-83623519D01*
X167632704Y-83311848D01*
X167161930Y-82840252D01*
X166619599Y-82615057D01*
X165767206Y-81762664D01*
X169420781Y-81762664D01*
X170911880Y-83253763D01*
X172402979Y-81762664D01*
X172261864Y-81394523D01*
X171445437Y-81019864D01*
X170547781Y-80986157D01*
X169705556Y-81298534D01*
X169561896Y-81394523D01*
X169420781Y-81762664D01*
X165767206Y-81762664D01*
X165712921Y-81708379D01*
X165437161Y-81524122D01*
X165111880Y-81459420D01*
X164131380Y-81459420D01*
X164110018Y-81426222D01*
X163859388Y-81254974D01*
X163561880Y-81194727D01*
X162261880Y-81194727D01*
X161983947Y-81247024D01*
X161728682Y-81411282D01*
X161695791Y-81459420D01*
X161131380Y-81459420D01*
X161110018Y-81426222D01*
X160859388Y-81254974D01*
X160561880Y-81194727D01*
X159261880Y-81194727D01*
X158983947Y-81247024D01*
X158728682Y-81411282D01*
X158695791Y-81459420D01*
X158131380Y-81459420D01*
X158110018Y-81426222D01*
X157859388Y-81254974D01*
X157561880Y-81194727D01*
X156261880Y-81194727D01*
X155983947Y-81247024D01*
X155728682Y-81411282D01*
X155557434Y-81661912D01*
X155497187Y-81959420D01*
X155497187Y-82003398D01*
X155260523Y-81905127D01*
X154785322Y-81904713D01*
X154346134Y-82086181D01*
X154009822Y-82421906D01*
X153947324Y-82572417D01*
X153856520Y-82534712D01*
X153190164Y-82534130D01*
X153150490Y-82550523D01*
X153144958Y-82537134D01*
X153032127Y-82424106D01*
X153022122Y-82373806D01*
X152924316Y-82227429D01*
X152832013Y-82089287D01*
X152832010Y-82089285D01*
X151067726Y-80325000D01*
X171418745Y-80325000D01*
X172326151Y-80505494D01*
G36*
X124973880Y-80540920D02*
X125163380Y-80730420D01*
X126577880Y-80730420D01*
X126577880Y-80710420D01*
X126585880Y-80710420D01*
X126585880Y-80730420D01*
X128000380Y-80730420D01*
X128189880Y-80540920D01*
X128189880Y-80325000D01*
X132284283Y-80325000D01*
X132267187Y-80409420D01*
X132267187Y-81059420D01*
X132319484Y-81337353D01*
X132338106Y-81366293D01*
X132327434Y-81381912D01*
X132267187Y-81679420D01*
X132267187Y-82329420D01*
X132319484Y-82607353D01*
X132338106Y-82636293D01*
X132327434Y-82651912D01*
X132267187Y-82949420D01*
X132267187Y-83599420D01*
X132279982Y-83667420D01*
X131595697Y-83667420D01*
X131545793Y-83617429D01*
X131141643Y-83449612D01*
X131071723Y-83449551D01*
X131072070Y-83051576D01*
X130904958Y-82647134D01*
X130595793Y-82337429D01*
X130191643Y-82169612D01*
X129754036Y-82169230D01*
X129349594Y-82336342D01*
X129286406Y-82399420D01*
X128182398Y-82399420D01*
X128196573Y-82329420D01*
X128196573Y-81679420D01*
X128144276Y-81401487D01*
X128123815Y-81369690D01*
X128189880Y-81210195D01*
X128189880Y-80927920D01*
X128000380Y-80738420D01*
X126585880Y-80738420D01*
X126585880Y-80758420D01*
X126577880Y-80758420D01*
X126577880Y-80738420D01*
X125163380Y-80738420D01*
X124973880Y-80927920D01*
X124973880Y-81145792D01*
X124815793Y-80987429D01*
X124411643Y-80819612D01*
X123974036Y-80819230D01*
X123700095Y-80932420D01*
X123153860Y-80932420D01*
X123144276Y-80881487D01*
X122980018Y-80626222D01*
X122729388Y-80454974D01*
X122431880Y-80394727D01*
X121731880Y-80394727D01*
X121453947Y-80447024D01*
X121198682Y-80611282D01*
X121132620Y-80707968D01*
X121080018Y-80626222D01*
X120829388Y-80454974D01*
X120531880Y-80394727D01*
X119831880Y-80394727D01*
X119553947Y-80447024D01*
X119298682Y-80611282D01*
X119127434Y-80861912D01*
X119067187Y-81159420D01*
X119067187Y-82459420D01*
X119119484Y-82737353D01*
X119283742Y-82992618D01*
X119304880Y-83007061D01*
X119304880Y-83193053D01*
X119044084Y-83132873D01*
X117967537Y-84209420D01*
X119044084Y-85285967D01*
X119304880Y-85225787D01*
X119304880Y-95410930D01*
X117519653Y-93625703D01*
X117235783Y-93436026D01*
X116900935Y-93369421D01*
X115786959Y-93369421D01*
X115787118Y-93187115D01*
X115578228Y-92681563D01*
X115191772Y-92294431D01*
X115001800Y-92215548D01*
X115152060Y-92159629D01*
X115237474Y-92102557D01*
X115272138Y-91825334D01*
X114411880Y-90965077D01*
X114397738Y-90979219D01*
X114392081Y-90973562D01*
X114406223Y-90959420D01*
X114417537Y-90959420D01*
X115277794Y-91819678D01*
X115555017Y-91785014D01*
X115783942Y-91284710D01*
X115803983Y-90734883D01*
X115612089Y-90219240D01*
X115555017Y-90133826D01*
X115277794Y-90099162D01*
X114417537Y-90959420D01*
X114406223Y-90959420D01*
X114392081Y-90945278D01*
X114397738Y-90939621D01*
X114411880Y-90953763D01*
X115272138Y-90093506D01*
X115237474Y-89816283D01*
X114737170Y-89587358D01*
X114187343Y-89567317D01*
X114165977Y-89575268D01*
X114352294Y-89169175D01*
X114384439Y-88311271D01*
X114085832Y-87506370D01*
X113994290Y-87369367D01*
X113636540Y-87240416D01*
X112217537Y-88659420D01*
X112231679Y-88673562D01*
X112226022Y-88679219D01*
X112211880Y-88665077D01*
X110792876Y-90084080D01*
X110921827Y-90441830D01*
X111702125Y-90799834D01*
X111815981Y-90804100D01*
X111391594Y-90979453D01*
X110983347Y-91386989D01*
X110762132Y-91919732D01*
X110761629Y-92496577D01*
X110981913Y-93029706D01*
X111389449Y-93437953D01*
X111922192Y-93659168D01*
X112499037Y-93659671D01*
X113032166Y-93439387D01*
X113036901Y-93434660D01*
X113036642Y-93731725D01*
X113245532Y-94237277D01*
X113467335Y-94459468D01*
X113246891Y-94679528D01*
X113037119Y-95184716D01*
X113036859Y-95483439D01*
X113034311Y-95480887D01*
X112501568Y-95259672D01*
X111924723Y-95259169D01*
X111391594Y-95479453D01*
X110983347Y-95886989D01*
X110762132Y-96419732D01*
X110761629Y-96996577D01*
X110981913Y-97529706D01*
X111389449Y-97937953D01*
X111922192Y-98159168D01*
X112499037Y-98159671D01*
X113032166Y-97939387D01*
X113036901Y-97934660D01*
X113036642Y-98231725D01*
X113103843Y-98394365D01*
X112721635Y-98219006D01*
X111863731Y-98186861D01*
X111058830Y-98485468D01*
X110921827Y-98577010D01*
X110792876Y-98934760D01*
X112211880Y-100353763D01*
X112226022Y-100339621D01*
X112231679Y-100345278D01*
X112217537Y-100359420D01*
X113636540Y-101778424D01*
X113863979Y-101696443D01*
X116219418Y-104051882D01*
X116560062Y-104279494D01*
X116961880Y-104359420D01*
X119143305Y-104359420D01*
X119511830Y-104728588D01*
X120127240Y-104984128D01*
X120793596Y-104984710D01*
X121409452Y-104730244D01*
X121881048Y-104259470D01*
X122136588Y-103644060D01*
X122137170Y-102977704D01*
X121882704Y-102361848D01*
X121411930Y-101890252D01*
X120796520Y-101634712D01*
X120130164Y-101634130D01*
X119514308Y-101888596D01*
X119142837Y-102259420D01*
X117396804Y-102259420D01*
X115461880Y-100324496D01*
X115461880Y-98854100D01*
X115576869Y-98739312D01*
X115786641Y-98234124D01*
X115787118Y-97687115D01*
X115578228Y-97181563D01*
X115191772Y-96794431D01*
X114987163Y-96709470D01*
X115189737Y-96625768D01*
X115576869Y-96239312D01*
X115786641Y-95734124D01*
X115786802Y-95549419D01*
X116028494Y-95549419D01*
X116025724Y-95563346D01*
X116025724Y-95630525D01*
X116038510Y-95694804D01*
X116038086Y-95709909D01*
X116044603Y-95726982D01*
X116042049Y-95745072D01*
X116045824Y-95759708D01*
X116047663Y-95825236D01*
X116062612Y-95890730D01*
X116089381Y-95950551D01*
X116092329Y-95965373D01*
X116102482Y-95980568D01*
X116104018Y-95998779D01*
X116110953Y-96012203D01*
X116127321Y-96075659D01*
X116156468Y-96136185D01*
X116195887Y-96188565D01*
X116202060Y-96202360D01*
X116215336Y-96214911D01*
X116220885Y-96232321D01*
X116230634Y-96243866D01*
X116260719Y-96302101D01*
X116302606Y-96354624D01*
X116352671Y-96396900D01*
X116361759Y-96408976D01*
X116377508Y-96418266D01*
X116386797Y-96434013D01*
X116398872Y-96443100D01*
X116441152Y-96493170D01*
X116493673Y-96535055D01*
X116551907Y-96565140D01*
X116563455Y-96574891D01*
X116580863Y-96580439D01*
X116593412Y-96593713D01*
X116607210Y-96599887D01*
X116659588Y-96639305D01*
X116720114Y-96668452D01*
X116783568Y-96684819D01*
X116796995Y-96691756D01*
X116815207Y-96693292D01*
X116830400Y-96703444D01*
X116845221Y-96706392D01*
X116905043Y-96733161D01*
X116970537Y-96748110D01*
X117036065Y-96749949D01*
X117050701Y-96753724D01*
X117068791Y-96751170D01*
X117085864Y-96757687D01*
X117100969Y-96757263D01*
X117165248Y-96770049D01*
X117232427Y-96770049D01*
X117296706Y-96757263D01*
X117311810Y-96757687D01*
X117328883Y-96751170D01*
X117346974Y-96753724D01*
X117361610Y-96749949D01*
X117427138Y-96748110D01*
X117492632Y-96733161D01*
X117528210Y-96717240D01*
X123524107Y-102713138D01*
X123779258Y-102883625D01*
X123807978Y-102902815D01*
X124142826Y-102969420D01*
X130670390Y-102969420D01*
X131281880Y-103580911D01*
X131281880Y-103800128D01*
X130991643Y-103679612D01*
X130554036Y-103679230D01*
X130149594Y-103846342D01*
X129839889Y-104155507D01*
X129672072Y-104559657D01*
X129671690Y-104997264D01*
X129763502Y-105219467D01*
X129672072Y-105439657D01*
X129671690Y-105877264D01*
X129838802Y-106281706D01*
X130147967Y-106591411D01*
X130552117Y-106759228D01*
X130732706Y-106759386D01*
X130477172Y-107374780D01*
X130476590Y-108041136D01*
X130731056Y-108656992D01*
X130749033Y-108675000D01*
X112581256Y-108675000D01*
X111673849Y-108494506D01*
X110973472Y-108026528D01*
X110505494Y-107326151D01*
X110491576Y-107256176D01*
X111420781Y-107256176D01*
X111561896Y-107624317D01*
X112378323Y-107998976D01*
X113275979Y-108032683D01*
X114118204Y-107720306D01*
X114261864Y-107624317D01*
X114402979Y-107256176D01*
X112911880Y-105765077D01*
X111420781Y-107256176D01*
X110491576Y-107256176D01*
X110325000Y-106418745D01*
X110325000Y-106123519D01*
X110638617Y-106123519D01*
X110950994Y-106965744D01*
X111046983Y-107109404D01*
X111415124Y-107250519D01*
X112906223Y-105759420D01*
X112917537Y-105759420D01*
X114408636Y-107250519D01*
X114776777Y-107109404D01*
X115151436Y-106292977D01*
X115185143Y-105395321D01*
X114872766Y-104553096D01*
X114776777Y-104409436D01*
X114408636Y-104268321D01*
X112917537Y-105759420D01*
X112906223Y-105759420D01*
X111415124Y-104268321D01*
X111046983Y-104409436D01*
X110672324Y-105225863D01*
X110638617Y-106123519D01*
X110325000Y-106123519D01*
X110325000Y-104262664D01*
X111420781Y-104262664D01*
X112911880Y-105753763D01*
X114402979Y-104262664D01*
X114261864Y-103894523D01*
X113445437Y-103519864D01*
X112547781Y-103486157D01*
X111705556Y-103798534D01*
X111561896Y-103894523D01*
X111420781Y-104262664D01*
X110325000Y-104262664D01*
X110325000Y-101784080D01*
X110792876Y-101784080D01*
X110921827Y-102141830D01*
X111702125Y-102499834D01*
X112560029Y-102531979D01*
X113364930Y-102233372D01*
X113501933Y-102141830D01*
X113630884Y-101784080D01*
X112211880Y-100365077D01*
X110792876Y-101784080D01*
X110325000Y-101784080D01*
X110325000Y-101477622D01*
X110337928Y-101512470D01*
X110429470Y-101649473D01*
X110787220Y-101778424D01*
X112206223Y-100359420D01*
X110787220Y-98940416D01*
X110429470Y-99069367D01*
X110325000Y-99297068D01*
X110325000Y-89777622D01*
X110337928Y-89812470D01*
X110429470Y-89949473D01*
X110787220Y-90078424D01*
X112206223Y-88659420D01*
X110787220Y-87240416D01*
X110429470Y-87369367D01*
X110325000Y-87597068D01*
X110325000Y-87234760D01*
X110792876Y-87234760D01*
X112211880Y-88653763D01*
X113630884Y-87234760D01*
X113501933Y-86877010D01*
X112721635Y-86519006D01*
X111863731Y-86486861D01*
X111058830Y-86785468D01*
X110921827Y-86877010D01*
X110792876Y-87234760D01*
X110325000Y-87234760D01*
X110325000Y-84756176D01*
X111420781Y-84756176D01*
X111561896Y-85124317D01*
X112378323Y-85498976D01*
X113275979Y-85532683D01*
X113925917Y-85291624D01*
X116885333Y-85291624D01*
X116956496Y-85600018D01*
X117565185Y-85878909D01*
X118234267Y-85903636D01*
X118861881Y-85670433D01*
X118967264Y-85600018D01*
X119038427Y-85291624D01*
X117961880Y-84215077D01*
X116885333Y-85291624D01*
X113925917Y-85291624D01*
X114118204Y-85220306D01*
X114261864Y-85124317D01*
X114402979Y-84756176D01*
X112911880Y-83265077D01*
X111420781Y-84756176D01*
X110325000Y-84756176D01*
X110325000Y-83623519D01*
X110638617Y-83623519D01*
X110950994Y-84465744D01*
X111046983Y-84609404D01*
X111415124Y-84750519D01*
X112906223Y-83259420D01*
X112917537Y-83259420D01*
X114408636Y-84750519D01*
X114776777Y-84609404D01*
X114835331Y-84481807D01*
X116267664Y-84481807D01*
X116500867Y-85109421D01*
X116571282Y-85214804D01*
X116879676Y-85285967D01*
X117956223Y-84209420D01*
X116879676Y-83132873D01*
X116571282Y-83204036D01*
X116292391Y-83812725D01*
X116267664Y-84481807D01*
X114835331Y-84481807D01*
X115151436Y-83792977D01*
X115176435Y-83127216D01*
X116885333Y-83127216D01*
X117961880Y-84203763D01*
X119038427Y-83127216D01*
X118967264Y-82818822D01*
X118358575Y-82539931D01*
X117689493Y-82515204D01*
X117061879Y-82748407D01*
X116956496Y-82818822D01*
X116885333Y-83127216D01*
X115176435Y-83127216D01*
X115185143Y-82895321D01*
X114872766Y-82053096D01*
X114776777Y-81909436D01*
X114408636Y-81768321D01*
X112917537Y-83259420D01*
X112906223Y-83259420D01*
X111415124Y-81768321D01*
X111046983Y-81909436D01*
X110672324Y-82725863D01*
X110638617Y-83623519D01*
X110325000Y-83623519D01*
X110325000Y-82581255D01*
X110487827Y-81762664D01*
X111420781Y-81762664D01*
X112911880Y-83253763D01*
X114402979Y-81762664D01*
X114261864Y-81394523D01*
X113445437Y-81019864D01*
X112547781Y-80986157D01*
X111705556Y-81298534D01*
X111561896Y-81394523D01*
X111420781Y-81762664D01*
X110487827Y-81762664D01*
X110505494Y-81673849D01*
X110973472Y-80973472D01*
X111673849Y-80505494D01*
X112581256Y-80325000D01*
X124973880Y-80325000D01*
X124973880Y-80540920D01*
X124973880Y-80540920D01*
G37*
X124973880Y-80540920D02*
X125163380Y-80730420D01*
X126577880Y-80730420D01*
X126577880Y-80710420D01*
X126585880Y-80710420D01*
X126585880Y-80730420D01*
X128000380Y-80730420D01*
X128189880Y-80540920D01*
X128189880Y-80325000D01*
X132284283Y-80325000D01*
X132267187Y-80409420D01*
X132267187Y-81059420D01*
X132319484Y-81337353D01*
X132338106Y-81366293D01*
X132327434Y-81381912D01*
X132267187Y-81679420D01*
X132267187Y-82329420D01*
X132319484Y-82607353D01*
X132338106Y-82636293D01*
X132327434Y-82651912D01*
X132267187Y-82949420D01*
X132267187Y-83599420D01*
X132279982Y-83667420D01*
X131595697Y-83667420D01*
X131545793Y-83617429D01*
X131141643Y-83449612D01*
X131071723Y-83449551D01*
X131072070Y-83051576D01*
X130904958Y-82647134D01*
X130595793Y-82337429D01*
X130191643Y-82169612D01*
X129754036Y-82169230D01*
X129349594Y-82336342D01*
X129286406Y-82399420D01*
X128182398Y-82399420D01*
X128196573Y-82329420D01*
X128196573Y-81679420D01*
X128144276Y-81401487D01*
X128123815Y-81369690D01*
X128189880Y-81210195D01*
X128189880Y-80927920D01*
X128000380Y-80738420D01*
X126585880Y-80738420D01*
X126585880Y-80758420D01*
X126577880Y-80758420D01*
X126577880Y-80738420D01*
X125163380Y-80738420D01*
X124973880Y-80927920D01*
X124973880Y-81145792D01*
X124815793Y-80987429D01*
X124411643Y-80819612D01*
X123974036Y-80819230D01*
X123700095Y-80932420D01*
X123153860Y-80932420D01*
X123144276Y-80881487D01*
X122980018Y-80626222D01*
X122729388Y-80454974D01*
X122431880Y-80394727D01*
X121731880Y-80394727D01*
X121453947Y-80447024D01*
X121198682Y-80611282D01*
X121132620Y-80707968D01*
X121080018Y-80626222D01*
X120829388Y-80454974D01*
X120531880Y-80394727D01*
X119831880Y-80394727D01*
X119553947Y-80447024D01*
X119298682Y-80611282D01*
X119127434Y-80861912D01*
X119067187Y-81159420D01*
X119067187Y-82459420D01*
X119119484Y-82737353D01*
X119283742Y-82992618D01*
X119304880Y-83007061D01*
X119304880Y-83193053D01*
X119044084Y-83132873D01*
X117967537Y-84209420D01*
X119044084Y-85285967D01*
X119304880Y-85225787D01*
X119304880Y-95410930D01*
X117519653Y-93625703D01*
X117235783Y-93436026D01*
X116900935Y-93369421D01*
X115786959Y-93369421D01*
X115787118Y-93187115D01*
X115578228Y-92681563D01*
X115191772Y-92294431D01*
X115001800Y-92215548D01*
X115152060Y-92159629D01*
X115237474Y-92102557D01*
X115272138Y-91825334D01*
X114411880Y-90965077D01*
X114397738Y-90979219D01*
X114392081Y-90973562D01*
X114406223Y-90959420D01*
X114417537Y-90959420D01*
X115277794Y-91819678D01*
X115555017Y-91785014D01*
X115783942Y-91284710D01*
X115803983Y-90734883D01*
X115612089Y-90219240D01*
X115555017Y-90133826D01*
X115277794Y-90099162D01*
X114417537Y-90959420D01*
X114406223Y-90959420D01*
X114392081Y-90945278D01*
X114397738Y-90939621D01*
X114411880Y-90953763D01*
X115272138Y-90093506D01*
X115237474Y-89816283D01*
X114737170Y-89587358D01*
X114187343Y-89567317D01*
X114165977Y-89575268D01*
X114352294Y-89169175D01*
X114384439Y-88311271D01*
X114085832Y-87506370D01*
X113994290Y-87369367D01*
X113636540Y-87240416D01*
X112217537Y-88659420D01*
X112231679Y-88673562D01*
X112226022Y-88679219D01*
X112211880Y-88665077D01*
X110792876Y-90084080D01*
X110921827Y-90441830D01*
X111702125Y-90799834D01*
X111815981Y-90804100D01*
X111391594Y-90979453D01*
X110983347Y-91386989D01*
X110762132Y-91919732D01*
X110761629Y-92496577D01*
X110981913Y-93029706D01*
X111389449Y-93437953D01*
X111922192Y-93659168D01*
X112499037Y-93659671D01*
X113032166Y-93439387D01*
X113036901Y-93434660D01*
X113036642Y-93731725D01*
X113245532Y-94237277D01*
X113467335Y-94459468D01*
X113246891Y-94679528D01*
X113037119Y-95184716D01*
X113036859Y-95483439D01*
X113034311Y-95480887D01*
X112501568Y-95259672D01*
X111924723Y-95259169D01*
X111391594Y-95479453D01*
X110983347Y-95886989D01*
X110762132Y-96419732D01*
X110761629Y-96996577D01*
X110981913Y-97529706D01*
X111389449Y-97937953D01*
X111922192Y-98159168D01*
X112499037Y-98159671D01*
X113032166Y-97939387D01*
X113036901Y-97934660D01*
X113036642Y-98231725D01*
X113103843Y-98394365D01*
X112721635Y-98219006D01*
X111863731Y-98186861D01*
X111058830Y-98485468D01*
X110921827Y-98577010D01*
X110792876Y-98934760D01*
X112211880Y-100353763D01*
X112226022Y-100339621D01*
X112231679Y-100345278D01*
X112217537Y-100359420D01*
X113636540Y-101778424D01*
X113863979Y-101696443D01*
X116219418Y-104051882D01*
X116560062Y-104279494D01*
X116961880Y-104359420D01*
X119143305Y-104359420D01*
X119511830Y-104728588D01*
X120127240Y-104984128D01*
X120793596Y-104984710D01*
X121409452Y-104730244D01*
X121881048Y-104259470D01*
X122136588Y-103644060D01*
X122137170Y-102977704D01*
X121882704Y-102361848D01*
X121411930Y-101890252D01*
X120796520Y-101634712D01*
X120130164Y-101634130D01*
X119514308Y-101888596D01*
X119142837Y-102259420D01*
X117396804Y-102259420D01*
X115461880Y-100324496D01*
X115461880Y-98854100D01*
X115576869Y-98739312D01*
X115786641Y-98234124D01*
X115787118Y-97687115D01*
X115578228Y-97181563D01*
X115191772Y-96794431D01*
X114987163Y-96709470D01*
X115189737Y-96625768D01*
X115576869Y-96239312D01*
X115786641Y-95734124D01*
X115786802Y-95549419D01*
X116028494Y-95549419D01*
X116025724Y-95563346D01*
X116025724Y-95630525D01*
X116038510Y-95694804D01*
X116038086Y-95709909D01*
X116044603Y-95726982D01*
X116042049Y-95745072D01*
X116045824Y-95759708D01*
X116047663Y-95825236D01*
X116062612Y-95890730D01*
X116089381Y-95950551D01*
X116092329Y-95965373D01*
X116102482Y-95980568D01*
X116104018Y-95998779D01*
X116110953Y-96012203D01*
X116127321Y-96075659D01*
X116156468Y-96136185D01*
X116195887Y-96188565D01*
X116202060Y-96202360D01*
X116215336Y-96214911D01*
X116220885Y-96232321D01*
X116230634Y-96243866D01*
X116260719Y-96302101D01*
X116302606Y-96354624D01*
X116352671Y-96396900D01*
X116361759Y-96408976D01*
X116377508Y-96418266D01*
X116386797Y-96434013D01*
X116398872Y-96443100D01*
X116441152Y-96493170D01*
X116493673Y-96535055D01*
X116551907Y-96565140D01*
X116563455Y-96574891D01*
X116580863Y-96580439D01*
X116593412Y-96593713D01*
X116607210Y-96599887D01*
X116659588Y-96639305D01*
X116720114Y-96668452D01*
X116783568Y-96684819D01*
X116796995Y-96691756D01*
X116815207Y-96693292D01*
X116830400Y-96703444D01*
X116845221Y-96706392D01*
X116905043Y-96733161D01*
X116970537Y-96748110D01*
X117036065Y-96749949D01*
X117050701Y-96753724D01*
X117068791Y-96751170D01*
X117085864Y-96757687D01*
X117100969Y-96757263D01*
X117165248Y-96770049D01*
X117232427Y-96770049D01*
X117296706Y-96757263D01*
X117311810Y-96757687D01*
X117328883Y-96751170D01*
X117346974Y-96753724D01*
X117361610Y-96749949D01*
X117427138Y-96748110D01*
X117492632Y-96733161D01*
X117528210Y-96717240D01*
X123524107Y-102713138D01*
X123779258Y-102883625D01*
X123807978Y-102902815D01*
X124142826Y-102969420D01*
X130670390Y-102969420D01*
X131281880Y-103580911D01*
X131281880Y-103800128D01*
X130991643Y-103679612D01*
X130554036Y-103679230D01*
X130149594Y-103846342D01*
X129839889Y-104155507D01*
X129672072Y-104559657D01*
X129671690Y-104997264D01*
X129763502Y-105219467D01*
X129672072Y-105439657D01*
X129671690Y-105877264D01*
X129838802Y-106281706D01*
X130147967Y-106591411D01*
X130552117Y-106759228D01*
X130732706Y-106759386D01*
X130477172Y-107374780D01*
X130476590Y-108041136D01*
X130731056Y-108656992D01*
X130749033Y-108675000D01*
X112581256Y-108675000D01*
X111673849Y-108494506D01*
X110973472Y-108026528D01*
X110505494Y-107326151D01*
X110491576Y-107256176D01*
X111420781Y-107256176D01*
X111561896Y-107624317D01*
X112378323Y-107998976D01*
X113275979Y-108032683D01*
X114118204Y-107720306D01*
X114261864Y-107624317D01*
X114402979Y-107256176D01*
X112911880Y-105765077D01*
X111420781Y-107256176D01*
X110491576Y-107256176D01*
X110325000Y-106418745D01*
X110325000Y-106123519D01*
X110638617Y-106123519D01*
X110950994Y-106965744D01*
X111046983Y-107109404D01*
X111415124Y-107250519D01*
X112906223Y-105759420D01*
X112917537Y-105759420D01*
X114408636Y-107250519D01*
X114776777Y-107109404D01*
X115151436Y-106292977D01*
X115185143Y-105395321D01*
X114872766Y-104553096D01*
X114776777Y-104409436D01*
X114408636Y-104268321D01*
X112917537Y-105759420D01*
X112906223Y-105759420D01*
X111415124Y-104268321D01*
X111046983Y-104409436D01*
X110672324Y-105225863D01*
X110638617Y-106123519D01*
X110325000Y-106123519D01*
X110325000Y-104262664D01*
X111420781Y-104262664D01*
X112911880Y-105753763D01*
X114402979Y-104262664D01*
X114261864Y-103894523D01*
X113445437Y-103519864D01*
X112547781Y-103486157D01*
X111705556Y-103798534D01*
X111561896Y-103894523D01*
X111420781Y-104262664D01*
X110325000Y-104262664D01*
X110325000Y-101784080D01*
X110792876Y-101784080D01*
X110921827Y-102141830D01*
X111702125Y-102499834D01*
X112560029Y-102531979D01*
X113364930Y-102233372D01*
X113501933Y-102141830D01*
X113630884Y-101784080D01*
X112211880Y-100365077D01*
X110792876Y-101784080D01*
X110325000Y-101784080D01*
X110325000Y-101477622D01*
X110337928Y-101512470D01*
X110429470Y-101649473D01*
X110787220Y-101778424D01*
X112206223Y-100359420D01*
X110787220Y-98940416D01*
X110429470Y-99069367D01*
X110325000Y-99297068D01*
X110325000Y-89777622D01*
X110337928Y-89812470D01*
X110429470Y-89949473D01*
X110787220Y-90078424D01*
X112206223Y-88659420D01*
X110787220Y-87240416D01*
X110429470Y-87369367D01*
X110325000Y-87597068D01*
X110325000Y-87234760D01*
X110792876Y-87234760D01*
X112211880Y-88653763D01*
X113630884Y-87234760D01*
X113501933Y-86877010D01*
X112721635Y-86519006D01*
X111863731Y-86486861D01*
X111058830Y-86785468D01*
X110921827Y-86877010D01*
X110792876Y-87234760D01*
X110325000Y-87234760D01*
X110325000Y-84756176D01*
X111420781Y-84756176D01*
X111561896Y-85124317D01*
X112378323Y-85498976D01*
X113275979Y-85532683D01*
X113925917Y-85291624D01*
X116885333Y-85291624D01*
X116956496Y-85600018D01*
X117565185Y-85878909D01*
X118234267Y-85903636D01*
X118861881Y-85670433D01*
X118967264Y-85600018D01*
X119038427Y-85291624D01*
X117961880Y-84215077D01*
X116885333Y-85291624D01*
X113925917Y-85291624D01*
X114118204Y-85220306D01*
X114261864Y-85124317D01*
X114402979Y-84756176D01*
X112911880Y-83265077D01*
X111420781Y-84756176D01*
X110325000Y-84756176D01*
X110325000Y-83623519D01*
X110638617Y-83623519D01*
X110950994Y-84465744D01*
X111046983Y-84609404D01*
X111415124Y-84750519D01*
X112906223Y-83259420D01*
X112917537Y-83259420D01*
X114408636Y-84750519D01*
X114776777Y-84609404D01*
X114835331Y-84481807D01*
X116267664Y-84481807D01*
X116500867Y-85109421D01*
X116571282Y-85214804D01*
X116879676Y-85285967D01*
X117956223Y-84209420D01*
X116879676Y-83132873D01*
X116571282Y-83204036D01*
X116292391Y-83812725D01*
X116267664Y-84481807D01*
X114835331Y-84481807D01*
X115151436Y-83792977D01*
X115176435Y-83127216D01*
X116885333Y-83127216D01*
X117961880Y-84203763D01*
X119038427Y-83127216D01*
X118967264Y-82818822D01*
X118358575Y-82539931D01*
X117689493Y-82515204D01*
X117061879Y-82748407D01*
X116956496Y-82818822D01*
X116885333Y-83127216D01*
X115176435Y-83127216D01*
X115185143Y-82895321D01*
X114872766Y-82053096D01*
X114776777Y-81909436D01*
X114408636Y-81768321D01*
X112917537Y-83259420D01*
X112906223Y-83259420D01*
X111415124Y-81768321D01*
X111046983Y-81909436D01*
X110672324Y-82725863D01*
X110638617Y-83623519D01*
X110325000Y-83623519D01*
X110325000Y-82581255D01*
X110487827Y-81762664D01*
X111420781Y-81762664D01*
X112911880Y-83253763D01*
X114402979Y-81762664D01*
X114261864Y-81394523D01*
X113445437Y-81019864D01*
X112547781Y-80986157D01*
X111705556Y-81298534D01*
X111561896Y-81394523D01*
X111420781Y-81762664D01*
X110487827Y-81762664D01*
X110505494Y-81673849D01*
X110973472Y-80973472D01*
X111673849Y-80505494D01*
X112581256Y-80325000D01*
X124973880Y-80325000D01*
X124973880Y-80540920D01*
G36*
X164851281Y-83250903D02*
X164792712Y-83309370D01*
X164537172Y-83924780D01*
X164536590Y-84591136D01*
X164791056Y-85206992D01*
X165161880Y-85578463D01*
X165161880Y-100324496D01*
X163396956Y-102089420D01*
X144746804Y-102089420D01*
X143111880Y-100454496D01*
X143111880Y-100357967D01*
X143266326Y-100131928D01*
X143326573Y-99834420D01*
X143326573Y-98591650D01*
X143486880Y-98624113D01*
X143497748Y-98624113D01*
X143551638Y-98895033D01*
X143741747Y-99179553D01*
X144441745Y-99879550D01*
X144441747Y-99879553D01*
X144726267Y-100069662D01*
X145061880Y-100136420D01*
X146638232Y-100136420D01*
X146738742Y-100292618D01*
X146989372Y-100463866D01*
X147286880Y-100524113D01*
X148536880Y-100524113D01*
X148814813Y-100471816D01*
X149070078Y-100307558D01*
X149241326Y-100056928D01*
X149301573Y-99759420D01*
X149301573Y-98759420D01*
X149249276Y-98481487D01*
X149104726Y-98256849D01*
X149241326Y-98056928D01*
X149301573Y-97759420D01*
X149301573Y-96759420D01*
X149249276Y-96481487D01*
X149208587Y-96418254D01*
X149216326Y-96406928D01*
X149276573Y-96109420D01*
X149276573Y-95109420D01*
X149224276Y-94831487D01*
X149079726Y-94606849D01*
X149216326Y-94406928D01*
X149276573Y-94109420D01*
X149276573Y-93109420D01*
X149224276Y-92831487D01*
X149060018Y-92576222D01*
X148960232Y-92508042D01*
X149004482Y-92463792D01*
X149119880Y-92185195D01*
X149119880Y-91602920D01*
X148930380Y-91413420D01*
X147865880Y-91413420D01*
X147865880Y-91433420D01*
X147857880Y-91433420D01*
X147857880Y-91413420D01*
X147837880Y-91413420D01*
X147837880Y-91405420D01*
X147857880Y-91405420D01*
X147857880Y-90215920D01*
X147865880Y-90215920D01*
X147865880Y-91405420D01*
X148930380Y-91405420D01*
X149119880Y-91215920D01*
X149119880Y-90633645D01*
X149004482Y-90355048D01*
X148791253Y-90141819D01*
X148512656Y-90026420D01*
X148055380Y-90026420D01*
X147865880Y-90215920D01*
X147857880Y-90215920D01*
X147739263Y-90097303D01*
X148657010Y-89179555D01*
X148657013Y-89179553D01*
X148809578Y-88951222D01*
X148847122Y-88895034D01*
X148913880Y-88559420D01*
X148913880Y-86181686D01*
X152564880Y-89832686D01*
X152564880Y-98547084D01*
X152429822Y-98681906D01*
X152247587Y-99120777D01*
X152247173Y-99595978D01*
X152428641Y-100035166D01*
X152764366Y-100371478D01*
X153203237Y-100553713D01*
X153678438Y-100554127D01*
X154117626Y-100372659D01*
X154453938Y-100036934D01*
X154636173Y-99598063D01*
X154636587Y-99122862D01*
X154455119Y-98683674D01*
X154318880Y-98547197D01*
X154318880Y-89469425D01*
X154318881Y-89469420D01*
X154252122Y-89133807D01*
X154062013Y-88849287D01*
X151097256Y-85884530D01*
X151303596Y-85884710D01*
X151305937Y-85883743D01*
X152301745Y-86879550D01*
X152301747Y-86879553D01*
X152472304Y-86993515D01*
X152586266Y-87069662D01*
X152921880Y-87136420D01*
X157149544Y-87136420D01*
X157284366Y-87271478D01*
X157723237Y-87453713D01*
X158198438Y-87454127D01*
X158637626Y-87272659D01*
X158774103Y-87136420D01*
X158991880Y-87136420D01*
X159327493Y-87069662D01*
X159612013Y-86879553D01*
X160067443Y-86424123D01*
X160314366Y-86671478D01*
X160753237Y-86853713D01*
X161228438Y-86854127D01*
X161667626Y-86672659D01*
X161764033Y-86576420D01*
X162034880Y-86576420D01*
X162034880Y-98339420D01*
X162101638Y-98675033D01*
X162117415Y-98698645D01*
X162117173Y-98975978D01*
X162298641Y-99415166D01*
X162634366Y-99751478D01*
X163073237Y-99933713D01*
X163548438Y-99934127D01*
X163987626Y-99752659D01*
X164323938Y-99416934D01*
X164506173Y-98978063D01*
X164506587Y-98502862D01*
X164325119Y-98063674D01*
X163989394Y-97727362D01*
X163788880Y-97644101D01*
X163788880Y-85281400D01*
X163839813Y-85271816D01*
X164095078Y-85107558D01*
X164266326Y-84856928D01*
X164326573Y-84559420D01*
X164326573Y-83859420D01*
X164274276Y-83581487D01*
X164110018Y-83326222D01*
X164013332Y-83260160D01*
X164095078Y-83207558D01*
X164127969Y-83159420D01*
X164759798Y-83159420D01*
X164851281Y-83250903D01*
X164851281Y-83250903D01*
G37*
X164851281Y-83250903D02*
X164792712Y-83309370D01*
X164537172Y-83924780D01*
X164536590Y-84591136D01*
X164791056Y-85206992D01*
X165161880Y-85578463D01*
X165161880Y-100324496D01*
X163396956Y-102089420D01*
X144746804Y-102089420D01*
X143111880Y-100454496D01*
X143111880Y-100357967D01*
X143266326Y-100131928D01*
X143326573Y-99834420D01*
X143326573Y-98591650D01*
X143486880Y-98624113D01*
X143497748Y-98624113D01*
X143551638Y-98895033D01*
X143741747Y-99179553D01*
X144441745Y-99879550D01*
X144441747Y-99879553D01*
X144726267Y-100069662D01*
X145061880Y-100136420D01*
X146638232Y-100136420D01*
X146738742Y-100292618D01*
X146989372Y-100463866D01*
X147286880Y-100524113D01*
X148536880Y-100524113D01*
X148814813Y-100471816D01*
X149070078Y-100307558D01*
X149241326Y-100056928D01*
X149301573Y-99759420D01*
X149301573Y-98759420D01*
X149249276Y-98481487D01*
X149104726Y-98256849D01*
X149241326Y-98056928D01*
X149301573Y-97759420D01*
X149301573Y-96759420D01*
X149249276Y-96481487D01*
X149208587Y-96418254D01*
X149216326Y-96406928D01*
X149276573Y-96109420D01*
X149276573Y-95109420D01*
X149224276Y-94831487D01*
X149079726Y-94606849D01*
X149216326Y-94406928D01*
X149276573Y-94109420D01*
X149276573Y-93109420D01*
X149224276Y-92831487D01*
X149060018Y-92576222D01*
X148960232Y-92508042D01*
X149004482Y-92463792D01*
X149119880Y-92185195D01*
X149119880Y-91602920D01*
X148930380Y-91413420D01*
X147865880Y-91413420D01*
X147865880Y-91433420D01*
X147857880Y-91433420D01*
X147857880Y-91413420D01*
X147837880Y-91413420D01*
X147837880Y-91405420D01*
X147857880Y-91405420D01*
X147857880Y-90215920D01*
X147865880Y-90215920D01*
X147865880Y-91405420D01*
X148930380Y-91405420D01*
X149119880Y-91215920D01*
X149119880Y-90633645D01*
X149004482Y-90355048D01*
X148791253Y-90141819D01*
X148512656Y-90026420D01*
X148055380Y-90026420D01*
X147865880Y-90215920D01*
X147857880Y-90215920D01*
X147739263Y-90097303D01*
X148657010Y-89179555D01*
X148657013Y-89179553D01*
X148809578Y-88951222D01*
X148847122Y-88895034D01*
X148913880Y-88559420D01*
X148913880Y-86181686D01*
X152564880Y-89832686D01*
X152564880Y-98547084D01*
X152429822Y-98681906D01*
X152247587Y-99120777D01*
X152247173Y-99595978D01*
X152428641Y-100035166D01*
X152764366Y-100371478D01*
X153203237Y-100553713D01*
X153678438Y-100554127D01*
X154117626Y-100372659D01*
X154453938Y-100036934D01*
X154636173Y-99598063D01*
X154636587Y-99122862D01*
X154455119Y-98683674D01*
X154318880Y-98547197D01*
X154318880Y-89469425D01*
X154318881Y-89469420D01*
X154252122Y-89133807D01*
X154062013Y-88849287D01*
X151097256Y-85884530D01*
X151303596Y-85884710D01*
X151305937Y-85883743D01*
X152301745Y-86879550D01*
X152301747Y-86879553D01*
X152472304Y-86993515D01*
X152586266Y-87069662D01*
X152921880Y-87136420D01*
X157149544Y-87136420D01*
X157284366Y-87271478D01*
X157723237Y-87453713D01*
X158198438Y-87454127D01*
X158637626Y-87272659D01*
X158774103Y-87136420D01*
X158991880Y-87136420D01*
X159327493Y-87069662D01*
X159612013Y-86879553D01*
X160067443Y-86424123D01*
X160314366Y-86671478D01*
X160753237Y-86853713D01*
X161228438Y-86854127D01*
X161667626Y-86672659D01*
X161764033Y-86576420D01*
X162034880Y-86576420D01*
X162034880Y-98339420D01*
X162101638Y-98675033D01*
X162117415Y-98698645D01*
X162117173Y-98975978D01*
X162298641Y-99415166D01*
X162634366Y-99751478D01*
X163073237Y-99933713D01*
X163548438Y-99934127D01*
X163987626Y-99752659D01*
X164323938Y-99416934D01*
X164506173Y-98978063D01*
X164506587Y-98502862D01*
X164325119Y-98063674D01*
X163989394Y-97727362D01*
X163788880Y-97644101D01*
X163788880Y-85281400D01*
X163839813Y-85271816D01*
X164095078Y-85107558D01*
X164266326Y-84856928D01*
X164326573Y-84559420D01*
X164326573Y-83859420D01*
X164274276Y-83581487D01*
X164110018Y-83326222D01*
X164013332Y-83260160D01*
X164095078Y-83207558D01*
X164127969Y-83159420D01*
X164759798Y-83159420D01*
X164851281Y-83250903D01*
G36*
X121515880Y-94155420D02*
X121535880Y-94155420D01*
X121535880Y-94163420D01*
X121515880Y-94163420D01*
X121515880Y-95352920D01*
X121705380Y-95542420D01*
X122162656Y-95542420D01*
X122441253Y-95427021D01*
X122515376Y-95352898D01*
X122714372Y-95488866D01*
X123011880Y-95549113D01*
X124011880Y-95549113D01*
X124289813Y-95496816D01*
X124478880Y-95375155D01*
X124478880Y-96365920D01*
X124668380Y-96555420D01*
X125368380Y-96555420D01*
X125376380Y-96563420D01*
X124668380Y-96563420D01*
X124478880Y-96752920D01*
X124478880Y-97960195D01*
X124594278Y-98238792D01*
X124807507Y-98452021D01*
X125086104Y-98567420D01*
X125218380Y-98567420D01*
X125407880Y-98377920D01*
X125407880Y-98352394D01*
X125415880Y-98360394D01*
X125415880Y-98377920D01*
X125605380Y-98567420D01*
X125715394Y-98567420D01*
X125836104Y-98617420D01*
X125968380Y-98617420D01*
X126157880Y-98427920D01*
X126157880Y-98405694D01*
X126165880Y-98411161D01*
X126165880Y-98427920D01*
X126355380Y-98617420D01*
X126487656Y-98617420D01*
X126542220Y-98594819D01*
X126686880Y-98624113D01*
X127036880Y-98624113D01*
X127218304Y-98589975D01*
X127386880Y-98624113D01*
X127736880Y-98624113D01*
X127918304Y-98589975D01*
X128086880Y-98624113D01*
X128436880Y-98624113D01*
X128618304Y-98589975D01*
X128786880Y-98624113D01*
X129136880Y-98624113D01*
X129318304Y-98589975D01*
X129486880Y-98624113D01*
X129836880Y-98624113D01*
X130018304Y-98589975D01*
X130186880Y-98624113D01*
X130536880Y-98624113D01*
X130718304Y-98589975D01*
X130886880Y-98624113D01*
X131236880Y-98624113D01*
X131418304Y-98589975D01*
X131586880Y-98624113D01*
X131936880Y-98624113D01*
X132118304Y-98589975D01*
X132286880Y-98624113D01*
X132636880Y-98624113D01*
X132818304Y-98589975D01*
X132986880Y-98624113D01*
X133336880Y-98624113D01*
X133518304Y-98589975D01*
X133686880Y-98624113D01*
X134036880Y-98624113D01*
X134218304Y-98589975D01*
X134386880Y-98624113D01*
X134736880Y-98624113D01*
X134918304Y-98589975D01*
X135086880Y-98624113D01*
X135436880Y-98624113D01*
X135618304Y-98589975D01*
X135786880Y-98624113D01*
X136136880Y-98624113D01*
X136318304Y-98589975D01*
X136486880Y-98624113D01*
X136836880Y-98624113D01*
X137018304Y-98589975D01*
X137186880Y-98624113D01*
X137536880Y-98624113D01*
X137684984Y-98596245D01*
X137736104Y-98617420D01*
X137868380Y-98617420D01*
X138057880Y-98427920D01*
X138057880Y-98415407D01*
X138065798Y-98410312D01*
X138065880Y-98410394D01*
X138065880Y-98427920D01*
X138255380Y-98617420D01*
X138387656Y-98617420D01*
X138411880Y-98607386D01*
X138436104Y-98617420D01*
X138568380Y-98617420D01*
X138757880Y-98427920D01*
X138757880Y-98410394D01*
X138761880Y-98406394D01*
X138765880Y-98410394D01*
X138765880Y-98427920D01*
X138803880Y-98465920D01*
X138803880Y-99015920D01*
X138993380Y-99205420D01*
X140057880Y-99205420D01*
X140057880Y-99185420D01*
X140065880Y-99185420D01*
X140065880Y-99205420D01*
X140085880Y-99205420D01*
X140085880Y-99213420D01*
X140065880Y-99213420D01*
X140065880Y-99233420D01*
X140057880Y-99233420D01*
X140057880Y-99213420D01*
X138993380Y-99213420D01*
X138803880Y-99402920D01*
X138803880Y-99902420D01*
X125035146Y-99902420D01*
X121058880Y-95926154D01*
X121058880Y-95542420D01*
X121318380Y-95542420D01*
X121507880Y-95352920D01*
X121507880Y-94163420D01*
X121487880Y-94163420D01*
X121487880Y-94155420D01*
X121507880Y-94155420D01*
X121507880Y-94135420D01*
X121515880Y-94135420D01*
X121515880Y-94155420D01*
X121515880Y-94155420D01*
G37*
X121515880Y-94155420D02*
X121535880Y-94155420D01*
X121535880Y-94163420D01*
X121515880Y-94163420D01*
X121515880Y-95352920D01*
X121705380Y-95542420D01*
X122162656Y-95542420D01*
X122441253Y-95427021D01*
X122515376Y-95352898D01*
X122714372Y-95488866D01*
X123011880Y-95549113D01*
X124011880Y-95549113D01*
X124289813Y-95496816D01*
X124478880Y-95375155D01*
X124478880Y-96365920D01*
X124668380Y-96555420D01*
X125368380Y-96555420D01*
X125376380Y-96563420D01*
X124668380Y-96563420D01*
X124478880Y-96752920D01*
X124478880Y-97960195D01*
X124594278Y-98238792D01*
X124807507Y-98452021D01*
X125086104Y-98567420D01*
X125218380Y-98567420D01*
X125407880Y-98377920D01*
X125407880Y-98352394D01*
X125415880Y-98360394D01*
X125415880Y-98377920D01*
X125605380Y-98567420D01*
X125715394Y-98567420D01*
X125836104Y-98617420D01*
X125968380Y-98617420D01*
X126157880Y-98427920D01*
X126157880Y-98405694D01*
X126165880Y-98411161D01*
X126165880Y-98427920D01*
X126355380Y-98617420D01*
X126487656Y-98617420D01*
X126542220Y-98594819D01*
X126686880Y-98624113D01*
X127036880Y-98624113D01*
X127218304Y-98589975D01*
X127386880Y-98624113D01*
X127736880Y-98624113D01*
X127918304Y-98589975D01*
X128086880Y-98624113D01*
X128436880Y-98624113D01*
X128618304Y-98589975D01*
X128786880Y-98624113D01*
X129136880Y-98624113D01*
X129318304Y-98589975D01*
X129486880Y-98624113D01*
X129836880Y-98624113D01*
X130018304Y-98589975D01*
X130186880Y-98624113D01*
X130536880Y-98624113D01*
X130718304Y-98589975D01*
X130886880Y-98624113D01*
X131236880Y-98624113D01*
X131418304Y-98589975D01*
X131586880Y-98624113D01*
X131936880Y-98624113D01*
X132118304Y-98589975D01*
X132286880Y-98624113D01*
X132636880Y-98624113D01*
X132818304Y-98589975D01*
X132986880Y-98624113D01*
X133336880Y-98624113D01*
X133518304Y-98589975D01*
X133686880Y-98624113D01*
X134036880Y-98624113D01*
X134218304Y-98589975D01*
X134386880Y-98624113D01*
X134736880Y-98624113D01*
X134918304Y-98589975D01*
X135086880Y-98624113D01*
X135436880Y-98624113D01*
X135618304Y-98589975D01*
X135786880Y-98624113D01*
X136136880Y-98624113D01*
X136318304Y-98589975D01*
X136486880Y-98624113D01*
X136836880Y-98624113D01*
X137018304Y-98589975D01*
X137186880Y-98624113D01*
X137536880Y-98624113D01*
X137684984Y-98596245D01*
X137736104Y-98617420D01*
X137868380Y-98617420D01*
X138057880Y-98427920D01*
X138057880Y-98415407D01*
X138065798Y-98410312D01*
X138065880Y-98410394D01*
X138065880Y-98427920D01*
X138255380Y-98617420D01*
X138387656Y-98617420D01*
X138411880Y-98607386D01*
X138436104Y-98617420D01*
X138568380Y-98617420D01*
X138757880Y-98427920D01*
X138757880Y-98410394D01*
X138761880Y-98406394D01*
X138765880Y-98410394D01*
X138765880Y-98427920D01*
X138803880Y-98465920D01*
X138803880Y-99015920D01*
X138993380Y-99205420D01*
X140057880Y-99205420D01*
X140057880Y-99185420D01*
X140065880Y-99185420D01*
X140065880Y-99205420D01*
X140085880Y-99205420D01*
X140085880Y-99213420D01*
X140065880Y-99213420D01*
X140065880Y-99233420D01*
X140057880Y-99233420D01*
X140057880Y-99213420D01*
X138993380Y-99213420D01*
X138803880Y-99402920D01*
X138803880Y-99902420D01*
X125035146Y-99902420D01*
X121058880Y-95926154D01*
X121058880Y-95542420D01*
X121318380Y-95542420D01*
X121507880Y-95352920D01*
X121507880Y-94163420D01*
X121487880Y-94163420D01*
X121487880Y-94155420D01*
X121507880Y-94155420D01*
X121507880Y-94135420D01*
X121515880Y-94135420D01*
X121515880Y-94155420D01*
G36*
X138785880Y-96613420D02*
X138737880Y-96613420D01*
X138737880Y-96605420D01*
X138785880Y-96605420D01*
X138785880Y-96613420D01*
X138785880Y-96613420D01*
G37*
X138785880Y-96613420D02*
X138737880Y-96613420D01*
X138737880Y-96605420D01*
X138785880Y-96605420D01*
X138785880Y-96613420D01*
G36*
X141748614Y-93757420D02*
X140811885Y-93757420D01*
X140811880Y-93757419D01*
X140476267Y-93824178D01*
X140191747Y-94014287D01*
X139541747Y-94664287D01*
X139457433Y-94790473D01*
X139268380Y-94601420D01*
X139136104Y-94601420D01*
X139111880Y-94611454D01*
X139087656Y-94601420D01*
X138955380Y-94601420D01*
X138765880Y-94790920D01*
X138765880Y-94808446D01*
X138761880Y-94812446D01*
X138757880Y-94808446D01*
X138757880Y-94790920D01*
X138568380Y-94601420D01*
X138436104Y-94601420D01*
X138411880Y-94611454D01*
X138387656Y-94601420D01*
X138255380Y-94601420D01*
X138238880Y-94617920D01*
X138238880Y-93409596D01*
X138254724Y-93409610D01*
X138659166Y-93242498D01*
X138968871Y-92933333D01*
X139136688Y-92529183D01*
X139137070Y-92091576D01*
X138969958Y-91687134D01*
X138660793Y-91377429D01*
X138256643Y-91209612D01*
X138111771Y-91209486D01*
X138112009Y-90936420D01*
X144569615Y-90936420D01*
X141748614Y-93757420D01*
X141748614Y-93757420D01*
G37*
X141748614Y-93757420D02*
X140811885Y-93757420D01*
X140811880Y-93757419D01*
X140476267Y-93824178D01*
X140191747Y-94014287D01*
X139541747Y-94664287D01*
X139457433Y-94790473D01*
X139268380Y-94601420D01*
X139136104Y-94601420D01*
X139111880Y-94611454D01*
X139087656Y-94601420D01*
X138955380Y-94601420D01*
X138765880Y-94790920D01*
X138765880Y-94808446D01*
X138761880Y-94812446D01*
X138757880Y-94808446D01*
X138757880Y-94790920D01*
X138568380Y-94601420D01*
X138436104Y-94601420D01*
X138411880Y-94611454D01*
X138387656Y-94601420D01*
X138255380Y-94601420D01*
X138238880Y-94617920D01*
X138238880Y-93409596D01*
X138254724Y-93409610D01*
X138659166Y-93242498D01*
X138968871Y-92933333D01*
X139136688Y-92529183D01*
X139137070Y-92091576D01*
X138969958Y-91687134D01*
X138660793Y-91377429D01*
X138256643Y-91209612D01*
X138111771Y-91209486D01*
X138112009Y-90936420D01*
X144569615Y-90936420D01*
X141748614Y-93757420D01*
G36*
X121765880Y-92155420D02*
X121785880Y-92155420D01*
X121785880Y-92163420D01*
X121765880Y-92163420D01*
X121765880Y-92183420D01*
X121757880Y-92183420D01*
X121757880Y-92163420D01*
X121737880Y-92163420D01*
X121737880Y-92155420D01*
X121757880Y-92155420D01*
X121757880Y-92135420D01*
X121765880Y-92135420D01*
X121765880Y-92155420D01*
X121765880Y-92155420D01*
G37*
X121765880Y-92155420D02*
X121785880Y-92155420D01*
X121785880Y-92163420D01*
X121765880Y-92163420D01*
X121765880Y-92183420D01*
X121757880Y-92183420D01*
X121757880Y-92163420D01*
X121737880Y-92163420D01*
X121737880Y-92155420D01*
X121757880Y-92155420D01*
X121757880Y-92135420D01*
X121765880Y-92135420D01*
X121765880Y-92155420D01*
G36*
X121611056Y-85146992D02*
X122081830Y-85618588D01*
X122697240Y-85874128D01*
X123086880Y-85874468D01*
X123086880Y-88719727D01*
X123011880Y-88719727D01*
X122733947Y-88772024D01*
X122513385Y-88913951D01*
X122441253Y-88841819D01*
X122162656Y-88726420D01*
X121705380Y-88726420D01*
X121515880Y-88915920D01*
X121515880Y-90105420D01*
X121535880Y-90105420D01*
X121535880Y-90113420D01*
X121515880Y-90113420D01*
X121515880Y-90133420D01*
X121507880Y-90133420D01*
X121507880Y-90113420D01*
X121487880Y-90113420D01*
X121487880Y-90105420D01*
X121507880Y-90105420D01*
X121507880Y-88915920D01*
X121318380Y-88726420D01*
X121058880Y-88726420D01*
X121058880Y-85182008D01*
X121302013Y-85019553D01*
X121312024Y-85009542D01*
X121389724Y-85009610D01*
X121530292Y-84951528D01*
X121611056Y-85146992D01*
X121611056Y-85146992D01*
G37*
X121611056Y-85146992D02*
X122081830Y-85618588D01*
X122697240Y-85874128D01*
X123086880Y-85874468D01*
X123086880Y-88719727D01*
X123011880Y-88719727D01*
X122733947Y-88772024D01*
X122513385Y-88913951D01*
X122441253Y-88841819D01*
X122162656Y-88726420D01*
X121705380Y-88726420D01*
X121515880Y-88915920D01*
X121515880Y-90105420D01*
X121535880Y-90105420D01*
X121535880Y-90113420D01*
X121515880Y-90113420D01*
X121515880Y-90133420D01*
X121507880Y-90133420D01*
X121507880Y-90113420D01*
X121487880Y-90113420D01*
X121487880Y-90105420D01*
X121507880Y-90105420D01*
X121507880Y-88915920D01*
X121318380Y-88726420D01*
X121058880Y-88726420D01*
X121058880Y-85182008D01*
X121302013Y-85019553D01*
X121312024Y-85009542D01*
X121389724Y-85009610D01*
X121530292Y-84951528D01*
X121611056Y-85146992D01*
M02*
