M48
INCH,TZ
T1C0.016
T2C0.025
T3C0.043
T4C0.047
T5C0.102
T6C0.110
%
G90
G05
T1
X47705Y-33035
X48438Y-33153
X48894Y-32252
X49162Y-33079
X49572Y-38960
X49591Y-36303
X49611Y-37100
X50221Y-37080
X50536Y-37248
X51544Y-33287
X51871Y-32693
X52761Y-37041
X53154Y-41110
X53154Y-41456
X53438Y-32086
X53450Y-35880
X53942Y-35860
X54345Y-36342
X54438Y-32149
X54438Y-33153
X55438Y-32153
X56028Y-32563
X58442Y-33149
X58912Y-32602
X59926Y-32740
X60446Y-32149
X60446Y-33153
T2
X48459Y-38193
X51127Y-32012
X51568Y-39130
X54798Y-37051
X59591Y-37228
X59796Y-35472
X60320Y-39807
X61225Y-34197
X63076Y-37287
X63383Y-33724
X63981Y-37228
T3
X45044Y-35811
X45044Y-36795
X45044Y-37582
X45044Y-38567
T4
X44178Y-36303
X44178Y-38075
T5
X44178Y-34905
X44178Y-39512
T6
X44453Y-32779
X44453Y-41638
X67288Y-32779
X67288Y-41638
T0
M30
