G04 #@! TF.FileFunction,Legend,Bot*
%FSLAX46Y46*%
G04 Gerber Fmt 4.6, Leading zero omitted, Abs format (unit mm)*
G04 Created by KiCad (PCBNEW 4.0.7) date 12/09/17 12:54:44*
%MOMM*%
%LPD*%
G01*
G04 APERTURE LIST*
%ADD10C,0.100000*%
%ADD11C,0.150000*%
%ADD12C,0.120000*%
G04 APERTURE END LIST*
D10*
D11*
X141611880Y-88809420D02*
X129611880Y-88809420D01*
X141611880Y-91109420D02*
X141611880Y-88809420D01*
X129611880Y-91109420D02*
X129611880Y-88809420D01*
X129611880Y-91109420D02*
X124611880Y-93809420D01*
X141611880Y-91109420D02*
X146611880Y-93909420D01*
X124611880Y-93809420D02*
X124611880Y-95309420D01*
X146611880Y-95134420D02*
X146611880Y-93859420D01*
X125461880Y-98084420D02*
X124611880Y-98084420D01*
X124611880Y-98084420D02*
X124611880Y-95159420D01*
X124611880Y-95159420D02*
X124611880Y-95134420D01*
X124611880Y-95134420D02*
X125286880Y-95134420D01*
X145761880Y-95134420D02*
X146611880Y-95134420D01*
X146611880Y-95134420D02*
X146611880Y-98084420D01*
X146611880Y-98084420D02*
X145911880Y-98084420D01*
X125111880Y-98084420D02*
X146111880Y-98084420D01*
X125111880Y-95134420D02*
X146111880Y-95134420D01*
D12*
X148761880Y-97759420D02*
X148761880Y-98759420D01*
X147061880Y-98759420D02*
X147061880Y-97759420D01*
X147036880Y-95109420D02*
X147036880Y-94109420D01*
X148736880Y-94109420D02*
X148736880Y-95109420D01*
X122111880Y-93039420D02*
X123311880Y-93039420D01*
X123311880Y-91279420D02*
X122111880Y-91279420D01*
X160791880Y-83859420D02*
X160791880Y-82659420D01*
X159031880Y-82659420D02*
X159031880Y-83859420D01*
X157791880Y-83859420D02*
X157791880Y-82659420D01*
X156031880Y-82659420D02*
X156031880Y-83859420D01*
X163791880Y-83859420D02*
X163791880Y-82659420D01*
X162031880Y-82659420D02*
X162031880Y-83859420D01*
X121731880Y-80929420D02*
X120531880Y-80929420D01*
X120531880Y-82689420D02*
X121731880Y-82689420D01*
X141561880Y-100059420D02*
X140561880Y-100059420D01*
X140561880Y-98359420D02*
X141561880Y-98359420D01*
X123011880Y-90959420D02*
X122011880Y-90959420D01*
X122011880Y-89259420D02*
X123011880Y-89259420D01*
X123011880Y-95009420D02*
X122011880Y-95009420D01*
X122011880Y-93309420D02*
X123011880Y-93309420D01*
X146361880Y-90559420D02*
X147361880Y-90559420D01*
X147361880Y-92259420D02*
X146361880Y-92259420D01*
D11*
X127481880Y-85394420D02*
X127481880Y-85189420D01*
X132981880Y-85394420D02*
X132981880Y-85094420D01*
X132981880Y-79884420D02*
X132981880Y-80184420D01*
X127481880Y-79884420D02*
X127481880Y-80184420D01*
X127481880Y-85394420D02*
X132981880Y-85394420D01*
X127481880Y-79884420D02*
X132981880Y-79884420D01*
X127481880Y-85189420D02*
X125731880Y-85189420D01*
X136697594Y-94452277D02*
X136697594Y-93252277D01*
X136240451Y-93252277D01*
X136126165Y-93309420D01*
X136069022Y-93366563D01*
X136011879Y-93480849D01*
X136011879Y-93652277D01*
X136069022Y-93766563D01*
X136126165Y-93823706D01*
X136240451Y-93880849D01*
X136697594Y-93880849D01*
X134983308Y-93652277D02*
X134983308Y-94452277D01*
X135269022Y-93195134D02*
X135554737Y-94052277D01*
X134811879Y-94052277D01*
X126421404Y-93811801D02*
X125802356Y-93811801D01*
X126135690Y-94192753D01*
X125992832Y-94192753D01*
X125897594Y-94240372D01*
X125849975Y-94287991D01*
X125802356Y-94383230D01*
X125802356Y-94621325D01*
X125849975Y-94716563D01*
X125897594Y-94764182D01*
X125992832Y-94811801D01*
X126278547Y-94811801D01*
X126373785Y-94764182D01*
X126421404Y-94716563D01*
X125183309Y-93811801D02*
X125088070Y-93811801D01*
X124992832Y-93859420D01*
X124945213Y-93907039D01*
X124897594Y-94002277D01*
X124849975Y-94192753D01*
X124849975Y-94430849D01*
X124897594Y-94621325D01*
X124945213Y-94716563D01*
X124992832Y-94764182D01*
X125088070Y-94811801D01*
X125183309Y-94811801D01*
X125278547Y-94764182D01*
X125326166Y-94716563D01*
X125373785Y-94621325D01*
X125421404Y-94430849D01*
X125421404Y-94192753D01*
X125373785Y-94002277D01*
X125326166Y-93907039D01*
X125278547Y-93859420D01*
X125183309Y-93811801D01*
X145576165Y-94811801D02*
X146147594Y-94811801D01*
X145861880Y-94811801D02*
X145861880Y-93811801D01*
X145957118Y-93954658D01*
X146052356Y-94049896D01*
X146147594Y-94097515D01*
X149969023Y-98092754D02*
X150016642Y-98045135D01*
X150064261Y-97902278D01*
X150064261Y-97807040D01*
X150016642Y-97664182D01*
X149921404Y-97568944D01*
X149826166Y-97521325D01*
X149635690Y-97473706D01*
X149492832Y-97473706D01*
X149302356Y-97521325D01*
X149207118Y-97568944D01*
X149111880Y-97664182D01*
X149064261Y-97807040D01*
X149064261Y-97902278D01*
X149111880Y-98045135D01*
X149159499Y-98092754D01*
X150064261Y-99045135D02*
X150064261Y-98473706D01*
X150064261Y-98759420D02*
X149064261Y-98759420D01*
X149207118Y-98664182D01*
X149302356Y-98568944D01*
X149349975Y-98473706D01*
X150269023Y-94392754D02*
X150316642Y-94345135D01*
X150364261Y-94202278D01*
X150364261Y-94107040D01*
X150316642Y-93964182D01*
X150221404Y-93868944D01*
X150126166Y-93821325D01*
X149935690Y-93773706D01*
X149792832Y-93773706D01*
X149602356Y-93821325D01*
X149507118Y-93868944D01*
X149411880Y-93964182D01*
X149364261Y-94107040D01*
X149364261Y-94202278D01*
X149411880Y-94345135D01*
X149459499Y-94392754D01*
X149459499Y-94773706D02*
X149411880Y-94821325D01*
X149364261Y-94916563D01*
X149364261Y-95154659D01*
X149411880Y-95249897D01*
X149459499Y-95297516D01*
X149554737Y-95345135D01*
X149649975Y-95345135D01*
X149792832Y-95297516D01*
X150364261Y-94726087D01*
X150364261Y-95345135D01*
X120469023Y-92611801D02*
X120469023Y-91611801D01*
X119421404Y-92611801D02*
X119754738Y-92135610D01*
X119992833Y-92611801D02*
X119992833Y-91611801D01*
X119611880Y-91611801D01*
X119516642Y-91659420D01*
X119469023Y-91707039D01*
X119421404Y-91802277D01*
X119421404Y-91945134D01*
X119469023Y-92040372D01*
X119516642Y-92087991D01*
X119611880Y-92135610D01*
X119992833Y-92135610D01*
X118992833Y-92087991D02*
X118659499Y-92087991D01*
X118516642Y-92611801D02*
X118992833Y-92611801D01*
X118992833Y-91611801D01*
X118516642Y-91611801D01*
X117754737Y-92087991D02*
X118088071Y-92087991D01*
X118088071Y-92611801D02*
X118088071Y-91611801D01*
X117611880Y-91611801D01*
X116707118Y-92611801D02*
X117278547Y-92611801D01*
X116992833Y-92611801D02*
X116992833Y-91611801D01*
X117088071Y-91754658D01*
X117183309Y-91849896D01*
X117278547Y-91897515D01*
X160394261Y-80602754D02*
X159918070Y-80269420D01*
X160394261Y-80031325D02*
X159394261Y-80031325D01*
X159394261Y-80412278D01*
X159441880Y-80507516D01*
X159489499Y-80555135D01*
X159584737Y-80602754D01*
X159727594Y-80602754D01*
X159822832Y-80555135D01*
X159870451Y-80507516D01*
X159918070Y-80412278D01*
X159918070Y-80031325D01*
X160394261Y-81555135D02*
X160394261Y-80983706D01*
X160394261Y-81269420D02*
X159394261Y-81269420D01*
X159537118Y-81174182D01*
X159632356Y-81078944D01*
X159679975Y-80983706D01*
X157174261Y-80612754D02*
X156698070Y-80279420D01*
X157174261Y-80041325D02*
X156174261Y-80041325D01*
X156174261Y-80422278D01*
X156221880Y-80517516D01*
X156269499Y-80565135D01*
X156364737Y-80612754D01*
X156507594Y-80612754D01*
X156602832Y-80565135D01*
X156650451Y-80517516D01*
X156698070Y-80422278D01*
X156698070Y-80041325D01*
X156269499Y-80993706D02*
X156221880Y-81041325D01*
X156174261Y-81136563D01*
X156174261Y-81374659D01*
X156221880Y-81469897D01*
X156269499Y-81517516D01*
X156364737Y-81565135D01*
X156459975Y-81565135D01*
X156602832Y-81517516D01*
X157174261Y-80946087D01*
X157174261Y-81565135D01*
X163464261Y-80592754D02*
X162988070Y-80259420D01*
X163464261Y-80021325D02*
X162464261Y-80021325D01*
X162464261Y-80402278D01*
X162511880Y-80497516D01*
X162559499Y-80545135D01*
X162654737Y-80592754D01*
X162797594Y-80592754D01*
X162892832Y-80545135D01*
X162940451Y-80497516D01*
X162988070Y-80402278D01*
X162988070Y-80021325D01*
X162464261Y-80926087D02*
X162464261Y-81545135D01*
X162845213Y-81211801D01*
X162845213Y-81354659D01*
X162892832Y-81449897D01*
X162940451Y-81497516D01*
X163035690Y-81545135D01*
X163273785Y-81545135D01*
X163369023Y-81497516D01*
X163416642Y-81449897D01*
X163464261Y-81354659D01*
X163464261Y-81068944D01*
X163416642Y-80973706D01*
X163369023Y-80926087D01*
X118458546Y-82341801D02*
X118791880Y-81865610D01*
X119029975Y-82341801D02*
X119029975Y-81341801D01*
X118649022Y-81341801D01*
X118553784Y-81389420D01*
X118506165Y-81437039D01*
X118458546Y-81532277D01*
X118458546Y-81675134D01*
X118506165Y-81770372D01*
X118553784Y-81817991D01*
X118649022Y-81865610D01*
X119029975Y-81865610D01*
X117553784Y-81341801D02*
X118029975Y-81341801D01*
X118077594Y-81817991D01*
X118029975Y-81770372D01*
X117934737Y-81722753D01*
X117696641Y-81722753D01*
X117601403Y-81770372D01*
X117553784Y-81817991D01*
X117506165Y-81913230D01*
X117506165Y-82151325D01*
X117553784Y-82246563D01*
X117601403Y-82294182D01*
X117696641Y-82341801D01*
X117934737Y-82341801D01*
X118029975Y-82294182D01*
X118077594Y-82246563D01*
X139030928Y-99711801D02*
X138697595Y-100711801D01*
X138364261Y-99711801D01*
X137697594Y-100187991D02*
X137554737Y-100235610D01*
X137507118Y-100283230D01*
X137459499Y-100378468D01*
X137459499Y-100521325D01*
X137507118Y-100616563D01*
X137554737Y-100664182D01*
X137649975Y-100711801D01*
X138030928Y-100711801D01*
X138030928Y-99711801D01*
X137697594Y-99711801D01*
X137602356Y-99759420D01*
X137554737Y-99807039D01*
X137507118Y-99902277D01*
X137507118Y-99997515D01*
X137554737Y-100092753D01*
X137602356Y-100140372D01*
X137697594Y-100187991D01*
X138030928Y-100187991D01*
X137078547Y-100426087D02*
X136602356Y-100426087D01*
X137173785Y-100711801D02*
X136840452Y-99711801D01*
X136507118Y-100711801D01*
X136316642Y-99711801D02*
X135745213Y-99711801D01*
X136030928Y-100711801D02*
X136030928Y-99711801D01*
X134888070Y-100711801D02*
X135459499Y-100711801D01*
X135173785Y-100711801D02*
X135173785Y-99711801D01*
X135269023Y-99854658D01*
X135364261Y-99949896D01*
X135459499Y-99997515D01*
X120321404Y-89611801D02*
X119988071Y-90611801D01*
X119654737Y-89611801D01*
X118749975Y-90516563D02*
X118797594Y-90564182D01*
X118940451Y-90611801D01*
X119035689Y-90611801D01*
X119178547Y-90564182D01*
X119273785Y-90468944D01*
X119321404Y-90373706D01*
X119369023Y-90183230D01*
X119369023Y-90040372D01*
X119321404Y-89849896D01*
X119273785Y-89754658D01*
X119178547Y-89659420D01*
X119035689Y-89611801D01*
X118940451Y-89611801D01*
X118797594Y-89659420D01*
X118749975Y-89707039D01*
X117749975Y-90516563D02*
X117797594Y-90564182D01*
X117940451Y-90611801D01*
X118035689Y-90611801D01*
X118178547Y-90564182D01*
X118273785Y-90468944D01*
X118321404Y-90373706D01*
X118369023Y-90183230D01*
X118369023Y-90040372D01*
X118321404Y-89849896D01*
X118273785Y-89754658D01*
X118178547Y-89659420D01*
X118035689Y-89611801D01*
X117940451Y-89611801D01*
X117797594Y-89659420D01*
X117749975Y-89707039D01*
X116797594Y-90611801D02*
X117369023Y-90611801D01*
X117083309Y-90611801D02*
X117083309Y-89611801D01*
X117178547Y-89754658D01*
X117273785Y-89849896D01*
X117369023Y-89897515D01*
X119664261Y-93330849D02*
X120664261Y-93664182D01*
X119664261Y-93997516D01*
X120569023Y-94902278D02*
X120616642Y-94854659D01*
X120664261Y-94711802D01*
X120664261Y-94616564D01*
X120616642Y-94473706D01*
X120521404Y-94378468D01*
X120426166Y-94330849D01*
X120235690Y-94283230D01*
X120092832Y-94283230D01*
X119902356Y-94330849D01*
X119807118Y-94378468D01*
X119711880Y-94473706D01*
X119664261Y-94616564D01*
X119664261Y-94711802D01*
X119711880Y-94854659D01*
X119759499Y-94902278D01*
X119664261Y-95521325D02*
X119664261Y-95711802D01*
X119711880Y-95807040D01*
X119807118Y-95902278D01*
X119997594Y-95949897D01*
X120330928Y-95949897D01*
X120521404Y-95902278D01*
X120616642Y-95807040D01*
X120664261Y-95711802D01*
X120664261Y-95521325D01*
X120616642Y-95426087D01*
X120521404Y-95330849D01*
X120330928Y-95283230D01*
X119997594Y-95283230D01*
X119807118Y-95330849D01*
X119711880Y-95426087D01*
X119664261Y-95521325D01*
X120664261Y-96378468D02*
X119664261Y-96378468D01*
X120378547Y-96711802D01*
X119664261Y-97045135D01*
X120664261Y-97045135D01*
X120664261Y-97521325D02*
X119664261Y-97521325D01*
X120140451Y-97521325D02*
X120140451Y-98092754D01*
X120664261Y-98092754D02*
X119664261Y-98092754D01*
X120664261Y-99092754D02*
X120664261Y-98521325D01*
X120664261Y-98807039D02*
X119664261Y-98807039D01*
X119807118Y-98711801D01*
X119902356Y-98616563D01*
X119949975Y-98521325D01*
X152621404Y-90811801D02*
X152288071Y-91811801D01*
X151954737Y-90811801D01*
X151621404Y-91811801D02*
X151621404Y-90811801D01*
X151383309Y-90811801D01*
X151240451Y-90859420D01*
X151145213Y-90954658D01*
X151097594Y-91049896D01*
X151049975Y-91240372D01*
X151049975Y-91383230D01*
X151097594Y-91573706D01*
X151145213Y-91668944D01*
X151240451Y-91764182D01*
X151383309Y-91811801D01*
X151621404Y-91811801D01*
X150621404Y-91811801D02*
X150621404Y-90811801D01*
X150383309Y-90811801D01*
X150240451Y-90859420D01*
X150145213Y-90954658D01*
X150097594Y-91049896D01*
X150049975Y-91240372D01*
X150049975Y-91383230D01*
X150097594Y-91573706D01*
X150145213Y-91668944D01*
X150240451Y-91764182D01*
X150383309Y-91811801D01*
X150621404Y-91811801D01*
X149097594Y-91811801D02*
X149669023Y-91811801D01*
X149383309Y-91811801D02*
X149383309Y-90811801D01*
X149478547Y-90954658D01*
X149573785Y-91049896D01*
X149669023Y-91097515D01*
X130973785Y-82111801D02*
X130973785Y-82921325D01*
X130926166Y-83016563D01*
X130878547Y-83064182D01*
X130783309Y-83111801D01*
X130592832Y-83111801D01*
X130497594Y-83064182D01*
X130449975Y-83016563D01*
X130402356Y-82921325D01*
X130402356Y-82111801D01*
X129402356Y-83111801D02*
X129973785Y-83111801D01*
X129688071Y-83111801D02*
X129688071Y-82111801D01*
X129783309Y-82254658D01*
X129878547Y-82349896D01*
X129973785Y-82397515D01*
X137162832Y-108111801D02*
X137162832Y-107111801D01*
X136924737Y-107111801D01*
X136781879Y-107159420D01*
X136686641Y-107254658D01*
X136639022Y-107349896D01*
X136591403Y-107540372D01*
X136591403Y-107683230D01*
X136639022Y-107873706D01*
X136686641Y-107968944D01*
X136781879Y-108064182D01*
X136924737Y-108111801D01*
X137162832Y-108111801D01*
X136162832Y-107730849D02*
X135400927Y-107730849D01*
X130792832Y-108111801D02*
X130792832Y-107111801D01*
X130554737Y-107111801D01*
X130411879Y-107159420D01*
X130316641Y-107254658D01*
X130269022Y-107349896D01*
X130221403Y-107540372D01*
X130221403Y-107683230D01*
X130269022Y-107873706D01*
X130316641Y-107968944D01*
X130411879Y-108064182D01*
X130554737Y-108111801D01*
X130792832Y-108111801D01*
X129792832Y-107730849D02*
X129030927Y-107730849D01*
X129411879Y-108111801D02*
X129411879Y-107349896D01*
M02*
