G04 #@! TF.FileFunction,Paste,Bot*
%FSLAX46Y46*%
G04 Gerber Fmt 4.6, Leading zero omitted, Abs format (unit mm)*
G04 Created by KiCad (PCBNEW 4.0.7) date 11/19/17 13:53:12*
%MOMM*%
%LPD*%
G01*
G04 APERTURE LIST*
%ADD10C,0.100000*%
%ADD11R,0.350000X2.500000*%
%ADD12R,1.250000X1.000000*%
%ADD13R,0.700000X1.300000*%
%ADD14R,4.500000X2.000000*%
%ADD15R,1.300000X0.700000*%
%ADD16R,0.400000X1.200000*%
%ADD17R,1.550000X0.600000*%
%ADD18R,1.000000X1.250000*%
G04 APERTURE END LIST*
D10*
D11*
X125411880Y-96559420D03*
X126161880Y-96609420D03*
X126861880Y-96609420D03*
X127561880Y-96609420D03*
X128261880Y-96609420D03*
X128961880Y-96609420D03*
X129661880Y-96609420D03*
X130361880Y-96609420D03*
X131061880Y-96609420D03*
X131761880Y-96609420D03*
X132461880Y-96609420D03*
X133161880Y-96609420D03*
X133861880Y-96609420D03*
X134561880Y-96609420D03*
X135261880Y-96609420D03*
X135961880Y-96609420D03*
X136661880Y-96609420D03*
X137361880Y-96609420D03*
X138061880Y-96609420D03*
X138761880Y-96609420D03*
X139461880Y-96609420D03*
X140161880Y-96609420D03*
X140861880Y-96609420D03*
X141561880Y-96609420D03*
X142261880Y-96609420D03*
X142961880Y-96609420D03*
X143661880Y-96609420D03*
X144361880Y-96609420D03*
X145061880Y-96609420D03*
X145811880Y-96509420D03*
D12*
X147911880Y-99259420D03*
X147911880Y-97259420D03*
X147886880Y-93609420D03*
X147886880Y-95609420D03*
D13*
X123661880Y-92159420D03*
X121761880Y-92159420D03*
D14*
X140836880Y-104559420D03*
X149336880Y-104559420D03*
D15*
X160661880Y-94059420D03*
X160661880Y-95959420D03*
X151411880Y-93759420D03*
X151411880Y-95659420D03*
X160661880Y-92409420D03*
X160661880Y-90509420D03*
D13*
X135586880Y-100634420D03*
X137486880Y-100634420D03*
X124711880Y-80909420D03*
X122811880Y-80909420D03*
D16*
X125234380Y-100584420D03*
X125869380Y-100584420D03*
X126504380Y-100584420D03*
X127139380Y-100584420D03*
X127774380Y-100584420D03*
X128409380Y-100584420D03*
X129044380Y-100584420D03*
X129679380Y-100584420D03*
X130314380Y-100584420D03*
X130949380Y-100584420D03*
X131584380Y-100584420D03*
X132219380Y-100584420D03*
X132854380Y-100584420D03*
X133489380Y-100584420D03*
X133489380Y-105784420D03*
X132854380Y-105784420D03*
X132219380Y-105784420D03*
X131584380Y-105784420D03*
X130949380Y-105784420D03*
X130314380Y-105784420D03*
X129679380Y-105784420D03*
X129044380Y-105784420D03*
X128409380Y-105784420D03*
X127774380Y-105784420D03*
X127139380Y-105784420D03*
X126504380Y-105784420D03*
X125869380Y-105784420D03*
X125234380Y-105784420D03*
D17*
X126611880Y-84564420D03*
X126611880Y-83294420D03*
X126611880Y-82024420D03*
X126611880Y-80754420D03*
X132011880Y-80754420D03*
X132011880Y-82024420D03*
X132011880Y-83294420D03*
X132011880Y-84564420D03*
D18*
X140061880Y-99209420D03*
X142061880Y-99209420D03*
X121511880Y-90109420D03*
X123511880Y-90109420D03*
D12*
X118911880Y-106159420D03*
X118911880Y-108159420D03*
X120911880Y-106159420D03*
X120911880Y-108159420D03*
D18*
X126111880Y-108209420D03*
X124111880Y-108209420D03*
X121511880Y-94159420D03*
X123511880Y-94159420D03*
X147861880Y-91409420D03*
X145861880Y-91409420D03*
M02*
