G04 #@! TF.FileFunction,Profile,NP*
%FSLAX46Y46*%
G04 Gerber Fmt 4.6, Leading zero omitted, Abs format (unit mm)*
G04 Created by KiCad (PCBNEW 4.0.7) date 03/22/18 22:29:43*
%MOMM*%
%LPD*%
G01*
G04 APERTURE LIST*
%ADD10C,0.100000*%
%ADD11C,0.150000*%
G04 APERTURE END LIST*
D10*
D11*
X141781880Y-75029420D02*
X164781880Y-75029420D01*
X141781880Y-78029420D02*
X141781880Y-75029420D01*
X164781880Y-78029420D02*
X141781880Y-78029420D01*
X164781880Y-75029420D02*
X164781880Y-78029420D01*
X123111880Y-87459420D02*
X120711880Y-87459420D01*
X120511880Y-79359420D02*
X120511880Y-87259420D01*
X125211880Y-79159420D02*
X120711880Y-79159420D01*
X123511880Y-87059420D02*
G75*
G03X123111880Y-87459420I0J-400000D01*
G01*
X123911880Y-87459420D02*
G75*
G03X123511880Y-87059420I-400000J0D01*
G01*
X120711880Y-79159420D02*
G75*
G03X120511880Y-79359420I0J-200000D01*
G01*
X120511880Y-87259420D02*
G75*
G03X120711880Y-87459420I200000J0D01*
G01*
X123911880Y-87459420D02*
X123911880Y-87859420D01*
X127411880Y-87859420D02*
X127411880Y-95759420D01*
X127411880Y-78659420D02*
X127411880Y-71759420D01*
X125211880Y-79159420D02*
X125211880Y-78659420D01*
X127411880Y-78659420D02*
X125211880Y-78659420D01*
X127411880Y-87859420D02*
X123911880Y-87859420D01*
X130411880Y-98759420D02*
X189411880Y-98759420D01*
X189411880Y-68759420D02*
X130411880Y-68759420D01*
X192411880Y-95759420D02*
X192411880Y-71759420D01*
X189411880Y-98759420D02*
G75*
G03X192411880Y-95759420I0J3000000D01*
G01*
X127411880Y-95759420D02*
G75*
G03X130411880Y-98759420I3000000J0D01*
G01*
X130411880Y-68759420D02*
G75*
G03X127411880Y-71759420I0J-3000000D01*
G01*
X192411880Y-71759420D02*
G75*
G03X189411880Y-68759420I-3000000J0D01*
G01*
M02*
