G04 #@! TF.FileFunction,Copper,L1,Top,Signal*
%FSLAX46Y46*%
G04 Gerber Fmt 4.6, Leading zero omitted, Abs format (unit mm)*
G04 Created by KiCad (PCBNEW 4.0.7) date 05/10/18 18:44:05*
%MOMM*%
%LPD*%
G01*
G04 APERTURE LIST*
%ADD10C,0.100000*%
%ADD11R,2.100000X1.400000*%
%ADD12C,3.000000*%
%ADD13C,1.250000*%
%ADD14C,2.800000*%
%ADD15C,1.400000*%
%ADD16C,0.700000*%
%ADD17C,0.889000*%
%ADD18C,0.254000*%
%ADD19C,0.200000*%
%ADD20C,0.160000*%
G04 APERTURE END LIST*
D10*
D11*
X160011880Y-96709420D03*
X150911880Y-96709420D03*
X160111880Y-92109420D03*
X151011880Y-92109420D03*
X159911880Y-105909420D03*
X150811880Y-105909420D03*
X160011880Y-101309420D03*
X150911880Y-101309420D03*
D12*
X170911880Y-83259420D03*
X170911880Y-105759420D03*
X112911880Y-83259420D03*
X112911880Y-105759420D03*
D13*
X114411880Y-90959420D03*
X114411880Y-97959420D03*
X114411880Y-95459420D03*
X114411880Y-93459420D03*
D14*
X112211880Y-88659420D03*
X112211880Y-100359420D03*
D15*
X112211880Y-96709420D03*
X112211880Y-92209420D03*
D11*
X163161880Y-96709420D03*
X172261880Y-96709420D03*
X163061880Y-101309420D03*
X172161880Y-101309420D03*
D16*
X125911880Y-98959420D03*
D17*
X130981880Y-99389420D03*
X151881880Y-90099420D03*
X129861880Y-81309420D03*
X151361880Y-94559420D03*
X162511880Y-94559420D03*
X160211880Y-94709420D03*
X123086880Y-97009420D03*
X139186880Y-94109420D03*
D16*
X130921880Y-84549420D03*
X121171880Y-83909420D03*
X140811880Y-81669420D03*
X135731880Y-81499420D03*
X137011880Y-91084420D03*
X138271880Y-84209420D03*
X142311880Y-82709420D03*
X149636880Y-82809420D03*
X134011880Y-94084420D03*
X138271880Y-81659420D03*
X131751880Y-83039420D03*
X138036880Y-92309420D03*
X152211880Y-83159420D03*
X125961880Y-92209420D03*
X128361880Y-94609420D03*
X126011880Y-94234420D03*
X127561880Y-94184420D03*
X135011880Y-105299420D03*
X135011880Y-104419420D03*
X148441880Y-84199420D03*
X153531880Y-81659420D03*
D17*
X153211880Y-101109420D03*
D16*
X153531880Y-84209420D03*
D17*
X160991880Y-85659420D03*
X155511880Y-86859420D03*
D16*
X123031880Y-84209420D03*
X135761880Y-91134420D03*
X124191880Y-81919420D03*
X124871880Y-84019420D03*
D18*
X125911880Y-98959420D02*
X130551880Y-98959420D01*
X130551880Y-98959420D02*
X130981880Y-99389420D01*
X150911880Y-96709420D02*
X150911880Y-95009420D01*
X150911880Y-95009420D02*
X151361880Y-94559420D01*
X163161880Y-96709420D02*
X163161880Y-95209420D01*
X163161880Y-95209420D02*
X162511880Y-94559420D01*
X160011880Y-96709420D02*
X160011880Y-94909420D01*
X160011880Y-94909420D02*
X160211880Y-94709420D01*
X123086880Y-97009420D02*
X123086880Y-97084420D01*
X130921880Y-84549420D02*
X129621880Y-84549420D01*
X123991880Y-81089420D02*
X121171880Y-83909420D01*
X126161880Y-81089420D02*
X123991880Y-81089420D01*
X129621880Y-84549420D02*
X126161880Y-81089420D01*
D19*
X139511880Y-80369420D02*
X140811880Y-81669420D01*
X136861880Y-80369420D02*
X139511880Y-80369420D01*
X135731880Y-81499420D02*
X136861880Y-80369420D01*
D18*
X140811880Y-81669420D02*
X143921880Y-81669420D01*
X143921880Y-81669420D02*
X147986880Y-85734420D01*
X147986880Y-85734420D02*
X147986880Y-88484420D01*
X147986880Y-88484420D02*
X146386880Y-90084420D01*
X146386880Y-90084420D02*
X138011880Y-90084420D01*
X138011880Y-90084420D02*
X137011880Y-91084420D01*
X138331880Y-84209420D02*
X138271880Y-84209420D01*
X138331880Y-84209420D02*
X140811880Y-84209420D01*
X140811880Y-84209420D02*
X142311880Y-82709420D01*
X149636880Y-82809420D02*
X149661880Y-82834420D01*
X149661880Y-82834420D02*
X149661880Y-88409420D01*
X149661880Y-88409420D02*
X147136880Y-90934420D01*
X147136880Y-90934420D02*
X138286880Y-90934420D01*
X138286880Y-90934420D02*
X135361880Y-93859420D01*
X135361880Y-93859420D02*
X134236880Y-93859420D01*
X134236880Y-93859420D02*
X134011880Y-94084420D01*
X152211880Y-87299420D02*
X152211880Y-87989420D01*
X152211880Y-87989420D02*
X147991880Y-92209420D01*
X152211880Y-87169420D02*
X152211880Y-87299420D01*
X137391880Y-82539420D02*
X138271880Y-81659420D01*
X132251880Y-82539420D02*
X137391880Y-82539420D01*
X131751880Y-83039420D02*
X132251880Y-82539420D01*
X152211880Y-83159420D02*
X152211880Y-87169420D01*
X147991880Y-92209420D02*
X138136880Y-92209420D01*
X138136880Y-92209420D02*
X138036880Y-92309420D01*
X125961880Y-92209420D02*
X127086880Y-93334420D01*
X127086880Y-93334420D02*
X127711880Y-93334420D01*
X127711880Y-93334420D02*
X128361880Y-93984420D01*
X128361880Y-93984420D02*
X128361880Y-94609420D01*
X126011880Y-94234420D02*
X126061880Y-94184420D01*
X126061880Y-94184420D02*
X127561880Y-94184420D01*
D20*
X135011880Y-105299420D02*
X134741879Y-105029419D01*
X116241463Y-94629419D02*
X115241881Y-94629419D01*
X134741879Y-105029419D02*
X130611880Y-105029419D01*
X129711880Y-105382429D02*
X129711880Y-105329419D01*
X130611880Y-105029419D02*
X130545123Y-105036941D01*
X129711880Y-105329419D02*
X129704358Y-105262663D01*
X130545123Y-105036941D02*
X130481714Y-105059129D01*
X130481714Y-105059129D02*
X130424833Y-105094870D01*
X129741589Y-105512595D02*
X129719401Y-105449186D01*
X130424833Y-105094870D02*
X130377330Y-105142373D01*
X129598926Y-105094870D02*
X129542045Y-105059129D01*
X130377330Y-105142373D02*
X130341589Y-105199254D01*
X130341589Y-105199254D02*
X130319401Y-105262663D01*
X130246429Y-105569476D02*
X130198926Y-105616979D01*
X130319401Y-105262663D02*
X130311880Y-105329419D01*
X130311880Y-105329419D02*
X130311880Y-105382429D01*
X129777330Y-105569476D02*
X129741589Y-105512595D01*
X130311880Y-105382429D02*
X130304358Y-105449186D01*
X130304358Y-105449186D02*
X130282170Y-105512595D01*
X130282170Y-105512595D02*
X130246429Y-105569476D01*
X129704358Y-105262663D02*
X129682170Y-105199254D01*
X129945123Y-105674908D02*
X129881714Y-105652720D01*
X130198926Y-105616979D02*
X130142045Y-105652720D01*
X129478636Y-105036941D02*
X129411880Y-105029419D01*
X130142045Y-105652720D02*
X130078636Y-105674908D01*
X129542045Y-105059129D02*
X129478636Y-105036941D01*
X130078636Y-105674908D02*
X130011880Y-105682429D01*
X130011880Y-105682429D02*
X129945123Y-105674908D01*
X129881714Y-105652720D02*
X129824833Y-105616979D01*
X129824833Y-105616979D02*
X129777330Y-105569476D01*
X129719401Y-105449186D02*
X129711880Y-105382429D01*
X129682170Y-105199254D02*
X129646429Y-105142373D01*
X129646429Y-105142373D02*
X129598926Y-105094870D01*
X129411880Y-105029419D02*
X119741463Y-105029419D01*
X119741463Y-105029419D02*
X118041880Y-103329836D01*
X118041880Y-103329836D02*
X118041880Y-96429836D01*
X118041880Y-96429836D02*
X116241463Y-94629419D01*
X115241881Y-94629419D02*
X114411880Y-95459420D01*
X116382297Y-94289421D02*
X115241881Y-94289421D01*
X135011880Y-104419420D02*
X134741879Y-104689421D01*
X134741879Y-104689421D02*
X119882297Y-104689421D01*
X119882297Y-104689421D02*
X118381880Y-103189004D01*
X118381880Y-103189004D02*
X118381880Y-96289004D01*
X118381880Y-96289004D02*
X116382297Y-94289421D01*
X115241881Y-94289421D02*
X114411880Y-93459420D01*
D18*
X148441880Y-82399420D02*
X148441880Y-84199420D01*
X149491880Y-81349420D02*
X148441880Y-82399420D01*
X153221880Y-81349420D02*
X149491880Y-81349420D01*
X153531880Y-81659420D02*
X153221880Y-81349420D01*
X153211880Y-101109420D02*
X159811880Y-101109420D01*
X159811880Y-101109420D02*
X160011880Y-101309420D01*
X153011880Y-101309420D02*
X150911880Y-101309420D01*
X153211880Y-101109420D02*
X153011880Y-101309420D01*
X160991880Y-85659420D02*
X154981880Y-85659420D01*
X154981880Y-85659420D02*
X153531880Y-84209420D01*
X172161880Y-101309420D02*
X166961880Y-101309420D01*
X160991880Y-85659420D02*
X162211880Y-85659420D01*
X166961880Y-101309420D02*
X163061880Y-101309420D01*
X168111880Y-100159420D02*
X166961880Y-101309420D01*
X168111880Y-91559420D02*
X168111880Y-100159420D01*
X162211880Y-85659420D02*
X168111880Y-91559420D01*
X155511880Y-92109420D02*
X155511880Y-86859420D01*
X151011880Y-92109420D02*
X155511880Y-92109420D01*
X155511880Y-92109420D02*
X160111880Y-92109420D01*
X123031880Y-87439420D02*
X123031880Y-84209420D01*
X123031880Y-87439420D02*
X123031880Y-89304420D01*
X134786880Y-90159420D02*
X135761880Y-91134420D01*
X123886880Y-90159420D02*
X134786880Y-90159420D01*
X123031880Y-89304420D02*
X123886880Y-90159420D01*
X123031880Y-84209420D02*
X123031880Y-84219420D01*
X124191880Y-83339420D02*
X124191880Y-81919420D01*
X124871880Y-84019420D02*
X124191880Y-83339420D01*
G36*
X135677481Y-80514373D02*
X135536811Y-80514250D01*
X135174651Y-80663891D01*
X134897325Y-80940734D01*
X134747052Y-81302632D01*
X134746710Y-81694489D01*
X134780976Y-81777420D01*
X132251880Y-81777420D01*
X131960275Y-81835424D01*
X131901248Y-81874865D01*
X131713065Y-82000604D01*
X131659330Y-82054339D01*
X131556811Y-82054250D01*
X131194651Y-82203891D01*
X130917325Y-82480734D01*
X130767052Y-82842632D01*
X130766710Y-83234489D01*
X130903028Y-83564404D01*
X130726811Y-83564250D01*
X130364651Y-83713891D01*
X130290994Y-83787420D01*
X129937510Y-83787420D01*
X126700695Y-80550605D01*
X126453485Y-80385424D01*
X126161880Y-80327420D01*
X123991880Y-80327420D01*
X123700275Y-80385424D01*
X123453064Y-80550605D01*
X121079330Y-82924339D01*
X120976811Y-82924250D01*
X120614651Y-83073891D01*
X120337325Y-83350734D01*
X120187052Y-83712632D01*
X120186710Y-84104489D01*
X120336351Y-84466649D01*
X120613194Y-84743975D01*
X120975092Y-84894248D01*
X121366949Y-84894590D01*
X121729109Y-84744949D01*
X122006435Y-84468106D01*
X122046739Y-84371043D01*
X122046710Y-84404489D01*
X122196351Y-84766649D01*
X122269880Y-84840306D01*
X122269880Y-89304420D01*
X122327884Y-89596025D01*
X122446780Y-89773965D01*
X122493065Y-89843235D01*
X123348065Y-90698236D01*
X123595276Y-90863417D01*
X123886880Y-90921420D01*
X134471250Y-90921420D01*
X134776799Y-91226970D01*
X134776710Y-91329489D01*
X134926351Y-91691649D01*
X135203194Y-91968975D01*
X135565092Y-92119248D01*
X135956949Y-92119590D01*
X136071348Y-92072321D01*
X135046250Y-93097420D01*
X134236880Y-93097420D01*
X134214269Y-93101918D01*
X134208668Y-93099592D01*
X133816811Y-93099250D01*
X133454651Y-93248891D01*
X133177325Y-93525734D01*
X133027052Y-93887632D01*
X133026710Y-94279489D01*
X133176351Y-94641649D01*
X133453194Y-94918975D01*
X133815092Y-95069248D01*
X134206949Y-95069590D01*
X134569109Y-94919949D01*
X134846435Y-94643106D01*
X134855440Y-94621420D01*
X135361880Y-94621420D01*
X135653485Y-94563416D01*
X135900695Y-94398235D01*
X137316716Y-92982215D01*
X137478194Y-93143975D01*
X137840092Y-93294248D01*
X138231949Y-93294590D01*
X138594109Y-93144949D01*
X138767941Y-92971420D01*
X147991880Y-92971420D01*
X148283485Y-92913416D01*
X148530695Y-92748235D01*
X149314440Y-91964490D01*
X149314440Y-92809420D01*
X149358718Y-93044737D01*
X149497790Y-93260861D01*
X149709990Y-93405851D01*
X149961880Y-93456860D01*
X152061880Y-93456860D01*
X152297197Y-93412582D01*
X152513321Y-93273510D01*
X152658311Y-93061310D01*
X152696765Y-92871420D01*
X158426106Y-92871420D01*
X158458718Y-93044737D01*
X158597790Y-93260861D01*
X158809990Y-93405851D01*
X159061880Y-93456860D01*
X161161880Y-93456860D01*
X161397197Y-93412582D01*
X161613321Y-93273510D01*
X161758311Y-93061310D01*
X161809320Y-92809420D01*
X161809320Y-91409420D01*
X161765042Y-91174103D01*
X161625970Y-90957979D01*
X161413770Y-90812989D01*
X161161880Y-90761980D01*
X159061880Y-90761980D01*
X158826563Y-90806258D01*
X158610439Y-90945330D01*
X158465449Y-91157530D01*
X158426995Y-91347420D01*
X156273880Y-91347420D01*
X156273880Y-87624062D01*
X156426502Y-87471706D01*
X156591193Y-87075088D01*
X156591567Y-86645636D01*
X156498923Y-86421420D01*
X160227238Y-86421420D01*
X160379594Y-86574042D01*
X160776212Y-86738733D01*
X161205664Y-86739107D01*
X161602569Y-86575109D01*
X161756526Y-86421420D01*
X161896250Y-86421420D01*
X167349880Y-91875050D01*
X167349880Y-99843789D01*
X166646250Y-100547420D01*
X164747654Y-100547420D01*
X164715042Y-100374103D01*
X164575970Y-100157979D01*
X164363770Y-100012989D01*
X164111880Y-99961980D01*
X162011880Y-99961980D01*
X161776563Y-100006258D01*
X161560439Y-100145330D01*
X161538496Y-100177445D01*
X161525970Y-100157979D01*
X161313770Y-100012989D01*
X161061880Y-99961980D01*
X158961880Y-99961980D01*
X158726563Y-100006258D01*
X158510439Y-100145330D01*
X158372357Y-100347420D01*
X153976522Y-100347420D01*
X153824166Y-100194798D01*
X153427548Y-100030107D01*
X152998096Y-100029733D01*
X152601191Y-100193731D01*
X152508510Y-100286250D01*
X152425970Y-100157979D01*
X152213770Y-100012989D01*
X151961880Y-99961980D01*
X149861880Y-99961980D01*
X149626563Y-100006258D01*
X149410439Y-100145330D01*
X149265449Y-100357530D01*
X149214440Y-100609420D01*
X149214440Y-102009420D01*
X149258718Y-102244737D01*
X149397790Y-102460861D01*
X149609990Y-102605851D01*
X149861880Y-102656860D01*
X151961880Y-102656860D01*
X152197197Y-102612582D01*
X152413321Y-102473510D01*
X152558311Y-102261310D01*
X152596765Y-102071420D01*
X152713692Y-102071420D01*
X152996212Y-102188733D01*
X153425664Y-102189107D01*
X153822569Y-102025109D01*
X153976526Y-101871420D01*
X158314440Y-101871420D01*
X158314440Y-102009420D01*
X158358718Y-102244737D01*
X158497790Y-102460861D01*
X158709990Y-102605851D01*
X158961880Y-102656860D01*
X161061880Y-102656860D01*
X161297197Y-102612582D01*
X161513321Y-102473510D01*
X161535264Y-102441395D01*
X161547790Y-102460861D01*
X161759990Y-102605851D01*
X162011880Y-102656860D01*
X164111880Y-102656860D01*
X164347197Y-102612582D01*
X164563321Y-102473510D01*
X164708311Y-102261310D01*
X164746765Y-102071420D01*
X170476106Y-102071420D01*
X170508718Y-102244737D01*
X170647790Y-102460861D01*
X170859990Y-102605851D01*
X171111880Y-102656860D01*
X173211880Y-102656860D01*
X173447197Y-102612582D01*
X173663321Y-102473510D01*
X173784880Y-102295602D01*
X173784880Y-106455809D01*
X173602833Y-107371023D01*
X173109439Y-108109439D01*
X172371023Y-108602833D01*
X171430069Y-108790000D01*
X112569931Y-108790000D01*
X111628977Y-108602833D01*
X110890561Y-108109439D01*
X110397167Y-107371023D01*
X110377747Y-107273390D01*
X111577515Y-107273390D01*
X111737298Y-107592159D01*
X112528067Y-107902143D01*
X113377267Y-107885917D01*
X114086462Y-107592159D01*
X114246245Y-107273390D01*
X169577515Y-107273390D01*
X169737298Y-107592159D01*
X170528067Y-107902143D01*
X171377267Y-107885917D01*
X172086462Y-107592159D01*
X172246245Y-107273390D01*
X170911880Y-105939025D01*
X169577515Y-107273390D01*
X114246245Y-107273390D01*
X112911880Y-105939025D01*
X111577515Y-107273390D01*
X110377747Y-107273390D01*
X110210000Y-106430069D01*
X110210000Y-105375607D01*
X110769157Y-105375607D01*
X110785383Y-106224807D01*
X111079141Y-106934002D01*
X111397910Y-107093785D01*
X112732275Y-105759420D01*
X113091485Y-105759420D01*
X114425850Y-107093785D01*
X114744619Y-106934002D01*
X115054603Y-106143233D01*
X115038377Y-105294033D01*
X114744619Y-104584838D01*
X114425850Y-104425055D01*
X113091485Y-105759420D01*
X112732275Y-105759420D01*
X111397910Y-104425055D01*
X111079141Y-104584838D01*
X110769157Y-105375607D01*
X110210000Y-105375607D01*
X110210000Y-104245450D01*
X111577515Y-104245450D01*
X112911880Y-105579815D01*
X114246245Y-104245450D01*
X114086462Y-103926681D01*
X113295693Y-103616697D01*
X112446493Y-103632923D01*
X111737298Y-103926681D01*
X111577515Y-104245450D01*
X110210000Y-104245450D01*
X110210000Y-101801144D01*
X110949762Y-101801144D01*
X111097335Y-102109526D01*
X111851911Y-102402825D01*
X112661289Y-102385034D01*
X113326425Y-102109526D01*
X113473998Y-101801144D01*
X112211880Y-100539025D01*
X110949762Y-101801144D01*
X110210000Y-101801144D01*
X110210000Y-100866128D01*
X110461774Y-101473965D01*
X110770156Y-101621538D01*
X112032275Y-100359420D01*
X110770156Y-99097302D01*
X110461774Y-99244875D01*
X110210000Y-99892619D01*
X110210000Y-92473803D01*
X110876649Y-92473803D01*
X111079462Y-92964649D01*
X111454676Y-93340518D01*
X111945167Y-93544188D01*
X112476263Y-93544651D01*
X112967109Y-93341838D01*
X113187929Y-93121403D01*
X113152099Y-93207691D01*
X113151662Y-93708950D01*
X113343081Y-94172220D01*
X113629970Y-94459610D01*
X113344327Y-94744755D01*
X113152099Y-95207691D01*
X113151662Y-95708950D01*
X113188511Y-95798132D01*
X112969084Y-95578322D01*
X112478593Y-95374652D01*
X111947497Y-95374189D01*
X111456651Y-95577002D01*
X111080782Y-95952216D01*
X110877112Y-96442707D01*
X110876649Y-96973803D01*
X111079462Y-97464649D01*
X111454676Y-97840518D01*
X111945167Y-98044188D01*
X112476263Y-98044651D01*
X112967109Y-97841838D01*
X113187929Y-97621403D01*
X113152099Y-97707691D01*
X113151662Y-98208950D01*
X113315302Y-98604991D01*
X112571849Y-98316015D01*
X111762471Y-98333806D01*
X111097335Y-98609314D01*
X110949762Y-98917696D01*
X112211880Y-100179815D01*
X112226022Y-100165672D01*
X112405628Y-100345278D01*
X112391485Y-100359420D01*
X113653604Y-101621538D01*
X113961986Y-101473965D01*
X114255285Y-100719389D01*
X114237494Y-99910011D01*
X113961986Y-99244875D01*
X113653605Y-99097303D01*
X113716095Y-99034813D01*
X114160151Y-99219201D01*
X114661410Y-99219638D01*
X115124680Y-99028219D01*
X115479433Y-98674085D01*
X115671661Y-98211149D01*
X115672098Y-97709890D01*
X115480679Y-97246620D01*
X115126545Y-96891867D01*
X114686653Y-96709208D01*
X115124680Y-96528219D01*
X115479433Y-96174085D01*
X115671661Y-95711149D01*
X115671981Y-95344419D01*
X115945301Y-95344419D01*
X117326880Y-96725998D01*
X117326880Y-103329836D01*
X117381306Y-103603455D01*
X117536299Y-103835417D01*
X119235881Y-105535000D01*
X119449892Y-105677998D01*
X119467844Y-105689993D01*
X119741463Y-105744419D01*
X129065199Y-105744419D01*
X129066713Y-105748747D01*
X129093135Y-105793539D01*
X129093613Y-105795038D01*
X129094962Y-105796635D01*
X129107533Y-105817947D01*
X129116346Y-105841034D01*
X129116756Y-105843095D01*
X129117635Y-105844411D01*
X129136183Y-105893000D01*
X129171924Y-105949881D01*
X129207651Y-105987671D01*
X129208456Y-105989035D01*
X129210137Y-105990300D01*
X129227116Y-106008259D01*
X129240847Y-106028808D01*
X129241705Y-106030727D01*
X129242855Y-106031814D01*
X129271749Y-106075057D01*
X129319251Y-106122560D01*
X129362496Y-106151456D01*
X129363582Y-106152604D01*
X129365498Y-106153461D01*
X129386051Y-106167195D01*
X129404009Y-106184172D01*
X129405274Y-106185853D01*
X129406638Y-106186658D01*
X129444428Y-106222385D01*
X129501309Y-106258126D01*
X129549898Y-106276674D01*
X129551214Y-106277553D01*
X129553275Y-106277963D01*
X129576362Y-106286776D01*
X129597671Y-106299345D01*
X129599270Y-106300696D01*
X129600771Y-106301174D01*
X129645562Y-106327596D01*
X129708971Y-106349784D01*
X129760469Y-106357055D01*
X129761945Y-106357618D01*
X129764043Y-106357559D01*
X129788529Y-106361016D01*
X129812070Y-106368519D01*
X129813936Y-106369483D01*
X129815511Y-106369616D01*
X129865076Y-106385413D01*
X129931833Y-106392934D01*
X129983646Y-106388563D01*
X129985211Y-106388784D01*
X129987244Y-106388260D01*
X130011881Y-106386181D01*
X130036514Y-106388259D01*
X130038548Y-106388784D01*
X130040113Y-106388563D01*
X130091928Y-106392934D01*
X130158684Y-106385413D01*
X130208248Y-106369616D01*
X130209825Y-106369483D01*
X130211692Y-106368518D01*
X130235232Y-106361016D01*
X130259716Y-106357559D01*
X130261814Y-106357618D01*
X130263290Y-106357055D01*
X130314788Y-106349784D01*
X130378197Y-106327596D01*
X130422987Y-106301175D01*
X130424490Y-106300696D01*
X130426092Y-106299343D01*
X130447397Y-106286776D01*
X130470484Y-106277963D01*
X130472545Y-106277553D01*
X130473861Y-106276674D01*
X130522450Y-106258126D01*
X130579331Y-106222385D01*
X130617121Y-106186658D01*
X130618485Y-106185853D01*
X130619750Y-106184172D01*
X130637709Y-106167193D01*
X130658258Y-106153462D01*
X130660177Y-106152604D01*
X130661264Y-106151454D01*
X130704507Y-106122560D01*
X130752010Y-106075058D01*
X130780906Y-106031813D01*
X130782054Y-106030727D01*
X130782911Y-106028811D01*
X130796645Y-106008258D01*
X130813622Y-105990300D01*
X130815303Y-105989035D01*
X130816108Y-105987671D01*
X130851835Y-105949881D01*
X130887576Y-105893000D01*
X130906124Y-105844411D01*
X130907003Y-105843095D01*
X130907413Y-105841034D01*
X130916226Y-105817947D01*
X130928789Y-105796648D01*
X130930141Y-105795048D01*
X130930620Y-105793546D01*
X130957046Y-105748747D01*
X130958560Y-105744419D01*
X134129979Y-105744419D01*
X134176351Y-105856649D01*
X134453194Y-106133975D01*
X134815092Y-106284248D01*
X135206949Y-106284590D01*
X135423362Y-106195170D01*
X149126880Y-106195170D01*
X149126880Y-106735729D01*
X149223553Y-106969118D01*
X149402181Y-107147747D01*
X149635570Y-107244420D01*
X150526130Y-107244420D01*
X150684880Y-107085670D01*
X150684880Y-106036420D01*
X150938880Y-106036420D01*
X150938880Y-107085670D01*
X151097630Y-107244420D01*
X151988190Y-107244420D01*
X152221579Y-107147747D01*
X152400207Y-106969118D01*
X152496880Y-106735729D01*
X152496880Y-106195170D01*
X158226880Y-106195170D01*
X158226880Y-106735729D01*
X158323553Y-106969118D01*
X158502181Y-107147747D01*
X158735570Y-107244420D01*
X159626130Y-107244420D01*
X159784880Y-107085670D01*
X159784880Y-106036420D01*
X160038880Y-106036420D01*
X160038880Y-107085670D01*
X160197630Y-107244420D01*
X161088190Y-107244420D01*
X161321579Y-107147747D01*
X161500207Y-106969118D01*
X161596880Y-106735729D01*
X161596880Y-106195170D01*
X161438130Y-106036420D01*
X160038880Y-106036420D01*
X159784880Y-106036420D01*
X158385630Y-106036420D01*
X158226880Y-106195170D01*
X152496880Y-106195170D01*
X152338130Y-106036420D01*
X150938880Y-106036420D01*
X150684880Y-106036420D01*
X149285630Y-106036420D01*
X149126880Y-106195170D01*
X135423362Y-106195170D01*
X135569109Y-106134949D01*
X135846435Y-105858106D01*
X135996708Y-105496208D01*
X135997050Y-105104351D01*
X135988274Y-105083111D01*
X149126880Y-105083111D01*
X149126880Y-105623670D01*
X149285630Y-105782420D01*
X150684880Y-105782420D01*
X150684880Y-104733170D01*
X150938880Y-104733170D01*
X150938880Y-105782420D01*
X152338130Y-105782420D01*
X152496880Y-105623670D01*
X152496880Y-105083111D01*
X158226880Y-105083111D01*
X158226880Y-105623670D01*
X158385630Y-105782420D01*
X159784880Y-105782420D01*
X159784880Y-104733170D01*
X160038880Y-104733170D01*
X160038880Y-105782420D01*
X161438130Y-105782420D01*
X161596880Y-105623670D01*
X161596880Y-105375607D01*
X168769157Y-105375607D01*
X168785383Y-106224807D01*
X169079141Y-106934002D01*
X169397910Y-107093785D01*
X170732275Y-105759420D01*
X171091485Y-105759420D01*
X172425850Y-107093785D01*
X172744619Y-106934002D01*
X173054603Y-106143233D01*
X173038377Y-105294033D01*
X172744619Y-104584838D01*
X172425850Y-104425055D01*
X171091485Y-105759420D01*
X170732275Y-105759420D01*
X169397910Y-104425055D01*
X169079141Y-104584838D01*
X168769157Y-105375607D01*
X161596880Y-105375607D01*
X161596880Y-105083111D01*
X161500207Y-104849722D01*
X161321579Y-104671093D01*
X161088190Y-104574420D01*
X160197630Y-104574420D01*
X160038880Y-104733170D01*
X159784880Y-104733170D01*
X159626130Y-104574420D01*
X158735570Y-104574420D01*
X158502181Y-104671093D01*
X158323553Y-104849722D01*
X158226880Y-105083111D01*
X152496880Y-105083111D01*
X152400207Y-104849722D01*
X152221579Y-104671093D01*
X151988190Y-104574420D01*
X151097630Y-104574420D01*
X150938880Y-104733170D01*
X150684880Y-104733170D01*
X150526130Y-104574420D01*
X149635570Y-104574420D01*
X149402181Y-104671093D01*
X149223553Y-104849722D01*
X149126880Y-105083111D01*
X135988274Y-105083111D01*
X135895782Y-104859264D01*
X135996708Y-104616208D01*
X135997031Y-104245450D01*
X169577515Y-104245450D01*
X170911880Y-105579815D01*
X172246245Y-104245450D01*
X172086462Y-103926681D01*
X171295693Y-103616697D01*
X170446493Y-103632923D01*
X169737298Y-103926681D01*
X169577515Y-104245450D01*
X135997031Y-104245450D01*
X135997050Y-104224351D01*
X135847409Y-103862191D01*
X135570566Y-103584865D01*
X135208668Y-103434592D01*
X134816811Y-103434250D01*
X134454651Y-103583891D01*
X134177325Y-103860734D01*
X134130118Y-103974421D01*
X120178459Y-103974421D01*
X119096880Y-102892842D01*
X119096880Y-96995170D01*
X149226880Y-96995170D01*
X149226880Y-97535729D01*
X149323553Y-97769118D01*
X149502181Y-97947747D01*
X149735570Y-98044420D01*
X150626130Y-98044420D01*
X150784880Y-97885670D01*
X150784880Y-96836420D01*
X151038880Y-96836420D01*
X151038880Y-97885670D01*
X151197630Y-98044420D01*
X152088190Y-98044420D01*
X152321579Y-97947747D01*
X152500207Y-97769118D01*
X152596880Y-97535729D01*
X152596880Y-96995170D01*
X158326880Y-96995170D01*
X158326880Y-97535729D01*
X158423553Y-97769118D01*
X158602181Y-97947747D01*
X158835570Y-98044420D01*
X159726130Y-98044420D01*
X159884880Y-97885670D01*
X159884880Y-96836420D01*
X160138880Y-96836420D01*
X160138880Y-97885670D01*
X160297630Y-98044420D01*
X161188190Y-98044420D01*
X161421579Y-97947747D01*
X161586880Y-97782445D01*
X161752181Y-97947747D01*
X161985570Y-98044420D01*
X162876130Y-98044420D01*
X163034880Y-97885670D01*
X163034880Y-96836420D01*
X163288880Y-96836420D01*
X163288880Y-97885670D01*
X163447630Y-98044420D01*
X164338190Y-98044420D01*
X164571579Y-97947747D01*
X164750207Y-97769118D01*
X164846880Y-97535729D01*
X164846880Y-96995170D01*
X164688130Y-96836420D01*
X163288880Y-96836420D01*
X163034880Y-96836420D01*
X161635630Y-96836420D01*
X161586880Y-96885170D01*
X161538130Y-96836420D01*
X160138880Y-96836420D01*
X159884880Y-96836420D01*
X158485630Y-96836420D01*
X158326880Y-96995170D01*
X152596880Y-96995170D01*
X152438130Y-96836420D01*
X151038880Y-96836420D01*
X150784880Y-96836420D01*
X149385630Y-96836420D01*
X149226880Y-96995170D01*
X119096880Y-96995170D01*
X119096880Y-96289004D01*
X119042454Y-96015385D01*
X118954071Y-95883111D01*
X149226880Y-95883111D01*
X149226880Y-96423670D01*
X149385630Y-96582420D01*
X150784880Y-96582420D01*
X150784880Y-95533170D01*
X151038880Y-95533170D01*
X151038880Y-96582420D01*
X152438130Y-96582420D01*
X152596880Y-96423670D01*
X152596880Y-95883111D01*
X158326880Y-95883111D01*
X158326880Y-96423670D01*
X158485630Y-96582420D01*
X159884880Y-96582420D01*
X159884880Y-95533170D01*
X160138880Y-95533170D01*
X160138880Y-96582420D01*
X161538130Y-96582420D01*
X161586880Y-96533670D01*
X161635630Y-96582420D01*
X163034880Y-96582420D01*
X163034880Y-95533170D01*
X163288880Y-95533170D01*
X163288880Y-96582420D01*
X164688130Y-96582420D01*
X164846880Y-96423670D01*
X164846880Y-95883111D01*
X164750207Y-95649722D01*
X164571579Y-95471093D01*
X164338190Y-95374420D01*
X163447630Y-95374420D01*
X163288880Y-95533170D01*
X163034880Y-95533170D01*
X162876130Y-95374420D01*
X161985570Y-95374420D01*
X161752181Y-95471093D01*
X161586880Y-95636395D01*
X161421579Y-95471093D01*
X161188190Y-95374420D01*
X160297630Y-95374420D01*
X160138880Y-95533170D01*
X159884880Y-95533170D01*
X159726130Y-95374420D01*
X158835570Y-95374420D01*
X158602181Y-95471093D01*
X158423553Y-95649722D01*
X158326880Y-95883111D01*
X152596880Y-95883111D01*
X152500207Y-95649722D01*
X152321579Y-95471093D01*
X152088190Y-95374420D01*
X151197630Y-95374420D01*
X151038880Y-95533170D01*
X150784880Y-95533170D01*
X150626130Y-95374420D01*
X149735570Y-95374420D01*
X149502181Y-95471093D01*
X149323553Y-95649722D01*
X149226880Y-95883111D01*
X118954071Y-95883111D01*
X118887461Y-95783422D01*
X116887878Y-93783840D01*
X116655916Y-93628847D01*
X116382297Y-93574421D01*
X115671780Y-93574421D01*
X115672098Y-93209890D01*
X115480679Y-92746620D01*
X115139145Y-92404489D01*
X124976710Y-92404489D01*
X125126351Y-92766649D01*
X125403194Y-93043975D01*
X125765092Y-93194248D01*
X125869168Y-93194339D01*
X125924173Y-93249344D01*
X125816811Y-93249250D01*
X125454651Y-93398891D01*
X125177325Y-93675734D01*
X125027052Y-94037632D01*
X125026710Y-94429489D01*
X125176351Y-94791649D01*
X125453194Y-95068975D01*
X125815092Y-95219248D01*
X126206949Y-95219590D01*
X126569109Y-95069949D01*
X126692854Y-94946420D01*
X126930765Y-94946420D01*
X127003194Y-95018975D01*
X127365092Y-95169248D01*
X127529088Y-95169391D01*
X127803194Y-95443975D01*
X128165092Y-95594248D01*
X128556949Y-95594590D01*
X128919109Y-95444949D01*
X129196435Y-95168106D01*
X129346708Y-94806208D01*
X129347050Y-94414351D01*
X129197409Y-94052191D01*
X129122418Y-93977069D01*
X129065876Y-93692815D01*
X128900695Y-93445605D01*
X128250695Y-92795605D01*
X128207359Y-92766649D01*
X128003485Y-92630424D01*
X127711880Y-92572420D01*
X127402511Y-92572420D01*
X126946961Y-92116870D01*
X126947050Y-92014351D01*
X126797409Y-91652191D01*
X126520566Y-91374865D01*
X126158668Y-91224592D01*
X125766811Y-91224250D01*
X125404651Y-91373891D01*
X125127325Y-91650734D01*
X124977052Y-92012632D01*
X124976710Y-92404489D01*
X115139145Y-92404489D01*
X115126545Y-92391867D01*
X114678290Y-92205735D01*
X114737300Y-92202205D01*
X115060555Y-92068310D01*
X115113153Y-91840298D01*
X114411880Y-91139025D01*
X114397738Y-91153168D01*
X114218133Y-90973563D01*
X114232275Y-90959420D01*
X114591485Y-90959420D01*
X115292758Y-91660693D01*
X115520770Y-91608095D01*
X115684597Y-91134364D01*
X115654665Y-90634000D01*
X115520770Y-90310745D01*
X115292758Y-90258147D01*
X114591485Y-90959420D01*
X114232275Y-90959420D01*
X113531002Y-90258147D01*
X113382469Y-90292411D01*
X113473998Y-90101144D01*
X112211880Y-88839025D01*
X110949762Y-90101144D01*
X111097335Y-90409526D01*
X111851911Y-90702825D01*
X112661289Y-90685034D01*
X113259200Y-90437372D01*
X113139163Y-90784476D01*
X113168703Y-91278290D01*
X112969084Y-91078322D01*
X112478593Y-90874652D01*
X111947497Y-90874189D01*
X111456651Y-91077002D01*
X111080782Y-91452216D01*
X110877112Y-91942707D01*
X110876649Y-92473803D01*
X110210000Y-92473803D01*
X110210000Y-89166128D01*
X110461774Y-89773965D01*
X110770156Y-89921538D01*
X112032275Y-88659420D01*
X112391485Y-88659420D01*
X113653604Y-89921538D01*
X113758392Y-89871393D01*
X113710607Y-90078542D01*
X114411880Y-90779815D01*
X115113153Y-90078542D01*
X115060555Y-89850530D01*
X114586824Y-89686703D01*
X114086460Y-89716635D01*
X113964660Y-89767086D01*
X114255285Y-89019389D01*
X114237494Y-88210011D01*
X113961986Y-87544875D01*
X113653604Y-87397302D01*
X112391485Y-88659420D01*
X112032275Y-88659420D01*
X110770156Y-87397302D01*
X110461774Y-87544875D01*
X110210000Y-88192619D01*
X110210000Y-87217696D01*
X110949762Y-87217696D01*
X112211880Y-88479815D01*
X113473998Y-87217696D01*
X113326425Y-86909314D01*
X112571849Y-86616015D01*
X111762471Y-86633806D01*
X111097335Y-86909314D01*
X110949762Y-87217696D01*
X110210000Y-87217696D01*
X110210000Y-84773390D01*
X111577515Y-84773390D01*
X111737298Y-85092159D01*
X112528067Y-85402143D01*
X113377267Y-85385917D01*
X114086462Y-85092159D01*
X114246245Y-84773390D01*
X112911880Y-83439025D01*
X111577515Y-84773390D01*
X110210000Y-84773390D01*
X110210000Y-82875607D01*
X110769157Y-82875607D01*
X110785383Y-83724807D01*
X111079141Y-84434002D01*
X111397910Y-84593785D01*
X112732275Y-83259420D01*
X113091485Y-83259420D01*
X114425850Y-84593785D01*
X114744619Y-84434002D01*
X115054603Y-83643233D01*
X115038377Y-82794033D01*
X114744619Y-82084838D01*
X114425850Y-81925055D01*
X113091485Y-83259420D01*
X112732275Y-83259420D01*
X111397910Y-81925055D01*
X111079141Y-82084838D01*
X110769157Y-82875607D01*
X110210000Y-82875607D01*
X110210000Y-82569931D01*
X110373999Y-81745450D01*
X111577515Y-81745450D01*
X112911880Y-83079815D01*
X114246245Y-81745450D01*
X114086462Y-81426681D01*
X113295693Y-81116697D01*
X112446493Y-81132923D01*
X111737298Y-81426681D01*
X111577515Y-81745450D01*
X110373999Y-81745450D01*
X110397167Y-81628977D01*
X110890561Y-80890561D01*
X111628977Y-80397167D01*
X112569931Y-80210000D01*
X135981853Y-80210000D01*
X135677481Y-80514373D01*
X135677481Y-80514373D01*
G37*
X135677481Y-80514373D02*
X135536811Y-80514250D01*
X135174651Y-80663891D01*
X134897325Y-80940734D01*
X134747052Y-81302632D01*
X134746710Y-81694489D01*
X134780976Y-81777420D01*
X132251880Y-81777420D01*
X131960275Y-81835424D01*
X131901248Y-81874865D01*
X131713065Y-82000604D01*
X131659330Y-82054339D01*
X131556811Y-82054250D01*
X131194651Y-82203891D01*
X130917325Y-82480734D01*
X130767052Y-82842632D01*
X130766710Y-83234489D01*
X130903028Y-83564404D01*
X130726811Y-83564250D01*
X130364651Y-83713891D01*
X130290994Y-83787420D01*
X129937510Y-83787420D01*
X126700695Y-80550605D01*
X126453485Y-80385424D01*
X126161880Y-80327420D01*
X123991880Y-80327420D01*
X123700275Y-80385424D01*
X123453064Y-80550605D01*
X121079330Y-82924339D01*
X120976811Y-82924250D01*
X120614651Y-83073891D01*
X120337325Y-83350734D01*
X120187052Y-83712632D01*
X120186710Y-84104489D01*
X120336351Y-84466649D01*
X120613194Y-84743975D01*
X120975092Y-84894248D01*
X121366949Y-84894590D01*
X121729109Y-84744949D01*
X122006435Y-84468106D01*
X122046739Y-84371043D01*
X122046710Y-84404489D01*
X122196351Y-84766649D01*
X122269880Y-84840306D01*
X122269880Y-89304420D01*
X122327884Y-89596025D01*
X122446780Y-89773965D01*
X122493065Y-89843235D01*
X123348065Y-90698236D01*
X123595276Y-90863417D01*
X123886880Y-90921420D01*
X134471250Y-90921420D01*
X134776799Y-91226970D01*
X134776710Y-91329489D01*
X134926351Y-91691649D01*
X135203194Y-91968975D01*
X135565092Y-92119248D01*
X135956949Y-92119590D01*
X136071348Y-92072321D01*
X135046250Y-93097420D01*
X134236880Y-93097420D01*
X134214269Y-93101918D01*
X134208668Y-93099592D01*
X133816811Y-93099250D01*
X133454651Y-93248891D01*
X133177325Y-93525734D01*
X133027052Y-93887632D01*
X133026710Y-94279489D01*
X133176351Y-94641649D01*
X133453194Y-94918975D01*
X133815092Y-95069248D01*
X134206949Y-95069590D01*
X134569109Y-94919949D01*
X134846435Y-94643106D01*
X134855440Y-94621420D01*
X135361880Y-94621420D01*
X135653485Y-94563416D01*
X135900695Y-94398235D01*
X137316716Y-92982215D01*
X137478194Y-93143975D01*
X137840092Y-93294248D01*
X138231949Y-93294590D01*
X138594109Y-93144949D01*
X138767941Y-92971420D01*
X147991880Y-92971420D01*
X148283485Y-92913416D01*
X148530695Y-92748235D01*
X149314440Y-91964490D01*
X149314440Y-92809420D01*
X149358718Y-93044737D01*
X149497790Y-93260861D01*
X149709990Y-93405851D01*
X149961880Y-93456860D01*
X152061880Y-93456860D01*
X152297197Y-93412582D01*
X152513321Y-93273510D01*
X152658311Y-93061310D01*
X152696765Y-92871420D01*
X158426106Y-92871420D01*
X158458718Y-93044737D01*
X158597790Y-93260861D01*
X158809990Y-93405851D01*
X159061880Y-93456860D01*
X161161880Y-93456860D01*
X161397197Y-93412582D01*
X161613321Y-93273510D01*
X161758311Y-93061310D01*
X161809320Y-92809420D01*
X161809320Y-91409420D01*
X161765042Y-91174103D01*
X161625970Y-90957979D01*
X161413770Y-90812989D01*
X161161880Y-90761980D01*
X159061880Y-90761980D01*
X158826563Y-90806258D01*
X158610439Y-90945330D01*
X158465449Y-91157530D01*
X158426995Y-91347420D01*
X156273880Y-91347420D01*
X156273880Y-87624062D01*
X156426502Y-87471706D01*
X156591193Y-87075088D01*
X156591567Y-86645636D01*
X156498923Y-86421420D01*
X160227238Y-86421420D01*
X160379594Y-86574042D01*
X160776212Y-86738733D01*
X161205664Y-86739107D01*
X161602569Y-86575109D01*
X161756526Y-86421420D01*
X161896250Y-86421420D01*
X167349880Y-91875050D01*
X167349880Y-99843789D01*
X166646250Y-100547420D01*
X164747654Y-100547420D01*
X164715042Y-100374103D01*
X164575970Y-100157979D01*
X164363770Y-100012989D01*
X164111880Y-99961980D01*
X162011880Y-99961980D01*
X161776563Y-100006258D01*
X161560439Y-100145330D01*
X161538496Y-100177445D01*
X161525970Y-100157979D01*
X161313770Y-100012989D01*
X161061880Y-99961980D01*
X158961880Y-99961980D01*
X158726563Y-100006258D01*
X158510439Y-100145330D01*
X158372357Y-100347420D01*
X153976522Y-100347420D01*
X153824166Y-100194798D01*
X153427548Y-100030107D01*
X152998096Y-100029733D01*
X152601191Y-100193731D01*
X152508510Y-100286250D01*
X152425970Y-100157979D01*
X152213770Y-100012989D01*
X151961880Y-99961980D01*
X149861880Y-99961980D01*
X149626563Y-100006258D01*
X149410439Y-100145330D01*
X149265449Y-100357530D01*
X149214440Y-100609420D01*
X149214440Y-102009420D01*
X149258718Y-102244737D01*
X149397790Y-102460861D01*
X149609990Y-102605851D01*
X149861880Y-102656860D01*
X151961880Y-102656860D01*
X152197197Y-102612582D01*
X152413321Y-102473510D01*
X152558311Y-102261310D01*
X152596765Y-102071420D01*
X152713692Y-102071420D01*
X152996212Y-102188733D01*
X153425664Y-102189107D01*
X153822569Y-102025109D01*
X153976526Y-101871420D01*
X158314440Y-101871420D01*
X158314440Y-102009420D01*
X158358718Y-102244737D01*
X158497790Y-102460861D01*
X158709990Y-102605851D01*
X158961880Y-102656860D01*
X161061880Y-102656860D01*
X161297197Y-102612582D01*
X161513321Y-102473510D01*
X161535264Y-102441395D01*
X161547790Y-102460861D01*
X161759990Y-102605851D01*
X162011880Y-102656860D01*
X164111880Y-102656860D01*
X164347197Y-102612582D01*
X164563321Y-102473510D01*
X164708311Y-102261310D01*
X164746765Y-102071420D01*
X170476106Y-102071420D01*
X170508718Y-102244737D01*
X170647790Y-102460861D01*
X170859990Y-102605851D01*
X171111880Y-102656860D01*
X173211880Y-102656860D01*
X173447197Y-102612582D01*
X173663321Y-102473510D01*
X173784880Y-102295602D01*
X173784880Y-106455809D01*
X173602833Y-107371023D01*
X173109439Y-108109439D01*
X172371023Y-108602833D01*
X171430069Y-108790000D01*
X112569931Y-108790000D01*
X111628977Y-108602833D01*
X110890561Y-108109439D01*
X110397167Y-107371023D01*
X110377747Y-107273390D01*
X111577515Y-107273390D01*
X111737298Y-107592159D01*
X112528067Y-107902143D01*
X113377267Y-107885917D01*
X114086462Y-107592159D01*
X114246245Y-107273390D01*
X169577515Y-107273390D01*
X169737298Y-107592159D01*
X170528067Y-107902143D01*
X171377267Y-107885917D01*
X172086462Y-107592159D01*
X172246245Y-107273390D01*
X170911880Y-105939025D01*
X169577515Y-107273390D01*
X114246245Y-107273390D01*
X112911880Y-105939025D01*
X111577515Y-107273390D01*
X110377747Y-107273390D01*
X110210000Y-106430069D01*
X110210000Y-105375607D01*
X110769157Y-105375607D01*
X110785383Y-106224807D01*
X111079141Y-106934002D01*
X111397910Y-107093785D01*
X112732275Y-105759420D01*
X113091485Y-105759420D01*
X114425850Y-107093785D01*
X114744619Y-106934002D01*
X115054603Y-106143233D01*
X115038377Y-105294033D01*
X114744619Y-104584838D01*
X114425850Y-104425055D01*
X113091485Y-105759420D01*
X112732275Y-105759420D01*
X111397910Y-104425055D01*
X111079141Y-104584838D01*
X110769157Y-105375607D01*
X110210000Y-105375607D01*
X110210000Y-104245450D01*
X111577515Y-104245450D01*
X112911880Y-105579815D01*
X114246245Y-104245450D01*
X114086462Y-103926681D01*
X113295693Y-103616697D01*
X112446493Y-103632923D01*
X111737298Y-103926681D01*
X111577515Y-104245450D01*
X110210000Y-104245450D01*
X110210000Y-101801144D01*
X110949762Y-101801144D01*
X111097335Y-102109526D01*
X111851911Y-102402825D01*
X112661289Y-102385034D01*
X113326425Y-102109526D01*
X113473998Y-101801144D01*
X112211880Y-100539025D01*
X110949762Y-101801144D01*
X110210000Y-101801144D01*
X110210000Y-100866128D01*
X110461774Y-101473965D01*
X110770156Y-101621538D01*
X112032275Y-100359420D01*
X110770156Y-99097302D01*
X110461774Y-99244875D01*
X110210000Y-99892619D01*
X110210000Y-92473803D01*
X110876649Y-92473803D01*
X111079462Y-92964649D01*
X111454676Y-93340518D01*
X111945167Y-93544188D01*
X112476263Y-93544651D01*
X112967109Y-93341838D01*
X113187929Y-93121403D01*
X113152099Y-93207691D01*
X113151662Y-93708950D01*
X113343081Y-94172220D01*
X113629970Y-94459610D01*
X113344327Y-94744755D01*
X113152099Y-95207691D01*
X113151662Y-95708950D01*
X113188511Y-95798132D01*
X112969084Y-95578322D01*
X112478593Y-95374652D01*
X111947497Y-95374189D01*
X111456651Y-95577002D01*
X111080782Y-95952216D01*
X110877112Y-96442707D01*
X110876649Y-96973803D01*
X111079462Y-97464649D01*
X111454676Y-97840518D01*
X111945167Y-98044188D01*
X112476263Y-98044651D01*
X112967109Y-97841838D01*
X113187929Y-97621403D01*
X113152099Y-97707691D01*
X113151662Y-98208950D01*
X113315302Y-98604991D01*
X112571849Y-98316015D01*
X111762471Y-98333806D01*
X111097335Y-98609314D01*
X110949762Y-98917696D01*
X112211880Y-100179815D01*
X112226022Y-100165672D01*
X112405628Y-100345278D01*
X112391485Y-100359420D01*
X113653604Y-101621538D01*
X113961986Y-101473965D01*
X114255285Y-100719389D01*
X114237494Y-99910011D01*
X113961986Y-99244875D01*
X113653605Y-99097303D01*
X113716095Y-99034813D01*
X114160151Y-99219201D01*
X114661410Y-99219638D01*
X115124680Y-99028219D01*
X115479433Y-98674085D01*
X115671661Y-98211149D01*
X115672098Y-97709890D01*
X115480679Y-97246620D01*
X115126545Y-96891867D01*
X114686653Y-96709208D01*
X115124680Y-96528219D01*
X115479433Y-96174085D01*
X115671661Y-95711149D01*
X115671981Y-95344419D01*
X115945301Y-95344419D01*
X117326880Y-96725998D01*
X117326880Y-103329836D01*
X117381306Y-103603455D01*
X117536299Y-103835417D01*
X119235881Y-105535000D01*
X119449892Y-105677998D01*
X119467844Y-105689993D01*
X119741463Y-105744419D01*
X129065199Y-105744419D01*
X129066713Y-105748747D01*
X129093135Y-105793539D01*
X129093613Y-105795038D01*
X129094962Y-105796635D01*
X129107533Y-105817947D01*
X129116346Y-105841034D01*
X129116756Y-105843095D01*
X129117635Y-105844411D01*
X129136183Y-105893000D01*
X129171924Y-105949881D01*
X129207651Y-105987671D01*
X129208456Y-105989035D01*
X129210137Y-105990300D01*
X129227116Y-106008259D01*
X129240847Y-106028808D01*
X129241705Y-106030727D01*
X129242855Y-106031814D01*
X129271749Y-106075057D01*
X129319251Y-106122560D01*
X129362496Y-106151456D01*
X129363582Y-106152604D01*
X129365498Y-106153461D01*
X129386051Y-106167195D01*
X129404009Y-106184172D01*
X129405274Y-106185853D01*
X129406638Y-106186658D01*
X129444428Y-106222385D01*
X129501309Y-106258126D01*
X129549898Y-106276674D01*
X129551214Y-106277553D01*
X129553275Y-106277963D01*
X129576362Y-106286776D01*
X129597671Y-106299345D01*
X129599270Y-106300696D01*
X129600771Y-106301174D01*
X129645562Y-106327596D01*
X129708971Y-106349784D01*
X129760469Y-106357055D01*
X129761945Y-106357618D01*
X129764043Y-106357559D01*
X129788529Y-106361016D01*
X129812070Y-106368519D01*
X129813936Y-106369483D01*
X129815511Y-106369616D01*
X129865076Y-106385413D01*
X129931833Y-106392934D01*
X129983646Y-106388563D01*
X129985211Y-106388784D01*
X129987244Y-106388260D01*
X130011881Y-106386181D01*
X130036514Y-106388259D01*
X130038548Y-106388784D01*
X130040113Y-106388563D01*
X130091928Y-106392934D01*
X130158684Y-106385413D01*
X130208248Y-106369616D01*
X130209825Y-106369483D01*
X130211692Y-106368518D01*
X130235232Y-106361016D01*
X130259716Y-106357559D01*
X130261814Y-106357618D01*
X130263290Y-106357055D01*
X130314788Y-106349784D01*
X130378197Y-106327596D01*
X130422987Y-106301175D01*
X130424490Y-106300696D01*
X130426092Y-106299343D01*
X130447397Y-106286776D01*
X130470484Y-106277963D01*
X130472545Y-106277553D01*
X130473861Y-106276674D01*
X130522450Y-106258126D01*
X130579331Y-106222385D01*
X130617121Y-106186658D01*
X130618485Y-106185853D01*
X130619750Y-106184172D01*
X130637709Y-106167193D01*
X130658258Y-106153462D01*
X130660177Y-106152604D01*
X130661264Y-106151454D01*
X130704507Y-106122560D01*
X130752010Y-106075058D01*
X130780906Y-106031813D01*
X130782054Y-106030727D01*
X130782911Y-106028811D01*
X130796645Y-106008258D01*
X130813622Y-105990300D01*
X130815303Y-105989035D01*
X130816108Y-105987671D01*
X130851835Y-105949881D01*
X130887576Y-105893000D01*
X130906124Y-105844411D01*
X130907003Y-105843095D01*
X130907413Y-105841034D01*
X130916226Y-105817947D01*
X130928789Y-105796648D01*
X130930141Y-105795048D01*
X130930620Y-105793546D01*
X130957046Y-105748747D01*
X130958560Y-105744419D01*
X134129979Y-105744419D01*
X134176351Y-105856649D01*
X134453194Y-106133975D01*
X134815092Y-106284248D01*
X135206949Y-106284590D01*
X135423362Y-106195170D01*
X149126880Y-106195170D01*
X149126880Y-106735729D01*
X149223553Y-106969118D01*
X149402181Y-107147747D01*
X149635570Y-107244420D01*
X150526130Y-107244420D01*
X150684880Y-107085670D01*
X150684880Y-106036420D01*
X150938880Y-106036420D01*
X150938880Y-107085670D01*
X151097630Y-107244420D01*
X151988190Y-107244420D01*
X152221579Y-107147747D01*
X152400207Y-106969118D01*
X152496880Y-106735729D01*
X152496880Y-106195170D01*
X158226880Y-106195170D01*
X158226880Y-106735729D01*
X158323553Y-106969118D01*
X158502181Y-107147747D01*
X158735570Y-107244420D01*
X159626130Y-107244420D01*
X159784880Y-107085670D01*
X159784880Y-106036420D01*
X160038880Y-106036420D01*
X160038880Y-107085670D01*
X160197630Y-107244420D01*
X161088190Y-107244420D01*
X161321579Y-107147747D01*
X161500207Y-106969118D01*
X161596880Y-106735729D01*
X161596880Y-106195170D01*
X161438130Y-106036420D01*
X160038880Y-106036420D01*
X159784880Y-106036420D01*
X158385630Y-106036420D01*
X158226880Y-106195170D01*
X152496880Y-106195170D01*
X152338130Y-106036420D01*
X150938880Y-106036420D01*
X150684880Y-106036420D01*
X149285630Y-106036420D01*
X149126880Y-106195170D01*
X135423362Y-106195170D01*
X135569109Y-106134949D01*
X135846435Y-105858106D01*
X135996708Y-105496208D01*
X135997050Y-105104351D01*
X135988274Y-105083111D01*
X149126880Y-105083111D01*
X149126880Y-105623670D01*
X149285630Y-105782420D01*
X150684880Y-105782420D01*
X150684880Y-104733170D01*
X150938880Y-104733170D01*
X150938880Y-105782420D01*
X152338130Y-105782420D01*
X152496880Y-105623670D01*
X152496880Y-105083111D01*
X158226880Y-105083111D01*
X158226880Y-105623670D01*
X158385630Y-105782420D01*
X159784880Y-105782420D01*
X159784880Y-104733170D01*
X160038880Y-104733170D01*
X160038880Y-105782420D01*
X161438130Y-105782420D01*
X161596880Y-105623670D01*
X161596880Y-105375607D01*
X168769157Y-105375607D01*
X168785383Y-106224807D01*
X169079141Y-106934002D01*
X169397910Y-107093785D01*
X170732275Y-105759420D01*
X171091485Y-105759420D01*
X172425850Y-107093785D01*
X172744619Y-106934002D01*
X173054603Y-106143233D01*
X173038377Y-105294033D01*
X172744619Y-104584838D01*
X172425850Y-104425055D01*
X171091485Y-105759420D01*
X170732275Y-105759420D01*
X169397910Y-104425055D01*
X169079141Y-104584838D01*
X168769157Y-105375607D01*
X161596880Y-105375607D01*
X161596880Y-105083111D01*
X161500207Y-104849722D01*
X161321579Y-104671093D01*
X161088190Y-104574420D01*
X160197630Y-104574420D01*
X160038880Y-104733170D01*
X159784880Y-104733170D01*
X159626130Y-104574420D01*
X158735570Y-104574420D01*
X158502181Y-104671093D01*
X158323553Y-104849722D01*
X158226880Y-105083111D01*
X152496880Y-105083111D01*
X152400207Y-104849722D01*
X152221579Y-104671093D01*
X151988190Y-104574420D01*
X151097630Y-104574420D01*
X150938880Y-104733170D01*
X150684880Y-104733170D01*
X150526130Y-104574420D01*
X149635570Y-104574420D01*
X149402181Y-104671093D01*
X149223553Y-104849722D01*
X149126880Y-105083111D01*
X135988274Y-105083111D01*
X135895782Y-104859264D01*
X135996708Y-104616208D01*
X135997031Y-104245450D01*
X169577515Y-104245450D01*
X170911880Y-105579815D01*
X172246245Y-104245450D01*
X172086462Y-103926681D01*
X171295693Y-103616697D01*
X170446493Y-103632923D01*
X169737298Y-103926681D01*
X169577515Y-104245450D01*
X135997031Y-104245450D01*
X135997050Y-104224351D01*
X135847409Y-103862191D01*
X135570566Y-103584865D01*
X135208668Y-103434592D01*
X134816811Y-103434250D01*
X134454651Y-103583891D01*
X134177325Y-103860734D01*
X134130118Y-103974421D01*
X120178459Y-103974421D01*
X119096880Y-102892842D01*
X119096880Y-96995170D01*
X149226880Y-96995170D01*
X149226880Y-97535729D01*
X149323553Y-97769118D01*
X149502181Y-97947747D01*
X149735570Y-98044420D01*
X150626130Y-98044420D01*
X150784880Y-97885670D01*
X150784880Y-96836420D01*
X151038880Y-96836420D01*
X151038880Y-97885670D01*
X151197630Y-98044420D01*
X152088190Y-98044420D01*
X152321579Y-97947747D01*
X152500207Y-97769118D01*
X152596880Y-97535729D01*
X152596880Y-96995170D01*
X158326880Y-96995170D01*
X158326880Y-97535729D01*
X158423553Y-97769118D01*
X158602181Y-97947747D01*
X158835570Y-98044420D01*
X159726130Y-98044420D01*
X159884880Y-97885670D01*
X159884880Y-96836420D01*
X160138880Y-96836420D01*
X160138880Y-97885670D01*
X160297630Y-98044420D01*
X161188190Y-98044420D01*
X161421579Y-97947747D01*
X161586880Y-97782445D01*
X161752181Y-97947747D01*
X161985570Y-98044420D01*
X162876130Y-98044420D01*
X163034880Y-97885670D01*
X163034880Y-96836420D01*
X163288880Y-96836420D01*
X163288880Y-97885670D01*
X163447630Y-98044420D01*
X164338190Y-98044420D01*
X164571579Y-97947747D01*
X164750207Y-97769118D01*
X164846880Y-97535729D01*
X164846880Y-96995170D01*
X164688130Y-96836420D01*
X163288880Y-96836420D01*
X163034880Y-96836420D01*
X161635630Y-96836420D01*
X161586880Y-96885170D01*
X161538130Y-96836420D01*
X160138880Y-96836420D01*
X159884880Y-96836420D01*
X158485630Y-96836420D01*
X158326880Y-96995170D01*
X152596880Y-96995170D01*
X152438130Y-96836420D01*
X151038880Y-96836420D01*
X150784880Y-96836420D01*
X149385630Y-96836420D01*
X149226880Y-96995170D01*
X119096880Y-96995170D01*
X119096880Y-96289004D01*
X119042454Y-96015385D01*
X118954071Y-95883111D01*
X149226880Y-95883111D01*
X149226880Y-96423670D01*
X149385630Y-96582420D01*
X150784880Y-96582420D01*
X150784880Y-95533170D01*
X151038880Y-95533170D01*
X151038880Y-96582420D01*
X152438130Y-96582420D01*
X152596880Y-96423670D01*
X152596880Y-95883111D01*
X158326880Y-95883111D01*
X158326880Y-96423670D01*
X158485630Y-96582420D01*
X159884880Y-96582420D01*
X159884880Y-95533170D01*
X160138880Y-95533170D01*
X160138880Y-96582420D01*
X161538130Y-96582420D01*
X161586880Y-96533670D01*
X161635630Y-96582420D01*
X163034880Y-96582420D01*
X163034880Y-95533170D01*
X163288880Y-95533170D01*
X163288880Y-96582420D01*
X164688130Y-96582420D01*
X164846880Y-96423670D01*
X164846880Y-95883111D01*
X164750207Y-95649722D01*
X164571579Y-95471093D01*
X164338190Y-95374420D01*
X163447630Y-95374420D01*
X163288880Y-95533170D01*
X163034880Y-95533170D01*
X162876130Y-95374420D01*
X161985570Y-95374420D01*
X161752181Y-95471093D01*
X161586880Y-95636395D01*
X161421579Y-95471093D01*
X161188190Y-95374420D01*
X160297630Y-95374420D01*
X160138880Y-95533170D01*
X159884880Y-95533170D01*
X159726130Y-95374420D01*
X158835570Y-95374420D01*
X158602181Y-95471093D01*
X158423553Y-95649722D01*
X158326880Y-95883111D01*
X152596880Y-95883111D01*
X152500207Y-95649722D01*
X152321579Y-95471093D01*
X152088190Y-95374420D01*
X151197630Y-95374420D01*
X151038880Y-95533170D01*
X150784880Y-95533170D01*
X150626130Y-95374420D01*
X149735570Y-95374420D01*
X149502181Y-95471093D01*
X149323553Y-95649722D01*
X149226880Y-95883111D01*
X118954071Y-95883111D01*
X118887461Y-95783422D01*
X116887878Y-93783840D01*
X116655916Y-93628847D01*
X116382297Y-93574421D01*
X115671780Y-93574421D01*
X115672098Y-93209890D01*
X115480679Y-92746620D01*
X115139145Y-92404489D01*
X124976710Y-92404489D01*
X125126351Y-92766649D01*
X125403194Y-93043975D01*
X125765092Y-93194248D01*
X125869168Y-93194339D01*
X125924173Y-93249344D01*
X125816811Y-93249250D01*
X125454651Y-93398891D01*
X125177325Y-93675734D01*
X125027052Y-94037632D01*
X125026710Y-94429489D01*
X125176351Y-94791649D01*
X125453194Y-95068975D01*
X125815092Y-95219248D01*
X126206949Y-95219590D01*
X126569109Y-95069949D01*
X126692854Y-94946420D01*
X126930765Y-94946420D01*
X127003194Y-95018975D01*
X127365092Y-95169248D01*
X127529088Y-95169391D01*
X127803194Y-95443975D01*
X128165092Y-95594248D01*
X128556949Y-95594590D01*
X128919109Y-95444949D01*
X129196435Y-95168106D01*
X129346708Y-94806208D01*
X129347050Y-94414351D01*
X129197409Y-94052191D01*
X129122418Y-93977069D01*
X129065876Y-93692815D01*
X128900695Y-93445605D01*
X128250695Y-92795605D01*
X128207359Y-92766649D01*
X128003485Y-92630424D01*
X127711880Y-92572420D01*
X127402511Y-92572420D01*
X126946961Y-92116870D01*
X126947050Y-92014351D01*
X126797409Y-91652191D01*
X126520566Y-91374865D01*
X126158668Y-91224592D01*
X125766811Y-91224250D01*
X125404651Y-91373891D01*
X125127325Y-91650734D01*
X124977052Y-92012632D01*
X124976710Y-92404489D01*
X115139145Y-92404489D01*
X115126545Y-92391867D01*
X114678290Y-92205735D01*
X114737300Y-92202205D01*
X115060555Y-92068310D01*
X115113153Y-91840298D01*
X114411880Y-91139025D01*
X114397738Y-91153168D01*
X114218133Y-90973563D01*
X114232275Y-90959420D01*
X114591485Y-90959420D01*
X115292758Y-91660693D01*
X115520770Y-91608095D01*
X115684597Y-91134364D01*
X115654665Y-90634000D01*
X115520770Y-90310745D01*
X115292758Y-90258147D01*
X114591485Y-90959420D01*
X114232275Y-90959420D01*
X113531002Y-90258147D01*
X113382469Y-90292411D01*
X113473998Y-90101144D01*
X112211880Y-88839025D01*
X110949762Y-90101144D01*
X111097335Y-90409526D01*
X111851911Y-90702825D01*
X112661289Y-90685034D01*
X113259200Y-90437372D01*
X113139163Y-90784476D01*
X113168703Y-91278290D01*
X112969084Y-91078322D01*
X112478593Y-90874652D01*
X111947497Y-90874189D01*
X111456651Y-91077002D01*
X111080782Y-91452216D01*
X110877112Y-91942707D01*
X110876649Y-92473803D01*
X110210000Y-92473803D01*
X110210000Y-89166128D01*
X110461774Y-89773965D01*
X110770156Y-89921538D01*
X112032275Y-88659420D01*
X112391485Y-88659420D01*
X113653604Y-89921538D01*
X113758392Y-89871393D01*
X113710607Y-90078542D01*
X114411880Y-90779815D01*
X115113153Y-90078542D01*
X115060555Y-89850530D01*
X114586824Y-89686703D01*
X114086460Y-89716635D01*
X113964660Y-89767086D01*
X114255285Y-89019389D01*
X114237494Y-88210011D01*
X113961986Y-87544875D01*
X113653604Y-87397302D01*
X112391485Y-88659420D01*
X112032275Y-88659420D01*
X110770156Y-87397302D01*
X110461774Y-87544875D01*
X110210000Y-88192619D01*
X110210000Y-87217696D01*
X110949762Y-87217696D01*
X112211880Y-88479815D01*
X113473998Y-87217696D01*
X113326425Y-86909314D01*
X112571849Y-86616015D01*
X111762471Y-86633806D01*
X111097335Y-86909314D01*
X110949762Y-87217696D01*
X110210000Y-87217696D01*
X110210000Y-84773390D01*
X111577515Y-84773390D01*
X111737298Y-85092159D01*
X112528067Y-85402143D01*
X113377267Y-85385917D01*
X114086462Y-85092159D01*
X114246245Y-84773390D01*
X112911880Y-83439025D01*
X111577515Y-84773390D01*
X110210000Y-84773390D01*
X110210000Y-82875607D01*
X110769157Y-82875607D01*
X110785383Y-83724807D01*
X111079141Y-84434002D01*
X111397910Y-84593785D01*
X112732275Y-83259420D01*
X113091485Y-83259420D01*
X114425850Y-84593785D01*
X114744619Y-84434002D01*
X115054603Y-83643233D01*
X115038377Y-82794033D01*
X114744619Y-82084838D01*
X114425850Y-81925055D01*
X113091485Y-83259420D01*
X112732275Y-83259420D01*
X111397910Y-81925055D01*
X111079141Y-82084838D01*
X110769157Y-82875607D01*
X110210000Y-82875607D01*
X110210000Y-82569931D01*
X110373999Y-81745450D01*
X111577515Y-81745450D01*
X112911880Y-83079815D01*
X114246245Y-81745450D01*
X114086462Y-81426681D01*
X113295693Y-81116697D01*
X112446493Y-81132923D01*
X111737298Y-81426681D01*
X111577515Y-81745450D01*
X110373999Y-81745450D01*
X110397167Y-81628977D01*
X110890561Y-80890561D01*
X111628977Y-80397167D01*
X112569931Y-80210000D01*
X135981853Y-80210000D01*
X135677481Y-80514373D01*
G36*
X172371023Y-80397167D02*
X173109439Y-80890561D01*
X173602833Y-81628977D01*
X173784880Y-82544191D01*
X173784880Y-95584395D01*
X173671579Y-95471093D01*
X173438190Y-95374420D01*
X172547630Y-95374420D01*
X172388880Y-95533170D01*
X172388880Y-96582420D01*
X172408880Y-96582420D01*
X172408880Y-96836420D01*
X172388880Y-96836420D01*
X172388880Y-97885670D01*
X172547630Y-98044420D01*
X173438190Y-98044420D01*
X173671579Y-97947747D01*
X173784880Y-97834445D01*
X173784880Y-100327230D01*
X173675970Y-100157979D01*
X173463770Y-100012989D01*
X173211880Y-99961980D01*
X171111880Y-99961980D01*
X170876563Y-100006258D01*
X170660439Y-100145330D01*
X170515449Y-100357530D01*
X170476995Y-100547420D01*
X168751467Y-100547420D01*
X168815877Y-100451024D01*
X168873880Y-100159420D01*
X168873880Y-96995170D01*
X170576880Y-96995170D01*
X170576880Y-97535729D01*
X170673553Y-97769118D01*
X170852181Y-97947747D01*
X171085570Y-98044420D01*
X171976130Y-98044420D01*
X172134880Y-97885670D01*
X172134880Y-96836420D01*
X170735630Y-96836420D01*
X170576880Y-96995170D01*
X168873880Y-96995170D01*
X168873880Y-95883111D01*
X170576880Y-95883111D01*
X170576880Y-96423670D01*
X170735630Y-96582420D01*
X172134880Y-96582420D01*
X172134880Y-95533170D01*
X171976130Y-95374420D01*
X171085570Y-95374420D01*
X170852181Y-95471093D01*
X170673553Y-95649722D01*
X170576880Y-95883111D01*
X168873880Y-95883111D01*
X168873880Y-91559420D01*
X168815876Y-91267815D01*
X168650695Y-91020605D01*
X162750695Y-85120605D01*
X162615730Y-85030424D01*
X162503485Y-84955424D01*
X162211880Y-84897420D01*
X161756522Y-84897420D01*
X161632709Y-84773390D01*
X169577515Y-84773390D01*
X169737298Y-85092159D01*
X170528067Y-85402143D01*
X171377267Y-85385917D01*
X172086462Y-85092159D01*
X172246245Y-84773390D01*
X170911880Y-83439025D01*
X169577515Y-84773390D01*
X161632709Y-84773390D01*
X161604166Y-84744798D01*
X161207548Y-84580107D01*
X160778096Y-84579733D01*
X160381191Y-84743731D01*
X160227234Y-84897420D01*
X155297511Y-84897420D01*
X154516961Y-84116870D01*
X154517050Y-84014351D01*
X154367409Y-83652191D01*
X154090566Y-83374865D01*
X153728668Y-83224592D01*
X153336811Y-83224250D01*
X153196773Y-83282112D01*
X153197050Y-82964351D01*
X153160382Y-82875607D01*
X168769157Y-82875607D01*
X168785383Y-83724807D01*
X169079141Y-84434002D01*
X169397910Y-84593785D01*
X170732275Y-83259420D01*
X171091485Y-83259420D01*
X172425850Y-84593785D01*
X172744619Y-84434002D01*
X173054603Y-83643233D01*
X173038377Y-82794033D01*
X172744619Y-82084838D01*
X172425850Y-81925055D01*
X171091485Y-83259420D01*
X170732275Y-83259420D01*
X169397910Y-81925055D01*
X169079141Y-82084838D01*
X168769157Y-82875607D01*
X153160382Y-82875607D01*
X153047409Y-82602191D01*
X152770566Y-82324865D01*
X152408668Y-82174592D01*
X152016811Y-82174250D01*
X151654651Y-82323891D01*
X151377325Y-82600734D01*
X151227052Y-82962632D01*
X151226710Y-83354489D01*
X151376351Y-83716649D01*
X151449880Y-83790306D01*
X151449880Y-87673789D01*
X150251564Y-88872106D01*
X150365876Y-88701025D01*
X150374152Y-88659420D01*
X150423880Y-88409420D01*
X150423880Y-83415578D01*
X150471435Y-83368106D01*
X150621708Y-83006208D01*
X150622050Y-82614351D01*
X150472409Y-82252191D01*
X150331883Y-82111420D01*
X152652871Y-82111420D01*
X152696351Y-82216649D01*
X152973194Y-82493975D01*
X153335092Y-82644248D01*
X153726949Y-82644590D01*
X154089109Y-82494949D01*
X154366435Y-82218106D01*
X154516708Y-81856208D01*
X154516804Y-81745450D01*
X169577515Y-81745450D01*
X170911880Y-83079815D01*
X172246245Y-81745450D01*
X172086462Y-81426681D01*
X171295693Y-81116697D01*
X170446493Y-81132923D01*
X169737298Y-81426681D01*
X169577515Y-81745450D01*
X154516804Y-81745450D01*
X154517050Y-81464351D01*
X154367409Y-81102191D01*
X154090566Y-80824865D01*
X153728668Y-80674592D01*
X153556914Y-80674442D01*
X153513485Y-80645424D01*
X153221880Y-80587420D01*
X149491880Y-80587420D01*
X149200275Y-80645424D01*
X148953064Y-80810605D01*
X147903065Y-81860605D01*
X147737884Y-82107815D01*
X147679880Y-82399420D01*
X147679880Y-83568305D01*
X147607325Y-83640734D01*
X147457052Y-84002632D01*
X147456944Y-84126854D01*
X144460695Y-81130605D01*
X144439880Y-81116697D01*
X144213485Y-80965424D01*
X143921880Y-80907420D01*
X141442995Y-80907420D01*
X141370566Y-80834865D01*
X141008668Y-80684592D01*
X140866374Y-80684468D01*
X140391906Y-80210000D01*
X171430069Y-80210000D01*
X172371023Y-80397167D01*
X172371023Y-80397167D01*
G37*
X172371023Y-80397167D02*
X173109439Y-80890561D01*
X173602833Y-81628977D01*
X173784880Y-82544191D01*
X173784880Y-95584395D01*
X173671579Y-95471093D01*
X173438190Y-95374420D01*
X172547630Y-95374420D01*
X172388880Y-95533170D01*
X172388880Y-96582420D01*
X172408880Y-96582420D01*
X172408880Y-96836420D01*
X172388880Y-96836420D01*
X172388880Y-97885670D01*
X172547630Y-98044420D01*
X173438190Y-98044420D01*
X173671579Y-97947747D01*
X173784880Y-97834445D01*
X173784880Y-100327230D01*
X173675970Y-100157979D01*
X173463770Y-100012989D01*
X173211880Y-99961980D01*
X171111880Y-99961980D01*
X170876563Y-100006258D01*
X170660439Y-100145330D01*
X170515449Y-100357530D01*
X170476995Y-100547420D01*
X168751467Y-100547420D01*
X168815877Y-100451024D01*
X168873880Y-100159420D01*
X168873880Y-96995170D01*
X170576880Y-96995170D01*
X170576880Y-97535729D01*
X170673553Y-97769118D01*
X170852181Y-97947747D01*
X171085570Y-98044420D01*
X171976130Y-98044420D01*
X172134880Y-97885670D01*
X172134880Y-96836420D01*
X170735630Y-96836420D01*
X170576880Y-96995170D01*
X168873880Y-96995170D01*
X168873880Y-95883111D01*
X170576880Y-95883111D01*
X170576880Y-96423670D01*
X170735630Y-96582420D01*
X172134880Y-96582420D01*
X172134880Y-95533170D01*
X171976130Y-95374420D01*
X171085570Y-95374420D01*
X170852181Y-95471093D01*
X170673553Y-95649722D01*
X170576880Y-95883111D01*
X168873880Y-95883111D01*
X168873880Y-91559420D01*
X168815876Y-91267815D01*
X168650695Y-91020605D01*
X162750695Y-85120605D01*
X162615730Y-85030424D01*
X162503485Y-84955424D01*
X162211880Y-84897420D01*
X161756522Y-84897420D01*
X161632709Y-84773390D01*
X169577515Y-84773390D01*
X169737298Y-85092159D01*
X170528067Y-85402143D01*
X171377267Y-85385917D01*
X172086462Y-85092159D01*
X172246245Y-84773390D01*
X170911880Y-83439025D01*
X169577515Y-84773390D01*
X161632709Y-84773390D01*
X161604166Y-84744798D01*
X161207548Y-84580107D01*
X160778096Y-84579733D01*
X160381191Y-84743731D01*
X160227234Y-84897420D01*
X155297511Y-84897420D01*
X154516961Y-84116870D01*
X154517050Y-84014351D01*
X154367409Y-83652191D01*
X154090566Y-83374865D01*
X153728668Y-83224592D01*
X153336811Y-83224250D01*
X153196773Y-83282112D01*
X153197050Y-82964351D01*
X153160382Y-82875607D01*
X168769157Y-82875607D01*
X168785383Y-83724807D01*
X169079141Y-84434002D01*
X169397910Y-84593785D01*
X170732275Y-83259420D01*
X171091485Y-83259420D01*
X172425850Y-84593785D01*
X172744619Y-84434002D01*
X173054603Y-83643233D01*
X173038377Y-82794033D01*
X172744619Y-82084838D01*
X172425850Y-81925055D01*
X171091485Y-83259420D01*
X170732275Y-83259420D01*
X169397910Y-81925055D01*
X169079141Y-82084838D01*
X168769157Y-82875607D01*
X153160382Y-82875607D01*
X153047409Y-82602191D01*
X152770566Y-82324865D01*
X152408668Y-82174592D01*
X152016811Y-82174250D01*
X151654651Y-82323891D01*
X151377325Y-82600734D01*
X151227052Y-82962632D01*
X151226710Y-83354489D01*
X151376351Y-83716649D01*
X151449880Y-83790306D01*
X151449880Y-87673789D01*
X150251564Y-88872106D01*
X150365876Y-88701025D01*
X150374152Y-88659420D01*
X150423880Y-88409420D01*
X150423880Y-83415578D01*
X150471435Y-83368106D01*
X150621708Y-83006208D01*
X150622050Y-82614351D01*
X150472409Y-82252191D01*
X150331883Y-82111420D01*
X152652871Y-82111420D01*
X152696351Y-82216649D01*
X152973194Y-82493975D01*
X153335092Y-82644248D01*
X153726949Y-82644590D01*
X154089109Y-82494949D01*
X154366435Y-82218106D01*
X154516708Y-81856208D01*
X154516804Y-81745450D01*
X169577515Y-81745450D01*
X170911880Y-83079815D01*
X172246245Y-81745450D01*
X172086462Y-81426681D01*
X171295693Y-81116697D01*
X170446493Y-81132923D01*
X169737298Y-81426681D01*
X169577515Y-81745450D01*
X154516804Y-81745450D01*
X154517050Y-81464351D01*
X154367409Y-81102191D01*
X154090566Y-80824865D01*
X153728668Y-80674592D01*
X153556914Y-80674442D01*
X153513485Y-80645424D01*
X153221880Y-80587420D01*
X149491880Y-80587420D01*
X149200275Y-80645424D01*
X148953064Y-80810605D01*
X147903065Y-81860605D01*
X147737884Y-82107815D01*
X147679880Y-82399420D01*
X147679880Y-83568305D01*
X147607325Y-83640734D01*
X147457052Y-84002632D01*
X147456944Y-84126854D01*
X144460695Y-81130605D01*
X144439880Y-81116697D01*
X144213485Y-80965424D01*
X143921880Y-80907420D01*
X141442995Y-80907420D01*
X141370566Y-80834865D01*
X141008668Y-80684592D01*
X140866374Y-80684468D01*
X140391906Y-80210000D01*
X171430069Y-80210000D01*
X172371023Y-80397167D01*
G36*
X153335092Y-85194248D02*
X153439169Y-85194339D01*
X154443065Y-86198236D01*
X154555310Y-86273235D01*
X154579663Y-86289507D01*
X154432567Y-86643752D01*
X154432193Y-87073204D01*
X154596191Y-87470109D01*
X154749880Y-87624066D01*
X154749880Y-91347420D01*
X152697654Y-91347420D01*
X152665042Y-91174103D01*
X152525970Y-90957979D01*
X152313770Y-90812989D01*
X152061880Y-90761980D01*
X150516950Y-90761980D01*
X152750695Y-88528236D01*
X152915876Y-88281025D01*
X152920580Y-88257374D01*
X152973880Y-87989420D01*
X152973880Y-85044260D01*
X153335092Y-85194248D01*
X153335092Y-85194248D01*
G37*
X153335092Y-85194248D02*
X153439169Y-85194339D01*
X154443065Y-86198236D01*
X154555310Y-86273235D01*
X154579663Y-86289507D01*
X154432567Y-86643752D01*
X154432193Y-87073204D01*
X154596191Y-87470109D01*
X154749880Y-87624066D01*
X154749880Y-91347420D01*
X152697654Y-91347420D01*
X152665042Y-91174103D01*
X152525970Y-90957979D01*
X152313770Y-90812989D01*
X152061880Y-90761980D01*
X150516950Y-90761980D01*
X152750695Y-88528236D01*
X152915876Y-88281025D01*
X152920580Y-88257374D01*
X152973880Y-87989420D01*
X152973880Y-85044260D01*
X153335092Y-85194248D01*
M02*
