G04 #@! TF.FileFunction,Legend,Top*
%FSLAX46Y46*%
G04 Gerber Fmt 4.6, Leading zero omitted, Abs format (unit mm)*
G04 Created by KiCad (PCBNEW 4.0.7) date 04/07/18 15:07:49*
%MOMM*%
%LPD*%
G01*
G04 APERTURE LIST*
%ADD10C,0.100000*%
%ADD11C,0.250000*%
%ADD12C,0.200000*%
%ADD13C,0.150000*%
%ADD14C,0.010000*%
G04 APERTURE END LIST*
D10*
D11*
X145288071Y-107511801D02*
X145621404Y-108511801D01*
X145954738Y-107511801D01*
X146811881Y-108511801D02*
X146240452Y-108511801D01*
X146526166Y-108511801D02*
X146526166Y-107511801D01*
X146430928Y-107654658D01*
X146335690Y-107749896D01*
X146240452Y-107797515D01*
X147240452Y-108416563D02*
X147288071Y-108464182D01*
X147240452Y-108511801D01*
X147192833Y-108464182D01*
X147240452Y-108416563D01*
X147240452Y-108511801D01*
X147907118Y-107511801D02*
X148002357Y-107511801D01*
X148097595Y-107559420D01*
X148145214Y-107607039D01*
X148192833Y-107702277D01*
X148240452Y-107892753D01*
X148240452Y-108130849D01*
X148192833Y-108321325D01*
X148145214Y-108416563D01*
X148097595Y-108464182D01*
X148002357Y-108511801D01*
X147907118Y-108511801D01*
X147811880Y-108464182D01*
X147764261Y-108416563D01*
X147716642Y-108321325D01*
X147669023Y-108130849D01*
X147669023Y-107892753D01*
X147716642Y-107702277D01*
X147764261Y-107607039D01*
X147811880Y-107559420D01*
X147907118Y-107511801D01*
D12*
X148661880Y-89009420D02*
X122411880Y-89009420D01*
X122311880Y-108459420D02*
X122311880Y-108959420D01*
X123111880Y-108959420D02*
X122311880Y-108959420D01*
X148811880Y-108959420D02*
X122811880Y-108959420D01*
X122311880Y-108859420D02*
X122311880Y-88859420D01*
X148811880Y-88859420D02*
X148811880Y-108859420D01*
D13*
X152511880Y-94409420D02*
X152511880Y-91409420D01*
X152511880Y-91409420D02*
X158511880Y-91409420D01*
X158511880Y-91409420D02*
X158511880Y-97409420D01*
X158511880Y-97409420D02*
X152511880Y-97409420D01*
X152511880Y-97409420D02*
X152511880Y-94409420D01*
X152411880Y-103609420D02*
X152411880Y-100609420D01*
X152411880Y-100609420D02*
X158411880Y-100609420D01*
X158411880Y-100609420D02*
X158411880Y-106609420D01*
X158411880Y-106609420D02*
X152411880Y-106609420D01*
X152411880Y-106609420D02*
X152411880Y-103609420D01*
X94411880Y-100359420D02*
X94411880Y-94459420D01*
X94411880Y-94459420D02*
X94411880Y-88659420D01*
X94411880Y-88659420D02*
X94711880Y-88659420D01*
X109511880Y-88659420D02*
X94611880Y-88659420D01*
X109511880Y-100359420D02*
X94411880Y-100359420D01*
X113711880Y-88659420D02*
X113611880Y-88659420D01*
X109511880Y-88659420D02*
X110811880Y-88659420D01*
X113811880Y-100359420D02*
X113611880Y-100359420D01*
X109511880Y-100359420D02*
X110811880Y-100359420D01*
X113811880Y-89759420D02*
X113811880Y-88659420D01*
X113811880Y-98359420D02*
X113811880Y-100359420D01*
X113811880Y-98359420D02*
X113811880Y-89759420D01*
X109511880Y-100359420D02*
X109511880Y-94459420D01*
X109511880Y-89259420D02*
X109511880Y-88659420D01*
X109511880Y-94459420D02*
X109511880Y-89259420D01*
X170661880Y-99009420D02*
X170661880Y-102009420D01*
X170661880Y-102009420D02*
X164661880Y-102009420D01*
X164661880Y-102009420D02*
X164661880Y-96009420D01*
X164661880Y-96009420D02*
X170661880Y-96009420D01*
X170661880Y-96009420D02*
X170661880Y-99009420D01*
D14*
G36*
X121231174Y-97497883D02*
X121232855Y-97305795D01*
X121328105Y-97305795D01*
X121328348Y-97381995D01*
X121328312Y-97415057D01*
X121328053Y-97456636D01*
X121327609Y-97502555D01*
X121327018Y-97548633D01*
X121326617Y-97574083D01*
X121324643Y-97689970D01*
X121229493Y-97689970D01*
X121231174Y-97497883D01*
X121231174Y-97497883D01*
G37*
X121231174Y-97497883D02*
X121232855Y-97305795D01*
X121328105Y-97305795D01*
X121328348Y-97381995D01*
X121328312Y-97415057D01*
X121328053Y-97456636D01*
X121327609Y-97502555D01*
X121327018Y-97548633D01*
X121326617Y-97574083D01*
X121324643Y-97689970D01*
X121229493Y-97689970D01*
X121231174Y-97497883D01*
G36*
X121331280Y-96826370D02*
X121331280Y-97207370D01*
X121236030Y-97207370D01*
X121236030Y-96826370D01*
X121331280Y-96826370D01*
X121331280Y-96826370D01*
G37*
X121331280Y-96826370D02*
X121331280Y-97207370D01*
X121236030Y-97207370D01*
X121236030Y-96826370D01*
X121331280Y-96826370D01*
G36*
X121331280Y-96343770D02*
X121331280Y-96724770D01*
X121236030Y-96724770D01*
X121236030Y-96343770D01*
X121331280Y-96343770D01*
X121331280Y-96343770D01*
G37*
X121331280Y-96343770D02*
X121331280Y-96724770D01*
X121236030Y-96724770D01*
X121236030Y-96343770D01*
X121331280Y-96343770D01*
G36*
X121331280Y-95861170D02*
X121331280Y-96248520D01*
X121236030Y-96248520D01*
X121236030Y-95861170D01*
X121331280Y-95861170D01*
X121331280Y-95861170D01*
G37*
X121331280Y-95861170D02*
X121331280Y-96248520D01*
X121236030Y-96248520D01*
X121236030Y-95861170D01*
X121331280Y-95861170D01*
G36*
X121323028Y-95378570D02*
X121327154Y-95436696D01*
X121328429Y-95461320D01*
X121329543Y-95495588D01*
X121330433Y-95536445D01*
X121331033Y-95580837D01*
X121331277Y-95625708D01*
X121331280Y-95630371D01*
X121331280Y-95765920D01*
X121237970Y-95765920D01*
X121233854Y-95694483D01*
X121232492Y-95663976D01*
X121231317Y-95624552D01*
X121230409Y-95579993D01*
X121229850Y-95534081D01*
X121229708Y-95500808D01*
X121229680Y-95378570D01*
X121323028Y-95378570D01*
X121323028Y-95378570D01*
G37*
X121323028Y-95378570D02*
X121327154Y-95436696D01*
X121328429Y-95461320D01*
X121329543Y-95495588D01*
X121330433Y-95536445D01*
X121331033Y-95580837D01*
X121331277Y-95625708D01*
X121331280Y-95630371D01*
X121331280Y-95765920D01*
X121237970Y-95765920D01*
X121233854Y-95694483D01*
X121232492Y-95663976D01*
X121231317Y-95624552D01*
X121230409Y-95579993D01*
X121229850Y-95534081D01*
X121229708Y-95500808D01*
X121229680Y-95378570D01*
X121323028Y-95378570D01*
G36*
X121225783Y-98076518D02*
X121226327Y-98034413D01*
X121227185Y-97987746D01*
X121227503Y-97973113D01*
X121231725Y-97785220D01*
X121324930Y-97785220D01*
X121323729Y-97942383D01*
X121323297Y-97988137D01*
X121322735Y-98031747D01*
X121322082Y-98070931D01*
X121321380Y-98103411D01*
X121320669Y-98126905D01*
X121320237Y-98136058D01*
X121317946Y-98172570D01*
X121274187Y-98172570D01*
X121251811Y-98171789D01*
X121234850Y-98169739D01*
X121226903Y-98166860D01*
X121226855Y-98166788D01*
X121226089Y-98159196D01*
X121225658Y-98140537D01*
X121225558Y-98112435D01*
X121225783Y-98076518D01*
X121225783Y-98076518D01*
G37*
X121225783Y-98076518D02*
X121226327Y-98034413D01*
X121227185Y-97987746D01*
X121227503Y-97973113D01*
X121231725Y-97785220D01*
X121324930Y-97785220D01*
X121323729Y-97942383D01*
X121323297Y-97988137D01*
X121322735Y-98031747D01*
X121322082Y-98070931D01*
X121321380Y-98103411D01*
X121320669Y-98126905D01*
X121320237Y-98136058D01*
X121317946Y-98172570D01*
X121274187Y-98172570D01*
X121251811Y-98171789D01*
X121234850Y-98169739D01*
X121226903Y-98166860D01*
X121226855Y-98166788D01*
X121226089Y-98159196D01*
X121225658Y-98140537D01*
X121225558Y-98112435D01*
X121225783Y-98076518D01*
G36*
X121324930Y-94895970D02*
X121324930Y-95283320D01*
X121229680Y-95283320D01*
X121229680Y-94895970D01*
X121324930Y-94895970D01*
X121324930Y-94895970D01*
G37*
X121324930Y-94895970D02*
X121324930Y-95283320D01*
X121229680Y-95283320D01*
X121229680Y-94895970D01*
X121324930Y-94895970D01*
G36*
X121324930Y-94419720D02*
X121324930Y-94800720D01*
X121229680Y-94800720D01*
X121229610Y-94634033D01*
X121229443Y-94587933D01*
X121229009Y-94544864D01*
X121228351Y-94506817D01*
X121227509Y-94475781D01*
X121226527Y-94453748D01*
X121225604Y-94443533D01*
X121221668Y-94419720D01*
X121324930Y-94419720D01*
X121324930Y-94419720D01*
G37*
X121324930Y-94419720D02*
X121324930Y-94800720D01*
X121229680Y-94800720D01*
X121229610Y-94634033D01*
X121229443Y-94587933D01*
X121229009Y-94544864D01*
X121228351Y-94506817D01*
X121227509Y-94475781D01*
X121226527Y-94453748D01*
X121225604Y-94443533D01*
X121221668Y-94419720D01*
X121324930Y-94419720D01*
G36*
X121318580Y-93937120D02*
X121318649Y-94103808D01*
X121318812Y-94149859D01*
X121319233Y-94192834D01*
X121319872Y-94230753D01*
X121320688Y-94261636D01*
X121321640Y-94283503D01*
X121322539Y-94293592D01*
X121326359Y-94316688D01*
X121281570Y-94321186D01*
X121258413Y-94322868D01*
X121240025Y-94323024D01*
X121230234Y-94321629D01*
X121230055Y-94321528D01*
X121227804Y-94313715D01*
X121226011Y-94293325D01*
X121224676Y-94260331D01*
X121223796Y-94214709D01*
X121223372Y-94156432D01*
X121223330Y-94127246D01*
X121223330Y-93937120D01*
X121318580Y-93937120D01*
X121318580Y-93937120D01*
G37*
X121318580Y-93937120D02*
X121318649Y-94103808D01*
X121318812Y-94149859D01*
X121319233Y-94192834D01*
X121319872Y-94230753D01*
X121320688Y-94261636D01*
X121321640Y-94283503D01*
X121322539Y-94293592D01*
X121326359Y-94316688D01*
X121281570Y-94321186D01*
X121258413Y-94322868D01*
X121240025Y-94323024D01*
X121230234Y-94321629D01*
X121230055Y-94321528D01*
X121227804Y-94313715D01*
X121226011Y-94293325D01*
X121224676Y-94260331D01*
X121223796Y-94214709D01*
X121223372Y-94156432D01*
X121223330Y-94127246D01*
X121223330Y-93937120D01*
X121318580Y-93937120D01*
G36*
X121261430Y-90520820D02*
X121261430Y-90542827D01*
X121262087Y-90555907D01*
X121266221Y-90562955D01*
X121277074Y-90566650D01*
X121293180Y-90569045D01*
X121324930Y-90573257D01*
X121323515Y-90662926D01*
X121322839Y-90704183D01*
X121322008Y-90752470D01*
X121321121Y-90802117D01*
X121320278Y-90847458D01*
X121320179Y-90852608D01*
X121318257Y-90952620D01*
X121222170Y-90952620D01*
X121224097Y-90785933D01*
X121226025Y-90619245D01*
X121053227Y-90617556D01*
X120880430Y-90615866D01*
X120880430Y-90520820D01*
X121261430Y-90520820D01*
X121261430Y-90520820D01*
G37*
X121261430Y-90520820D02*
X121261430Y-90542827D01*
X121262087Y-90555907D01*
X121266221Y-90562955D01*
X121277074Y-90566650D01*
X121293180Y-90569045D01*
X121324930Y-90573257D01*
X121323515Y-90662926D01*
X121322839Y-90704183D01*
X121322008Y-90752470D01*
X121321121Y-90802117D01*
X121320278Y-90847458D01*
X121320179Y-90852608D01*
X121318257Y-90952620D01*
X121222170Y-90952620D01*
X121224097Y-90785933D01*
X121226025Y-90619245D01*
X121053227Y-90617556D01*
X120880430Y-90615866D01*
X120880430Y-90520820D01*
X121261430Y-90520820D01*
G36*
X121217509Y-98593560D02*
X121218016Y-98558375D01*
X121218796Y-98516838D01*
X121219831Y-98470533D01*
X121220200Y-98455469D01*
X121224891Y-98267820D01*
X121318580Y-98267820D01*
X121317240Y-98396408D01*
X121316703Y-98440981D01*
X121316030Y-98486247D01*
X121315279Y-98528793D01*
X121314512Y-98565207D01*
X121313839Y-98590445D01*
X121311777Y-98655895D01*
X121265966Y-98651531D01*
X121243311Y-98649142D01*
X121226214Y-98646905D01*
X121218040Y-98645265D01*
X121217832Y-98645142D01*
X121217398Y-98638529D01*
X121217297Y-98620806D01*
X121217509Y-98593560D01*
X121217509Y-98593560D01*
G37*
X121217509Y-98593560D02*
X121218016Y-98558375D01*
X121218796Y-98516838D01*
X121219831Y-98470533D01*
X121220200Y-98455469D01*
X121224891Y-98267820D01*
X121318580Y-98267820D01*
X121317240Y-98396408D01*
X121316703Y-98440981D01*
X121316030Y-98486247D01*
X121315279Y-98528793D01*
X121314512Y-98565207D01*
X121313839Y-98590445D01*
X121311777Y-98655895D01*
X121265966Y-98651531D01*
X121243311Y-98649142D01*
X121226214Y-98646905D01*
X121218040Y-98645265D01*
X121217832Y-98645142D01*
X121217398Y-98638529D01*
X121217297Y-98620806D01*
X121217509Y-98593560D01*
G36*
X121318580Y-93454520D02*
X121318580Y-93841870D01*
X121223330Y-93841870D01*
X121223330Y-93454520D01*
X121318580Y-93454520D01*
X121318580Y-93454520D01*
G37*
X121318580Y-93454520D02*
X121318580Y-93841870D01*
X121223330Y-93841870D01*
X121223330Y-93454520D01*
X121318580Y-93454520D01*
G36*
X121218474Y-93167183D02*
X121220155Y-92975095D01*
X121310207Y-92971405D01*
X121314393Y-93086981D01*
X121315829Y-93131399D01*
X121317053Y-93178360D01*
X121317972Y-93223598D01*
X121318494Y-93262847D01*
X121318580Y-93280913D01*
X121318580Y-93359270D01*
X121216793Y-93359270D01*
X121218474Y-93167183D01*
X121218474Y-93167183D01*
G37*
X121218474Y-93167183D02*
X121220155Y-92975095D01*
X121310207Y-92971405D01*
X121314393Y-93086981D01*
X121315829Y-93131399D01*
X121317053Y-93178360D01*
X121317972Y-93223598D01*
X121318494Y-93262847D01*
X121318580Y-93280913D01*
X121318580Y-93359270D01*
X121216793Y-93359270D01*
X121218474Y-93167183D01*
G36*
X121220331Y-91382833D02*
X121220448Y-91361604D01*
X121220675Y-91330392D01*
X121220989Y-91291910D01*
X121221368Y-91248874D01*
X121221789Y-91203999D01*
X121221918Y-91190745D01*
X121223330Y-91047870D01*
X121318580Y-91047870D01*
X121318580Y-91435755D01*
X121269367Y-91433900D01*
X121220155Y-91432045D01*
X121220331Y-91382833D01*
X121220331Y-91382833D01*
G37*
X121220331Y-91382833D02*
X121220448Y-91361604D01*
X121220675Y-91330392D01*
X121220989Y-91291910D01*
X121221368Y-91248874D01*
X121221789Y-91203999D01*
X121221918Y-91190745D01*
X121223330Y-91047870D01*
X121318580Y-91047870D01*
X121318580Y-91435755D01*
X121269367Y-91433900D01*
X121220155Y-91432045D01*
X121220331Y-91382833D01*
G36*
X121209063Y-98986667D02*
X121210001Y-98921597D01*
X121211198Y-98868334D01*
X121212722Y-98825988D01*
X121214644Y-98793667D01*
X121217031Y-98770481D01*
X121219954Y-98755538D01*
X121223480Y-98747947D01*
X121227631Y-98746799D01*
X121238854Y-98748769D01*
X121258010Y-98750085D01*
X121274649Y-98750420D01*
X121312230Y-98750420D01*
X121311013Y-98793283D01*
X121310501Y-98812286D01*
X121309750Y-98841464D01*
X121308824Y-98878297D01*
X121307785Y-98920265D01*
X121306696Y-98964847D01*
X121306250Y-98983263D01*
X121305046Y-99025297D01*
X121303600Y-99063057D01*
X121302012Y-99094701D01*
X121300382Y-99118386D01*
X121298812Y-99132272D01*
X121297977Y-99135099D01*
X121289781Y-99136425D01*
X121272803Y-99135388D01*
X121250693Y-99132214D01*
X121250352Y-99132153D01*
X121207455Y-99124489D01*
X121209063Y-98986667D01*
X121209063Y-98986667D01*
G37*
X121209063Y-98986667D02*
X121210001Y-98921597D01*
X121211198Y-98868334D01*
X121212722Y-98825988D01*
X121214644Y-98793667D01*
X121217031Y-98770481D01*
X121219954Y-98755538D01*
X121223480Y-98747947D01*
X121227631Y-98746799D01*
X121238854Y-98748769D01*
X121258010Y-98750085D01*
X121274649Y-98750420D01*
X121312230Y-98750420D01*
X121311013Y-98793283D01*
X121310501Y-98812286D01*
X121309750Y-98841464D01*
X121308824Y-98878297D01*
X121307785Y-98920265D01*
X121306696Y-98964847D01*
X121306250Y-98983263D01*
X121305046Y-99025297D01*
X121303600Y-99063057D01*
X121302012Y-99094701D01*
X121300382Y-99118386D01*
X121298812Y-99132272D01*
X121297977Y-99135099D01*
X121289781Y-99136425D01*
X121272803Y-99135388D01*
X121250693Y-99132214D01*
X121250352Y-99132153D01*
X121207455Y-99124489D01*
X121209063Y-98986667D01*
G36*
X121312230Y-92495670D02*
X121312230Y-92876670D01*
X121216980Y-92876670D01*
X121216980Y-92495670D01*
X121312230Y-92495670D01*
X121312230Y-92495670D01*
G37*
X121312230Y-92495670D02*
X121312230Y-92876670D01*
X121216980Y-92876670D01*
X121216980Y-92495670D01*
X121312230Y-92495670D01*
G36*
X121312230Y-92013070D02*
X121312230Y-92394070D01*
X121216980Y-92394070D01*
X121216980Y-92013070D01*
X121312230Y-92013070D01*
X121312230Y-92013070D01*
G37*
X121312230Y-92013070D02*
X121312230Y-92394070D01*
X121216980Y-92394070D01*
X121216980Y-92013070D01*
X121312230Y-92013070D01*
G36*
X121312230Y-91530470D02*
X121312230Y-91917820D01*
X121216980Y-91917820D01*
X121216980Y-91530470D01*
X121312230Y-91530470D01*
X121312230Y-91530470D01*
G37*
X121312230Y-91530470D02*
X121312230Y-91917820D01*
X121216980Y-91917820D01*
X121216980Y-91530470D01*
X121312230Y-91530470D01*
G36*
X121086754Y-99513228D02*
X121107719Y-99458284D01*
X121128423Y-99400185D01*
X121147621Y-99342546D01*
X121164070Y-99288983D01*
X121176527Y-99243112D01*
X121177147Y-99240571D01*
X121181376Y-99226276D01*
X121184989Y-99219095D01*
X121185322Y-99218928D01*
X121192643Y-99219769D01*
X121208920Y-99222563D01*
X121230671Y-99226712D01*
X121231267Y-99226831D01*
X121254226Y-99231921D01*
X121267188Y-99236619D01*
X121272744Y-99242247D01*
X121273587Y-99248473D01*
X121271641Y-99259167D01*
X121266682Y-99279371D01*
X121259400Y-99306448D01*
X121250487Y-99337760D01*
X121247797Y-99346917D01*
X121237807Y-99378985D01*
X121225558Y-99415700D01*
X121211930Y-99454691D01*
X121197801Y-99493586D01*
X121184049Y-99530013D01*
X121171553Y-99561602D01*
X121161193Y-99585981D01*
X121153846Y-99600779D01*
X121153566Y-99601236D01*
X121148900Y-99605367D01*
X121140775Y-99605114D01*
X121126589Y-99599863D01*
X121105548Y-99589892D01*
X121083174Y-99577654D01*
X121069801Y-99567688D01*
X121066772Y-99561401D01*
X121086754Y-99513228D01*
X121086754Y-99513228D01*
G37*
X121086754Y-99513228D02*
X121107719Y-99458284D01*
X121128423Y-99400185D01*
X121147621Y-99342546D01*
X121164070Y-99288983D01*
X121176527Y-99243112D01*
X121177147Y-99240571D01*
X121181376Y-99226276D01*
X121184989Y-99219095D01*
X121185322Y-99218928D01*
X121192643Y-99219769D01*
X121208920Y-99222563D01*
X121230671Y-99226712D01*
X121231267Y-99226831D01*
X121254226Y-99231921D01*
X121267188Y-99236619D01*
X121272744Y-99242247D01*
X121273587Y-99248473D01*
X121271641Y-99259167D01*
X121266682Y-99279371D01*
X121259400Y-99306448D01*
X121250487Y-99337760D01*
X121247797Y-99346917D01*
X121237807Y-99378985D01*
X121225558Y-99415700D01*
X121211930Y-99454691D01*
X121197801Y-99493586D01*
X121184049Y-99530013D01*
X121171553Y-99561602D01*
X121161193Y-99585981D01*
X121153846Y-99600779D01*
X121153566Y-99601236D01*
X121148900Y-99605367D01*
X121140775Y-99605114D01*
X121126589Y-99599863D01*
X121105548Y-99589892D01*
X121083174Y-99577654D01*
X121069801Y-99567688D01*
X121066772Y-99561401D01*
X121086754Y-99513228D01*
G36*
X116257630Y-91187570D02*
X116257629Y-89860410D01*
X116257629Y-88533250D01*
X118164217Y-88534848D01*
X120070805Y-88536445D01*
X120072407Y-89862008D01*
X120074009Y-91187570D01*
X120728030Y-91187570D01*
X120728030Y-98109246D01*
X119804416Y-98108598D01*
X118880803Y-98107949D01*
X118915458Y-98062472D01*
X118961515Y-97992981D01*
X118996132Y-97920022D01*
X119019554Y-97842708D01*
X119032023Y-97760155D01*
X119033783Y-97671477D01*
X119031940Y-97639170D01*
X119021207Y-97562916D01*
X119001106Y-97486042D01*
X118972880Y-97412193D01*
X118937777Y-97345012D01*
X118924073Y-97323714D01*
X118901781Y-97294659D01*
X118872326Y-97261498D01*
X118838903Y-97227474D01*
X118804704Y-97195830D01*
X118772924Y-97169811D01*
X118771443Y-97168707D01*
X118729858Y-97141486D01*
X118679832Y-97114499D01*
X118625509Y-97089682D01*
X118571031Y-97068976D01*
X118534105Y-97057716D01*
X118488187Y-97048197D01*
X118433676Y-97041300D01*
X118374434Y-97037177D01*
X118314325Y-97035980D01*
X118257212Y-97037861D01*
X118206959Y-97042971D01*
X118197456Y-97044501D01*
X118104913Y-97066501D01*
X118019212Y-97098746D01*
X117940891Y-97140573D01*
X117870487Y-97191318D01*
X117808539Y-97250316D01*
X117755585Y-97316903D01*
X117712163Y-97390416D01*
X117678811Y-97470190D01*
X117656067Y-97555561D01*
X117644469Y-97645866D01*
X117643854Y-97727701D01*
X117649065Y-97792027D01*
X117658909Y-97848578D01*
X117674490Y-97901780D01*
X117696913Y-97956059D01*
X117705199Y-97973332D01*
X117727457Y-98014720D01*
X117750795Y-98049318D01*
X117779040Y-98082736D01*
X117782110Y-98086045D01*
X117827334Y-98134470D01*
X117673680Y-98134470D01*
X117673680Y-98426570D01*
X120728835Y-98426570D01*
X120726230Y-99031408D01*
X120725760Y-99135225D01*
X120725286Y-99227176D01*
X120724793Y-99308093D01*
X120724263Y-99378809D01*
X120723682Y-99440159D01*
X120723032Y-99492975D01*
X120722297Y-99538090D01*
X120721462Y-99576338D01*
X120720510Y-99608551D01*
X120719424Y-99635564D01*
X120718189Y-99658209D01*
X120716789Y-99677320D01*
X120715206Y-99693729D01*
X120713425Y-99708271D01*
X120712991Y-99711400D01*
X120696220Y-99811953D01*
X120674663Y-99912173D01*
X120649210Y-100008513D01*
X120620748Y-100097428D01*
X120607074Y-100134385D01*
X120598822Y-100156730D01*
X120593201Y-100174099D01*
X120591152Y-100183505D01*
X120591339Y-100184296D01*
X120596837Y-100181556D01*
X120608936Y-100171903D01*
X120625174Y-100157324D01*
X120627658Y-100154984D01*
X120650469Y-100129580D01*
X120676960Y-100093341D01*
X120706363Y-100047329D01*
X120711724Y-100038397D01*
X120729071Y-100009246D01*
X120743957Y-99984228D01*
X120755254Y-99965245D01*
X120761829Y-99954198D01*
X120763029Y-99952182D01*
X120768617Y-99954136D01*
X120782380Y-99960759D01*
X120801350Y-99970623D01*
X120801559Y-99970735D01*
X120820743Y-99980691D01*
X120830294Y-99984620D01*
X120831566Y-99982865D01*
X120827205Y-99977223D01*
X120821152Y-99969042D01*
X120819671Y-99961126D01*
X120823724Y-99950979D01*
X120834271Y-99936104D01*
X120850912Y-99915645D01*
X120866721Y-99896595D01*
X120804899Y-99864845D01*
X120826688Y-99814805D01*
X120845035Y-99769652D01*
X120864501Y-99716519D01*
X120883566Y-99659851D01*
X120900708Y-99604091D01*
X120909279Y-99573513D01*
X120916180Y-99548515D01*
X120922051Y-99528585D01*
X120926023Y-99516610D01*
X120927027Y-99514507D01*
X120933605Y-99514867D01*
X120948669Y-99517505D01*
X120968396Y-99521580D01*
X120988961Y-99526248D01*
X121006541Y-99530667D01*
X121017310Y-99533995D01*
X121018714Y-99534708D01*
X121017750Y-99540995D01*
X121013712Y-99557088D01*
X121007282Y-99580657D01*
X120999141Y-99609375D01*
X120989971Y-99640914D01*
X120980453Y-99672948D01*
X120971270Y-99703148D01*
X120963102Y-99729186D01*
X120956632Y-99748736D01*
X120953646Y-99756895D01*
X120947860Y-99771960D01*
X120946976Y-99776785D01*
X120950989Y-99772848D01*
X120953611Y-99769595D01*
X120961301Y-99758204D01*
X120972809Y-99739173D01*
X120985991Y-99716080D01*
X120989747Y-99709270D01*
X121001829Y-99687344D01*
X121011542Y-99670019D01*
X121017330Y-99660062D01*
X121018167Y-99658796D01*
X121024659Y-99659797D01*
X121038695Y-99665413D01*
X121056822Y-99673908D01*
X121075587Y-99683546D01*
X121091538Y-99692590D01*
X121101220Y-99699303D01*
X121102632Y-99701274D01*
X121099651Y-99708580D01*
X121091703Y-99724132D01*
X121080210Y-99745199D01*
X121073610Y-99756895D01*
X121041061Y-99811158D01*
X121003761Y-99868711D01*
X120964950Y-99924736D01*
X120927864Y-99974416D01*
X120924918Y-99978163D01*
X120885562Y-100027981D01*
X120867756Y-100010921D01*
X120849949Y-99993861D01*
X120826080Y-100036544D01*
X120814030Y-100059004D01*
X120807890Y-100073684D01*
X120806807Y-100083554D01*
X120809929Y-100091584D01*
X120810161Y-100091960D01*
X120812834Y-100098293D01*
X120811767Y-100105374D01*
X120805691Y-100115119D01*
X120793340Y-100129440D01*
X120773444Y-100150255D01*
X120767612Y-100156219D01*
X120741532Y-100184071D01*
X120713714Y-100215788D01*
X120688512Y-100246327D01*
X120678120Y-100259758D01*
X120661108Y-100282003D01*
X120646422Y-100300380D01*
X120636004Y-100312505D01*
X120632379Y-100315943D01*
X120623120Y-100315360D01*
X120613798Y-100309408D01*
X120607017Y-100304359D01*
X120600028Y-100303702D01*
X120589934Y-100308420D01*
X120573838Y-100319498D01*
X120564986Y-100325992D01*
X120546541Y-100339594D01*
X120532433Y-100349976D01*
X120525461Y-100355081D01*
X120525264Y-100355222D01*
X120527595Y-100360434D01*
X120536622Y-100371461D01*
X120542954Y-100378240D01*
X120563385Y-100399320D01*
X120494868Y-100465458D01*
X120466893Y-100491965D01*
X120438340Y-100518166D01*
X120412177Y-100541392D01*
X120391370Y-100558973D01*
X120387583Y-100561993D01*
X120368124Y-100578678D01*
X120343434Y-100601925D01*
X120316619Y-100628714D01*
X120290783Y-100656026D01*
X120289671Y-100657243D01*
X120228638Y-100721784D01*
X120170477Y-100777929D01*
X120112003Y-100828443D01*
X120050031Y-100876093D01*
X119988056Y-100919201D01*
X119883495Y-100983036D01*
X119775798Y-101036645D01*
X119663084Y-101080780D01*
X119543473Y-101116191D01*
X119435805Y-101139838D01*
X119426979Y-101141465D01*
X119418138Y-101142954D01*
X119408701Y-101144313D01*
X119398089Y-101145548D01*
X119385723Y-101146667D01*
X119371022Y-101147678D01*
X119353407Y-101148588D01*
X119332298Y-101149404D01*
X119307116Y-101150135D01*
X119277281Y-101150786D01*
X119242213Y-101151367D01*
X119201333Y-101151884D01*
X119154061Y-101152345D01*
X119099817Y-101152756D01*
X119038021Y-101153127D01*
X118968095Y-101153463D01*
X118889458Y-101153773D01*
X118801530Y-101154064D01*
X118703733Y-101154344D01*
X118595485Y-101154619D01*
X118476209Y-101154897D01*
X118345323Y-101155187D01*
X118219780Y-101155457D01*
X118059854Y-101155768D01*
X117912336Y-101155993D01*
X117776933Y-101156128D01*
X117653353Y-101156175D01*
X117541305Y-101156130D01*
X117440495Y-101155993D01*
X117350631Y-101155763D01*
X117271422Y-101155439D01*
X117229180Y-101155182D01*
X117229180Y-96807320D01*
X119007180Y-96807320D01*
X119007180Y-96477120D01*
X118499180Y-96477120D01*
X118499180Y-96265400D01*
X118542042Y-96259959D01*
X118581290Y-96253235D01*
X118624596Y-96242980D01*
X118667549Y-96230454D01*
X118705736Y-96216918D01*
X118729484Y-96206414D01*
X118799284Y-96164246D01*
X118860904Y-96112985D01*
X118913901Y-96053610D01*
X118957832Y-95987100D01*
X118992255Y-95914434D01*
X119016727Y-95836589D01*
X119030804Y-95754546D01*
X119034045Y-95669281D01*
X119026007Y-95581775D01*
X119022161Y-95559545D01*
X119002754Y-95488065D01*
X118972460Y-95417574D01*
X118932879Y-95351371D01*
X118900873Y-95309775D01*
X118845021Y-95253933D01*
X118780840Y-95206491D01*
X118710075Y-95168119D01*
X118634474Y-95139487D01*
X118555781Y-95121263D01*
X118475745Y-95114117D01*
X118400755Y-95118109D01*
X118323879Y-95132923D01*
X118254549Y-95157373D01*
X118191245Y-95192204D01*
X118132447Y-95238160D01*
X118118180Y-95251876D01*
X118118180Y-94962570D01*
X118175117Y-94962055D01*
X118222438Y-94960276D01*
X118263200Y-94956770D01*
X118300460Y-94951075D01*
X118337275Y-94942729D01*
X118376705Y-94931268D01*
X118419634Y-94916983D01*
X118516706Y-94876851D01*
X118607417Y-94826220D01*
X118691139Y-94765925D01*
X118767241Y-94696798D01*
X118835094Y-94619675D01*
X118894071Y-94535388D01*
X118943540Y-94444773D01*
X118982874Y-94348663D01*
X119011443Y-94247893D01*
X119028617Y-94143295D01*
X119031855Y-94105395D01*
X119033579Y-94074835D01*
X119034674Y-94047162D01*
X119035025Y-94025944D01*
X119034737Y-94016495D01*
X119033555Y-94001002D01*
X119031943Y-93977488D01*
X119030216Y-93950610D01*
X119029942Y-93946166D01*
X119017973Y-93851003D01*
X118994256Y-93756071D01*
X118959654Y-93663089D01*
X118915033Y-93573776D01*
X118861255Y-93489851D01*
X118799186Y-93413034D01*
X118729689Y-93345043D01*
X118726329Y-93342157D01*
X118639400Y-93275966D01*
X118547183Y-93221313D01*
X118449716Y-93178218D01*
X118413856Y-93165702D01*
X118354379Y-93147979D01*
X118298771Y-93135294D01*
X118242948Y-93127042D01*
X118182828Y-93122617D01*
X118115005Y-93121414D01*
X118019560Y-93125298D01*
X117931809Y-93136891D01*
X117848880Y-93156849D01*
X117767905Y-93185829D01*
X117703063Y-93215718D01*
X117642250Y-93248463D01*
X117589259Y-93282086D01*
X117539705Y-93319700D01*
X117489204Y-93364418D01*
X117476297Y-93376705D01*
X117402194Y-93456528D01*
X117339166Y-93542565D01*
X117287215Y-93634813D01*
X117246345Y-93733267D01*
X117216557Y-93837922D01*
X117212009Y-93859207D01*
X117206522Y-93896278D01*
X117202750Y-93942598D01*
X117200689Y-93994832D01*
X117200336Y-94049645D01*
X117201687Y-94103704D01*
X117204739Y-94153672D01*
X117209488Y-94196217D01*
X117212388Y-94213115D01*
X117240166Y-94322015D01*
X117278455Y-94424261D01*
X117326783Y-94519373D01*
X117384680Y-94606868D01*
X117451674Y-94686264D01*
X117527295Y-94757080D01*
X117611071Y-94818833D01*
X117702531Y-94871043D01*
X117801204Y-94913227D01*
X117906619Y-94944904D01*
X117934030Y-94951137D01*
X117957665Y-94955492D01*
X117983298Y-94958659D01*
X118013357Y-94960789D01*
X118050270Y-94962032D01*
X118096468Y-94962539D01*
X118118180Y-94962570D01*
X118118180Y-95251876D01*
X118108655Y-95261034D01*
X118085266Y-95285940D01*
X118064163Y-95311243D01*
X118044588Y-95338373D01*
X118025784Y-95368760D01*
X118006993Y-95403833D01*
X117987459Y-95445024D01*
X117966424Y-95493762D01*
X117943130Y-95551477D01*
X117916821Y-95619599D01*
X117911898Y-95632570D01*
X117893383Y-95680721D01*
X117877980Y-95718666D01*
X117864710Y-95748222D01*
X117852593Y-95771208D01*
X117840652Y-95789440D01*
X117827906Y-95804735D01*
X117813376Y-95818912D01*
X117809800Y-95822100D01*
X117771960Y-95847836D01*
X117731004Y-95862637D01*
X117688811Y-95867045D01*
X117647260Y-95861607D01*
X117608228Y-95846865D01*
X117573595Y-95823363D01*
X117545238Y-95791647D01*
X117525038Y-95752260D01*
X117520662Y-95738345D01*
X117516194Y-95708847D01*
X117516138Y-95674107D01*
X117520073Y-95639169D01*
X117527577Y-95609076D01*
X117532419Y-95597645D01*
X117558276Y-95561124D01*
X117593433Y-95531994D01*
X117636088Y-95511484D01*
X117672092Y-95502469D01*
X117699080Y-95498104D01*
X117699080Y-95155407D01*
X117662567Y-95159652D01*
X117579475Y-95174820D01*
X117502935Y-95200099D01*
X117433699Y-95235184D01*
X117379650Y-95273731D01*
X117329292Y-95323088D01*
X117284937Y-95381850D01*
X117248149Y-95447526D01*
X117220493Y-95517620D01*
X117215055Y-95536030D01*
X117206845Y-95576847D01*
X117201815Y-95625444D01*
X117199965Y-95677924D01*
X117201296Y-95730392D01*
X117205811Y-95778951D01*
X117213509Y-95819704D01*
X117214958Y-95824970D01*
X117243579Y-95902252D01*
X117282208Y-95972276D01*
X117330142Y-96034359D01*
X117386682Y-96087816D01*
X117451127Y-96131964D01*
X117522776Y-96166118D01*
X117584423Y-96185688D01*
X117635196Y-96194478D01*
X117692528Y-96197714D01*
X117751782Y-96195552D01*
X117808317Y-96188148D01*
X117854655Y-96176608D01*
X117923911Y-96147565D01*
X117987608Y-96107488D01*
X118027114Y-96074707D01*
X118058298Y-96043856D01*
X118086349Y-96010738D01*
X118112247Y-95973660D01*
X118136974Y-95930927D01*
X118161513Y-95880846D01*
X118186846Y-95821721D01*
X118213445Y-95753220D01*
X118238012Y-95689164D01*
X118259925Y-95636023D01*
X118280007Y-95592497D01*
X118299084Y-95557286D01*
X118317981Y-95529092D01*
X118337521Y-95506614D01*
X118358529Y-95488554D01*
X118381830Y-95473611D01*
X118395345Y-95466534D01*
X118442478Y-95449420D01*
X118492270Y-95442180D01*
X118541211Y-95445047D01*
X118576660Y-95454496D01*
X118621116Y-95477693D01*
X118657694Y-95510256D01*
X118685907Y-95551218D01*
X118705266Y-95599617D01*
X118715283Y-95654488D01*
X118715469Y-95714866D01*
X118714394Y-95726499D01*
X118703121Y-95778844D01*
X118681656Y-95823922D01*
X118650653Y-95861070D01*
X118610767Y-95889626D01*
X118562652Y-95908927D01*
X118526866Y-95916252D01*
X118499180Y-95920047D01*
X118499180Y-96265400D01*
X118499180Y-96477120D01*
X117229180Y-96477120D01*
X117229180Y-96807320D01*
X117229180Y-101155182D01*
X117202575Y-101155020D01*
X117143798Y-101154504D01*
X117094798Y-101153891D01*
X117055285Y-101153179D01*
X117024964Y-101152368D01*
X117003545Y-101151456D01*
X116994230Y-101150806D01*
X116864030Y-101132885D01*
X116736999Y-101102928D01*
X116613692Y-101061326D01*
X116594180Y-101052662D01*
X116594180Y-91187570D01*
X119737430Y-91187570D01*
X119737430Y-88907920D01*
X116594180Y-88907920D01*
X116594180Y-91187570D01*
X116594180Y-101052662D01*
X116494662Y-101008469D01*
X116380464Y-100944750D01*
X116271652Y-100870559D01*
X116168780Y-100786289D01*
X116072402Y-100692329D01*
X115983072Y-100589072D01*
X115901345Y-100476909D01*
X115827776Y-100356230D01*
X115802773Y-100309577D01*
X115753292Y-100206096D01*
X115711232Y-100100826D01*
X115675823Y-99991332D01*
X115646292Y-99875179D01*
X115621871Y-99749932D01*
X115617783Y-99725145D01*
X115617110Y-99720206D01*
X115616467Y-99713765D01*
X115615851Y-99705538D01*
X115615264Y-99695241D01*
X115614703Y-99682590D01*
X115614167Y-99667302D01*
X115613657Y-99649093D01*
X115613171Y-99627678D01*
X115612709Y-99602774D01*
X115612269Y-99574097D01*
X115611851Y-99541363D01*
X115611454Y-99504288D01*
X115611077Y-99462589D01*
X115610720Y-99415982D01*
X115610381Y-99364182D01*
X115610060Y-99306906D01*
X115609756Y-99243869D01*
X115609468Y-99174789D01*
X115609196Y-99099381D01*
X115608938Y-99017362D01*
X115608693Y-98928447D01*
X115608462Y-98832352D01*
X115608243Y-98728795D01*
X115608035Y-98617490D01*
X115607837Y-98498154D01*
X115607650Y-98370504D01*
X115607471Y-98234254D01*
X115607300Y-98089123D01*
X115607137Y-97934824D01*
X115606980Y-97771076D01*
X115606828Y-97597593D01*
X115606682Y-97414092D01*
X115606539Y-97220289D01*
X115606400Y-97015901D01*
X115606263Y-96800643D01*
X115606127Y-96574231D01*
X115605993Y-96336382D01*
X115605858Y-96086812D01*
X115605723Y-95825237D01*
X115605586Y-95551373D01*
X115605524Y-95424608D01*
X115603458Y-91187570D01*
X116257630Y-91187570D01*
X116257630Y-91187570D01*
G37*
X116257630Y-91187570D02*
X116257629Y-89860410D01*
X116257629Y-88533250D01*
X118164217Y-88534848D01*
X120070805Y-88536445D01*
X120072407Y-89862008D01*
X120074009Y-91187570D01*
X120728030Y-91187570D01*
X120728030Y-98109246D01*
X119804416Y-98108598D01*
X118880803Y-98107949D01*
X118915458Y-98062472D01*
X118961515Y-97992981D01*
X118996132Y-97920022D01*
X119019554Y-97842708D01*
X119032023Y-97760155D01*
X119033783Y-97671477D01*
X119031940Y-97639170D01*
X119021207Y-97562916D01*
X119001106Y-97486042D01*
X118972880Y-97412193D01*
X118937777Y-97345012D01*
X118924073Y-97323714D01*
X118901781Y-97294659D01*
X118872326Y-97261498D01*
X118838903Y-97227474D01*
X118804704Y-97195830D01*
X118772924Y-97169811D01*
X118771443Y-97168707D01*
X118729858Y-97141486D01*
X118679832Y-97114499D01*
X118625509Y-97089682D01*
X118571031Y-97068976D01*
X118534105Y-97057716D01*
X118488187Y-97048197D01*
X118433676Y-97041300D01*
X118374434Y-97037177D01*
X118314325Y-97035980D01*
X118257212Y-97037861D01*
X118206959Y-97042971D01*
X118197456Y-97044501D01*
X118104913Y-97066501D01*
X118019212Y-97098746D01*
X117940891Y-97140573D01*
X117870487Y-97191318D01*
X117808539Y-97250316D01*
X117755585Y-97316903D01*
X117712163Y-97390416D01*
X117678811Y-97470190D01*
X117656067Y-97555561D01*
X117644469Y-97645866D01*
X117643854Y-97727701D01*
X117649065Y-97792027D01*
X117658909Y-97848578D01*
X117674490Y-97901780D01*
X117696913Y-97956059D01*
X117705199Y-97973332D01*
X117727457Y-98014720D01*
X117750795Y-98049318D01*
X117779040Y-98082736D01*
X117782110Y-98086045D01*
X117827334Y-98134470D01*
X117673680Y-98134470D01*
X117673680Y-98426570D01*
X120728835Y-98426570D01*
X120726230Y-99031408D01*
X120725760Y-99135225D01*
X120725286Y-99227176D01*
X120724793Y-99308093D01*
X120724263Y-99378809D01*
X120723682Y-99440159D01*
X120723032Y-99492975D01*
X120722297Y-99538090D01*
X120721462Y-99576338D01*
X120720510Y-99608551D01*
X120719424Y-99635564D01*
X120718189Y-99658209D01*
X120716789Y-99677320D01*
X120715206Y-99693729D01*
X120713425Y-99708271D01*
X120712991Y-99711400D01*
X120696220Y-99811953D01*
X120674663Y-99912173D01*
X120649210Y-100008513D01*
X120620748Y-100097428D01*
X120607074Y-100134385D01*
X120598822Y-100156730D01*
X120593201Y-100174099D01*
X120591152Y-100183505D01*
X120591339Y-100184296D01*
X120596837Y-100181556D01*
X120608936Y-100171903D01*
X120625174Y-100157324D01*
X120627658Y-100154984D01*
X120650469Y-100129580D01*
X120676960Y-100093341D01*
X120706363Y-100047329D01*
X120711724Y-100038397D01*
X120729071Y-100009246D01*
X120743957Y-99984228D01*
X120755254Y-99965245D01*
X120761829Y-99954198D01*
X120763029Y-99952182D01*
X120768617Y-99954136D01*
X120782380Y-99960759D01*
X120801350Y-99970623D01*
X120801559Y-99970735D01*
X120820743Y-99980691D01*
X120830294Y-99984620D01*
X120831566Y-99982865D01*
X120827205Y-99977223D01*
X120821152Y-99969042D01*
X120819671Y-99961126D01*
X120823724Y-99950979D01*
X120834271Y-99936104D01*
X120850912Y-99915645D01*
X120866721Y-99896595D01*
X120804899Y-99864845D01*
X120826688Y-99814805D01*
X120845035Y-99769652D01*
X120864501Y-99716519D01*
X120883566Y-99659851D01*
X120900708Y-99604091D01*
X120909279Y-99573513D01*
X120916180Y-99548515D01*
X120922051Y-99528585D01*
X120926023Y-99516610D01*
X120927027Y-99514507D01*
X120933605Y-99514867D01*
X120948669Y-99517505D01*
X120968396Y-99521580D01*
X120988961Y-99526248D01*
X121006541Y-99530667D01*
X121017310Y-99533995D01*
X121018714Y-99534708D01*
X121017750Y-99540995D01*
X121013712Y-99557088D01*
X121007282Y-99580657D01*
X120999141Y-99609375D01*
X120989971Y-99640914D01*
X120980453Y-99672948D01*
X120971270Y-99703148D01*
X120963102Y-99729186D01*
X120956632Y-99748736D01*
X120953646Y-99756895D01*
X120947860Y-99771960D01*
X120946976Y-99776785D01*
X120950989Y-99772848D01*
X120953611Y-99769595D01*
X120961301Y-99758204D01*
X120972809Y-99739173D01*
X120985991Y-99716080D01*
X120989747Y-99709270D01*
X121001829Y-99687344D01*
X121011542Y-99670019D01*
X121017330Y-99660062D01*
X121018167Y-99658796D01*
X121024659Y-99659797D01*
X121038695Y-99665413D01*
X121056822Y-99673908D01*
X121075587Y-99683546D01*
X121091538Y-99692590D01*
X121101220Y-99699303D01*
X121102632Y-99701274D01*
X121099651Y-99708580D01*
X121091703Y-99724132D01*
X121080210Y-99745199D01*
X121073610Y-99756895D01*
X121041061Y-99811158D01*
X121003761Y-99868711D01*
X120964950Y-99924736D01*
X120927864Y-99974416D01*
X120924918Y-99978163D01*
X120885562Y-100027981D01*
X120867756Y-100010921D01*
X120849949Y-99993861D01*
X120826080Y-100036544D01*
X120814030Y-100059004D01*
X120807890Y-100073684D01*
X120806807Y-100083554D01*
X120809929Y-100091584D01*
X120810161Y-100091960D01*
X120812834Y-100098293D01*
X120811767Y-100105374D01*
X120805691Y-100115119D01*
X120793340Y-100129440D01*
X120773444Y-100150255D01*
X120767612Y-100156219D01*
X120741532Y-100184071D01*
X120713714Y-100215788D01*
X120688512Y-100246327D01*
X120678120Y-100259758D01*
X120661108Y-100282003D01*
X120646422Y-100300380D01*
X120636004Y-100312505D01*
X120632379Y-100315943D01*
X120623120Y-100315360D01*
X120613798Y-100309408D01*
X120607017Y-100304359D01*
X120600028Y-100303702D01*
X120589934Y-100308420D01*
X120573838Y-100319498D01*
X120564986Y-100325992D01*
X120546541Y-100339594D01*
X120532433Y-100349976D01*
X120525461Y-100355081D01*
X120525264Y-100355222D01*
X120527595Y-100360434D01*
X120536622Y-100371461D01*
X120542954Y-100378240D01*
X120563385Y-100399320D01*
X120494868Y-100465458D01*
X120466893Y-100491965D01*
X120438340Y-100518166D01*
X120412177Y-100541392D01*
X120391370Y-100558973D01*
X120387583Y-100561993D01*
X120368124Y-100578678D01*
X120343434Y-100601925D01*
X120316619Y-100628714D01*
X120290783Y-100656026D01*
X120289671Y-100657243D01*
X120228638Y-100721784D01*
X120170477Y-100777929D01*
X120112003Y-100828443D01*
X120050031Y-100876093D01*
X119988056Y-100919201D01*
X119883495Y-100983036D01*
X119775798Y-101036645D01*
X119663084Y-101080780D01*
X119543473Y-101116191D01*
X119435805Y-101139838D01*
X119426979Y-101141465D01*
X119418138Y-101142954D01*
X119408701Y-101144313D01*
X119398089Y-101145548D01*
X119385723Y-101146667D01*
X119371022Y-101147678D01*
X119353407Y-101148588D01*
X119332298Y-101149404D01*
X119307116Y-101150135D01*
X119277281Y-101150786D01*
X119242213Y-101151367D01*
X119201333Y-101151884D01*
X119154061Y-101152345D01*
X119099817Y-101152756D01*
X119038021Y-101153127D01*
X118968095Y-101153463D01*
X118889458Y-101153773D01*
X118801530Y-101154064D01*
X118703733Y-101154344D01*
X118595485Y-101154619D01*
X118476209Y-101154897D01*
X118345323Y-101155187D01*
X118219780Y-101155457D01*
X118059854Y-101155768D01*
X117912336Y-101155993D01*
X117776933Y-101156128D01*
X117653353Y-101156175D01*
X117541305Y-101156130D01*
X117440495Y-101155993D01*
X117350631Y-101155763D01*
X117271422Y-101155439D01*
X117229180Y-101155182D01*
X117229180Y-96807320D01*
X119007180Y-96807320D01*
X119007180Y-96477120D01*
X118499180Y-96477120D01*
X118499180Y-96265400D01*
X118542042Y-96259959D01*
X118581290Y-96253235D01*
X118624596Y-96242980D01*
X118667549Y-96230454D01*
X118705736Y-96216918D01*
X118729484Y-96206414D01*
X118799284Y-96164246D01*
X118860904Y-96112985D01*
X118913901Y-96053610D01*
X118957832Y-95987100D01*
X118992255Y-95914434D01*
X119016727Y-95836589D01*
X119030804Y-95754546D01*
X119034045Y-95669281D01*
X119026007Y-95581775D01*
X119022161Y-95559545D01*
X119002754Y-95488065D01*
X118972460Y-95417574D01*
X118932879Y-95351371D01*
X118900873Y-95309775D01*
X118845021Y-95253933D01*
X118780840Y-95206491D01*
X118710075Y-95168119D01*
X118634474Y-95139487D01*
X118555781Y-95121263D01*
X118475745Y-95114117D01*
X118400755Y-95118109D01*
X118323879Y-95132923D01*
X118254549Y-95157373D01*
X118191245Y-95192204D01*
X118132447Y-95238160D01*
X118118180Y-95251876D01*
X118118180Y-94962570D01*
X118175117Y-94962055D01*
X118222438Y-94960276D01*
X118263200Y-94956770D01*
X118300460Y-94951075D01*
X118337275Y-94942729D01*
X118376705Y-94931268D01*
X118419634Y-94916983D01*
X118516706Y-94876851D01*
X118607417Y-94826220D01*
X118691139Y-94765925D01*
X118767241Y-94696798D01*
X118835094Y-94619675D01*
X118894071Y-94535388D01*
X118943540Y-94444773D01*
X118982874Y-94348663D01*
X119011443Y-94247893D01*
X119028617Y-94143295D01*
X119031855Y-94105395D01*
X119033579Y-94074835D01*
X119034674Y-94047162D01*
X119035025Y-94025944D01*
X119034737Y-94016495D01*
X119033555Y-94001002D01*
X119031943Y-93977488D01*
X119030216Y-93950610D01*
X119029942Y-93946166D01*
X119017973Y-93851003D01*
X118994256Y-93756071D01*
X118959654Y-93663089D01*
X118915033Y-93573776D01*
X118861255Y-93489851D01*
X118799186Y-93413034D01*
X118729689Y-93345043D01*
X118726329Y-93342157D01*
X118639400Y-93275966D01*
X118547183Y-93221313D01*
X118449716Y-93178218D01*
X118413856Y-93165702D01*
X118354379Y-93147979D01*
X118298771Y-93135294D01*
X118242948Y-93127042D01*
X118182828Y-93122617D01*
X118115005Y-93121414D01*
X118019560Y-93125298D01*
X117931809Y-93136891D01*
X117848880Y-93156849D01*
X117767905Y-93185829D01*
X117703063Y-93215718D01*
X117642250Y-93248463D01*
X117589259Y-93282086D01*
X117539705Y-93319700D01*
X117489204Y-93364418D01*
X117476297Y-93376705D01*
X117402194Y-93456528D01*
X117339166Y-93542565D01*
X117287215Y-93634813D01*
X117246345Y-93733267D01*
X117216557Y-93837922D01*
X117212009Y-93859207D01*
X117206522Y-93896278D01*
X117202750Y-93942598D01*
X117200689Y-93994832D01*
X117200336Y-94049645D01*
X117201687Y-94103704D01*
X117204739Y-94153672D01*
X117209488Y-94196217D01*
X117212388Y-94213115D01*
X117240166Y-94322015D01*
X117278455Y-94424261D01*
X117326783Y-94519373D01*
X117384680Y-94606868D01*
X117451674Y-94686264D01*
X117527295Y-94757080D01*
X117611071Y-94818833D01*
X117702531Y-94871043D01*
X117801204Y-94913227D01*
X117906619Y-94944904D01*
X117934030Y-94951137D01*
X117957665Y-94955492D01*
X117983298Y-94958659D01*
X118013357Y-94960789D01*
X118050270Y-94962032D01*
X118096468Y-94962539D01*
X118118180Y-94962570D01*
X118118180Y-95251876D01*
X118108655Y-95261034D01*
X118085266Y-95285940D01*
X118064163Y-95311243D01*
X118044588Y-95338373D01*
X118025784Y-95368760D01*
X118006993Y-95403833D01*
X117987459Y-95445024D01*
X117966424Y-95493762D01*
X117943130Y-95551477D01*
X117916821Y-95619599D01*
X117911898Y-95632570D01*
X117893383Y-95680721D01*
X117877980Y-95718666D01*
X117864710Y-95748222D01*
X117852593Y-95771208D01*
X117840652Y-95789440D01*
X117827906Y-95804735D01*
X117813376Y-95818912D01*
X117809800Y-95822100D01*
X117771960Y-95847836D01*
X117731004Y-95862637D01*
X117688811Y-95867045D01*
X117647260Y-95861607D01*
X117608228Y-95846865D01*
X117573595Y-95823363D01*
X117545238Y-95791647D01*
X117525038Y-95752260D01*
X117520662Y-95738345D01*
X117516194Y-95708847D01*
X117516138Y-95674107D01*
X117520073Y-95639169D01*
X117527577Y-95609076D01*
X117532419Y-95597645D01*
X117558276Y-95561124D01*
X117593433Y-95531994D01*
X117636088Y-95511484D01*
X117672092Y-95502469D01*
X117699080Y-95498104D01*
X117699080Y-95155407D01*
X117662567Y-95159652D01*
X117579475Y-95174820D01*
X117502935Y-95200099D01*
X117433699Y-95235184D01*
X117379650Y-95273731D01*
X117329292Y-95323088D01*
X117284937Y-95381850D01*
X117248149Y-95447526D01*
X117220493Y-95517620D01*
X117215055Y-95536030D01*
X117206845Y-95576847D01*
X117201815Y-95625444D01*
X117199965Y-95677924D01*
X117201296Y-95730392D01*
X117205811Y-95778951D01*
X117213509Y-95819704D01*
X117214958Y-95824970D01*
X117243579Y-95902252D01*
X117282208Y-95972276D01*
X117330142Y-96034359D01*
X117386682Y-96087816D01*
X117451127Y-96131964D01*
X117522776Y-96166118D01*
X117584423Y-96185688D01*
X117635196Y-96194478D01*
X117692528Y-96197714D01*
X117751782Y-96195552D01*
X117808317Y-96188148D01*
X117854655Y-96176608D01*
X117923911Y-96147565D01*
X117987608Y-96107488D01*
X118027114Y-96074707D01*
X118058298Y-96043856D01*
X118086349Y-96010738D01*
X118112247Y-95973660D01*
X118136974Y-95930927D01*
X118161513Y-95880846D01*
X118186846Y-95821721D01*
X118213445Y-95753220D01*
X118238012Y-95689164D01*
X118259925Y-95636023D01*
X118280007Y-95592497D01*
X118299084Y-95557286D01*
X118317981Y-95529092D01*
X118337521Y-95506614D01*
X118358529Y-95488554D01*
X118381830Y-95473611D01*
X118395345Y-95466534D01*
X118442478Y-95449420D01*
X118492270Y-95442180D01*
X118541211Y-95445047D01*
X118576660Y-95454496D01*
X118621116Y-95477693D01*
X118657694Y-95510256D01*
X118685907Y-95551218D01*
X118705266Y-95599617D01*
X118715283Y-95654488D01*
X118715469Y-95714866D01*
X118714394Y-95726499D01*
X118703121Y-95778844D01*
X118681656Y-95823922D01*
X118650653Y-95861070D01*
X118610767Y-95889626D01*
X118562652Y-95908927D01*
X118526866Y-95916252D01*
X118499180Y-95920047D01*
X118499180Y-96265400D01*
X118499180Y-96477120D01*
X117229180Y-96477120D01*
X117229180Y-96807320D01*
X117229180Y-101155182D01*
X117202575Y-101155020D01*
X117143798Y-101154504D01*
X117094798Y-101153891D01*
X117055285Y-101153179D01*
X117024964Y-101152368D01*
X117003545Y-101151456D01*
X116994230Y-101150806D01*
X116864030Y-101132885D01*
X116736999Y-101102928D01*
X116613692Y-101061326D01*
X116594180Y-101052662D01*
X116594180Y-91187570D01*
X119737430Y-91187570D01*
X119737430Y-88907920D01*
X116594180Y-88907920D01*
X116594180Y-91187570D01*
X116594180Y-101052662D01*
X116494662Y-101008469D01*
X116380464Y-100944750D01*
X116271652Y-100870559D01*
X116168780Y-100786289D01*
X116072402Y-100692329D01*
X115983072Y-100589072D01*
X115901345Y-100476909D01*
X115827776Y-100356230D01*
X115802773Y-100309577D01*
X115753292Y-100206096D01*
X115711232Y-100100826D01*
X115675823Y-99991332D01*
X115646292Y-99875179D01*
X115621871Y-99749932D01*
X115617783Y-99725145D01*
X115617110Y-99720206D01*
X115616467Y-99713765D01*
X115615851Y-99705538D01*
X115615264Y-99695241D01*
X115614703Y-99682590D01*
X115614167Y-99667302D01*
X115613657Y-99649093D01*
X115613171Y-99627678D01*
X115612709Y-99602774D01*
X115612269Y-99574097D01*
X115611851Y-99541363D01*
X115611454Y-99504288D01*
X115611077Y-99462589D01*
X115610720Y-99415982D01*
X115610381Y-99364182D01*
X115610060Y-99306906D01*
X115609756Y-99243869D01*
X115609468Y-99174789D01*
X115609196Y-99099381D01*
X115608938Y-99017362D01*
X115608693Y-98928447D01*
X115608462Y-98832352D01*
X115608243Y-98728795D01*
X115608035Y-98617490D01*
X115607837Y-98498154D01*
X115607650Y-98370504D01*
X115607471Y-98234254D01*
X115607300Y-98089123D01*
X115607137Y-97934824D01*
X115606980Y-97771076D01*
X115606828Y-97597593D01*
X115606682Y-97414092D01*
X115606539Y-97220289D01*
X115606400Y-97015901D01*
X115606263Y-96800643D01*
X115606127Y-96574231D01*
X115605993Y-96336382D01*
X115605858Y-96086812D01*
X115605723Y-95825237D01*
X115605586Y-95551373D01*
X115605524Y-95424608D01*
X115603458Y-91187570D01*
X116257630Y-91187570D01*
G36*
X120974200Y-97827743D02*
X120974522Y-97789983D01*
X120976540Y-97601070D01*
X121070930Y-97601070D01*
X121070930Y-97790512D01*
X121070793Y-97838346D01*
X121070406Y-97882025D01*
X121069804Y-97919948D01*
X121069022Y-97950509D01*
X121068094Y-97972107D01*
X121067057Y-97983138D01*
X121066696Y-97984187D01*
X121058078Y-97986636D01*
X121041180Y-97987957D01*
X121020372Y-97988181D01*
X121000022Y-97987340D01*
X120984498Y-97985464D01*
X120978855Y-97983561D01*
X120976922Y-97975705D01*
X120975479Y-97955677D01*
X120974536Y-97923994D01*
X120974106Y-97881177D01*
X120974200Y-97827743D01*
X120974200Y-97827743D01*
G37*
X120974200Y-97827743D02*
X120974522Y-97789983D01*
X120976540Y-97601070D01*
X121070930Y-97601070D01*
X121070930Y-97790512D01*
X121070793Y-97838346D01*
X121070406Y-97882025D01*
X121069804Y-97919948D01*
X121069022Y-97950509D01*
X121068094Y-97972107D01*
X121067057Y-97983138D01*
X121066696Y-97984187D01*
X121058078Y-97986636D01*
X121041180Y-97987957D01*
X121020372Y-97988181D01*
X121000022Y-97987340D01*
X120984498Y-97985464D01*
X120978855Y-97983561D01*
X120976922Y-97975705D01*
X120975479Y-97955677D01*
X120974536Y-97923994D01*
X120974106Y-97881177D01*
X120974200Y-97827743D01*
G36*
X121070930Y-97118470D02*
X121070930Y-97505820D01*
X120975680Y-97505820D01*
X120975680Y-97118470D01*
X121070930Y-97118470D01*
X121070930Y-97118470D01*
G37*
X121070930Y-97118470D02*
X121070930Y-97505820D01*
X120975680Y-97505820D01*
X120975680Y-97118470D01*
X121070930Y-97118470D01*
G36*
X120977174Y-96831133D02*
X120978855Y-96639045D01*
X121024892Y-96637180D01*
X121070930Y-96635314D01*
X121070930Y-97023220D01*
X120975493Y-97023220D01*
X120977174Y-96831133D01*
X120977174Y-96831133D01*
G37*
X120977174Y-96831133D02*
X120978855Y-96639045D01*
X121024892Y-96637180D01*
X121070930Y-96635314D01*
X121070930Y-97023220D01*
X120975493Y-97023220D01*
X120977174Y-96831133D01*
G36*
X121070930Y-96159620D02*
X121070930Y-96540620D01*
X120975680Y-96540620D01*
X120975680Y-96159620D01*
X121070930Y-96159620D01*
X121070930Y-96159620D01*
G37*
X121070930Y-96159620D02*
X121070930Y-96540620D01*
X120975680Y-96540620D01*
X120975680Y-96159620D01*
X121070930Y-96159620D01*
G36*
X121070930Y-95677020D02*
X121070930Y-96058020D01*
X120975680Y-96058020D01*
X120975680Y-95677020D01*
X121070930Y-95677020D01*
X121070930Y-95677020D01*
G37*
X121070930Y-95677020D02*
X121070930Y-96058020D01*
X120975680Y-96058020D01*
X120975680Y-95677020D01*
X121070930Y-95677020D01*
G36*
X121070930Y-95194420D02*
X121070930Y-95581770D01*
X120977695Y-95581770D01*
X120973529Y-95453183D01*
X120972197Y-95408660D01*
X120971039Y-95363476D01*
X120970129Y-95321031D01*
X120969541Y-95284725D01*
X120969346Y-95259508D01*
X120969330Y-95194420D01*
X121070930Y-95194420D01*
X121070930Y-95194420D01*
G37*
X121070930Y-95194420D02*
X121070930Y-95581770D01*
X120977695Y-95581770D01*
X120973529Y-95453183D01*
X120972197Y-95408660D01*
X120971039Y-95363476D01*
X120970129Y-95321031D01*
X120969541Y-95284725D01*
X120969346Y-95259508D01*
X120969330Y-95194420D01*
X121070930Y-95194420D01*
G36*
X120961842Y-98758362D02*
X120962529Y-98710523D01*
X120963485Y-98666774D01*
X120964648Y-98628734D01*
X120965957Y-98598023D01*
X120967351Y-98576260D01*
X120968767Y-98565064D01*
X120969211Y-98563981D01*
X120977095Y-98562076D01*
X120992869Y-98561727D01*
X121012865Y-98562633D01*
X121033414Y-98564494D01*
X121050847Y-98567009D01*
X121061497Y-98569876D01*
X121063092Y-98571677D01*
X121062655Y-98578841D01*
X121062146Y-98597086D01*
X121061593Y-98624794D01*
X121061024Y-98660345D01*
X121060467Y-98702121D01*
X121059949Y-98748503D01*
X121059821Y-98761533D01*
X121058038Y-98947270D01*
X121008921Y-98947275D01*
X120959805Y-98947279D01*
X120961842Y-98758362D01*
X120961842Y-98758362D01*
G37*
X120961842Y-98758362D02*
X120962529Y-98710523D01*
X120963485Y-98666774D01*
X120964648Y-98628734D01*
X120965957Y-98598023D01*
X120967351Y-98576260D01*
X120968767Y-98565064D01*
X120969211Y-98563981D01*
X120977095Y-98562076D01*
X120992869Y-98561727D01*
X121012865Y-98562633D01*
X121033414Y-98564494D01*
X121050847Y-98567009D01*
X121061497Y-98569876D01*
X121063092Y-98571677D01*
X121062655Y-98578841D01*
X121062146Y-98597086D01*
X121061593Y-98624794D01*
X121061024Y-98660345D01*
X121060467Y-98702121D01*
X121059949Y-98748503D01*
X121059821Y-98761533D01*
X121058038Y-98947270D01*
X121008921Y-98947275D01*
X120959805Y-98947279D01*
X120961842Y-98758362D01*
G36*
X121064580Y-98083670D02*
X121064580Y-98464670D01*
X120969330Y-98464670D01*
X120969330Y-98083670D01*
X121064580Y-98083670D01*
X121064580Y-98083670D01*
G37*
X121064580Y-98083670D02*
X121064580Y-98464670D01*
X120969330Y-98464670D01*
X120969330Y-98083670D01*
X121064580Y-98083670D01*
G36*
X121064580Y-94711820D02*
X121064580Y-95099170D01*
X120969330Y-95099170D01*
X120969330Y-94711820D01*
X121064580Y-94711820D01*
X121064580Y-94711820D01*
G37*
X121064580Y-94711820D02*
X121064580Y-95099170D01*
X120969330Y-95099170D01*
X120969330Y-94711820D01*
X121064580Y-94711820D01*
G36*
X120965316Y-94238613D02*
X120965371Y-94237833D01*
X120971594Y-94237118D01*
X120987336Y-94236060D01*
X121009431Y-94234868D01*
X121013780Y-94234658D01*
X121061405Y-94232395D01*
X121063085Y-94424483D01*
X121064766Y-94616570D01*
X120971097Y-94616570D01*
X120967842Y-94427658D01*
X120967049Y-94380094D01*
X120966377Y-94336861D01*
X120965847Y-94299528D01*
X120965480Y-94269663D01*
X120965296Y-94248836D01*
X120965316Y-94238613D01*
X120965316Y-94238613D01*
G37*
X120965316Y-94238613D02*
X120965371Y-94237833D01*
X120971594Y-94237118D01*
X120987336Y-94236060D01*
X121009431Y-94234868D01*
X121013780Y-94234658D01*
X121061405Y-94232395D01*
X121063085Y-94424483D01*
X121064766Y-94616570D01*
X120971097Y-94616570D01*
X120967842Y-94427658D01*
X120967049Y-94380094D01*
X120966377Y-94336861D01*
X120965847Y-94299528D01*
X120965480Y-94269663D01*
X120965296Y-94248836D01*
X120965316Y-94238613D01*
G36*
X120621400Y-90890708D02*
X120623255Y-90841495D01*
X120812737Y-90839813D01*
X120866720Y-90839358D01*
X120909371Y-90839115D01*
X120942053Y-90839162D01*
X120966133Y-90839577D01*
X120982976Y-90840440D01*
X120993948Y-90841828D01*
X121000414Y-90843822D01*
X121003741Y-90846498D01*
X121005294Y-90849937D01*
X121005565Y-90850925D01*
X121010255Y-90859207D01*
X121020956Y-90862970D01*
X121036745Y-90863720D01*
X121064580Y-90863720D01*
X121064580Y-91054420D01*
X121064483Y-91110419D01*
X121064157Y-91154930D01*
X121063548Y-91189162D01*
X121062603Y-91214326D01*
X121061268Y-91231631D01*
X121059488Y-91242289D01*
X121057211Y-91247510D01*
X121055973Y-91248422D01*
X121045420Y-91249865D01*
X121026562Y-91250319D01*
X121006761Y-91249810D01*
X120966155Y-91247895D01*
X120968412Y-91093908D01*
X120970669Y-90939920D01*
X120619545Y-90939920D01*
X120621400Y-90890708D01*
X120621400Y-90890708D01*
G37*
X120621400Y-90890708D02*
X120623255Y-90841495D01*
X120812737Y-90839813D01*
X120866720Y-90839358D01*
X120909371Y-90839115D01*
X120942053Y-90839162D01*
X120966133Y-90839577D01*
X120982976Y-90840440D01*
X120993948Y-90841828D01*
X121000414Y-90843822D01*
X121003741Y-90846498D01*
X121005294Y-90849937D01*
X121005565Y-90850925D01*
X121010255Y-90859207D01*
X121020956Y-90862970D01*
X121036745Y-90863720D01*
X121064580Y-90863720D01*
X121064580Y-91054420D01*
X121064483Y-91110419D01*
X121064157Y-91154930D01*
X121063548Y-91189162D01*
X121062603Y-91214326D01*
X121061268Y-91231631D01*
X121059488Y-91242289D01*
X121057211Y-91247510D01*
X121055973Y-91248422D01*
X121045420Y-91249865D01*
X121026562Y-91250319D01*
X121006761Y-91249810D01*
X120966155Y-91247895D01*
X120968412Y-91093908D01*
X120970669Y-90939920D01*
X120619545Y-90939920D01*
X120621400Y-90890708D01*
G36*
X121058230Y-93752970D02*
X121058230Y-94133970D01*
X120962980Y-94133970D01*
X120962980Y-93752970D01*
X121058230Y-93752970D01*
X121058230Y-93752970D01*
G37*
X121058230Y-93752970D02*
X121058230Y-94133970D01*
X120962980Y-94133970D01*
X120962980Y-93752970D01*
X121058230Y-93752970D01*
G36*
X121058230Y-93270370D02*
X121058230Y-93657720D01*
X120962980Y-93657720D01*
X120962980Y-93270370D01*
X121058230Y-93270370D01*
X121058230Y-93270370D01*
G37*
X121058230Y-93270370D02*
X121058230Y-93657720D01*
X120962980Y-93657720D01*
X120962980Y-93270370D01*
X121058230Y-93270370D01*
G36*
X120961747Y-92796327D02*
X120968294Y-92792708D01*
X120982432Y-92790544D01*
X121006619Y-92789183D01*
X121009017Y-92789091D01*
X121058230Y-92787236D01*
X121058230Y-93175120D01*
X120962980Y-93175120D01*
X120961921Y-92994145D01*
X120961630Y-92946996D01*
X120961331Y-92903643D01*
X120961041Y-92865811D01*
X120960772Y-92835226D01*
X120960539Y-92813613D01*
X120960357Y-92802698D01*
X120960334Y-92802058D01*
X120961747Y-92796327D01*
X120961747Y-92796327D01*
G37*
X120961747Y-92796327D02*
X120968294Y-92792708D01*
X120982432Y-92790544D01*
X121006619Y-92789183D01*
X121009017Y-92789091D01*
X121058230Y-92787236D01*
X121058230Y-93175120D01*
X120962980Y-93175120D01*
X120961921Y-92994145D01*
X120961630Y-92946996D01*
X120961331Y-92903643D01*
X120961041Y-92865811D01*
X120960772Y-92835226D01*
X120960539Y-92813613D01*
X120960357Y-92802698D01*
X120960334Y-92802058D01*
X120961747Y-92796327D01*
G36*
X120958124Y-92500433D02*
X120959805Y-92308345D01*
X121055055Y-92308345D01*
X121056735Y-92500433D01*
X121058416Y-92692520D01*
X120956443Y-92692520D01*
X120958124Y-92500433D01*
X120958124Y-92500433D01*
G37*
X120958124Y-92500433D02*
X120959805Y-92308345D01*
X121055055Y-92308345D01*
X121056735Y-92500433D01*
X121058416Y-92692520D01*
X120956443Y-92692520D01*
X120958124Y-92500433D01*
G36*
X121058230Y-91828920D02*
X121058230Y-92209920D01*
X120962980Y-92209920D01*
X120962980Y-91828920D01*
X121058230Y-91828920D01*
X121058230Y-91828920D01*
G37*
X121058230Y-91828920D02*
X121058230Y-92209920D01*
X120962980Y-92209920D01*
X120962980Y-91828920D01*
X121058230Y-91828920D01*
G36*
X121058230Y-91346320D02*
X121058230Y-91735439D01*
X121024892Y-91731435D01*
X121002841Y-91729098D01*
X120983999Y-91727627D01*
X120977267Y-91727376D01*
X120962980Y-91727320D01*
X120962980Y-91346320D01*
X121058230Y-91346320D01*
X121058230Y-91346320D01*
G37*
X121058230Y-91346320D02*
X121058230Y-91735439D01*
X121024892Y-91731435D01*
X121002841Y-91729098D01*
X120983999Y-91727627D01*
X120977267Y-91727376D01*
X120962980Y-91727320D01*
X120962980Y-91346320D01*
X121058230Y-91346320D01*
G36*
X120948517Y-99397844D02*
X120949196Y-99377522D01*
X120950085Y-99348037D01*
X120951131Y-99311155D01*
X120952285Y-99268643D01*
X120953494Y-99222268D01*
X120953584Y-99218733D01*
X120958074Y-99042520D01*
X121051880Y-99042520D01*
X121050727Y-99152058D01*
X121050080Y-99196503D01*
X121049082Y-99244455D01*
X121047852Y-99291144D01*
X121046505Y-99331799D01*
X121045965Y-99345220D01*
X121044323Y-99376595D01*
X121042385Y-99403256D01*
X121040373Y-99422707D01*
X121038508Y-99432448D01*
X121038181Y-99433002D01*
X121030321Y-99433894D01*
X121013621Y-99432297D01*
X120991624Y-99428558D01*
X120990556Y-99428343D01*
X120967321Y-99423075D01*
X120954195Y-99418264D01*
X120948701Y-99412677D01*
X120948099Y-99407237D01*
X120948517Y-99397844D01*
X120948517Y-99397844D01*
G37*
X120948517Y-99397844D02*
X120949196Y-99377522D01*
X120950085Y-99348037D01*
X120951131Y-99311155D01*
X120952285Y-99268643D01*
X120953494Y-99222268D01*
X120953584Y-99218733D01*
X120958074Y-99042520D01*
X121051880Y-99042520D01*
X121050727Y-99152058D01*
X121050080Y-99196503D01*
X121049082Y-99244455D01*
X121047852Y-99291144D01*
X121046505Y-99331799D01*
X121045965Y-99345220D01*
X121044323Y-99376595D01*
X121042385Y-99403256D01*
X121040373Y-99422707D01*
X121038508Y-99432448D01*
X121038181Y-99433002D01*
X121030321Y-99433894D01*
X121013621Y-99432297D01*
X120991624Y-99428558D01*
X120990556Y-99428343D01*
X120967321Y-99423075D01*
X120954195Y-99418264D01*
X120948701Y-99412677D01*
X120948099Y-99407237D01*
X120948517Y-99397844D01*
G36*
X120562930Y-90450970D02*
X120562930Y-90520820D01*
X120785180Y-90520820D01*
X120785180Y-90616070D01*
X120467680Y-90616070D01*
X120467680Y-90450970D01*
X120562930Y-90450970D01*
X120562930Y-90450970D01*
G37*
X120562930Y-90450970D02*
X120562930Y-90520820D01*
X120785180Y-90520820D01*
X120785180Y-90616070D01*
X120467680Y-90616070D01*
X120467680Y-90450970D01*
X120562930Y-90450970D01*
G36*
X120562930Y-89968370D02*
X120562930Y-90355720D01*
X120467680Y-90355720D01*
X120467680Y-89968370D01*
X120562930Y-89968370D01*
X120562930Y-89968370D01*
G37*
X120562930Y-89968370D02*
X120562930Y-90355720D01*
X120467680Y-90355720D01*
X120467680Y-89968370D01*
X120562930Y-89968370D01*
G36*
X120562930Y-89492120D02*
X120562930Y-89873120D01*
X120467680Y-89873120D01*
X120467680Y-89492120D01*
X120562930Y-89492120D01*
X120562930Y-89492120D01*
G37*
X120562930Y-89492120D02*
X120562930Y-89873120D01*
X120467680Y-89873120D01*
X120467680Y-89492120D01*
X120562930Y-89492120D01*
G36*
X120562930Y-89009520D02*
X120562930Y-89390520D01*
X120467680Y-89390520D01*
X120467680Y-89009520D01*
X120562930Y-89009520D01*
X120562930Y-89009520D01*
G37*
X120562930Y-89009520D02*
X120562930Y-89390520D01*
X120467680Y-89390520D01*
X120467680Y-89009520D01*
X120562930Y-89009520D01*
G36*
X120562930Y-88526920D02*
X120562930Y-88914270D01*
X120467680Y-88914270D01*
X120467680Y-88526920D01*
X120562930Y-88526920D01*
X120562930Y-88526920D01*
G37*
X120562930Y-88526920D02*
X120562930Y-88914270D01*
X120467680Y-88914270D01*
X120467680Y-88526920D01*
X120562930Y-88526920D01*
G36*
X120467706Y-88198084D02*
X120467852Y-88156800D01*
X120468211Y-88125472D01*
X120468882Y-88102727D01*
X120469959Y-88087192D01*
X120471540Y-88077497D01*
X120473720Y-88072268D01*
X120476597Y-88070133D01*
X120480266Y-88069721D01*
X120480380Y-88069720D01*
X120488688Y-88067590D01*
X120492360Y-88058981D01*
X120493080Y-88044320D01*
X120493080Y-88018920D01*
X120562930Y-88018920D01*
X120562930Y-88431670D01*
X120467680Y-88431670D01*
X120467680Y-88250695D01*
X120467706Y-88198084D01*
X120467706Y-88198084D01*
G37*
X120467706Y-88198084D02*
X120467852Y-88156800D01*
X120468211Y-88125472D01*
X120468882Y-88102727D01*
X120469959Y-88087192D01*
X120471540Y-88077497D01*
X120473720Y-88072268D01*
X120476597Y-88070133D01*
X120480266Y-88069721D01*
X120480380Y-88069720D01*
X120488688Y-88067590D01*
X120492360Y-88058981D01*
X120493080Y-88044320D01*
X120493080Y-88018920D01*
X120562930Y-88018920D01*
X120562930Y-88431670D01*
X120467680Y-88431670D01*
X120467680Y-88250695D01*
X120467706Y-88198084D01*
G36*
X120302580Y-90774820D02*
X120302580Y-90838320D01*
X120524830Y-90838320D01*
X120524830Y-90940142D01*
X120367667Y-90938444D01*
X120210505Y-90936745D01*
X120208727Y-90855783D01*
X120206950Y-90774820D01*
X120302580Y-90774820D01*
X120302580Y-90774820D01*
G37*
X120302580Y-90774820D02*
X120302580Y-90838320D01*
X120524830Y-90838320D01*
X120524830Y-90940142D01*
X120367667Y-90938444D01*
X120210505Y-90936745D01*
X120208727Y-90855783D01*
X120206950Y-90774820D01*
X120302580Y-90774820D01*
G36*
X120397830Y-88018920D02*
X120397830Y-88114170D01*
X120010480Y-88114170D01*
X120010480Y-88018920D01*
X120397830Y-88018920D01*
X120397830Y-88018920D01*
G37*
X120397830Y-88018920D02*
X120397830Y-88114170D01*
X120010480Y-88114170D01*
X120010480Y-88018920D01*
X120397830Y-88018920D01*
G36*
X120302580Y-90292220D02*
X120302580Y-90673220D01*
X120207330Y-90673220D01*
X120207330Y-90292220D01*
X120302580Y-90292220D01*
X120302580Y-90292220D01*
G37*
X120302580Y-90292220D02*
X120302580Y-90673220D01*
X120207330Y-90673220D01*
X120207330Y-90292220D01*
X120302580Y-90292220D01*
G36*
X120302580Y-89809620D02*
X120302580Y-90197527D01*
X120256542Y-90195661D01*
X120210505Y-90193795D01*
X120208824Y-90001708D01*
X120207143Y-89809620D01*
X120302580Y-89809620D01*
X120302580Y-89809620D01*
G37*
X120302580Y-89809620D02*
X120302580Y-90197527D01*
X120256542Y-90195661D01*
X120210505Y-90193795D01*
X120208824Y-90001708D01*
X120207143Y-89809620D01*
X120302580Y-89809620D01*
G36*
X120208824Y-89522283D02*
X120210505Y-89330195D01*
X120256542Y-89328330D01*
X120302580Y-89326464D01*
X120302580Y-89714370D01*
X120207143Y-89714370D01*
X120208824Y-89522283D01*
X120208824Y-89522283D01*
G37*
X120208824Y-89522283D02*
X120210505Y-89330195D01*
X120256542Y-89328330D01*
X120302580Y-89326464D01*
X120302580Y-89714370D01*
X120207143Y-89714370D01*
X120208824Y-89522283D01*
G36*
X120208824Y-89039683D02*
X120210505Y-88847595D01*
X120256542Y-88845730D01*
X120302580Y-88843864D01*
X120302580Y-89231770D01*
X120207143Y-89231770D01*
X120208824Y-89039683D01*
X120208824Y-89039683D01*
G37*
X120208824Y-89039683D02*
X120210505Y-88847595D01*
X120256542Y-88845730D01*
X120302580Y-88843864D01*
X120302580Y-89231770D01*
X120207143Y-89231770D01*
X120208824Y-89039683D01*
G36*
X120207356Y-88515584D02*
X120207502Y-88474300D01*
X120207861Y-88442972D01*
X120208532Y-88420227D01*
X120209609Y-88404692D01*
X120211190Y-88394997D01*
X120213370Y-88389768D01*
X120216247Y-88387633D01*
X120219916Y-88387221D01*
X120220030Y-88387220D01*
X120228783Y-88384734D01*
X120232314Y-88375029D01*
X120232730Y-88364995D01*
X120232730Y-88342770D01*
X120302580Y-88342770D01*
X120302580Y-88749170D01*
X120207330Y-88749170D01*
X120207330Y-88568195D01*
X120207356Y-88515584D01*
X120207356Y-88515584D01*
G37*
X120207356Y-88515584D02*
X120207502Y-88474300D01*
X120207861Y-88442972D01*
X120208532Y-88420227D01*
X120209609Y-88404692D01*
X120211190Y-88394997D01*
X120213370Y-88389768D01*
X120216247Y-88387633D01*
X120219916Y-88387221D01*
X120220030Y-88387220D01*
X120228783Y-88384734D01*
X120232314Y-88375029D01*
X120232730Y-88364995D01*
X120232730Y-88342770D01*
X120302580Y-88342770D01*
X120302580Y-88749170D01*
X120207330Y-88749170D01*
X120207330Y-88568195D01*
X120207356Y-88515584D01*
G36*
X120137480Y-88342770D02*
X120137480Y-88438020D01*
X119756480Y-88438020D01*
X119756480Y-88342770D01*
X120137480Y-88342770D01*
X120137480Y-88342770D01*
G37*
X120137480Y-88342770D02*
X120137480Y-88438020D01*
X119756480Y-88438020D01*
X119756480Y-88342770D01*
X120137480Y-88342770D01*
G36*
X119915230Y-88018920D02*
X119915230Y-88114170D01*
X119527880Y-88114170D01*
X119527880Y-88018920D01*
X119915230Y-88018920D01*
X119915230Y-88018920D01*
G37*
X119915230Y-88018920D02*
X119915230Y-88114170D01*
X119527880Y-88114170D01*
X119527880Y-88018920D01*
X119915230Y-88018920D01*
G36*
X119661230Y-88342770D02*
X119661230Y-88386162D01*
X119660651Y-88408568D01*
X119659134Y-88425669D01*
X119657007Y-88433776D01*
X119656996Y-88433787D01*
X119649810Y-88434853D01*
X119631527Y-88435820D01*
X119603751Y-88436654D01*
X119568084Y-88437320D01*
X119526130Y-88437782D01*
X119479492Y-88438005D01*
X119463321Y-88438020D01*
X119273880Y-88438020D01*
X119273880Y-88342770D01*
X119661230Y-88342770D01*
X119661230Y-88342770D01*
G37*
X119661230Y-88342770D02*
X119661230Y-88386162D01*
X119660651Y-88408568D01*
X119659134Y-88425669D01*
X119657007Y-88433776D01*
X119656996Y-88433787D01*
X119649810Y-88434853D01*
X119631527Y-88435820D01*
X119603751Y-88436654D01*
X119568084Y-88437320D01*
X119526130Y-88437782D01*
X119479492Y-88438005D01*
X119463321Y-88438020D01*
X119273880Y-88438020D01*
X119273880Y-88342770D01*
X119661230Y-88342770D01*
G36*
X119432630Y-88018920D02*
X119432630Y-88114170D01*
X119051630Y-88114170D01*
X119051630Y-88018920D01*
X119432630Y-88018920D01*
X119432630Y-88018920D01*
G37*
X119432630Y-88018920D02*
X119432630Y-88114170D01*
X119051630Y-88114170D01*
X119051630Y-88018920D01*
X119432630Y-88018920D01*
G36*
X118792600Y-88388808D02*
X118794455Y-88339595D01*
X119175455Y-88339595D01*
X119177294Y-88384323D01*
X119177611Y-88407105D01*
X119176706Y-88424673D01*
X119174774Y-88433391D01*
X119174648Y-88433535D01*
X119167397Y-88434664D01*
X119149051Y-88435689D01*
X119121215Y-88436572D01*
X119085493Y-88437277D01*
X119043491Y-88437767D01*
X118996812Y-88438004D01*
X118980454Y-88438020D01*
X118790745Y-88438020D01*
X118792600Y-88388808D01*
X118792600Y-88388808D01*
G37*
X118792600Y-88388808D02*
X118794455Y-88339595D01*
X119175455Y-88339595D01*
X119177294Y-88384323D01*
X119177611Y-88407105D01*
X119176706Y-88424673D01*
X119174774Y-88433391D01*
X119174648Y-88433535D01*
X119167397Y-88434664D01*
X119149051Y-88435689D01*
X119121215Y-88436572D01*
X119085493Y-88437277D01*
X119043491Y-88437767D01*
X118996812Y-88438004D01*
X118980454Y-88438020D01*
X118790745Y-88438020D01*
X118792600Y-88388808D01*
G36*
X118950030Y-88018920D02*
X118950030Y-88114170D01*
X118569030Y-88114170D01*
X118569030Y-88018920D01*
X118950030Y-88018920D01*
X118950030Y-88018920D01*
G37*
X118950030Y-88018920D02*
X118950030Y-88114170D01*
X118569030Y-88114170D01*
X118569030Y-88018920D01*
X118950030Y-88018920D01*
G36*
X117936375Y-97715370D02*
X117944401Y-97653326D01*
X117960408Y-97598926D01*
X117985675Y-97549356D01*
X118021483Y-97501803D01*
X118044978Y-97476651D01*
X118094944Y-97432728D01*
X118147874Y-97399640D01*
X118206985Y-97375526D01*
X118232480Y-97368134D01*
X118271061Y-97361154D01*
X118316842Y-97357697D01*
X118364956Y-97357759D01*
X118410540Y-97361334D01*
X118448380Y-97368325D01*
X118514446Y-97391904D01*
X118574269Y-97425211D01*
X118626726Y-97467157D01*
X118670692Y-97516652D01*
X118705044Y-97572608D01*
X118728657Y-97633935D01*
X118730841Y-97642092D01*
X118736710Y-97676657D01*
X118739428Y-97718535D01*
X118739000Y-97762739D01*
X118735437Y-97804281D01*
X118730537Y-97831416D01*
X118708744Y-97895150D01*
X118676128Y-97953353D01*
X118633749Y-98004969D01*
X118582668Y-98048940D01*
X118523947Y-98084210D01*
X118458648Y-98109723D01*
X118447872Y-98112772D01*
X118414768Y-98119016D01*
X118373953Y-98122790D01*
X118329991Y-98124022D01*
X118287445Y-98122637D01*
X118250879Y-98118563D01*
X118238830Y-98116135D01*
X118173386Y-98094275D01*
X118113409Y-98061971D01*
X118060105Y-98020440D01*
X118014680Y-97970902D01*
X117978338Y-97914575D01*
X117952285Y-97852678D01*
X117942836Y-97816970D01*
X117935911Y-97765536D01*
X117936375Y-97715370D01*
X117936375Y-97715370D01*
G37*
X117936375Y-97715370D02*
X117944401Y-97653326D01*
X117960408Y-97598926D01*
X117985675Y-97549356D01*
X118021483Y-97501803D01*
X118044978Y-97476651D01*
X118094944Y-97432728D01*
X118147874Y-97399640D01*
X118206985Y-97375526D01*
X118232480Y-97368134D01*
X118271061Y-97361154D01*
X118316842Y-97357697D01*
X118364956Y-97357759D01*
X118410540Y-97361334D01*
X118448380Y-97368325D01*
X118514446Y-97391904D01*
X118574269Y-97425211D01*
X118626726Y-97467157D01*
X118670692Y-97516652D01*
X118705044Y-97572608D01*
X118728657Y-97633935D01*
X118730841Y-97642092D01*
X118736710Y-97676657D01*
X118739428Y-97718535D01*
X118739000Y-97762739D01*
X118735437Y-97804281D01*
X118730537Y-97831416D01*
X118708744Y-97895150D01*
X118676128Y-97953353D01*
X118633749Y-98004969D01*
X118582668Y-98048940D01*
X118523947Y-98084210D01*
X118458648Y-98109723D01*
X118447872Y-98112772D01*
X118414768Y-98119016D01*
X118373953Y-98122790D01*
X118329991Y-98124022D01*
X118287445Y-98122637D01*
X118250879Y-98118563D01*
X118238830Y-98116135D01*
X118173386Y-98094275D01*
X118113409Y-98061971D01*
X118060105Y-98020440D01*
X118014680Y-97970902D01*
X117978338Y-97914575D01*
X117952285Y-97852678D01*
X117942836Y-97816970D01*
X117935911Y-97765536D01*
X117936375Y-97715370D01*
G36*
X118692855Y-88339595D02*
X118694711Y-88388902D01*
X118696567Y-88438208D01*
X118504211Y-88436527D01*
X118311855Y-88434845D01*
X118311855Y-88339595D01*
X118692855Y-88339595D01*
X118692855Y-88339595D01*
G37*
X118692855Y-88339595D02*
X118694711Y-88388902D01*
X118696567Y-88438208D01*
X118504211Y-88436527D01*
X118311855Y-88434845D01*
X118311855Y-88339595D01*
X118692855Y-88339595D01*
G36*
X118473780Y-88018920D02*
X118473780Y-88114170D01*
X118086430Y-88114170D01*
X118086430Y-88018920D01*
X118473780Y-88018920D01*
X118473780Y-88018920D01*
G37*
X118473780Y-88018920D02*
X118473780Y-88114170D01*
X118086430Y-88114170D01*
X118086430Y-88018920D01*
X118473780Y-88018920D01*
G36*
X118021342Y-88337915D02*
X118213430Y-88336234D01*
X118213430Y-88438207D01*
X118021342Y-88436526D01*
X117829255Y-88434845D01*
X117829255Y-88339595D01*
X118021342Y-88337915D01*
X118021342Y-88337915D01*
G37*
X118021342Y-88337915D02*
X118213430Y-88336234D01*
X118213430Y-88438207D01*
X118021342Y-88436526D01*
X117829255Y-88434845D01*
X117829255Y-88339595D01*
X118021342Y-88337915D01*
G36*
X117991180Y-88018920D02*
X117991180Y-88114170D01*
X117603830Y-88114170D01*
X117603830Y-88018920D01*
X117991180Y-88018920D01*
X117991180Y-88018920D01*
G37*
X117991180Y-88018920D02*
X117991180Y-88114170D01*
X117603830Y-88114170D01*
X117603830Y-88018920D01*
X117991180Y-88018920D01*
G36*
X117730830Y-88336420D02*
X117730830Y-88438020D01*
X117349830Y-88438020D01*
X117349830Y-88336420D01*
X117730830Y-88336420D01*
X117730830Y-88336420D01*
G37*
X117730830Y-88336420D02*
X117730830Y-88438020D01*
X117349830Y-88438020D01*
X117349830Y-88336420D01*
X117730830Y-88336420D01*
G36*
X117508580Y-88018920D02*
X117508580Y-88114170D01*
X117121230Y-88114170D01*
X117121230Y-88018920D01*
X117508580Y-88018920D01*
X117508580Y-88018920D01*
G37*
X117508580Y-88018920D02*
X117508580Y-88114170D01*
X117121230Y-88114170D01*
X117121230Y-88018920D01*
X117508580Y-88018920D01*
G36*
X117248230Y-88336420D02*
X117248230Y-88438020D01*
X116867230Y-88438020D01*
X116867230Y-88336420D01*
X117248230Y-88336420D01*
X117248230Y-88336420D01*
G37*
X117248230Y-88336420D02*
X117248230Y-88438020D01*
X116867230Y-88438020D01*
X116867230Y-88336420D01*
X117248230Y-88336420D01*
G36*
X117025980Y-88018920D02*
X117025980Y-88114170D01*
X116784680Y-88114170D01*
X116784680Y-88158620D01*
X116689430Y-88158620D01*
X116689343Y-88103058D01*
X116688875Y-88076011D01*
X116687705Y-88052440D01*
X116686054Y-88036290D01*
X116685427Y-88033208D01*
X116681598Y-88018920D01*
X117025980Y-88018920D01*
X117025980Y-88018920D01*
G37*
X117025980Y-88018920D02*
X117025980Y-88114170D01*
X116784680Y-88114170D01*
X116784680Y-88158620D01*
X116689430Y-88158620D01*
X116689343Y-88103058D01*
X116688875Y-88076011D01*
X116687705Y-88052440D01*
X116686054Y-88036290D01*
X116685427Y-88033208D01*
X116681598Y-88018920D01*
X117025980Y-88018920D01*
G36*
X116689430Y-88336420D02*
X116689430Y-88253870D01*
X116784680Y-88253870D01*
X116784680Y-88338068D01*
X116784532Y-88372493D01*
X116783890Y-88396421D01*
X116782451Y-88412053D01*
X116779913Y-88421589D01*
X116775975Y-88427232D01*
X116772066Y-88430143D01*
X116761752Y-88433336D01*
X116741898Y-88435660D01*
X116711619Y-88437169D01*
X116670030Y-88437915D01*
X116641891Y-88438020D01*
X116524330Y-88438020D01*
X116524330Y-88456330D01*
X116522287Y-88468493D01*
X116514753Y-88476274D01*
X116499615Y-88480561D01*
X116474761Y-88482243D01*
X116462417Y-88482384D01*
X116429080Y-88482470D01*
X116429080Y-88336420D01*
X116689430Y-88336420D01*
X116689430Y-88336420D01*
G37*
X116689430Y-88336420D02*
X116689430Y-88253870D01*
X116784680Y-88253870D01*
X116784680Y-88338068D01*
X116784532Y-88372493D01*
X116783890Y-88396421D01*
X116782451Y-88412053D01*
X116779913Y-88421589D01*
X116775975Y-88427232D01*
X116772066Y-88430143D01*
X116761752Y-88433336D01*
X116741898Y-88435660D01*
X116711619Y-88437169D01*
X116670030Y-88437915D01*
X116641891Y-88438020D01*
X116524330Y-88438020D01*
X116524330Y-88456330D01*
X116522287Y-88468493D01*
X116514753Y-88476274D01*
X116499615Y-88480561D01*
X116474761Y-88482243D01*
X116462417Y-88482384D01*
X116429080Y-88482470D01*
X116429080Y-88336420D01*
X116689430Y-88336420D01*
G36*
X119223080Y-89815970D02*
X119223080Y-90273170D01*
X118467430Y-90273170D01*
X118467430Y-89815970D01*
X119223080Y-89815970D01*
X119223080Y-89815970D01*
G37*
X119223080Y-89815970D02*
X119223080Y-90273170D01*
X118467430Y-90273170D01*
X118467430Y-89815970D01*
X119223080Y-89815970D01*
G36*
X117864180Y-89815970D02*
X117864180Y-90273170D01*
X117108530Y-90273170D01*
X117108530Y-89815970D01*
X117864180Y-89815970D01*
X117864180Y-89815970D01*
G37*
X117864180Y-89815970D02*
X117864180Y-90273170D01*
X117108530Y-90273170D01*
X117108530Y-89815970D01*
X117864180Y-89815970D01*
G36*
X117518721Y-94000363D02*
X117519523Y-93968460D01*
X117521370Y-93943125D01*
X117524531Y-93921298D01*
X117529273Y-93899920D01*
X117532031Y-93889495D01*
X117560991Y-93806570D01*
X117600156Y-93730940D01*
X117649029Y-93663059D01*
X117707116Y-93603381D01*
X117773921Y-93552361D01*
X117848949Y-93510453D01*
X117931704Y-93478110D01*
X118000705Y-93459942D01*
X118022615Y-93456787D01*
X118053565Y-93454337D01*
X118089902Y-93452809D01*
X118127705Y-93452418D01*
X118168166Y-93453090D01*
X118200057Y-93454828D01*
X118227494Y-93458096D01*
X118254593Y-93463361D01*
X118280050Y-93469652D01*
X118364312Y-93497631D01*
X118440593Y-93535121D01*
X118508528Y-93581895D01*
X118567756Y-93637728D01*
X118586813Y-93659926D01*
X118636044Y-93730365D01*
X118673713Y-93805954D01*
X118699735Y-93886404D01*
X118714024Y-93971428D01*
X118716497Y-94060736D01*
X118714575Y-94092695D01*
X118701477Y-94176856D01*
X118676736Y-94257246D01*
X118641111Y-94332775D01*
X118595360Y-94402351D01*
X118540241Y-94464881D01*
X118476512Y-94519274D01*
X118404931Y-94564438D01*
X118377536Y-94578157D01*
X118330746Y-94598535D01*
X118287892Y-94613355D01*
X118245336Y-94623364D01*
X118199440Y-94629313D01*
X118146567Y-94631952D01*
X118115005Y-94632265D01*
X118073319Y-94631992D01*
X118041166Y-94630974D01*
X118015388Y-94628915D01*
X117992824Y-94625516D01*
X117970316Y-94620481D01*
X117959430Y-94617620D01*
X117875181Y-94588574D01*
X117798164Y-94549147D01*
X117728532Y-94499428D01*
X117679640Y-94453766D01*
X117644831Y-94415172D01*
X117617188Y-94378758D01*
X117593340Y-94339608D01*
X117571234Y-94295623D01*
X117552106Y-94252091D01*
X117538098Y-94212746D01*
X117528479Y-94174062D01*
X117522520Y-94132509D01*
X117519490Y-94084560D01*
X117518698Y-94041895D01*
X117518721Y-94000363D01*
X117518721Y-94000363D01*
G37*
X117518721Y-94000363D02*
X117519523Y-93968460D01*
X117521370Y-93943125D01*
X117524531Y-93921298D01*
X117529273Y-93899920D01*
X117532031Y-93889495D01*
X117560991Y-93806570D01*
X117600156Y-93730940D01*
X117649029Y-93663059D01*
X117707116Y-93603381D01*
X117773921Y-93552361D01*
X117848949Y-93510453D01*
X117931704Y-93478110D01*
X118000705Y-93459942D01*
X118022615Y-93456787D01*
X118053565Y-93454337D01*
X118089902Y-93452809D01*
X118127705Y-93452418D01*
X118168166Y-93453090D01*
X118200057Y-93454828D01*
X118227494Y-93458096D01*
X118254593Y-93463361D01*
X118280050Y-93469652D01*
X118364312Y-93497631D01*
X118440593Y-93535121D01*
X118508528Y-93581895D01*
X118567756Y-93637728D01*
X118586813Y-93659926D01*
X118636044Y-93730365D01*
X118673713Y-93805954D01*
X118699735Y-93886404D01*
X118714024Y-93971428D01*
X118716497Y-94060736D01*
X118714575Y-94092695D01*
X118701477Y-94176856D01*
X118676736Y-94257246D01*
X118641111Y-94332775D01*
X118595360Y-94402351D01*
X118540241Y-94464881D01*
X118476512Y-94519274D01*
X118404931Y-94564438D01*
X118377536Y-94578157D01*
X118330746Y-94598535D01*
X118287892Y-94613355D01*
X118245336Y-94623364D01*
X118199440Y-94629313D01*
X118146567Y-94631952D01*
X118115005Y-94632265D01*
X118073319Y-94631992D01*
X118041166Y-94630974D01*
X118015388Y-94628915D01*
X117992824Y-94625516D01*
X117970316Y-94620481D01*
X117959430Y-94617620D01*
X117875181Y-94588574D01*
X117798164Y-94549147D01*
X117728532Y-94499428D01*
X117679640Y-94453766D01*
X117644831Y-94415172D01*
X117617188Y-94378758D01*
X117593340Y-94339608D01*
X117571234Y-94295623D01*
X117552106Y-94252091D01*
X117538098Y-94212746D01*
X117528479Y-94174062D01*
X117522520Y-94132509D01*
X117519490Y-94084560D01*
X117518698Y-94041895D01*
X117518721Y-94000363D01*
D13*
X156116642Y-95742753D02*
X156164261Y-95599896D01*
X156164261Y-95361800D01*
X156116642Y-95266562D01*
X156069023Y-95218943D01*
X155973785Y-95171324D01*
X155878547Y-95171324D01*
X155783309Y-95218943D01*
X155735690Y-95266562D01*
X155688070Y-95361800D01*
X155640451Y-95552277D01*
X155592832Y-95647515D01*
X155545213Y-95695134D01*
X155449975Y-95742753D01*
X155354737Y-95742753D01*
X155259499Y-95695134D01*
X155211880Y-95647515D01*
X155164261Y-95552277D01*
X155164261Y-95314181D01*
X155211880Y-95171324D01*
X155164261Y-94837991D02*
X156164261Y-94599896D01*
X155449975Y-94409419D01*
X156164261Y-94218943D01*
X155164261Y-93980848D01*
X156164261Y-93076086D02*
X156164261Y-93647515D01*
X156164261Y-93361801D02*
X155164261Y-93361801D01*
X155307118Y-93457039D01*
X155402356Y-93552277D01*
X155449975Y-93647515D01*
X156016642Y-104942753D02*
X156064261Y-104799896D01*
X156064261Y-104561800D01*
X156016642Y-104466562D01*
X155969023Y-104418943D01*
X155873785Y-104371324D01*
X155778547Y-104371324D01*
X155683309Y-104418943D01*
X155635690Y-104466562D01*
X155588070Y-104561800D01*
X155540451Y-104752277D01*
X155492832Y-104847515D01*
X155445213Y-104895134D01*
X155349975Y-104942753D01*
X155254737Y-104942753D01*
X155159499Y-104895134D01*
X155111880Y-104847515D01*
X155064261Y-104752277D01*
X155064261Y-104514181D01*
X155111880Y-104371324D01*
X155064261Y-104037991D02*
X156064261Y-103799896D01*
X155349975Y-103609419D01*
X156064261Y-103418943D01*
X155064261Y-103180848D01*
X155159499Y-102847515D02*
X155111880Y-102799896D01*
X155064261Y-102704658D01*
X155064261Y-102466562D01*
X155111880Y-102371324D01*
X155159499Y-102323705D01*
X155254737Y-102276086D01*
X155349975Y-102276086D01*
X155492832Y-102323705D01*
X156064261Y-102895134D01*
X156064261Y-102276086D01*
X170102356Y-83611801D02*
X170102356Y-82611801D01*
X170435690Y-83326087D01*
X170769023Y-82611801D01*
X170769023Y-83611801D01*
X171769023Y-83611801D02*
X171197594Y-83611801D01*
X171483308Y-83611801D02*
X171483308Y-82611801D01*
X171388070Y-82754658D01*
X171292832Y-82849896D01*
X171197594Y-82897515D01*
X170102356Y-106311801D02*
X170102356Y-105311801D01*
X170435690Y-106026087D01*
X170769023Y-105311801D01*
X170769023Y-106311801D01*
X171197594Y-105407039D02*
X171245213Y-105359420D01*
X171340451Y-105311801D01*
X171578547Y-105311801D01*
X171673785Y-105359420D01*
X171721404Y-105407039D01*
X171769023Y-105502277D01*
X171769023Y-105597515D01*
X171721404Y-105740372D01*
X171149975Y-106311801D01*
X171769023Y-106311801D01*
X112202356Y-83811801D02*
X112202356Y-82811801D01*
X112535690Y-83526087D01*
X112869023Y-82811801D01*
X112869023Y-83811801D01*
X113249975Y-82811801D02*
X113869023Y-82811801D01*
X113535689Y-83192753D01*
X113678547Y-83192753D01*
X113773785Y-83240372D01*
X113821404Y-83287991D01*
X113869023Y-83383230D01*
X113869023Y-83621325D01*
X113821404Y-83716563D01*
X113773785Y-83764182D01*
X113678547Y-83811801D01*
X113392832Y-83811801D01*
X113297594Y-83764182D01*
X113249975Y-83716563D01*
X112102356Y-106211801D02*
X112102356Y-105211801D01*
X112435690Y-105926087D01*
X112769023Y-105211801D01*
X112769023Y-106211801D01*
X113673785Y-105545134D02*
X113673785Y-106211801D01*
X113435689Y-105164182D02*
X113197594Y-105878468D01*
X113816642Y-105878468D01*
X111264261Y-95297515D02*
X110264261Y-95297515D01*
X110264261Y-94916562D01*
X110311880Y-94821324D01*
X110359499Y-94773705D01*
X110454737Y-94726086D01*
X110597594Y-94726086D01*
X110692832Y-94773705D01*
X110740451Y-94821324D01*
X110788070Y-94916562D01*
X110788070Y-95297515D01*
X110359499Y-94345134D02*
X110311880Y-94297515D01*
X110264261Y-94202277D01*
X110264261Y-93964181D01*
X110311880Y-93868943D01*
X110359499Y-93821324D01*
X110454737Y-93773705D01*
X110549975Y-93773705D01*
X110692832Y-93821324D01*
X111264261Y-94392753D01*
X111264261Y-93773705D01*
X167866642Y-100342753D02*
X167914261Y-100199896D01*
X167914261Y-99961800D01*
X167866642Y-99866562D01*
X167819023Y-99818943D01*
X167723785Y-99771324D01*
X167628547Y-99771324D01*
X167533309Y-99818943D01*
X167485690Y-99866562D01*
X167438070Y-99961800D01*
X167390451Y-100152277D01*
X167342832Y-100247515D01*
X167295213Y-100295134D01*
X167199975Y-100342753D01*
X167104737Y-100342753D01*
X167009499Y-100295134D01*
X166961880Y-100247515D01*
X166914261Y-100152277D01*
X166914261Y-99914181D01*
X166961880Y-99771324D01*
X166914261Y-99437991D02*
X167914261Y-99199896D01*
X167199975Y-99009419D01*
X167914261Y-98818943D01*
X166914261Y-98580848D01*
X166914261Y-98295134D02*
X166914261Y-97676086D01*
X167295213Y-98009420D01*
X167295213Y-97866562D01*
X167342832Y-97771324D01*
X167390451Y-97723705D01*
X167485690Y-97676086D01*
X167723785Y-97676086D01*
X167819023Y-97723705D01*
X167866642Y-97771324D01*
X167914261Y-97866562D01*
X167914261Y-98152277D01*
X167866642Y-98247515D01*
X167819023Y-98295134D01*
M02*
