G04 #@! TF.FileFunction,Soldermask,Bot*
%FSLAX46Y46*%
G04 Gerber Fmt 4.6, Leading zero omitted, Abs format (unit mm)*
G04 Created by KiCad (PCBNEW 4.0.7) date 11/19/17 13:53:13*
%MOMM*%
%LPD*%
G01*
G04 APERTURE LIST*
%ADD10C,0.100000*%
%ADD11R,0.350000X2.500000*%
%ADD12R,1.250000X1.000000*%
%ADD13R,0.700000X1.300000*%
%ADD14C,3.000000*%
%ADD15C,2.500000*%
%ADD16C,1.250000*%
%ADD17C,2.800000*%
%ADD18C,1.400000*%
%ADD19R,4.500000X2.000000*%
%ADD20R,1.300000X0.700000*%
%ADD21R,0.400000X1.200000*%
%ADD22R,1.550000X0.600000*%
%ADD23R,1.000000X1.250000*%
%ADD24C,1.850000*%
G04 APERTURE END LIST*
D10*
D11*
X125411880Y-96559420D03*
X126161880Y-96609420D03*
X126861880Y-96609420D03*
X127561880Y-96609420D03*
X128261880Y-96609420D03*
X128961880Y-96609420D03*
X129661880Y-96609420D03*
X130361880Y-96609420D03*
X131061880Y-96609420D03*
X131761880Y-96609420D03*
X132461880Y-96609420D03*
X133161880Y-96609420D03*
X133861880Y-96609420D03*
X134561880Y-96609420D03*
X135261880Y-96609420D03*
X135961880Y-96609420D03*
X136661880Y-96609420D03*
X137361880Y-96609420D03*
X138061880Y-96609420D03*
X138761880Y-96609420D03*
X139461880Y-96609420D03*
X140161880Y-96609420D03*
X140861880Y-96609420D03*
X141561880Y-96609420D03*
X142261880Y-96609420D03*
X142961880Y-96609420D03*
X143661880Y-96609420D03*
X144361880Y-96609420D03*
X145061880Y-96609420D03*
X145811880Y-96509420D03*
D12*
X147911880Y-99259420D03*
X147911880Y-97259420D03*
X147886880Y-93609420D03*
X147886880Y-95609420D03*
D13*
X123661880Y-92159420D03*
X121761880Y-92159420D03*
D14*
X170911880Y-83259420D03*
D15*
X156211880Y-97759420D03*
X165211880Y-97759420D03*
D14*
X170911880Y-105759420D03*
X112911880Y-83259420D03*
X112911880Y-105759420D03*
D16*
X114411880Y-90959420D03*
X114411880Y-97959420D03*
X114411880Y-95459420D03*
X114411880Y-93459420D03*
D17*
X112211880Y-88659420D03*
X112211880Y-100359420D03*
D18*
X112211880Y-96709420D03*
X112211880Y-92209420D03*
D19*
X140836880Y-104559420D03*
X149336880Y-104559420D03*
D20*
X160661880Y-94059420D03*
X160661880Y-95959420D03*
X151411880Y-93759420D03*
X151411880Y-95659420D03*
X160661880Y-92409420D03*
X160661880Y-90509420D03*
D13*
X135586880Y-100634420D03*
X137486880Y-100634420D03*
X124711880Y-80909420D03*
X122811880Y-80909420D03*
D21*
X125234380Y-100584420D03*
X125869380Y-100584420D03*
X126504380Y-100584420D03*
X127139380Y-100584420D03*
X127774380Y-100584420D03*
X128409380Y-100584420D03*
X129044380Y-100584420D03*
X129679380Y-100584420D03*
X130314380Y-100584420D03*
X130949380Y-100584420D03*
X131584380Y-100584420D03*
X132219380Y-100584420D03*
X132854380Y-100584420D03*
X133489380Y-100584420D03*
X133489380Y-105784420D03*
X132854380Y-105784420D03*
X132219380Y-105784420D03*
X131584380Y-105784420D03*
X130949380Y-105784420D03*
X130314380Y-105784420D03*
X129679380Y-105784420D03*
X129044380Y-105784420D03*
X128409380Y-105784420D03*
X127774380Y-105784420D03*
X127139380Y-105784420D03*
X126504380Y-105784420D03*
X125869380Y-105784420D03*
X125234380Y-105784420D03*
D22*
X126611880Y-84564420D03*
X126611880Y-83294420D03*
X126611880Y-82024420D03*
X126611880Y-80754420D03*
X132011880Y-80754420D03*
X132011880Y-82024420D03*
X132011880Y-83294420D03*
X132011880Y-84564420D03*
D23*
X140061880Y-99209420D03*
X142061880Y-99209420D03*
X121511880Y-90109420D03*
X123511880Y-90109420D03*
D12*
X118911880Y-106159420D03*
X118911880Y-108159420D03*
X120911880Y-106159420D03*
X120911880Y-108159420D03*
D23*
X126111880Y-108209420D03*
X124111880Y-108209420D03*
X121511880Y-94159420D03*
X123511880Y-94159420D03*
X147861880Y-91409420D03*
X145861880Y-91409420D03*
D15*
X160711880Y-99259420D03*
X151411880Y-97759420D03*
X160711880Y-88459420D03*
X169911880Y-97759420D03*
D24*
X120461880Y-103309420D03*
X166221880Y-81669420D03*
X140811880Y-81669420D03*
X138271880Y-81659420D03*
X143351880Y-84209420D03*
X138271880Y-84209420D03*
X123031880Y-84199420D03*
X117961880Y-84209420D03*
X166211880Y-84259420D03*
X148431880Y-84199420D03*
X153521880Y-84209420D03*
X150971880Y-84209420D03*
X134211880Y-107709420D03*
X132161880Y-107709420D03*
M02*
