G04 #@! TF.FileFunction,Soldermask,Top*
%FSLAX46Y46*%
G04 Gerber Fmt 4.6, Leading zero omitted, Abs format (unit mm)*
G04 Created by KiCad (PCBNEW 4.0.7) date 03/22/18 22:29:43*
%MOMM*%
%LPD*%
G01*
G04 APERTURE LIST*
%ADD10C,0.100000*%
%ADD11C,0.150000*%
%ADD12R,2.200000X0.575000*%
%ADD13R,2.000000X0.260000*%
%ADD14R,2.000000X0.410000*%
%ADD15R,2.900000X0.575000*%
%ADD16R,2.500000X1.000000*%
%ADD17R,1.500000X1.000000*%
%ADD18R,2.100000X1.400000*%
%ADD19C,3.000000*%
%ADD20C,1.850000*%
G04 APERTURE END LIST*
D10*
D11*
X123881880Y-87479420D02*
X123881880Y-87879420D01*
X123881880Y-87879420D02*
X127231880Y-87879420D01*
X127231880Y-78679420D02*
X127231880Y-87879420D01*
X125231880Y-78679420D02*
X127231880Y-78679420D01*
X125231880Y-79129420D02*
X125231880Y-78679420D01*
X123956880Y-79129420D02*
X125231880Y-79129420D01*
X120756880Y-79129420D02*
X123931880Y-79129420D01*
X120531880Y-87279420D02*
X120531880Y-79304420D01*
X120756880Y-87479420D02*
X123081880Y-87479420D01*
X120756880Y-79129420D02*
G75*
G03X120531880Y-79304420I-25000J-200000D01*
G01*
X120531880Y-87279420D02*
G75*
G03X120731880Y-87479420I200000J0D01*
G01*
X123881880Y-87479420D02*
G75*
G03X123481880Y-87079420I-400000J0D01*
G01*
X123481880Y-87079420D02*
G75*
G03X123081880Y-87479420I0J-400000D01*
G01*
D12*
X121831880Y-86829420D03*
D13*
X122681880Y-85529420D03*
X122681880Y-85029420D03*
X122681880Y-84529420D03*
X122681880Y-84029420D03*
X122681880Y-83529420D03*
X122681880Y-83029420D03*
X122681880Y-82529420D03*
X122681880Y-82029420D03*
X122681880Y-81529420D03*
X122681880Y-81029420D03*
D14*
X122681880Y-80454420D03*
X122681880Y-86129420D03*
D15*
X122181880Y-79779420D03*
D14*
X122681880Y-86129420D03*
D13*
X122681880Y-85529420D03*
X122681880Y-85029420D03*
X122681880Y-84529420D03*
X122681880Y-84029420D03*
X122681880Y-83529420D03*
X122681880Y-83029420D03*
X122681880Y-82529420D03*
X122681880Y-82029420D03*
X122681880Y-81529420D03*
D12*
X121831880Y-86829420D03*
D15*
X122181880Y-79779420D03*
D14*
X122681880Y-80454420D03*
D13*
X122681880Y-81029420D03*
D16*
X125806880Y-87054420D03*
D17*
X126231880Y-79454420D03*
D18*
X177881880Y-85979420D03*
X168781880Y-85979420D03*
X177981880Y-81379420D03*
X168881880Y-81379420D03*
X177781880Y-95179420D03*
X168681880Y-95179420D03*
X177881880Y-90579420D03*
X168781880Y-90579420D03*
D19*
X188781880Y-72529420D03*
X188781880Y-95029420D03*
X130781880Y-72529420D03*
X130781880Y-95029420D03*
D20*
X138331880Y-92579420D03*
X158681880Y-70939420D03*
X156141880Y-70929420D03*
X161221880Y-73479420D03*
X156141880Y-73479420D03*
X140901880Y-73469420D03*
X135831880Y-73479420D03*
X184081880Y-73529420D03*
X166301880Y-73469420D03*
X171391880Y-73479420D03*
X168841880Y-73479420D03*
D18*
X181031880Y-85979420D03*
X190131880Y-85979420D03*
X180931880Y-90579420D03*
X190031880Y-90579420D03*
D20*
X152081880Y-96979420D03*
X150021880Y-96979420D03*
X185281880Y-95029420D03*
X134281880Y-95029420D03*
M02*
