M48
INCH,TZ
T1C0.016
T2C0.020
T3C0.025
T4C0.110
%
G90
G05
T1
X51422Y-32585
X51422Y-33013
X51983Y-31787
X51983Y-32216
X54741Y-28811
X55930Y-28027
X56198Y-28854
X56627Y-32079
X56646Y-32876
X57257Y-32856
X57572Y-33023
X58205Y-28559
X58579Y-29063
X59796Y-32817
X60473Y-27862
X60485Y-31655
X60977Y-31636
X61381Y-32118
X63064Y-28338
X65948Y-28378
X66961Y-28516
T2
X52867Y-37413
X53477Y-28929
X54461Y-36449
X55473Y-28925
X59064Y-38181
X59875Y-38181
X61473Y-27925
X61473Y-28929
X62473Y-27929
X63473Y-28929
X65473Y-28925
X66473Y-28929
X67477Y-28929
X72473Y-28949
X72946Y-37413
T3
X49385Y-32297
X50822Y-34197
X51078Y-31332
X55495Y-33968
X61833Y-32827
X65977Y-31212
X66627Y-33004
X67355Y-35582
X68068Y-28492
X68261Y-29972
X70111Y-33063
X70418Y-29500
X71016Y-33004
T4
X51489Y-28555
X51489Y-37413
X74324Y-28555
X74324Y-37413
T0
M30
