G04 #@! TF.FileFunction,Paste,Top*
%FSLAX46Y46*%
G04 Gerber Fmt 4.6, Leading zero omitted, Abs format (unit mm)*
G04 Created by KiCad (PCBNEW 4.0.7) date 03/22/18 22:29:43*
%MOMM*%
%LPD*%
G01*
G04 APERTURE LIST*
%ADD10C,0.100000*%
%ADD11R,2.200000X0.575000*%
%ADD12R,2.000000X0.260000*%
%ADD13R,2.000000X0.410000*%
%ADD14R,2.900000X0.575000*%
%ADD15R,2.500000X1.000000*%
%ADD16R,1.500000X1.000000*%
%ADD17R,2.100000X1.400000*%
G04 APERTURE END LIST*
D10*
D11*
X121831880Y-86829420D03*
D12*
X122681880Y-85529420D03*
X122681880Y-85029420D03*
X122681880Y-84529420D03*
X122681880Y-84029420D03*
X122681880Y-83529420D03*
X122681880Y-83029420D03*
X122681880Y-82529420D03*
X122681880Y-82029420D03*
X122681880Y-81529420D03*
X122681880Y-81029420D03*
D13*
X122681880Y-80454420D03*
X122681880Y-86129420D03*
D14*
X122181880Y-79779420D03*
D13*
X122681880Y-86129420D03*
D12*
X122681880Y-85529420D03*
X122681880Y-85029420D03*
X122681880Y-84529420D03*
X122681880Y-84029420D03*
X122681880Y-83529420D03*
X122681880Y-83029420D03*
X122681880Y-82529420D03*
X122681880Y-82029420D03*
X122681880Y-81529420D03*
D11*
X121831880Y-86829420D03*
D14*
X122181880Y-79779420D03*
D13*
X122681880Y-80454420D03*
D12*
X122681880Y-81029420D03*
D15*
X125806880Y-87054420D03*
D16*
X126231880Y-79454420D03*
D17*
X177881880Y-85979420D03*
X168781880Y-85979420D03*
X177981880Y-81379420D03*
X168881880Y-81379420D03*
X177781880Y-95179420D03*
X168681880Y-95179420D03*
X177881880Y-90579420D03*
X168781880Y-90579420D03*
X181031880Y-85979420D03*
X190131880Y-85979420D03*
X180931880Y-90579420D03*
X190031880Y-90579420D03*
M02*
