P1
# CREATOR: GIMP PNM Filter Version 1.1
128 60
1111111111110000000000000000000000000000000000000000000000000000000000
0000000000000000000000000001111111111111111111111111111111111111111000
0000000000000000000000000000000000000000000000000000000000000000000000
0000000000000001111111111111111111111111111111111111100000000000000000
0000000000000000000000000000000000000000000000000000000000000000000000
0001111111111111111111111111111111111110000000000000000000000000000000
0000000000000000000000000000000000000000000000000000000000000111111111
1111111111111111111111111100000000000000000000000000000000000000000000
0000000000000000000000000000000000000000000000000111111111111111111111
1111111111111000000000000000000000000000000000000000000000000000000000
0000000000000000000000000000000000000111111111111111111111111111111111
0000000000000000000000000000000000000000000000000000000000000000000000
0000000000000000000000000000000000000000000000000001111111000000000000
0000000000000000000000000000000000000000000000000000000000000000000000
0000000000000000000000000000000000000000011110000000000000000000000000
0000000000000000000000000000000000000000000000000000000000000000000000
0000000000000000000000000001011110000000000000000000000000000000000000
0000000000000000000000000000000000000000000000000000000000011111111111
1111111111100001001000000000000000000000000000000000000000000000000000
0000000000000000000000000000000000000000000000011111111111111111111110
0001111000000000000000000000000000000000000000000000000000000000000000
0000000000000000000000000000000000011111111111111111111110000101100000
0000000000000000000000000000000000000000000000000000000000000000000000
0000000000000000000000011111111111111111111110000101110000000000000000
0000000000000000000000000000000000000000000000000000000000000000000000
0000000000011111111100000111111110000101100000000000000000000000000000
0000000000000001110000111111000000000111111110000000000000000000000001
1111111100000111111110000111100000000000000000000000000000000000000000
0001110001111111100000001111111111100000000000000000000001111111110000
0111111110000101100000000000000000000000000000000000000000000111000111
0011110000111111000111110000000000000000000001111111110000011111111000
0101110000000000000000000000000000000000000000000111001111000111000011
1100000001111000000000000000000001111111110000011111111000010110000000
0000000000000000000001100111111000000111001111000000000111100000000011
1000000000000000000001111111110000011111111000011110000000000000000000
0000000001111111111110000111000111100000000111000000000001100000000000
0000000001111111111111111111111000010110000000000000000000000000000111
1000011110000111000111111100001111000000000001110000000000000000000111
1111111111111111111000010111000000000000000000000000000111000000111100
0111000001111110001111000000000001110000000000000000000111111111111111
1111111000010110000000000000000000000000000111000000011100011100000001
1111001111000000000001110000000000000000000111111111111111111111100001
1110000000000000000000000000000111000000011100011100000000011110011100
0000000001100000000000000000000111111111111111111111100001011000000000
0000000000000000000111000000011100011100000000001110011110000000001110
0000000000000000000111111111000001111111100001011000000000000000000000
0000000111000000111100011100111000001110001111000000011110000000000000
0000000111111111000001111111100001011000000000000000000000000000011111
0001111000011100111100111100001111110001111100000000000000000000011111
1111000001111111100001111000000000000000000000000000011111111111000001
1100011111111100000011111111111000000000000000000000011111111100000111
1111100001011100000000000000000000000000011101111110000001110000111111
0000000001111111100000000000000000000000011111111100000111111110000101
1000000000000000000000000000011100000000000000000000000000000000000000
0000000000000000000000000000011111111100000111111110000101100000000000
0000000000000000011100000000000000000000000000000000000000000000000000
0000000000000000011111111100000111111110000111100000000000000000000000
0000011100000000000000000000000000000000000000000000000000000000000000
0000011111111111111111111110000101100000000000000000000000000001110000
0000000000000000000000000000000000000000000000000000000000000001111111
1111111111111110000101100000000000000000000000000001110000000000000000
0000000000000000000000000000000000000000000000000001111111111111111111
1110000101111000000000000000000000000001110000000000000000000000000000
0000000000000000000000000000000000000001111111111111111111111000010110
1000000000000000000000000001110000000000000000000000000000000000000000
0000000000000000000000000000000000000000000000000000011110110000000000
0000000000000001110000000000000000000000000000000000000000000000000000
0000000000000000000000000000000000000000010110110000000000000000000000
0001110000000000000000000000000000000000000000000000000000000000000000
0000000000000000000000000000010111111000000000000000000000000111000000
0000000000000000000000000000000000000000000000000000000000000111111111
1111111111111111110110111100000000000000000000000111000000000000000000
0000000000000000000000000000000000000000000000000111010000100011000110
0010001110111110000000000000000000000111000000000000000000000000000000
0000000000000000000000000000000000000111011111111111111111111111111011
1111000000000000000000000111000000000000000000000000000000000000000000
0000000000000000000000000111011010001000100010001000100011111111000000
0000000000000111000000000000000000000000000000000000000000000000000000
0000000000000111111011111111111111111111111111111111100110000000000000
0111000000000000000000000000000000000000000000000000000000000000000000
0111011011111111111111111111111111111111110011111111111111111111111111
1111111111111111111111111111111111111111111111111111111111111101111111
1111111111111111111111111111111100001111111111111111111111111111111111
1111111111111111111111111111111111111111111111111101101111111111111111
1111111111111111111110111000110001000010001100010000100001000110001000
0100011000100001000110001000010001100011101111111111111111111111111111
1111111111110011111111111111111111111111111111111111111111111111111111
1111111111111111111111111111101111111111111111111111111111111111111111
1111000110001000010001100010000100011000100001000010001000010000100010
0001000010001000011111111111111111111111111111111111111111111111111111
1111111111111111111111111111111111111111111111111111111111111111111111
1111111111111111111111111111111111111111111111111111111111111111111111
1111111111111111110111011111111111111111111111111111111111111111111111
1111111111111111111111111111111111111111111111111111111111011111111111
1111110111111111111111111111111111111111111111111111111111111111111111
1111111111111111111111111111111111111111111111011111111111111111011111
1111111111111111111111111111111111111111111111111111111111111111111111
1111111111111111111111111111111111011111001100011000010001100001000011
1111111111111111111111111111111111111111111111111111111111111111111111
1111111111111111111111011110110111101011011101101101011011111111111111
1111111111111111111111111111111111111111111111111111111111111111111111
1111111111011110110100001011011101101101011011111111111111111111111111
1111111111111111111111111111111111111111111111111111111111111111111101
1110110101101011011101101101011011111111111111111111111111111111111111
1111111111111111111111111111111111111111111111111111111100000100110000
1000010000101101000011101101011111111111111111111111111111111111111111
1111111111111111111111111111111111111111111111111111111111111111111111
1111111011111111111111111111111111111111111111111111111111111111111111
1111111111111111111111111111111111111111111111111111111111111100011111
11111111111111111111111111111111111111111111111111